<svg xmlns="http://www.w3.org/2000/svg" width="400" height="400" viewBox="0 0 400 400">
  <rect width="400" height="400" fill="#0A2010"/>
  <polygon points="369.0,200.0 369.3,201.5 368.4,202.9 366.8,204.4 365.0,205.8 363.3,207.1 361.9,208.5 360.8,209.8 359.8,211.2 358.6,212.5 357.5,213.8 356.7,215.1 356.3,216.4 356.3,217.8 356.5,219.2 356.1,220.6 354.8,221.8 352.1,222.7 348.5,223.5 344.3,224.1 340.4,224.8 337.4,225.5 335.4,226.3 334.3,227.3 333.6,228.4 332.9,229.5 332.0,230.5 331.0,231.5 330.1,232.4 329.5,233.5 329.1,234.6 328.7,235.7 328.1,236.7 327.0,237.6 325.5,238.4 324.0,239.1 322.8,239.9 322.1,240.8 321.7,241.9 321.3,243.0 320.4,243.8 318.7,244.4 316.1,244.6 313.2,244.6 310.7,244.7 309.2,245.2 309.1,246.3 310.2,247.9 312.1,249.9 314.5,252.2 317.1,254.6 319.6,257.0 322.2,259.6 324.8,262.2 327.4,264.9 329.5,267.4 331.0,269.6 331.4,271.4 331.0,272.6 330.1,273.6 329.1,274.5 328.4,275.6 328.2,277.0 328.1,278.5 327.7,279.8 326.6,280.6 324.6,280.9 321.8,280.6 318.9,280.2 316.1,279.8 313.9,279.7 312.2,280.1 310.9,280.6 309.6,281.1 308.2,281.5 306.5,281.7 304.8,281.8 303.1,282.0 301.4,282.1 299.7,282.2 297.6,281.9 294.9,281.1 291.9,279.8 288.7,278.5 286.0,277.5 284.3,277.2 283.6,278.0 284.0,279.8 285.0,282.1 286.1,284.6 286.8,286.8 287.1,288.7 287.2,290.2 287.1,291.8 287.1,293.4 287.2,295.1 287.2,296.8 286.8,298.2 286.1,299.1 285.0,299.5 283.7,299.8 282.4,300.0 281.2,300.3 280.0,300.5 278.5,300.5 276.6,299.9 274.3,298.6 271.8,297.0 269.4,295.5 267.6,294.8 266.7,295.2 266.5,296.8 267.0,299.3 267.5,302.0 267.9,304.6 268.0,306.7 267.6,308.2 267.1,309.5 266.4,310.6 265.8,311.6 265.0,312.5 264.0,313.0 262.7,313.2 261.4,313.0 260.1,313.0 259.0,313.4 258.4,314.5 258.0,316.2 257.6,318.1 257.1,319.7 256.3,320.6 255.1,320.8 253.7,320.7 252.5,320.7 251.5,321.3 250.8,322.7 250.4,324.7 250.0,326.9 249.4,328.7 248.5,329.8 247.4,330.3 246.2,330.4 244.9,330.4 243.6,330.4 242.4,330.5 241.1,330.4 239.8,330.1 238.5,329.9 237.3,330.2 236.4,331.4 235.9,333.8 235.5,337.4 235.3,341.7 235.0,345.9 234.5,349.4 233.6,351.6 232.5,352.7 231.1,353.0 229.7,353.0 228.3,352.9 226.9,352.8 225.5,352.3 223.9,351.0 222.2,348.9 220.5,345.8 218.7,342.2 217.0,338.3 215.3,334.3 213.7,330.2 212.1,325.7 210.6,320.7 209.1,315.3 207.7,310.0 206.4,305.3 205.3,301.6 204.3,299.2 203.4,297.7 202.5,296.5 201.7,294.8 200.8,292.2 200.0,288.6 199.3,284.4 198.6,280.1 198.0,276.2 197.5,272.8 196.9,270.0 196.5,267.6 196.0,265.3 195.6,263.4 195.1,262.0 194.6,261.4 194.1,261.5 193.5,262.2 192.8,262.9 192.3,263.1 191.8,262.6 191.3,261.5 191.0,260.4 190.5,259.7 190.0,259.7 189.4,260.3 188.7,261.1 188.0,261.6 187.6,261.1 187.3,259.6 187.3,257.4 187.3,255.0 187.3,252.8 187.2,251.2 187.0,250.2 186.7,249.7 186.2,249.6 185.7,250.0 184.9,251.0 183.8,252.9 182.5,255.6 180.9,258.9 179.2,262.1 177.8,264.6 176.7,265.9 176.0,266.0 175.6,265.3 175.3,264.3 174.9,263.6 174.4,263.3 173.8,263.3 173.2,263.2 172.8,262.5 172.7,261.2 172.9,259.4 173.3,257.3 173.6,255.4 173.8,253.8 173.8,252.5 173.8,251.3 173.9,250.2 173.9,249.0 173.8,248.2 173.5,247.9 172.7,248.3 171.5,249.3 170.2,250.5 169.1,251.4 168.5,251.4 168.5,250.4 168.9,248.8 169.4,247.2 169.5,246.0 169.1,245.8 168.1,246.5 166.5,247.8 164.7,249.5 162.8,251.3 160.8,253.0 158.7,254.8 156.5,256.7 154.1,258.8 151.7,260.8 149.6,262.3 148.0,263.1 146.9,263.2 146.3,262.8 145.9,262.3 145.3,261.8 144.5,261.6 143.7,261.5 143.1,261.0 143.2,259.9 144.1,257.9 145.7,255.2 147.7,252.3 149.4,249.7 150.5,247.8 150.8,246.7 150.4,246.3 149.4,246.3 148.2,246.7 146.7,247.2 144.9,247.9 142.8,248.9 140.4,250.0 137.9,251.2 135.6,252.1 134.0,252.5 133.1,252.2 132.8,251.6 132.4,250.9 131.7,250.5 130.2,250.7 128.0,251.4 125.3,252.3 122.6,253.2 120.4,253.7 118.7,253.8 117.3,253.7 116.0,253.5 114.3,253.6 112.1,253.9 109.6,254.3 106.9,254.8 104.5,255.2 102.2,255.3 100.1,255.4 98.0,255.4 95.8,255.4 93.6,255.4 91.9,255.1 90.9,254.4 90.9,253.2 91.6,251.7 92.6,250.1 93.2,248.7 92.7,247.8 91.0,247.4 88.3,247.4 85.3,247.5 82.4,247.5 80.0,247.3 78.3,246.7 77.1,246.0 76.1,245.1 75.3,244.1 75.0,243.1 75.2,241.7 76.4,240.2 78.3,238.4 80.9,236.4 83.6,234.5 86.2,232.6 88.7,230.9 91.3,229.1 94.4,227.3 98.4,225.3 103.2,223.2 108.3,221.2 113.0,219.3 116.7,217.7 119.0,216.5 119.9,215.6 120.0,214.8 119.6,214.2 119.4,213.5 119.4,212.8 119.5,212.0 119.6,211.3 119.5,210.6 119.4,209.9 119.5,209.2 119.9,208.4 120.6,207.6 121.1,206.9 121.0,206.2 119.9,205.6 117.5,205.0 114.3,204.5 110.9,203.9 107.9,203.2 105.7,202.5 104.3,201.7 103.2,200.8 101.9,200.0 100.2,199.1 97.9,198.2 95.5,197.3 93.3,196.3 91.8,195.3 91.0,194.3 90.8,193.3 90.8,192.4 91.0,191.4 91.3,190.5 91.9,189.6 92.9,188.7 94.2,187.9 95.4,187.2 95.9,186.3 95.2,185.3 93.0,184.0 89.5,182.5 85.2,180.8 81.1,179.0 77.6,177.3 75.1,175.7 73.4,174.2 72.1,172.8 70.9,171.4 69.5,169.9 68.1,168.3 67.0,166.8 66.3,165.4 66.2,164.1 66.3,162.9 66.3,161.7 66.1,160.3 65.6,158.9 65.3,157.5 65.3,156.2 65.9,155.1 66.8,154.1 67.6,153.1 67.7,151.8 66.7,150.2 64.7,148.1 62.1,145.7 59.6,143.3 57.6,141.0 56.7,139.2 56.6,137.7 57.1,136.4 57.8,135.2 58.3,133.9 58.6,132.5 58.8,131.2 59.1,129.8 59.4,128.4 59.4,126.8 58.9,125.0 57.8,122.8 56.2,120.3 54.5,117.7 53.3,115.3 53.0,113.4 53.8,112.1 55.3,111.3 57.1,110.7 58.8,110.0 60.1,109.2 61.3,108.2 62.6,107.3 64.5,106.9 67.3,107.1 70.7,107.8 74.6,108.9 78.6,110.1 82.2,111.2 85.5,112.1 88.4,112.8 91.0,113.3 93.2,113.5 94.9,113.4 95.8,112.5 95.6,110.8 94.5,108.3 92.9,105.2 91.3,102.1 90.2,99.4 89.9,97.3 90.4,96.0 91.2,94.9 92.0,93.8 92.3,92.3 92.3,90.4 92.1,88.2 91.9,86.1 92.0,84.1 92.4,82.5 93.0,81.1 93.5,79.7 94.0,78.1 94.4,76.4 95.0,74.8 95.8,73.6 97.0,72.8 98.4,72.2 99.7,71.6 100.8,70.7 101.6,69.4 102.2,67.8 103.0,66.4 104.3,65.9 106.5,66.4 109.4,68.1 112.7,70.6 116.2,73.4 119.3,75.8 122.0,77.6 124.2,78.8 126.2,79.6 128.0,80.2 129.7,80.7 131.3,81.0 132.7,81.1 134.0,80.9 135.2,80.6 136.5,80.6 138.2,81.2 140.3,82.9 142.9,85.4 145.6,88.5 148.3,91.5 150.7,94.2 152.8,96.4 154.8,98.5 156.9,100.9 159.3,104.1 162.0,108.2 164.8,112.9 167.5,117.5 169.9,121.7 171.9,125.0 173.5,127.2 174.8,128.7 175.8,129.6 176.6,130.1 177.3,130.0 177.7,129.3 178.0,127.9 178.1,126.1 178.3,124.2 178.6,122.9 179.2,122.4 180.1,122.9 181.0,123.9 181.9,124.8 182.7,125.0 183.2,124.1 183.5,122.4 183.8,120.2 184.1,118.2 184.6,116.7 185.2,115.8 185.8,115.2 186.5,114.5 187.1,113.7 187.7,112.6 188.4,111.7 189.1,111.2 189.9,111.1 190.7,111.3 191.5,111.7 192.3,111.8 193.0,111.7 193.8,111.7 194.6,112.3 195.5,113.8 196.3,116.2 197.2,119.3 198.0,122.2 198.7,124.2 199.3,124.8 200.0,123.7 200.7,121.5 201.4,118.7 202.2,115.7 203.0,112.8 203.9,110.0 204.9,107.1 205.9,104.2 206.9,101.4 208.0,98.9 209.0,97.2 210.0,96.3 210.9,95.9 211.9,95.8 212.8,95.4 213.9,94.5 215.0,93.3 216.1,92.3 217.1,92.0 218.0,92.6 218.7,94.2 219.3,96.1 219.9,97.8 220.6,98.6 221.6,98.5 222.7,97.7 223.9,96.6 225.0,95.7 226.1,95.2 227.1,95.1 228.0,95.4 228.9,95.8 229.7,96.5 230.3,97.7 230.7,99.6 230.8,102.3 230.7,105.5 230.6,108.6 230.6,111.0 231.0,112.4 231.7,112.8 232.7,112.6 233.6,112.4 234.4,112.8 234.8,113.9 234.9,115.8 234.9,117.9 234.8,119.9 234.9,121.6 235.1,123.0 235.2,124.6 235.1,126.5 234.7,128.8 234.1,131.6 233.4,134.4 232.7,137.1 232.1,139.6 231.4,142.1 230.6,144.9 229.5,147.9 228.3,151.0 227.3,153.7 226.8,155.5 227.1,155.8 228.3,154.7 230.4,152.3 232.9,149.3 235.5,146.4 237.8,143.9 239.9,142.0 241.6,140.6 243.3,139.3 245.0,138.0 246.8,136.8 248.4,135.7 249.8,135.0 251.0,134.8 251.9,134.8 252.8,134.8 253.9,134.6 255.3,134.1 256.6,133.7 257.7,133.6 258.3,134.1 258.2,135.3 257.7,137.1 257.1,138.8 256.8,140.2 257.0,141.0 257.8,141.2 258.7,141.3 259.3,141.7 259.3,142.8 258.5,144.5 257.1,146.8 255.4,149.3 253.5,151.8 251.7,154.2 250.0,156.6 248.2,158.9 246.4,161.1 244.8,163.0 243.9,164.5 243.8,165.1 244.7,165.1 246.4,164.4 248.2,163.7 249.8,163.2 250.6,163.2 250.7,163.8 250.3,164.8 249.9,165.7 249.9,166.4 250.2,166.8 250.8,167.0 251.2,167.4 251.2,168.0 250.5,169.0 249.4,170.3 248.2,171.6 247.1,172.8 246.3,173.8 245.7,174.7 245.2,175.5 244.8,176.2 244.6,176.8 245.1,177.0 246.7,176.7 249.5,175.9 253.3,174.6 257.7,173.1 261.8,171.8 265.2,171.0 267.4,170.7 268.9,170.8 269.9,171.0 271.1,171.3 272.6,171.4 274.6,171.3 276.8,171.3 278.9,171.3 280.8,171.4 282.6,171.5 284.6,171.7 286.8,171.8 289.3,171.8 291.8,171.9 294.0,172.2 295.5,172.6 296.5,173.2 297.2,174.0 298.2,174.6 299.8,175.1 302.1,175.5 304.8,175.8 307.3,176.2 308.9,176.8 309.5,177.7 309.2,178.8 308.5,179.9 308.1,180.9 308.3,181.9 309.5,182.7 311.5,183.3 314.2,184.0 317.3,184.6 321.1,185.1 325.5,185.7 330.7,186.3 336.6,186.9 342.5,187.5 348.0,188.4 352.5,189.3 355.7,190.5 357.9,191.7 359.6,193.0 361.3,194.4 363.3,195.7 365.6,197.1 367.7,198.5" fill="#C8A020" stroke="rgba(240,232,208,0.5)" stroke-width="1"/>
</svg>