<svg xmlns="http://www.w3.org/2000/svg" viewBox="0 0 400 400" width="400" height="400">
  <rect width="400" height="400" fill="#0C0A06"/>
  <!-- wheat: m=20, spiky star -->
  <path d="M235.0,50.0L223.3,48.8L200.0,50.0L200.0,50.0L200.0,50.0L200.0,50.0L200.0,50.0L200.0,50.0L200.0,50.0L200.0,50.0L200.0,50.0L219.6,37.3L228.3,29.4L218.1,35.3L200.0,50.0L200.0,50.0L200.0,50.0L200.0,50.0L200.0,50.0L200.0,50.0L200.0,50.0L200.0,50.0L200.0,50.0L208.4,28.2L210.8,16.7L206.0,27.5L200.0,50.0L200.0,50.0L200.0,50.0L200.0,50.0L200.0,50.0L200.0,50.0L200.0,50.0L200.0,50.0L200.0,50.0L194.0,27.5L189.2,16.7L191.6,28.2L200.0,50.0L200.0,50.0L200.0,50.0L200.0,50.0L200.0,50.0L200.0,50.0L200.0,50.0L200.0,50.0L200.0,50.0L181.9,35.3L171.7,29.4L180.4,37.3L200.0,50.0L200.0,50.0L200.0,50.0L200.0,50.0L200.0,50.0L200.0,50.0L200.0,50.0L200.0,50.0L200.0,50.0L176.7,48.8L165.0,50.0L176.7,51.2L200.0,50.0L200.0,50.0L200.0,50.0L200.0,50.0L200.0,50.0L200.0,50.0L200.0,50.0L200.0,50.0L200.0,50.0L180.4,62.7L171.7,70.6L181.9,64.7L200.0,50.0L200.0,50.0L200.0,50.0L200.0,50.0L200.0,50.0L200.0,50.0L200.0,50.0L200.0,50.0L200.0,50.0L191.6,71.8L189.2,83.3L194.0,72.5L200.0,50.0L200.0,50.0L200.0,50.0L200.0,50.0L200.0,50.0L200.0,50.0L200.0,50.0L200.0,50.0L200.0,50.0L206.0,72.5L210.8,83.3L208.4,71.8L200.0,50.0L200.0,50.0L200.0,50.0L200.0,50.0L200.0,50.0L200.0,50.0L200.0,50.0L200.0,50.0L200.0,50.0L218.1,64.7L228.3,70.6L219.6,62.7L200.0,50.0L200.0,50.0L200.0,50.0L200.0,50.0L200.0,50.0L200.0,50.0L200.0,50.0L200.0,50.0L200.0,50.0L223.3,51.2Z" fill="#D4A820" opacity="0.9"/>
  <text x="200.0" y="95" text-anchor="middle" font-family="serif" font-size="9" fill="#D4A820" opacity="0.9">חיטה</text>
  <!-- barley: m=16, cross-shaped -->
  <path d="M352.3,106.5L325.0,105.7L317.3,106.5L323.3,101.6L343.2,83.1L342.0,81.7L340.7,80.5L322.2,100.5L317.3,106.4L318.1,98.8L319.1,71.6L317.3,71.5L315.4,71.6L316.5,98.8L317.3,106.4L312.4,100.5L293.9,80.5L292.5,81.7L291.3,83.1L311.3,101.6L317.2,106.4L309.6,105.7L282.4,104.6L282.3,106.5L282.4,108.3L309.6,107.3L317.2,106.5L311.3,111.4L291.3,129.9L292.5,131.2L293.9,132.4L312.4,112.5L317.2,106.5L316.5,114.2L315.4,141.4L317.3,141.5L319.1,141.4L318.1,114.2L317.3,106.5L322.2,112.5L340.7,132.4L342.0,131.2L343.2,129.9L323.3,111.4L317.3,106.5L325.0,107.3L352.2,108.3Z" fill="#C8963A" opacity="0.9"/>
  <text x="317.3" y="153" text-anchor="middle" font-family="serif" font-size="9" fill="#C8963A" opacity="0.9">שעורה</text>
  <!-- grapes: m=5, rounded pentagon -->
  <path d="M374.6,215.0L374.6,212.8L372.5,212.1L365.5,214.1L359.7,216.7L354.5,219.0L351.6,219.5L348.7,217.8L346.2,214.0L342.0,206.4L337.5,200.8L335.4,200.1L334.1,201.9L333.9,209.1L334.5,215.4L335.1,221.0L335.0,223.2L333.8,225.3L331.1,226.6L325.5,227.8L315.6,230.2L311.2,233.4L312.5,235.1L319.3,237.6L325.5,238.9L331.1,240.1L333.8,241.5L335.0,244.5L334.5,251.4L333.9,257.7L334.1,264.9L335.4,266.7L337.5,266.0L342.0,260.3L346.2,252.8L348.7,248.9L351.6,247.2L354.5,247.8L359.7,250.1L365.5,252.7L372.5,254.6L374.6,254.0L374.6,251.8L370.5,245.8L366.3,241.1L362.5,236.8L361.0,234.2L361.0,233.4L361.8,230.9L366.3,225.7L370.5,221.0Z" fill="#6030A0" opacity="0.9"/>
  <text x="346.2" y="278" text-anchor="middle" font-family="serif" font-size="9" fill="#6030A0" opacity="0.9">גפן</text>
  <!-- figs: m=3, trefoil -->
  <path d="M300.1,335.1L296.1,333.5L294.6,332.0L292.6,329.3L290.0,325.6L287.4,322.2L284.7,319.3L282.8,317.5L280.7,315.8L278.6,314.4L275.2,312.5L271.6,311.0L267.7,309.9L263.7,309.1L259.5,308.7L254.8,308.3L251.0,307.5L247.6,304.8L248.2,309.1L247.0,312.8L245.6,315.7L244.3,318.4L243.2,321.0L242.3,323.5L241.5,326.1L241.2,327.4L240.7,330.0L240.4,333.8L240.3,335.1L240.4,336.4L240.7,340.3L241.2,342.9L241.9,345.5L243.2,349.3L244.3,351.9L245.6,354.6L247.0,357.5L248.2,361.2L247.6,365.5L251.0,362.8L254.8,362.0L259.5,361.6L263.7,361.2L267.7,360.4L271.6,359.3L275.2,357.8L278.6,355.9L280.7,354.4L282.8,352.8L284.7,351.0L287.4,348.0L290.0,344.7L292.6,341.0L294.6,338.3L296.1,336.8Z" fill="#8B5A2B" opacity="0.9"/>
  <text x="265.1" y="380" text-anchor="middle" font-family="serif" font-size="9" fill="#8B5A2B" opacity="0.9">תאנה</text>
  <!-- pomegranate: m=8, octagon-ish -->
  <path d="M169.9,335.1L169.5,333.3L169.1,331.5L168.2,328.1L167.1,324.7L165.8,321.4L164.3,318.2L162.6,315.0L160.7,311.9L158.1,309.4L155.0,307.5L151.9,305.8L148.7,304.3L145.4,303.0L142.0,301.8L138.5,300.9L134.9,300.1L131.3,300.9L127.8,301.8L124.5,303.0L121.2,304.3L118.0,305.8L114.8,307.5L111.7,309.4L109.2,311.9L107.2,315.0L105.5,318.2L104.0,321.4L102.7,324.7L101.6,328.1L100.7,331.5L100.3,333.3L99.9,335.1L100.3,337.0L100.7,338.7L101.6,342.2L102.7,345.6L104.0,348.9L105.5,352.1L107.2,355.2L109.2,358.3L111.7,360.9L114.8,362.8L118.0,364.5L121.2,366.0L124.5,367.3L127.8,368.4L131.3,369.4L134.9,370.1L138.5,369.4L142.0,368.4L145.4,367.3L148.7,366.0L151.9,364.5L155.0,362.8L158.1,360.9L160.7,359.9L162.6,355.2L164.3,352.1L165.8,348.9L167.1,345.6L168.2,342.2L169.1,338.7L169.5,337.0Z" fill="#C03020" opacity="0.9"/>
  <text x="134.9" y="380" text-anchor="middle" font-family="serif" font-size="9" fill="#C03020" opacity="0.9">רימון</text>
  <!-- olive: m=2, ellipse-leaf -->
  <path d="M70.9,233.4L70.8,224.7L70.5,218.3L69.9,213.5L69.0,209.8L67.7,206.0L65.7,202.3L64.3,200.8L61.0,199.1L57.3,199.9L53.8,203.1L51.1,208.0L49.5,213.2L48.7,217.8L48.5,221.6L48.5,224.5L48.9,226.6L49.4,229.5L49.8,230.8L50.1,232.0L50.3,232.8L50.4,233.4L50.3,234.3L50.1,235.0L49.8,236.0L49.4,237.3L48.9,240.1L48.5,243.6L48.5,246.9L49.5,253.6L51.1,258.7L53.8,263.6L57.3,266.9L61.0,267.6L64.3,265.9L65.7,264.4L67.7,260.8L69.0,256.9L69.9,253.3L70.5,248.4L70.8,243.2L70.9,239.9L70.9,237.0L70.9,234.3Z" fill="#4A7040" opacity="0.9"/>
  <text x="53.8" y="278" text-anchor="middle" font-family="serif" font-size="9" fill="#4A7040" opacity="0.9">זית</text>
  <!-- dates: m=4, rounded quad -->
  <path d="M105.4,81.3L104.1,87.2L102.7,90.3L101.1,93.1L99.6,95.5L98.3,97.5L97.1,99.2L96.1,100.5L94.6,102.6L93.7,104.1L93.1,105.4L93.0,106.5L93.1,107.6L93.7,108.8L94.6,110.3L96.1,112.4L97.1,113.8L98.3,115.4L99.6,117.4L101.1,119.8L102.7,122.6L104.1,125.8L105.2,128.9L105.4,131.7L103.3,134.7L99.1,134.8L94.9,133.8L91.3,132.8L86.7,131.8L82.7,131.5L78.7,131.8L74.2,132.8L70.6,133.8L66.4,134.8L62.2,135.0L60.7,134.7L60.0,131.7L60.3,128.9L61.3,125.8L62.8,122.6L64.3,119.8L65.8,117.4L67.2,115.4L68.4,113.8L69.3,112.4L70.2,111.3L71.4,109.5L72.1,108.2L72.4,107.0L72.5,106.5L72.4,105.9L72.1,104.8L71.4,103.4L70.2,101.7L69.3,100.5L68.4,99.2L67.2,97.5L65.8,95.5L64.3,93.1L62.8,90.3L61.3,87.2L60.0,84.0L60.7,81.3L62.2,79.9L66.4,78.2L70.6,79.2L74.2,80.2L78.7,81.1L82.7,81.4L86.7,81.1L91.3,80.2L94.9,79.2L99.1,78.2L103.3,79.9Z" fill="#A06010" opacity="0.9"/>
  <text x="82.7" y="153" text-anchor="middle" font-family="serif" font-size="9" fill="#A06010" opacity="0.9">תמר</text>
  <!-- title -->
  <text x="200" y="385" text-anchor="middle" font-family="serif" font-size="10" fill="#C8C0A0" opacity="0.6">שבעת המינים</text>
</svg>
