<svg xmlns="http://www.w3.org/2000/svg" width="400" height="400" viewBox="0 0 400 400">
  <rect width="400" height="400" fill="#07080F"/>

  <!-- Electric blue traces -->
  <g stroke="#4B8FD4" stroke-width="1" fill="none" opacity="0.85">
    <path d="M200,200 C230,160 270,120 240,80 C210,40 160,60 140,100 C120,140 150,180 180,160 C210,140 220,100 200,80 C180,60 140,80 130,120 C120,160 150,200 190,210 C230,220 260,190 250,160"/>
    <path d="M200,200 C160,230 120,260 100,240 C80,220 90,180 110,160 C130,140 160,150 170,170 C180,190 160,210 140,200 C120,190 110,160 130,140 C150,120 180,130 200,150"/>
    <path d="M200,200 C240,240 260,280 240,310 C220,340 180,330 160,300 C140,270 160,240 180,250 C200,260 200,290 180,300 C160,310 140,290 150,270 C160,250 185,245 195,260"/>
  </g>

  <!-- Violet traces -->
  <g stroke="#8B5CF6" stroke-width="1" fill="none" opacity="0.85">
    <path d="M200,200 C180,150 160,100 180,70 C200,40 240,55 250,90 C260,125 230,155 210,140 C190,125 195,90 215,80 C235,70 255,95 245,120 C235,145 210,150 200,135"/>
    <path d="M200,200 C250,180 300,170 320,190 C340,210 325,250 295,260 C265,270 240,245 250,225 C260,205 290,205 295,225 C300,245 280,260 260,250 C240,240 235,215 250,205"/>
    <path d="M200,200 C170,250 150,300 165,330 C180,360 220,355 235,320 C250,285 230,260 210,270 C190,280 185,310 205,315 C225,320 240,295 230,275 C220,255 200,255 200,270"/>
  </g>

  <!-- White/pale traces -->
  <g stroke="#F0EFEA" stroke-width="1" fill="none" opacity="0.6">
    <path d="M200,200 C225,175 255,165 270,180 C285,195 275,225 255,230 C235,235 220,215 230,200 C240,185 265,185 268,200 C271,215 253,228 238,222 C223,216 218,200 228,190"/>
    <path d="M200,200 C175,175 155,155 160,135 C165,115 190,110 205,125 C220,140 215,165 200,165 C185,165 175,145 185,132 C195,119 215,120 220,135 C225,150 212,163 200,160"/>
    <path d="M200,200 C220,225 230,255 215,270 C200,285 178,278 172,260 C166,242 180,228 193,235 C206,242 206,262 194,266 C182,270 170,255 176,242 C182,229 196,228 200,240"/>
  </g>

  <!-- Gold traces -->
  <g stroke="#D4A017" stroke-width="1" fill="none" opacity="0.85">
    <path d="M200,200 C145,195 100,185 85,160 C70,135 90,105 120,100 C150,95 170,120 160,140 C150,160 125,160 120,142 C115,124 135,108 155,112 C175,116 182,138 170,152"/>
    <path d="M200,200 C255,215 300,240 305,270 C310,300 285,320 258,312 C231,304 220,278 235,263 C250,248 275,255 272,272 C269,289 248,295 233,285 C218,275 218,255 232,248"/>
    <path d="M200,200 C190,150 195,100 215,85 C235,70 258,85 260,110 C262,135 242,152 225,145 C208,138 205,115 220,105 C235,95 252,108 248,125 C244,142 228,148 218,140"/>
  </g>

  <!-- Copper traces -->
  <g stroke="#C8702A" stroke-width="1" fill="none" opacity="0.85">
    <path d="M200,200 C150,185 110,160 108,130 C106,100 135,82 162,88 C189,94 198,122 185,138 C172,154 148,148 148,130 C148,112 168,100 185,108 C202,116 204,138 192,148"/>
    <path d="M200,200 C240,195 278,202 290,222 C302,242 288,268 265,270 C242,272 228,252 238,236 C248,220 270,222 270,238 C270,254 252,262 238,255 C224,248 222,230 234,224"/>
    <path d="M200,200 C185,245 178,292 196,312 C214,332 242,324 250,298 C258,272 240,252 222,260 C204,268 200,292 216,298 C232,304 246,285 238,270 C230,255 212,255 210,268"/>
  </g>

  <!-- Deep rose traces -->
  <g stroke="#C2547A" stroke-width="1" fill="none" opacity="0.85">
    <path d="M200,200 C230,175 268,162 282,178 C296,194 282,225 260,228 C238,231 225,210 238,198 C251,186 272,190 270,206 C268,222 250,228 238,220 C226,212 228,196 240,192"/>
    <path d="M200,200 C165,222 135,252 138,278 C141,304 170,315 194,304 C218,293 220,268 206,258 C192,248 172,258 176,274 C180,290 200,294 212,282 C224,270 220,252 208,248"/>
    <path d="M200,200 C220,168 248,148 268,158 C288,168 288,198 270,210 C252,222 232,210 236,194 C240,178 260,174 266,188 C272,202 258,216 244,214 C230,212 225,198 234,190"/>
  </g>

  <!-- Pale cyan traces -->
  <g stroke="#7EC8D4" stroke-width="1" fill="none" opacity="0.85">
    <path d="M200,200 C175,170 162,138 175,115 C188,92 218,90 232,110 C246,130 235,158 218,158 C201,158 190,135 202,122 C214,109 235,115 234,132 C233,149 216,156 205,148"/>
    <path d="M200,200 C238,212 268,235 270,260 C272,285 250,302 228,295 C206,288 198,265 212,252 C226,239 248,246 244,262 C240,278 222,282 211,272 C200,262 202,244 214,240"/>
    <path d="M200,200 C188,248 185,298 202,320 C219,342 246,334 252,306 C258,278 240,258 222,266 C204,274 202,300 218,305 C234,310 248,290 240,274 C232,258 214,258 212,272"/>
  </g>
</svg>
