<svg xmlns="http://www.w3.org/2000/svg" width="400" height="400" viewBox="0 0 400 400">
  <rect width="400" height="400" fill="#0A1840"/>
  <path d="M 190.86 390.00 L 209.14 390.00 L 218.28 374.17 L 200.00 374.17 L 190.86 358.33 L 209.14 358.33 L 227.42 358.33 L 236.57 374.17 L 254.85 374.17 L 263.99 358.33 L 273.13 342.50 L 254.85 342.50 L 245.71 358.33 L 236.57 342.50 L 245.71 326.67 L 236.57 310.83 L 218.28 310.83 L 200.00 310.83 L 209.14 326.67 L 227.42 326.67 L 218.28 342.50 L 200.00 342.50 L 190.86 326.67 L 172.58 326.67 L 181.72 342.50 L 172.58 358.33 L 163.43 342.50 L 154.29 326.67 L 163.43 310.83 L 181.72 310.83 L 190.86 295.00 L 172.58 295.00 L 163.43 279.17 L 181.72 279.17 L 200.00 279.17 L 209.14 295.00 L 227.42 295.00 L 236.57 279.17 L 218.28 279.17 L 209.14 263.33 L 227.42 263.33 L 245.71 263.33 L 254.85 279.17 L 245.71 295.00 L 254.85 310.83 L 263.99 326.67 L 273.13 310.83 L 263.99 295.00 L 282.27 295.00 L 291.41 310.83 L 309.70 310.83 L 318.84 295.00 L 300.56 295.00 L 291.41 279.17 L 309.70 279.17 L 327.98 279.17 L 337.12 295.00 L 355.40 295.00 L 364.54 279.17 L 373.69 263.33 L 355.40 263.33 L 346.26 279.17 L 337.12 263.33 L 346.26 247.50 L 364.54 247.50 L 373.69 231.67 L 382.83 215.83 L 364.54 215.83 L 355.40 231.67 L 346.26 215.83 L 355.40 200.00 L 346.26 184.17 L 327.98 184.17 L 309.70 184.17 L 318.84 200.00 L 337.12 200.00 L 327.98 215.83 L 309.70 215.83 L 300.56 231.67 L 309.70 247.50 L 318.84 231.67 L 337.12 231.67 L 327.98 247.50 L 318.84 263.33 L 300.56 263.33 L 291.41 247.50 L 273.13 247.50 L 282.27 263.33 L 273.13 279.17 L 263.99 263.33 L 254.85 247.50 L 263.99 231.67 L 282.27 231.67 L 291.41 215.83 L 300.56 200.00 L 282.27 200.00 L 273.13 215.83 L 263.99 200.00 L 273.13 184.17 L 263.99 168.33 L 245.71 168.33 L 254.85 184.17 L 245.71 200.00 L 236.57 184.17 L 227.42 168.33 L 236.57 152.50 L 227.42 136.67 L 209.14 136.67 L 190.86 136.67 L 200.00 152.50 L 218.28 152.50 L 209.14 168.33 L 190.86 168.33 L 181.72 152.50 L 163.43 152.50 L 145.15 152.50 L 154.29 168.33 L 172.58 168.33 L 163.43 184.17 L 145.15 184.17 L 136.01 200.00 L 145.15 215.83 L 154.29 231.67 L 163.43 215.83 L 154.29 200.00 L 172.58 200.00 L 181.72 215.83 L 200.00 215.83 L 209.14 200.00 L 190.86 200.00 L 181.72 184.17 L 200.00 184.17 L 218.28 184.17 L 227.42 200.00 L 218.28 215.83 L 227.42 231.67 L 236.57 215.83 L 254.85 215.83 L 245.71 231.67 L 236.57 247.50 L 218.28 247.50 L 209.14 231.67 L 190.86 231.67 L 172.58 231.67 L 181.72 247.50 L 200.00 247.50 L 190.86 263.33 L 172.58 263.33 L 163.43 247.50 L 145.15 247.50 L 154.29 263.33 L 145.15 279.17 L 136.01 263.33 L 126.87 247.50 L 136.01 231.67 L 126.87 215.83 L 108.59 215.83 L 90.30 215.83 L 99.44 231.67 L 117.73 231.67 L 108.59 247.50 L 90.30 247.50 L 81.16 263.33 L 90.30 279.17 L 99.44 295.00 L 108.59 279.17 L 99.44 263.33 L 117.73 263.33 L 126.87 279.17 L 117.73 295.00 L 126.87 310.83 L 136.01 295.00 L 154.29 295.00 L 145.15 310.83 L 136.01 326.67 L 117.73 326.67 L 108.59 310.83 L 90.30 310.83 L 99.44 326.67 L 90.30 342.50 L 81.16 326.67 L 72.02 310.83 L 81.16 295.00 L 72.02 279.17 L 53.74 279.17 L 62.88 295.00 L 53.74 310.83 L 44.60 295.00 L 35.46 279.17 L 44.60 263.33 L 62.88 263.33 L 72.02 247.50 L 81.16 231.67 L 62.88 231.67 L 53.74 247.50 L 44.60 231.67 L 53.74 215.83 L 72.02 215.83 L 81.16 200.00 L 62.88 200.00 L 53.74 184.17 L 72.02 184.17 L 90.30 184.17 L 99.44 200.00 L 117.73 200.00 L 126.87 184.17 L 136.01 168.33 L 117.73 168.33 L 108.59 184.17 L 99.44 168.33 L 108.59 152.50 L 99.44 136.67 L 81.16 136.67 L 62.88 136.67 L 72.02 152.50 L 90.30 152.50 L 81.16 168.33 L 62.88 168.33 L 53.74 152.50 L 35.46 152.50 L 44.60 168.33 L 35.46 184.17 L 26.31 168.33 L 17.17 152.50 L 26.31 136.67 L 44.60 136.67 L 53.74 120.83 L 35.46 120.83 L 26.31 105.00 L 44.60 105.00 L 62.88 105.00 L 72.02 120.83 L 90.30 120.83 L 99.44 105.00 L 81.16 105.00 L 72.02 89.17 L 90.30 89.17 L 108.59 89.17 L 117.73 105.00 L 108.59 120.83 L 117.73 136.67 L 126.87 152.50 L 136.01 136.67 L 126.87 120.83 L 145.15 120.83 L 154.29 136.67 L 172.58 136.67 L 181.72 120.83 L 163.43 120.83 L 154.29 105.00 L 172.58 105.00 L 190.86 105.00 L 200.00 120.83 L 218.28 120.83 L 227.42 105.00 L 236.57 89.17 L 218.28 89.17 L 209.14 105.00 L 200.00 89.17 L 209.14 73.33 L 200.00 57.50 L 181.72 57.50 L 163.43 57.50 L 172.58 73.33 L 190.86 73.33 L 181.72 89.17 L 163.43 89.17 L 154.29 73.33 L 136.01 73.33 L 145.15 89.17 L 136.01 105.00 L 126.87 89.17 L 117.73 73.33 L 126.87 57.50 L 145.15 57.50 L 154.29 41.67 L 136.01 41.67 L 126.87 25.83 L 145.15 25.83 L 163.43 25.83 L 172.58 41.67 L 190.86 41.67 L 200.00 25.83 L 181.72 25.83 L 172.58 10.00 L 190.86 10.00 L 209.14 10.00 L 218.28 25.83 L 209.14 41.67 L 218.28 57.50 L 227.42 73.33 L 236.57 57.50 L 227.42 41.67 L 245.71 41.67 L 254.85 57.50 L 245.71 73.33 L 254.85 89.17 L 263.99 73.33 L 282.27 73.33 L 273.13 89.17 L 263.99 105.00 L 245.71 105.00 L 236.57 120.83 L 245.71 136.67 L 254.85 152.50 L 263.99 136.67 L 254.85 120.83 L 273.13 120.83 L 282.27 136.67 L 273.13 152.50 L 282.27 168.33 L 291.41 184.17 L 300.56 168.33 L 291.41 152.50 L 309.70 152.50 L 318.84 168.33 L 337.12 168.33 L 346.26 152.50 L 355.40 136.67 L 337.12 136.67 L 327.98 152.50 L 318.84 136.67 L 327.98 120.83 L 318.84 105.00 L 300.56 105.00 L 309.70 120.83 L 300.56 136.67 L 291.41 120.83 L 282.27 105.00 L 291.41 89.17 L 309.70 89.17 L 318.84 73.33 L 300.56 73.33 L 291.41 57.50 L 309.70 57.50 L 327.98 57.50 L 337.12 73.33 L 327.98 89.17 L 337.12 105.00 L 346.26 120.83 L 355.40 105.00 L 346.26 89.17 L 364.54 89.17 L 373.69 105.00" stroke="#C8A020" stroke-width="1.5" fill="none" stroke-linecap="round" stroke-linejoin="round"/>
</svg>
