<?xml version="1.0" encoding="UTF-8"?>
<svg xmlns="http://www.w3.org/2000/svg" viewBox="0 0 400 400" width="400" height="400">
  <rect width="400" height="400" fill="#100820"/>
  <polygon points="19.80,392.96 12.94,396.92 6.08,392.96 6.08,385.04 12.94,381.08 19.80,385.04" fill="#F7EACB"/>
  <polygon points="19.80,365.96 12.94,369.92 6.08,365.96 6.08,358.04 12.94,354.08 19.80,358.04" fill="#EFDAA2"/>
  <polygon points="27.59,379.46 20.73,383.42 13.87,379.46 13.87,371.54 20.73,367.58 27.59,371.54" fill="#F0DDA9"/>
  <polygon points="35.39,392.96 28.53,396.92 21.67,392.96 21.67,385.04 28.53,381.08 35.39,385.04" fill="#F2E1B3"/>
  <polygon points="19.80,338.96 12.94,342.92 6.08,338.96 6.08,331.04 12.94,327.08 19.80,331.04" fill="#E7CC7D"/>
  <polygon points="27.59,352.46 20.73,356.42 13.87,352.46 13.87,344.54 20.73,340.58 27.59,344.54" fill="#E8CE82"/>
  <polygon points="35.39,365.96 28.53,369.92 21.67,365.96 21.67,358.04 28.53,354.08 35.39,358.04" fill="#EAD088"/>
  <polygon points="43.18,379.46 36.32,383.42 29.46,379.46 29.46,371.54 36.32,367.58 43.18,371.54" fill="#EBD491"/>
  <polygon points="50.97,392.96 44.12,396.92 37.26,392.96 37.26,385.04 44.12,381.08 50.97,385.04" fill="#EED89C"/>
  <polygon points="19.80,311.96 12.94,315.92 6.08,311.96 6.08,304.04 12.94,300.08 19.80,304.04" fill="#E1BF5D"/>
  <polygon points="27.59,325.46 20.73,329.42 13.87,325.46 13.87,317.54 20.73,313.58 27.59,317.54" fill="#E1C05E"/>
  <polygon points="35.39,338.96 28.53,342.92 21.67,338.96 21.67,331.04 28.53,327.08 35.39,331.04" fill="#E2C161"/>
  <polygon points="43.18,352.46 36.32,356.42 29.46,352.46 29.46,344.54 36.32,340.58 43.18,344.54" fill="#E3C468"/>
  <polygon points="50.97,365.96 44.12,369.92 37.26,365.96 37.26,358.04 44.12,354.08 50.97,358.04" fill="#E5C770"/>
  <polygon points="58.77,379.46 51.91,383.42 45.05,379.46 45.05,371.54 51.91,367.58 58.77,371.54" fill="#E7CB7B"/>
  <polygon points="66.56,392.96 59.70,396.92 52.84,392.96 52.84,385.04 59.70,381.08 66.56,385.04" fill="#E9D087"/>
  <polygon points="19.80,284.96 12.94,288.92 6.08,284.96 6.08,277.04 12.94,273.08 19.80,277.04" fill="#DBB542"/>
  <polygon points="27.59,298.46 20.73,302.42 13.87,298.46 13.87,290.54 20.73,286.58 27.59,290.54" fill="#DAB43F"/>
  <polygon points="35.39,311.96 28.53,315.92 21.67,311.96 21.67,304.04 28.53,300.08 35.39,304.04" fill="#DAB43F"/>
  <polygon points="43.18,325.46 36.32,329.42 29.46,325.46 29.46,317.54 36.32,313.58 43.18,317.54" fill="#DBB542"/>
  <polygon points="50.97,338.96 44.12,342.92 37.26,338.96 37.26,331.04 44.12,327.08 50.97,331.04" fill="#DCB747"/>
  <polygon points="58.77,352.46 51.91,356.42 45.05,352.46 45.05,344.54 51.91,340.58 58.77,344.54" fill="#DEBA4F"/>
  <polygon points="66.56,365.96 59.70,369.92 52.84,365.96 52.84,358.04 59.70,354.08 66.56,358.04" fill="#E0BE59"/>
  <polygon points="74.36,379.46 67.50,383.42 60.64,379.46 60.64,371.54 67.50,367.58 74.36,371.54" fill="#E2C365"/>
  <polygon points="82.15,392.96 75.29,396.92 68.43,392.96 68.43,385.04 75.29,381.08 82.15,385.04" fill="#E5C874"/>
  <polygon points="19.80,257.96 12.94,261.92 6.08,257.96 6.08,250.04 12.94,246.08 19.80,250.04" fill="#D7AD2E"/>
  <polygon points="27.59,271.46 20.73,275.42 13.87,271.46 13.87,263.54 20.73,259.58 27.59,263.54" fill="#D5AB27"/>
  <polygon points="35.39,284.96 28.53,288.92 21.67,284.96 21.67,277.04 28.53,273.08 35.39,277.04" fill="#D4A922"/>
  <polygon points="43.18,298.46 36.32,302.42 29.46,298.46 29.46,290.54 36.32,286.58 43.18,290.54" fill="#D4A821"/>
  <polygon points="50.97,311.96 44.12,315.92 37.26,311.96 37.26,304.04 44.12,300.08 50.97,304.04" fill="#D4A922"/>
  <polygon points="58.77,325.46 51.91,329.42 45.05,325.46 45.05,317.54 51.91,313.58 58.77,317.54" fill="#D5AB27"/>
  <polygon points="66.56,338.96 59.70,342.92 52.84,338.96 52.84,331.04 59.70,327.08 66.56,331.04" fill="#D7AD2E"/>
  <polygon points="74.36,352.46 67.50,356.42 60.64,352.46 60.64,344.54 67.50,340.58 74.36,344.54" fill="#D9B137"/>
  <polygon points="82.15,365.96 75.29,369.92 68.43,365.96 68.43,358.04 75.29,354.08 82.15,358.04" fill="#DBB543"/>
  <polygon points="89.95,379.46 83.09,383.42 76.23,379.46 76.23,371.54 83.09,367.58 89.95,371.54" fill="#DEBB51"/>
  <polygon points="97.74,392.96 90.88,396.92 84.02,392.96 84.02,385.04 90.88,381.08 97.74,385.04" fill="#E2C161"/>
  <polygon points="19.80,230.96 12.94,234.92 6.08,230.96 6.08,223.04 12.94,219.08 19.80,223.04" fill="#D4A821"/>
  <polygon points="27.59,244.46 20.73,248.42 13.87,244.46 13.87,236.54 20.73,232.58 27.59,236.54" fill="#D3A425"/>
  <polygon points="35.39,257.96 28.53,261.92 21.67,257.96 21.67,250.04 28.53,246.08 35.39,250.04" fill="#D2A129"/>
  <polygon points="43.18,271.46 36.32,275.42 29.46,271.46 29.46,263.54 36.32,259.58 43.18,263.54" fill="#D29F2C"/>
  <polygon points="50.97,284.96 44.12,288.92 37.26,284.96 37.26,277.04 44.12,273.08 50.97,277.04" fill="#D19E2D"/>
  <polygon points="58.77,298.46 51.91,302.42 45.05,298.46 45.05,290.54 51.91,286.58 58.77,290.54" fill="#D19E2D"/>
  <polygon points="66.56,311.96 59.70,315.92 52.84,311.96 52.84,304.04 59.70,300.08 66.56,304.04" fill="#D29F2C"/>
  <polygon points="74.36,325.46 67.50,329.42 60.64,325.46 60.64,317.54 67.50,313.58 74.36,317.54" fill="#D2A129"/>
  <polygon points="82.15,338.96 75.29,342.92 68.43,338.96 68.43,331.04 75.29,327.08 82.15,331.04" fill="#D3A425"/>
  <polygon points="89.95,352.46 83.09,356.42 76.23,352.46 76.23,344.54 83.09,340.58 89.95,344.54" fill="#D4A821"/>
  <polygon points="97.74,365.96 90.88,369.92 84.02,365.96 84.02,358.04 90.88,354.08 97.74,358.04" fill="#D7AE2F"/>
  <polygon points="105.53,379.46 98.68,383.42 91.82,379.46 91.82,371.54 98.68,367.58 105.53,371.54" fill="#DAB43F"/>
  <polygon points="113.33,392.96 106.47,396.92 99.61,392.96 99.61,385.04 106.47,381.08 113.33,385.04" fill="#DEBB51"/>
  <polygon points="19.80,203.96 12.94,207.92 6.08,203.96 6.08,196.04 12.94,192.08 19.80,196.04" fill="#D4A722"/>
  <polygon points="27.59,217.46 20.73,221.42 13.87,217.46 13.87,209.54 20.73,205.58 27.59,209.54" fill="#D2A129"/>
  <polygon points="35.39,230.96 28.53,234.92 21.67,230.96 21.67,223.04 28.53,219.08 35.39,223.04" fill="#D19D2F"/>
  <polygon points="43.18,244.46 36.32,248.42 29.46,244.46 29.46,236.54 36.32,232.58 43.18,236.54" fill="#D09934"/>
  <polygon points="50.97,257.96 44.12,261.92 37.26,257.96 37.26,250.04 44.12,246.08 50.97,250.04" fill="#CF9638"/>
  <polygon points="58.77,271.46 51.91,275.42 45.05,271.46 45.05,263.54 51.91,259.58 58.77,263.54" fill="#CF943A"/>
  <polygon points="66.56,284.96 59.70,288.92 52.84,284.96 52.84,277.04 59.70,273.08 66.56,277.04" fill="#CE943B"/>
  <polygon points="74.36,298.46 67.50,302.42 60.64,298.46 60.64,290.54 67.50,286.58 74.36,290.54" fill="#CF943A"/>
  <polygon points="82.15,311.96 75.29,315.92 68.43,311.96 68.43,304.04 75.29,300.08 82.15,304.04" fill="#CF9638"/>
  <polygon points="89.95,325.46 83.09,329.42 76.23,325.46 76.23,317.54 83.09,313.58 89.95,317.54" fill="#D09934"/>
  <polygon points="97.74,338.96 90.88,342.92 84.02,338.96 84.02,331.04 90.88,327.08 97.74,331.04" fill="#D19D2F"/>
  <polygon points="105.53,352.46 98.68,356.42 91.82,352.46 91.82,344.54 98.68,340.58 105.53,344.54" fill="#D2A129"/>
  <polygon points="113.33,365.96 106.47,369.92 99.61,365.96 99.61,358.04 106.47,354.08 113.33,358.04" fill="#D4A722"/>
  <polygon points="121.12,379.46 114.26,383.42 107.40,379.46 107.40,371.54 114.26,367.58 121.12,371.54" fill="#D7AE2F"/>
  <polygon points="128.92,392.96 122.06,396.92 115.20,392.96 115.20,385.04 122.06,381.08 128.92,385.04" fill="#DBB543"/>
  <polygon points="19.80,176.96 12.94,180.92 6.08,176.96 6.08,169.04 12.94,165.08 19.80,169.04" fill="#D4A821"/>
  <polygon points="27.59,190.46 20.73,194.42 13.87,190.46 13.87,182.54 20.73,178.58 27.59,182.54" fill="#D2A129"/>
  <polygon points="35.39,203.96 28.53,207.92 21.67,203.96 21.67,196.04 28.53,192.08 35.39,196.04" fill="#D09B31"/>
  <polygon points="43.18,217.46 36.32,221.42 29.46,217.46 29.46,209.54 36.32,205.58 43.18,209.54" fill="#CF9539"/>
  <polygon points="50.97,230.96 44.12,234.92 37.26,230.96 37.26,223.04 44.12,219.08 50.97,223.04" fill="#CE913F"/>
  <polygon points="58.77,244.46 51.91,248.42 45.05,244.46 45.05,236.54 51.91,232.58 58.77,236.54" fill="#CD8D44"/>
  <polygon points="66.56,257.96 59.70,261.92 52.84,257.96 52.84,250.04 59.70,246.08 66.56,250.04" fill="#CC8B47"/>
  <polygon points="74.36,271.46 67.50,275.42 60.64,271.46 60.64,263.54 67.50,259.58 74.36,263.54" fill="#CC8A49"/>
  <polygon points="82.15,284.96 75.29,288.92 68.43,284.96 68.43,277.04 75.29,273.08 82.15,277.04" fill="#CC8A49"/>
  <polygon points="89.95,298.46 83.09,302.42 76.23,298.46 76.23,290.54 83.09,286.58 89.95,290.54" fill="#CC8B47"/>
  <polygon points="97.74,311.96 90.88,315.92 84.02,311.96 84.02,304.04 90.88,300.08 97.74,304.04" fill="#CD8D44"/>
  <polygon points="105.53,325.46 98.68,329.42 91.82,325.46 91.82,317.54 98.68,313.58 105.53,317.54" fill="#CE913F"/>
  <polygon points="113.33,338.96 106.47,342.92 99.61,338.96 99.61,331.04 106.47,327.08 113.33,331.04" fill="#CF9539"/>
  <polygon points="121.12,352.46 114.26,356.42 107.40,352.46 107.40,344.54 114.26,340.58 121.12,344.54" fill="#D09B31"/>
  <polygon points="128.92,365.96 122.06,369.92 115.20,365.96 115.20,358.04 122.06,354.08 128.92,358.04" fill="#D2A129"/>
  <polygon points="136.71,379.46 129.85,383.42 122.99,379.46 122.99,371.54 129.85,367.58 136.71,371.54" fill="#D4A821"/>
  <polygon points="144.51,392.96 137.65,396.92 130.79,392.96 130.79,385.04 137.65,381.08 144.51,385.04" fill="#D9B137"/>
  <polygon points="19.80,149.96 12.94,153.92 6.08,149.96 6.08,142.04 12.94,138.08 19.80,142.04" fill="#D7AD2E"/>
  <polygon points="27.59,163.46 20.73,167.42 13.87,163.46 13.87,155.54 20.73,151.58 27.59,155.54" fill="#D3A425"/>
  <polygon points="35.39,176.96 28.53,180.92 21.67,176.96 21.67,169.04 28.53,165.08 35.39,169.04" fill="#D19D2F"/>
  <polygon points="43.18,190.46 36.32,194.42 29.46,190.46 29.46,182.54 36.32,178.58 43.18,182.54" fill="#CF9539"/>
  <polygon points="50.97,203.96 44.12,207.92 37.26,203.96 37.26,196.04 44.12,192.08 50.97,196.04" fill="#CD8F41"/>
  <polygon points="58.77,217.46 51.91,221.42 45.05,217.46 45.05,209.54 51.91,205.58 58.77,209.54" fill="#CC8A49"/>
  <polygon points="66.56,230.96 59.70,234.92 52.84,230.96 52.84,223.04 59.70,219.08 66.56,223.04" fill="#CA854F"/>
  <polygon points="74.36,244.46 67.50,248.42 60.64,244.46 60.64,236.54 67.50,232.58 74.36,236.54" fill="#C98253"/>
  <polygon points="82.15,257.96 75.29,261.92 68.43,257.96 68.43,250.04 75.29,246.08 82.15,250.04" fill="#C98056"/>
  <polygon points="89.95,271.46 83.09,275.42 76.23,271.46 76.23,263.54 83.09,259.58 89.95,263.54" fill="#C97F57"/>
  <polygon points="97.74,284.96 90.88,288.92 84.02,284.96 84.02,277.04 90.88,273.08 97.74,277.04" fill="#C98056"/>
  <polygon points="105.53,298.46 98.68,302.42 91.82,298.46 91.82,290.54 98.68,286.58 105.53,290.54" fill="#C98253"/>
  <polygon points="113.33,311.96 106.47,315.92 99.61,311.96 99.61,304.04 106.47,300.08 113.33,304.04" fill="#CA854F"/>
  <polygon points="121.12,325.46 114.26,329.42 107.40,325.46 107.40,317.54 114.26,313.58 121.12,317.54" fill="#CC8A49"/>
  <polygon points="128.92,338.96 122.06,342.92 115.20,338.96 115.20,331.04 122.06,327.08 128.92,331.04" fill="#CD8F41"/>
  <polygon points="136.71,352.46 129.85,356.42 122.99,352.46 122.99,344.54 129.85,340.58 136.71,344.54" fill="#CF9539"/>
  <polygon points="144.51,365.96 137.65,369.92 130.79,365.96 130.79,358.04 137.65,354.08 144.51,358.04" fill="#D19D2F"/>
  <polygon points="152.30,379.46 145.44,383.42 138.58,379.46 138.58,371.54 145.44,367.58 152.30,371.54" fill="#D3A425"/>
  <polygon points="160.09,392.96 153.23,396.92 146.38,392.96 146.38,385.04 153.23,381.08 160.09,385.04" fill="#D7AD2E"/>
  <polygon points="19.80,122.96 12.94,126.92 6.08,122.96 6.08,115.04 12.94,111.08 19.80,115.04" fill="#DBB542"/>
  <polygon points="27.59,136.46 20.73,140.42 13.87,136.46 13.87,128.54 20.73,124.58 27.59,128.54" fill="#D5AB27"/>
  <polygon points="35.39,149.96 28.53,153.92 21.67,149.96 21.67,142.04 28.53,138.08 35.39,142.04" fill="#D2A129"/>
  <polygon points="43.18,163.46 36.32,167.42 29.46,163.46 29.46,155.54 36.32,151.58 43.18,155.54" fill="#D09934"/>
  <polygon points="50.97,176.96 44.12,180.92 37.26,176.96 37.26,169.04 44.12,165.08 50.97,169.04" fill="#CE913F"/>
  <polygon points="58.77,190.46 51.91,194.42 45.05,190.46 45.05,182.54 51.91,178.58 58.77,182.54" fill="#CC8A49"/>
  <polygon points="66.56,203.96 59.70,207.92 52.84,203.96 52.84,196.04 59.70,192.08 66.56,196.04" fill="#CA8351"/>
  <polygon points="74.36,217.46 67.50,221.42 60.64,217.46 60.64,209.54 67.50,205.58 74.36,209.54" fill="#C87E58"/>
  <polygon points="82.15,230.96 75.29,234.92 68.43,230.96 68.43,223.04 75.29,219.08 82.15,223.04" fill="#C7795E"/>
  <polygon points="89.95,244.46 83.09,248.42 76.23,244.46 76.23,236.54 83.09,232.58 89.95,236.54" fill="#C67662"/>
  <polygon points="97.74,257.96 90.88,261.92 84.02,257.96 84.02,250.04 90.88,246.08 97.74,250.04" fill="#C67564"/>
  <polygon points="105.53,271.46 98.68,275.42 91.82,271.46 91.82,263.54 98.68,259.58 105.53,263.54" fill="#C67564"/>
  <polygon points="113.33,284.96 106.47,288.92 99.61,284.96 99.61,277.04 106.47,273.08 113.33,277.04" fill="#C67662"/>
  <polygon points="121.12,298.46 114.26,302.42 107.40,298.46 107.40,290.54 114.26,286.58 121.12,290.54" fill="#C7795E"/>
  <polygon points="128.92,311.96 122.06,315.92 115.20,311.96 115.20,304.04 122.06,300.08 128.92,304.04" fill="#C87E58"/>
  <polygon points="136.71,325.46 129.85,329.42 122.99,325.46 122.99,317.54 129.85,313.58 136.71,317.54" fill="#CA8351"/>
  <polygon points="144.51,338.96 137.65,342.92 130.79,338.96 130.79,331.04 137.65,327.08 144.51,331.04" fill="#CC8A49"/>
  <polygon points="152.30,352.46 145.44,356.42 138.58,352.46 138.58,344.54 145.44,340.58 152.30,344.54" fill="#CE913F"/>
  <polygon points="160.09,365.96 153.23,369.92 146.38,365.96 146.38,358.04 153.23,354.08 160.09,358.04" fill="#D09934"/>
  <polygon points="167.89,379.46 161.03,383.42 154.17,379.46 154.17,371.54 161.03,367.58 167.89,371.54" fill="#D2A129"/>
  <polygon points="175.68,392.96 168.82,396.92 161.96,392.96 161.96,385.04 168.82,381.08 175.68,385.04" fill="#D5AB27"/>
  <polygon points="19.80,95.96 12.94,99.92 6.08,95.96 6.08,88.04 12.94,84.08 19.80,88.04" fill="#E1BF5D"/>
  <polygon points="27.59,109.46 20.73,113.42 13.87,109.46 13.87,101.54 20.73,97.58 27.59,101.54" fill="#DAB43F"/>
  <polygon points="35.39,122.96 28.53,126.92 21.67,122.96 21.67,115.04 28.53,111.08 35.39,115.04" fill="#D4A922"/>
  <polygon points="43.18,136.46 36.32,140.42 29.46,136.46 29.46,128.54 36.32,124.58 43.18,128.54" fill="#D29F2C"/>
  <polygon points="50.97,149.96 44.12,153.92 37.26,149.96 37.26,142.04 44.12,138.08 50.97,142.04" fill="#CF9638"/>
  <polygon points="58.77,163.46 51.91,167.42 45.05,163.46 45.05,155.54 51.91,151.58 58.77,155.54" fill="#CD8D44"/>
  <polygon points="66.56,176.96 59.70,180.92 52.84,176.96 52.84,169.04 59.70,165.08 66.56,169.04" fill="#CA854F"/>
  <polygon points="74.36,190.46 67.50,194.42 60.64,190.46 60.64,182.54 67.50,178.58 74.36,182.54" fill="#C87E58"/>
  <polygon points="82.15,203.96 75.29,207.92 68.43,203.96 68.43,196.04 75.29,192.08 82.15,196.04" fill="#C67761"/>
  <polygon points="89.95,217.46 83.09,221.42 76.23,217.46 76.23,209.54 83.09,205.58 89.95,209.54" fill="#C57268"/>
  <polygon points="97.74,230.96 90.88,234.92 84.02,230.96 84.02,223.04 90.88,219.08 97.74,223.04" fill="#C46E6E"/>
  <polygon points="105.53,244.46 98.68,248.42 91.82,244.46 91.82,236.54 98.68,232.58 105.53,236.54" fill="#C36B71"/>
  <polygon points="113.33,257.96 106.47,261.92 99.61,257.96 99.61,250.04 106.47,246.08 113.33,250.04" fill="#C36A72"/>
  <polygon points="121.12,271.46 114.26,275.42 107.40,271.46 107.40,263.54 114.26,259.58 121.12,263.54" fill="#C36B71"/>
  <polygon points="128.92,284.96 122.06,288.92 115.20,284.96 115.20,277.04 122.06,273.08 128.92,277.04" fill="#C46E6E"/>
  <polygon points="136.71,298.46 129.85,302.42 122.99,298.46 122.99,290.54 129.85,286.58 136.71,290.54" fill="#C57268"/>
  <polygon points="144.51,311.96 137.65,315.92 130.79,311.96 130.79,304.04 137.65,300.08 144.51,304.04" fill="#C67761"/>
  <polygon points="152.30,325.46 145.44,329.42 138.58,325.46 138.58,317.54 145.44,313.58 152.30,317.54" fill="#C87E58"/>
  <polygon points="160.09,338.96 153.23,342.92 146.38,338.96 146.38,331.04 153.23,327.08 160.09,331.04" fill="#CA854F"/>
  <polygon points="167.89,352.46 161.03,356.42 154.17,352.46 154.17,344.54 161.03,340.58 167.89,344.54" fill="#CD8D44"/>
  <polygon points="175.68,365.96 168.82,369.92 161.96,365.96 161.96,358.04 168.82,354.08 175.68,358.04" fill="#CF9638"/>
  <polygon points="183.48,379.46 176.62,383.42 169.76,379.46 169.76,371.54 176.62,367.58 183.48,371.54" fill="#D29F2C"/>
  <polygon points="191.27,392.96 184.41,396.92 177.55,392.96 177.55,385.04 184.41,381.08 191.27,385.04" fill="#D4A922"/>
  <polygon points="19.80,68.96 12.94,72.92 6.08,68.96 6.08,61.04 12.94,57.08 19.80,61.04" fill="#E7CC7D"/>
  <polygon points="27.59,82.46 20.73,86.42 13.87,82.46 13.87,74.54 20.73,70.58 27.59,74.54" fill="#E1C05E"/>
  <polygon points="35.39,95.96 28.53,99.92 21.67,95.96 21.67,88.04 28.53,84.08 35.39,88.04" fill="#DAB43F"/>
  <polygon points="43.18,109.46 36.32,113.42 29.46,109.46 29.46,101.54 36.32,97.58 43.18,101.54" fill="#D4A821"/>
  <polygon points="50.97,122.96 44.12,126.92 37.26,122.96 37.26,115.04 44.12,111.08 50.97,115.04" fill="#D19E2D"/>
  <polygon points="58.77,136.46 51.91,140.42 45.05,136.46 45.05,128.54 51.91,124.58 58.77,128.54" fill="#CF943A"/>
  <polygon points="66.56,149.96 59.70,153.92 52.84,149.96 52.84,142.04 59.70,138.08 66.56,142.04" fill="#CC8B47"/>
  <polygon points="74.36,163.46 67.50,167.42 60.64,163.46 60.64,155.54 67.50,151.58 74.36,155.54" fill="#C98253"/>
  <polygon points="82.15,176.96 75.29,180.92 68.43,176.96 68.43,169.04 75.29,165.08 82.15,169.04" fill="#C7795E"/>
  <polygon points="89.95,190.46 83.09,194.42 76.23,190.46 76.23,182.54 83.09,178.58 89.95,182.54" fill="#C57268"/>
  <polygon points="97.74,203.96 90.88,207.92 84.02,203.96 84.02,196.04 90.88,192.08 97.74,196.04" fill="#C36B71"/>
  <polygon points="105.53,217.46 98.68,221.42 91.82,217.46 91.82,209.54 98.68,205.58 105.53,209.54" fill="#C26678"/>
  <polygon points="113.33,230.96 106.47,234.92 99.61,230.96 99.61,223.04 106.47,219.08 113.33,223.04" fill="#C1627D"/>
  <polygon points="121.12,244.46 114.26,248.42 107.40,244.46 107.40,236.54 114.26,232.58 121.12,236.54" fill="#C0607F"/>
  <polygon points="128.92,257.96 122.06,261.92 115.20,257.96 115.20,250.04 122.06,246.08 128.92,250.04" fill="#C0607F"/>
  <polygon points="136.71,271.46 129.85,275.42 122.99,271.46 122.99,263.54 129.85,259.58 136.71,263.54" fill="#C1627D"/>
  <polygon points="144.51,284.96 137.65,288.92 130.79,284.96 130.79,277.04 137.65,273.08 144.51,277.04" fill="#C26678"/>
  <polygon points="152.30,298.46 145.44,302.42 138.58,298.46 138.58,290.54 145.44,286.58 152.30,290.54" fill="#C36B71"/>
  <polygon points="160.09,311.96 153.23,315.92 146.38,311.96 146.38,304.04 153.23,300.08 160.09,304.04" fill="#C57268"/>
  <polygon points="167.89,325.46 161.03,329.42 154.17,325.46 154.17,317.54 161.03,313.58 167.89,317.54" fill="#C7795E"/>
  <polygon points="175.68,338.96 168.82,342.92 161.96,338.96 161.96,331.04 168.82,327.08 175.68,331.04" fill="#C98253"/>
  <polygon points="183.48,352.46 176.62,356.42 169.76,352.46 169.76,344.54 176.62,340.58 183.48,344.54" fill="#CC8B47"/>
  <polygon points="191.27,365.96 184.41,369.92 177.55,365.96 177.55,358.04 184.41,354.08 191.27,358.04" fill="#CF943A"/>
  <polygon points="199.06,379.46 192.21,383.42 185.35,379.46 185.35,371.54 192.21,367.58 199.06,371.54" fill="#D19E2D"/>
  <polygon points="206.86,392.96 200.00,396.92 193.14,392.96 193.14,385.04 200.00,381.08 206.86,385.04" fill="#D4A821"/>
  <polygon points="19.80,41.96 12.94,45.92 6.08,41.96 6.08,34.04 12.94,30.08 19.80,34.04" fill="#EFDAA2"/>
  <polygon points="27.59,55.46 20.73,59.42 13.87,55.46 13.87,47.54 20.73,43.58 27.59,47.54" fill="#E8CE82"/>
  <polygon points="35.39,68.96 28.53,72.92 21.67,68.96 21.67,61.04 28.53,57.08 35.39,61.04" fill="#E2C161"/>
  <polygon points="43.18,82.46 36.32,86.42 29.46,82.46 29.46,74.54 36.32,70.58 43.18,74.54" fill="#DBB542"/>
  <polygon points="50.97,95.96 44.12,99.92 37.26,95.96 37.26,88.04 44.12,84.08 50.97,88.04" fill="#D4A922"/>
  <polygon points="58.77,109.46 51.91,113.42 45.05,109.46 45.05,101.54 51.91,97.58 58.77,101.54" fill="#D19E2D"/>
  <polygon points="66.56,122.96 59.70,126.92 52.84,122.96 52.84,115.04 59.70,111.08 66.56,115.04" fill="#CE943B"/>
  <polygon points="74.36,136.46 67.50,140.42 60.64,136.46 60.64,128.54 67.50,124.58 74.36,128.54" fill="#CC8A49"/>
  <polygon points="82.15,149.96 75.29,153.92 68.43,149.96 68.43,142.04 75.29,138.08 82.15,142.04" fill="#C98056"/>
  <polygon points="89.95,163.46 83.09,167.42 76.23,163.46 76.23,155.54 83.09,151.58 89.95,155.54" fill="#C67662"/>
  <polygon points="97.74,176.96 90.88,180.92 84.02,176.96 84.02,169.04 90.88,165.08 97.74,169.04" fill="#C46E6E"/>
  <polygon points="105.53,190.46 98.68,194.42 91.82,190.46 91.82,182.54 98.68,178.58 105.53,182.54" fill="#C26678"/>
  <polygon points="113.33,203.96 106.47,207.92 99.61,203.96 99.61,196.04 106.47,192.08 113.33,196.04" fill="#BF5F80"/>
  <polygon points="121.12,217.46 114.26,221.42 107.40,217.46 107.40,209.54 114.26,205.58 121.12,209.54" fill="#B55B7E"/>
  <polygon points="128.92,230.96 122.06,234.92 115.20,230.96 115.20,223.04 122.06,219.08 128.92,223.04" fill="#AF587D"/>
  <polygon points="136.71,244.46 129.85,248.42 122.99,244.46 122.99,236.54 129.85,232.58 136.71,236.54" fill="#AD577D"/>
  <polygon points="144.51,257.96 137.65,261.92 130.79,257.96 130.79,250.04 137.65,246.08 144.51,250.04" fill="#AF587D"/>
  <polygon points="152.30,271.46 145.44,275.42 138.58,271.46 138.58,263.54 145.44,259.58 152.30,263.54" fill="#B55B7E"/>
  <polygon points="160.09,284.96 153.23,288.92 146.38,284.96 146.38,277.04 153.23,273.08 160.09,277.04" fill="#BF5F80"/>
  <polygon points="167.89,298.46 161.03,302.42 154.17,298.46 154.17,290.54 161.03,286.58 167.89,290.54" fill="#C26678"/>
  <polygon points="175.68,311.96 168.82,315.92 161.96,311.96 161.96,304.04 168.82,300.08 175.68,304.04" fill="#C46E6E"/>
  <polygon points="183.48,325.46 176.62,329.42 169.76,325.46 169.76,317.54 176.62,313.58 183.48,317.54" fill="#C67662"/>
  <polygon points="191.27,338.96 184.41,342.92 177.55,338.96 177.55,331.04 184.41,327.08 191.27,331.04" fill="#C98056"/>
  <polygon points="199.06,352.46 192.21,356.42 185.35,352.46 185.35,344.54 192.21,340.58 199.06,344.54" fill="#CC8A49"/>
  <polygon points="206.86,365.96 200.00,369.92 193.14,365.96 193.14,358.04 200.00,354.08 206.86,358.04" fill="#CE943B"/>
  <polygon points="214.65,379.46 207.79,383.42 200.94,379.46 200.94,371.54 207.79,367.58 214.65,371.54" fill="#D19E2D"/>
  <polygon points="222.45,392.96 215.59,396.92 208.73,392.96 208.73,385.04 215.59,381.08 222.45,385.04" fill="#D4A922"/>
  <polygon points="19.80,14.96 12.94,18.92 6.08,14.96 6.08,7.04 12.94,3.08 19.80,7.04" fill="#F7EACB"/>
  <polygon points="27.59,28.46 20.73,32.42 13.87,28.46 13.87,20.54 20.73,16.58 27.59,20.54" fill="#F0DDA9"/>
  <polygon points="35.39,41.96 28.53,45.92 21.67,41.96 21.67,34.04 28.53,30.08 35.39,34.04" fill="#EAD088"/>
  <polygon points="43.18,55.46 36.32,59.42 29.46,55.46 29.46,47.54 36.32,43.58 43.18,47.54" fill="#E3C468"/>
  <polygon points="50.97,68.96 44.12,72.92 37.26,68.96 37.26,61.04 44.12,57.08 50.97,61.04" fill="#DCB747"/>
  <polygon points="58.77,82.46 51.91,86.42 45.05,82.46 45.05,74.54 51.91,70.58 58.77,74.54" fill="#D5AB27"/>
  <polygon points="66.56,95.96 59.70,99.92 52.84,95.96 52.84,88.04 59.70,84.08 66.56,88.04" fill="#D29F2C"/>
  <polygon points="74.36,109.46 67.50,113.42 60.64,109.46 60.64,101.54 67.50,97.58 74.36,101.54" fill="#CF943A"/>
  <polygon points="82.15,122.96 75.29,126.92 68.43,122.96 68.43,115.04 75.29,111.08 82.15,115.04" fill="#CC8A49"/>
  <polygon points="89.95,136.46 83.09,140.42 76.23,136.46 76.23,128.54 83.09,124.58 89.95,128.54" fill="#C97F57"/>
  <polygon points="97.74,149.96 90.88,153.92 84.02,149.96 84.02,142.04 90.88,138.08 97.74,142.04" fill="#C67564"/>
  <polygon points="105.53,163.46 98.68,167.42 91.82,163.46 91.82,155.54 98.68,151.58 105.53,155.54" fill="#C36B71"/>
  <polygon points="113.33,176.96 106.47,180.92 99.61,176.96 99.61,169.04 106.47,165.08 113.33,169.04" fill="#C1627D"/>
  <polygon points="121.12,190.46 114.26,194.42 107.40,190.46 107.40,182.54 114.26,178.58 121.12,182.54" fill="#B55B7E"/>
  <polygon points="128.92,203.96 122.06,207.92 115.20,203.96 115.20,196.04 122.06,192.08 128.92,196.04" fill="#A9557C"/>
  <polygon points="136.71,217.46 129.85,221.42 122.99,217.46 122.99,209.54 129.85,205.58 136.71,209.54" fill="#A0507B"/>
  <polygon points="144.51,230.96 137.65,234.92 130.79,230.96 130.79,223.04 137.65,219.08 144.51,223.04" fill="#9B4E7A"/>
  <polygon points="152.30,244.46 145.44,248.42 138.58,244.46 138.58,236.54 145.44,232.58 152.30,236.54" fill="#9B4E7A"/>
  <polygon points="160.09,257.96 153.23,261.92 146.38,257.96 146.38,250.04 153.23,246.08 160.09,250.04" fill="#A0507B"/>
  <polygon points="167.89,271.46 161.03,275.42 154.17,271.46 154.17,263.54 161.03,259.58 167.89,263.54" fill="#A9557C"/>
  <polygon points="175.68,284.96 168.82,288.92 161.96,284.96 161.96,277.04 168.82,273.08 175.68,277.04" fill="#B55B7E"/>
  <polygon points="183.48,298.46 176.62,302.42 169.76,298.46 169.76,290.54 176.62,286.58 183.48,290.54" fill="#C1627D"/>
  <polygon points="191.27,311.96 184.41,315.92 177.55,311.96 177.55,304.04 184.41,300.08 191.27,304.04" fill="#C36B71"/>
  <polygon points="199.06,325.46 192.21,329.42 185.35,325.46 185.35,317.54 192.21,313.58 199.06,317.54" fill="#C67564"/>
  <polygon points="206.86,338.96 200.00,342.92 193.14,338.96 193.14,331.04 200.00,327.08 206.86,331.04" fill="#C97F57"/>
  <polygon points="214.65,352.46 207.79,356.42 200.94,352.46 200.94,344.54 207.79,340.58 214.65,344.54" fill="#CC8A49"/>
  <polygon points="222.45,365.96 215.59,369.92 208.73,365.96 208.73,358.04 215.59,354.08 222.45,358.04" fill="#CF943A"/>
  <polygon points="230.24,379.46 223.38,383.42 216.52,379.46 216.52,371.54 223.38,367.58 230.24,371.54" fill="#D29F2C"/>
  <polygon points="238.04,392.96 231.18,396.92 224.32,392.96 224.32,385.04 231.18,381.08 238.04,385.04" fill="#D5AB27"/>
  <polygon points="35.39,14.96 28.53,18.92 21.67,14.96 21.67,7.04 28.53,3.08 35.39,7.04" fill="#F2E1B3"/>
  <polygon points="43.18,28.46 36.32,32.42 29.46,28.46 29.46,20.54 36.32,16.58 43.18,20.54" fill="#EBD491"/>
  <polygon points="50.97,41.96 44.12,45.92 37.26,41.96 37.26,34.04 44.12,30.08 50.97,34.04" fill="#E5C770"/>
  <polygon points="58.77,55.46 51.91,59.42 45.05,55.46 45.05,47.54 51.91,43.58 58.77,47.54" fill="#DEBA4F"/>
  <polygon points="66.56,68.96 59.70,72.92 52.84,68.96 52.84,61.04 59.70,57.08 66.56,61.04" fill="#D7AD2E"/>
  <polygon points="74.36,82.46 67.50,86.42 60.64,82.46 60.64,74.54 67.50,70.58 74.36,74.54" fill="#D2A129"/>
  <polygon points="82.15,95.96 75.29,99.92 68.43,95.96 68.43,88.04 75.29,84.08 82.15,88.04" fill="#CF9638"/>
  <polygon points="89.95,109.46 83.09,113.42 76.23,109.46 76.23,101.54 83.09,97.58 89.95,101.54" fill="#CC8B47"/>
  <polygon points="97.74,122.96 90.88,126.92 84.02,122.96 84.02,115.04 90.88,111.08 97.74,115.04" fill="#C98056"/>
  <polygon points="105.53,136.46 98.68,140.42 91.82,136.46 91.82,128.54 98.68,124.58 105.53,128.54" fill="#C67564"/>
  <polygon points="113.33,149.96 106.47,153.92 99.61,149.96 99.61,142.04 106.47,138.08 113.33,142.04" fill="#C36A72"/>
  <polygon points="121.12,163.46 114.26,167.42 107.40,163.46 107.40,155.54 114.26,151.58 121.12,155.54" fill="#C0607F"/>
  <polygon points="128.92,176.96 122.06,180.92 115.20,176.96 115.20,169.04 122.06,165.08 128.92,169.04" fill="#AF587D"/>
  <polygon points="136.71,190.46 129.85,194.42 122.99,190.46 122.99,182.54 129.85,178.58 136.71,182.54" fill="#A0507B"/>
  <polygon points="144.51,203.96 137.65,207.92 130.79,203.96 130.79,196.04 137.65,192.08 144.51,196.04" fill="#934A79"/>
  <polygon points="152.30,217.46 145.44,221.42 138.58,217.46 138.58,209.54 145.44,205.58 152.30,209.54" fill="#8A4577"/>
  <polygon points="160.09,230.96 153.23,234.92 146.38,230.96 146.38,223.04 153.23,219.08 160.09,223.04" fill="#874477"/>
  <polygon points="167.89,244.46 161.03,248.42 154.17,244.46 154.17,236.54 161.03,232.58 167.89,236.54" fill="#8A4577"/>
  <polygon points="175.68,257.96 168.82,261.92 161.96,257.96 161.96,250.04 168.82,246.08 175.68,250.04" fill="#934A79"/>
  <polygon points="183.48,271.46 176.62,275.42 169.76,271.46 169.76,263.54 176.62,259.58 183.48,263.54" fill="#A0507B"/>
  <polygon points="191.27,284.96 184.41,288.92 177.55,284.96 177.55,277.04 184.41,273.08 191.27,277.04" fill="#AF587D"/>
  <polygon points="199.06,298.46 192.21,302.42 185.35,298.46 185.35,290.54 192.21,286.58 199.06,290.54" fill="#C0607F"/>
  <polygon points="206.86,311.96 200.00,315.92 193.14,311.96 193.14,304.04 200.00,300.08 206.86,304.04" fill="#C36A72"/>
  <polygon points="214.65,325.46 207.79,329.42 200.94,325.46 200.94,317.54 207.79,313.58 214.65,317.54" fill="#C67564"/>
  <polygon points="222.45,338.96 215.59,342.92 208.73,338.96 208.73,331.04 215.59,327.08 222.45,331.04" fill="#C98056"/>
  <polygon points="230.24,352.46 223.38,356.42 216.52,352.46 216.52,344.54 223.38,340.58 230.24,344.54" fill="#CC8B47"/>
  <polygon points="238.04,365.96 231.18,369.92 224.32,365.96 224.32,358.04 231.18,354.08 238.04,358.04" fill="#CF9638"/>
  <polygon points="245.83,379.46 238.97,383.42 232.11,379.46 232.11,371.54 238.97,367.58 245.83,371.54" fill="#D2A129"/>
  <polygon points="253.62,392.96 246.77,396.92 239.91,392.96 239.91,385.04 246.77,381.08 253.62,385.04" fill="#D7AD2E"/>
  <polygon points="50.97,14.96 44.12,18.92 37.26,14.96 37.26,7.04 44.12,3.08 50.97,7.04" fill="#EED89C"/>
  <polygon points="58.77,28.46 51.91,32.42 45.05,28.46 45.05,20.54 51.91,16.58 58.77,20.54" fill="#E7CB7B"/>
  <polygon points="66.56,41.96 59.70,45.92 52.84,41.96 52.84,34.04 59.70,30.08 66.56,34.04" fill="#E0BE59"/>
  <polygon points="74.36,55.46 67.50,59.42 60.64,55.46 60.64,47.54 67.50,43.58 74.36,47.54" fill="#D9B137"/>
  <polygon points="82.15,68.96 75.29,72.92 68.43,68.96 68.43,61.04 75.29,57.08 82.15,61.04" fill="#D3A425"/>
  <polygon points="89.95,82.46 83.09,86.42 76.23,82.46 76.23,74.54 83.09,70.58 89.95,74.54" fill="#D09934"/>
  <polygon points="97.74,95.96 90.88,99.92 84.02,95.96 84.02,88.04 90.88,84.08 97.74,88.04" fill="#CD8D44"/>
  <polygon points="105.53,109.46 98.68,113.42 91.82,109.46 91.82,101.54 98.68,97.58 105.53,101.54" fill="#C98253"/>
  <polygon points="113.33,122.96 106.47,126.92 99.61,122.96 99.61,115.04 106.47,111.08 113.33,115.04" fill="#C67662"/>
  <polygon points="121.12,136.46 114.26,140.42 107.40,136.46 107.40,128.54 114.26,124.58 121.12,128.54" fill="#C36B71"/>
  <polygon points="128.92,149.96 122.06,153.92 115.20,149.96 115.20,142.04 122.06,138.08 128.92,142.04" fill="#C0607F"/>
  <polygon points="136.71,163.46 129.85,167.42 122.99,163.46 122.99,155.54 129.85,151.58 136.71,155.54" fill="#AD577D"/>
  <polygon points="144.51,176.96 137.65,180.92 130.79,176.96 130.79,169.04 137.65,165.08 144.51,169.04" fill="#9B4E7A"/>
  <polygon points="152.30,190.46 145.44,194.42 138.58,190.46 138.58,182.54 145.44,178.58 152.30,182.54" fill="#8A4577"/>
  <polygon points="160.09,203.96 153.23,207.92 146.38,203.96 146.38,196.04 153.23,192.08 160.09,196.04" fill="#7C3F75"/>
  <polygon points="167.89,217.46 161.03,221.42 154.17,217.46 154.17,209.54 161.03,205.58 167.89,209.54" fill="#753B74"/>
  <polygon points="175.68,230.96 168.82,234.92 161.96,230.96 161.96,223.04 168.82,219.08 175.68,223.04" fill="#753B74"/>
  <polygon points="183.48,244.46 176.62,248.42 169.76,244.46 169.76,236.54 176.62,232.58 183.48,236.54" fill="#7C3F75"/>
  <polygon points="191.27,257.96 184.41,261.92 177.55,257.96 177.55,250.04 184.41,246.08 191.27,250.04" fill="#8A4577"/>
  <polygon points="199.06,271.46 192.21,275.42 185.35,271.46 185.35,263.54 192.21,259.58 199.06,263.54" fill="#9B4E7A"/>
  <polygon points="206.86,284.96 200.00,288.92 193.14,284.96 193.14,277.04 200.00,273.08 206.86,277.04" fill="#AD577D"/>
  <polygon points="214.65,298.46 207.79,302.42 200.94,298.46 200.94,290.54 207.79,286.58 214.65,290.54" fill="#C0607F"/>
  <polygon points="222.45,311.96 215.59,315.92 208.73,311.96 208.73,304.04 215.59,300.08 222.45,304.04" fill="#C36B71"/>
  <polygon points="230.24,325.46 223.38,329.42 216.52,325.46 216.52,317.54 223.38,313.58 230.24,317.54" fill="#C67662"/>
  <polygon points="238.04,338.96 231.18,342.92 224.32,338.96 224.32,331.04 231.18,327.08 238.04,331.04" fill="#C98253"/>
  <polygon points="245.83,352.46 238.97,356.42 232.11,352.46 232.11,344.54 238.97,340.58 245.83,344.54" fill="#CD8D44"/>
  <polygon points="253.62,365.96 246.77,369.92 239.91,365.96 239.91,358.04 246.77,354.08 253.62,358.04" fill="#D09934"/>
  <polygon points="261.42,379.46 254.56,383.42 247.70,379.46 247.70,371.54 254.56,367.58 261.42,371.54" fill="#D3A425"/>
  <polygon points="269.21,392.96 262.35,396.92 255.49,392.96 255.49,385.04 262.35,381.08 269.21,385.04" fill="#D9B137"/>
  <polygon points="66.56,14.96 59.70,18.92 52.84,14.96 52.84,7.04 59.70,3.08 66.56,7.04" fill="#E9D087"/>
  <polygon points="74.36,28.46 67.50,32.42 60.64,28.46 60.64,20.54 67.50,16.58 74.36,20.54" fill="#E2C365"/>
  <polygon points="82.15,41.96 75.29,45.92 68.43,41.96 68.43,34.04 75.29,30.08 82.15,34.04" fill="#DBB543"/>
  <polygon points="89.95,55.46 83.09,59.42 76.23,55.46 76.23,47.54 83.09,43.58 89.95,47.54" fill="#D4A821"/>
  <polygon points="97.74,68.96 90.88,72.92 84.02,68.96 84.02,61.04 90.88,57.08 97.74,61.04" fill="#D19D2F"/>
  <polygon points="105.53,82.46 98.68,86.42 91.82,82.46 91.82,74.54 98.68,70.58 105.53,74.54" fill="#CE913F"/>
  <polygon points="113.33,95.96 106.47,99.92 99.61,95.96 99.61,88.04 106.47,84.08 113.33,88.04" fill="#CA854F"/>
  <polygon points="121.12,109.46 114.26,113.42 107.40,109.46 107.40,101.54 114.26,97.58 121.12,101.54" fill="#C7795E"/>
  <polygon points="128.92,122.96 122.06,126.92 115.20,122.96 115.20,115.04 122.06,111.08 128.92,115.04" fill="#C46E6E"/>
  <polygon points="136.71,136.46 129.85,140.42 122.99,136.46 122.99,128.54 129.85,124.58 136.71,128.54" fill="#C1627D"/>
  <polygon points="144.51,149.96 137.65,153.92 130.79,149.96 130.79,142.04 137.65,138.08 144.51,142.04" fill="#AF587D"/>
  <polygon points="152.30,163.46 145.44,167.42 138.58,163.46 138.58,155.54 145.44,151.58 152.30,155.54" fill="#9B4E7A"/>
  <polygon points="160.09,176.96 153.23,180.92 146.38,176.96 146.38,169.04 153.23,165.08 160.09,169.04" fill="#874477"/>
  <polygon points="167.89,190.46 161.03,194.42 154.17,190.46 154.17,182.54 161.03,178.58 167.89,182.54" fill="#753B74"/>
  <polygon points="175.68,203.96 168.82,207.92 161.96,203.96 161.96,196.04 168.82,192.08 175.68,196.04" fill="#663471"/>
  <polygon points="183.48,217.46 176.62,221.42 169.76,217.46 169.76,209.54 176.62,205.58 183.48,209.54" fill="#603170"/>
  <polygon points="191.27,230.96 184.41,234.92 177.55,230.96 177.55,223.04 184.41,219.08 191.27,223.04" fill="#663471"/>
  <polygon points="199.06,244.46 192.21,248.42 185.35,244.46 185.35,236.54 192.21,232.58 199.06,236.54" fill="#753B74"/>
  <polygon points="206.86,257.96 200.00,261.92 193.14,257.96 193.14,250.04 200.00,246.08 206.86,250.04" fill="#874477"/>
  <polygon points="214.65,271.46 207.79,275.42 200.94,271.46 200.94,263.54 207.79,259.58 214.65,263.54" fill="#9B4E7A"/>
  <polygon points="222.45,284.96 215.59,288.92 208.73,284.96 208.73,277.04 215.59,273.08 222.45,277.04" fill="#AF587D"/>
  <polygon points="230.24,298.46 223.38,302.42 216.52,298.46 216.52,290.54 223.38,286.58 230.24,290.54" fill="#C1627D"/>
  <polygon points="238.04,311.96 231.18,315.92 224.32,311.96 224.32,304.04 231.18,300.08 238.04,304.04" fill="#C46E6E"/>
  <polygon points="245.83,325.46 238.97,329.42 232.11,325.46 232.11,317.54 238.97,313.58 245.83,317.54" fill="#C7795E"/>
  <polygon points="253.62,338.96 246.77,342.92 239.91,338.96 239.91,331.04 246.77,327.08 253.62,331.04" fill="#CA854F"/>
  <polygon points="261.42,352.46 254.56,356.42 247.70,352.46 247.70,344.54 254.56,340.58 261.42,344.54" fill="#CE913F"/>
  <polygon points="269.21,365.96 262.35,369.92 255.49,365.96 255.49,358.04 262.35,354.08 269.21,358.04" fill="#D19D2F"/>
  <polygon points="277.01,379.46 270.15,383.42 263.29,379.46 263.29,371.54 270.15,367.58 277.01,371.54" fill="#D4A821"/>
  <polygon points="284.80,392.96 277.94,396.92 271.08,392.96 271.08,385.04 277.94,381.08 284.80,385.04" fill="#DBB543"/>
  <polygon points="82.15,14.96 75.29,18.92 68.43,14.96 68.43,7.04 75.29,3.08 82.15,7.04" fill="#E5C874"/>
  <polygon points="89.95,28.46 83.09,32.42 76.23,28.46 76.23,20.54 83.09,16.58 89.95,20.54" fill="#DEBB51"/>
  <polygon points="97.74,41.96 90.88,45.92 84.02,41.96 84.02,34.04 90.88,30.08 97.74,34.04" fill="#D7AE2F"/>
  <polygon points="105.53,55.46 98.68,59.42 91.82,55.46 91.82,47.54 98.68,43.58 105.53,47.54" fill="#D2A129"/>
  <polygon points="113.33,68.96 106.47,72.92 99.61,68.96 99.61,61.04 106.47,57.08 113.33,61.04" fill="#CF9539"/>
  <polygon points="121.12,82.46 114.26,86.42 107.40,82.46 107.40,74.54 114.26,70.58 121.12,74.54" fill="#CC8A49"/>
  <polygon points="128.92,95.96 122.06,99.92 115.20,95.96 115.20,88.04 122.06,84.08 128.92,88.04" fill="#C87E58"/>
  <polygon points="136.71,109.46 129.85,113.42 122.99,109.46 122.99,101.54 129.85,97.58 136.71,101.54" fill="#C57268"/>
  <polygon points="144.51,122.96 137.65,126.92 130.79,122.96 130.79,115.04 137.65,111.08 144.51,115.04" fill="#C26678"/>
  <polygon points="152.30,136.46 145.44,140.42 138.58,136.46 138.58,128.54 145.44,124.58 152.30,128.54" fill="#B55B7E"/>
  <polygon points="160.09,149.96 153.23,153.92 146.38,149.96 146.38,142.04 153.23,138.08 160.09,142.04" fill="#A0507B"/>
  <polygon points="167.89,163.46 161.03,167.42 154.17,163.46 154.17,155.54 161.03,151.58 167.89,155.54" fill="#8A4577"/>
  <polygon points="175.68,176.96 168.82,180.92 161.96,176.96 161.96,169.04 168.82,165.08 175.68,169.04" fill="#753B74"/>
  <polygon points="183.48,190.46 176.62,194.42 169.76,190.46 169.76,182.54 176.62,178.58 183.48,182.54" fill="#603170"/>
  <polygon points="191.27,203.96 184.41,207.92 177.55,203.96 177.55,196.04 184.41,192.08 191.27,196.04" fill="#50296E"/>
  <polygon points="199.06,217.46 192.21,221.42 185.35,217.46 185.35,209.54 192.21,205.58 199.06,209.54" fill="#50296E"/>
  <polygon points="206.86,230.96 200.00,234.92 193.14,230.96 193.14,223.04 200.00,219.08 206.86,223.04" fill="#603170"/>
  <polygon points="214.65,244.46 207.79,248.42 200.94,244.46 200.94,236.54 207.79,232.58 214.65,236.54" fill="#753B74"/>
  <polygon points="222.45,257.96 215.59,261.92 208.73,257.96 208.73,250.04 215.59,246.08 222.45,250.04" fill="#8A4577"/>
  <polygon points="230.24,271.46 223.38,275.42 216.52,271.46 216.52,263.54 223.38,259.58 230.24,263.54" fill="#A0507B"/>
  <polygon points="238.04,284.96 231.18,288.92 224.32,284.96 224.32,277.04 231.18,273.08 238.04,277.04" fill="#B55B7E"/>
  <polygon points="245.83,298.46 238.97,302.42 232.11,298.46 232.11,290.54 238.97,286.58 245.83,290.54" fill="#C26678"/>
  <polygon points="253.62,311.96 246.77,315.92 239.91,311.96 239.91,304.04 246.77,300.08 253.62,304.04" fill="#C57268"/>
  <polygon points="261.42,325.46 254.56,329.42 247.70,325.46 247.70,317.54 254.56,313.58 261.42,317.54" fill="#C87E58"/>
  <polygon points="269.21,338.96 262.35,342.92 255.49,338.96 255.49,331.04 262.35,327.08 269.21,331.04" fill="#CC8A49"/>
  <polygon points="277.01,352.46 270.15,356.42 263.29,352.46 263.29,344.54 270.15,340.58 277.01,344.54" fill="#CF9539"/>
  <polygon points="284.80,365.96 277.94,369.92 271.08,365.96 271.08,358.04 277.94,354.08 284.80,358.04" fill="#D2A129"/>
  <polygon points="292.60,379.46 285.74,383.42 278.88,379.46 278.88,371.54 285.74,367.58 292.60,371.54" fill="#D7AE2F"/>
  <polygon points="300.39,392.96 293.53,396.92 286.67,392.96 286.67,385.04 293.53,381.08 300.39,385.04" fill="#DEBB51"/>
  <polygon points="97.74,14.96 90.88,18.92 84.02,14.96 84.02,7.04 90.88,3.08 97.74,7.04" fill="#E2C161"/>
  <polygon points="105.53,28.46 98.68,32.42 91.82,28.46 91.82,20.54 98.68,16.58 105.53,20.54" fill="#DAB43F"/>
  <polygon points="113.33,41.96 106.47,45.92 99.61,41.96 99.61,34.04 106.47,30.08 113.33,34.04" fill="#D4A722"/>
  <polygon points="121.12,55.46 114.26,59.42 107.40,55.46 107.40,47.54 114.26,43.58 121.12,47.54" fill="#D09B31"/>
  <polygon points="128.92,68.96 122.06,72.92 115.20,68.96 115.20,61.04 122.06,57.08 128.92,61.04" fill="#CD8F41"/>
  <polygon points="136.71,82.46 129.85,86.42 122.99,82.46 122.99,74.54 129.85,70.58 136.71,74.54" fill="#CA8351"/>
  <polygon points="144.51,95.96 137.65,99.92 130.79,95.96 130.79,88.04 137.65,84.08 144.51,88.04" fill="#C67761"/>
  <polygon points="152.30,109.46 145.44,113.42 138.58,109.46 138.58,101.54 145.44,97.58 152.30,101.54" fill="#C36B71"/>
  <polygon points="160.09,122.96 153.23,126.92 146.38,122.96 146.38,115.04 153.23,111.08 160.09,115.04" fill="#BF5F80"/>
  <polygon points="167.89,136.46 161.03,140.42 154.17,136.46 154.17,128.54 161.03,124.58 167.89,128.54" fill="#A9557C"/>
  <polygon points="175.68,149.96 168.82,153.92 161.96,149.96 161.96,142.04 168.82,138.08 175.68,142.04" fill="#934A79"/>
  <polygon points="183.48,163.46 176.62,167.42 169.76,163.46 169.76,155.54 176.62,151.58 183.48,155.54" fill="#7C3F75"/>
  <polygon points="191.27,176.96 184.41,180.92 177.55,176.96 177.55,169.04 184.41,165.08 191.27,169.04" fill="#663471"/>
  <polygon points="199.06,190.46 192.21,194.42 185.35,190.46 185.35,182.54 192.21,178.58 199.06,182.54" fill="#50296E"/>
  <polygon points="206.86,203.96 200.00,207.92 193.14,203.96 193.14,196.04 200.00,192.08 206.86,196.04" fill="#3A1E6A"/>
  <polygon points="214.65,217.46 207.79,221.42 200.94,217.46 200.94,209.54 207.79,205.58 214.65,209.54" fill="#50296E"/>
  <polygon points="222.45,230.96 215.59,234.92 208.73,230.96 208.73,223.04 215.59,219.08 222.45,223.04" fill="#663471"/>
  <polygon points="230.24,244.46 223.38,248.42 216.52,244.46 216.52,236.54 223.38,232.58 230.24,236.54" fill="#7C3F75"/>
  <polygon points="238.04,257.96 231.18,261.92 224.32,257.96 224.32,250.04 231.18,246.08 238.04,250.04" fill="#934A79"/>
  <polygon points="245.83,271.46 238.97,275.42 232.11,271.46 232.11,263.54 238.97,259.58 245.83,263.54" fill="#A9557C"/>
  <polygon points="253.62,284.96 246.77,288.92 239.91,284.96 239.91,277.04 246.77,273.08 253.62,277.04" fill="#BF5F80"/>
  <polygon points="261.42,298.46 254.56,302.42 247.70,298.46 247.70,290.54 254.56,286.58 261.42,290.54" fill="#C36B71"/>
  <polygon points="269.21,311.96 262.35,315.92 255.49,311.96 255.49,304.04 262.35,300.08 269.21,304.04" fill="#C67761"/>
  <polygon points="277.01,325.46 270.15,329.42 263.29,325.46 263.29,317.54 270.15,313.58 277.01,317.54" fill="#CA8351"/>
  <polygon points="284.80,338.96 277.94,342.92 271.08,338.96 271.08,331.04 277.94,327.08 284.80,331.04" fill="#CD8F41"/>
  <polygon points="292.60,352.46 285.74,356.42 278.88,352.46 278.88,344.54 285.74,340.58 292.60,344.54" fill="#D09B31"/>
  <polygon points="300.39,365.96 293.53,369.92 286.67,365.96 286.67,358.04 293.53,354.08 300.39,358.04" fill="#D4A722"/>
  <polygon points="308.18,379.46 301.32,383.42 294.47,379.46 294.47,371.54 301.32,367.58 308.18,371.54" fill="#DAB43F"/>
  <polygon points="315.98,392.96 309.12,396.92 302.26,392.96 302.26,385.04 309.12,381.08 315.98,385.04" fill="#E2C161"/>
  <polygon points="113.33,14.96 106.47,18.92 99.61,14.96 99.61,7.04 106.47,3.08 113.33,7.04" fill="#DEBB51"/>
  <polygon points="121.12,28.46 114.26,32.42 107.40,28.46 107.40,20.54 114.26,16.58 121.12,20.54" fill="#D7AE2F"/>
  <polygon points="128.92,41.96 122.06,45.92 115.20,41.96 115.20,34.04 122.06,30.08 128.92,34.04" fill="#D2A129"/>
  <polygon points="136.71,55.46 129.85,59.42 122.99,55.46 122.99,47.54 129.85,43.58 136.71,47.54" fill="#CF9539"/>
  <polygon points="144.51,68.96 137.65,72.92 130.79,68.96 130.79,61.04 137.65,57.08 144.51,61.04" fill="#CC8A49"/>
  <polygon points="152.30,82.46 145.44,86.42 138.58,82.46 138.58,74.54 145.44,70.58 152.30,74.54" fill="#C87E58"/>
  <polygon points="160.09,95.96 153.23,99.92 146.38,95.96 146.38,88.04 153.23,84.08 160.09,88.04" fill="#C57268"/>
  <polygon points="167.89,109.46 161.03,113.42 154.17,109.46 154.17,101.54 161.03,97.58 167.89,101.54" fill="#C26678"/>
  <polygon points="175.68,122.96 168.82,126.92 161.96,122.96 161.96,115.04 168.82,111.08 175.68,115.04" fill="#B55B7E"/>
  <polygon points="183.48,136.46 176.62,140.42 169.76,136.46 169.76,128.54 176.62,124.58 183.48,128.54" fill="#A0507B"/>
  <polygon points="191.27,149.96 184.41,153.92 177.55,149.96 177.55,142.04 184.41,138.08 191.27,142.04" fill="#8A4577"/>
  <polygon points="199.06,163.46 192.21,167.42 185.35,163.46 185.35,155.54 192.21,151.58 199.06,155.54" fill="#753B74"/>
  <polygon points="206.86,176.96 200.00,180.92 193.14,176.96 193.14,169.04 200.00,165.08 206.86,169.04" fill="#603170"/>
  <polygon points="214.65,190.46 207.79,194.42 200.94,190.46 200.94,182.54 207.79,178.58 214.65,182.54" fill="#50296E"/>
  <polygon points="222.45,203.96 215.59,207.92 208.73,203.96 208.73,196.04 215.59,192.08 222.45,196.04" fill="#50296E"/>
  <polygon points="230.24,217.46 223.38,221.42 216.52,217.46 216.52,209.54 223.38,205.58 230.24,209.54" fill="#603170"/>
  <polygon points="238.04,230.96 231.18,234.92 224.32,230.96 224.32,223.04 231.18,219.08 238.04,223.04" fill="#753B74"/>
  <polygon points="245.83,244.46 238.97,248.42 232.11,244.46 232.11,236.54 238.97,232.58 245.83,236.54" fill="#8A4577"/>
  <polygon points="253.62,257.96 246.77,261.92 239.91,257.96 239.91,250.04 246.77,246.08 253.62,250.04" fill="#A0507B"/>
  <polygon points="261.42,271.46 254.56,275.42 247.70,271.46 247.70,263.54 254.56,259.58 261.42,263.54" fill="#B55B7E"/>
  <polygon points="269.21,284.96 262.35,288.92 255.49,284.96 255.49,277.04 262.35,273.08 269.21,277.04" fill="#C26678"/>
  <polygon points="277.01,298.46 270.15,302.42 263.29,298.46 263.29,290.54 270.15,286.58 277.01,290.54" fill="#C57268"/>
  <polygon points="284.80,311.96 277.94,315.92 271.08,311.96 271.08,304.04 277.94,300.08 284.80,304.04" fill="#C87E58"/>
  <polygon points="292.60,325.46 285.74,329.42 278.88,325.46 278.88,317.54 285.74,313.58 292.60,317.54" fill="#CC8A49"/>
  <polygon points="300.39,338.96 293.53,342.92 286.67,338.96 286.67,331.04 293.53,327.08 300.39,331.04" fill="#CF9539"/>
  <polygon points="308.18,352.46 301.32,356.42 294.47,352.46 294.47,344.54 301.32,340.58 308.18,344.54" fill="#D2A129"/>
  <polygon points="315.98,365.96 309.12,369.92 302.26,365.96 302.26,358.04 309.12,354.08 315.98,358.04" fill="#D7AE2F"/>
  <polygon points="323.77,379.46 316.91,383.42 310.05,379.46 310.05,371.54 316.91,367.58 323.77,371.54" fill="#DEBB51"/>
  <polygon points="331.57,392.96 324.71,396.92 317.85,392.96 317.85,385.04 324.71,381.08 331.57,385.04" fill="#E5C874"/>
  <polygon points="128.92,14.96 122.06,18.92 115.20,14.96 115.20,7.04 122.06,3.08 128.92,7.04" fill="#DBB543"/>
  <polygon points="136.71,28.46 129.85,32.42 122.99,28.46 122.99,20.54 129.85,16.58 136.71,20.54" fill="#D4A821"/>
  <polygon points="144.51,41.96 137.65,45.92 130.79,41.96 130.79,34.04 137.65,30.08 144.51,34.04" fill="#D19D2F"/>
  <polygon points="152.30,55.46 145.44,59.42 138.58,55.46 138.58,47.54 145.44,43.58 152.30,47.54" fill="#CE913F"/>
  <polygon points="160.09,68.96 153.23,72.92 146.38,68.96 146.38,61.04 153.23,57.08 160.09,61.04" fill="#CA854F"/>
  <polygon points="167.89,82.46 161.03,86.42 154.17,82.46 154.17,74.54 161.03,70.58 167.89,74.54" fill="#C7795E"/>
  <polygon points="175.68,95.96 168.82,99.92 161.96,95.96 161.96,88.04 168.82,84.08 175.68,88.04" fill="#C46E6E"/>
  <polygon points="183.48,109.46 176.62,113.42 169.76,109.46 169.76,101.54 176.62,97.58 183.48,101.54" fill="#C1627D"/>
  <polygon points="191.27,122.96 184.41,126.92 177.55,122.96 177.55,115.04 184.41,111.08 191.27,115.04" fill="#AF587D"/>
  <polygon points="199.06,136.46 192.21,140.42 185.35,136.46 185.35,128.54 192.21,124.58 199.06,128.54" fill="#9B4E7A"/>
  <polygon points="206.86,149.96 200.00,153.92 193.14,149.96 193.14,142.04 200.00,138.08 206.86,142.04" fill="#874477"/>
  <polygon points="214.65,163.46 207.79,167.42 200.94,163.46 200.94,155.54 207.79,151.58 214.65,155.54" fill="#753B74"/>
  <polygon points="222.45,176.96 215.59,180.92 208.73,176.96 208.73,169.04 215.59,165.08 222.45,169.04" fill="#663471"/>
  <polygon points="230.24,190.46 223.38,194.42 216.52,190.46 216.52,182.54 223.38,178.58 230.24,182.54" fill="#603170"/>
  <polygon points="238.04,203.96 231.18,207.92 224.32,203.96 224.32,196.04 231.18,192.08 238.04,196.04" fill="#663471"/>
  <polygon points="245.83,217.46 238.97,221.42 232.11,217.46 232.11,209.54 238.97,205.58 245.83,209.54" fill="#753B74"/>
  <polygon points="253.62,230.96 246.77,234.92 239.91,230.96 239.91,223.04 246.77,219.08 253.62,223.04" fill="#874477"/>
  <polygon points="261.42,244.46 254.56,248.42 247.70,244.46 247.70,236.54 254.56,232.58 261.42,236.54" fill="#9B4E7A"/>
  <polygon points="269.21,257.96 262.35,261.92 255.49,257.96 255.49,250.04 262.35,246.08 269.21,250.04" fill="#AF587D"/>
  <polygon points="277.01,271.46 270.15,275.42 263.29,271.46 263.29,263.54 270.15,259.58 277.01,263.54" fill="#C1627D"/>
  <polygon points="284.80,284.96 277.94,288.92 271.08,284.96 271.08,277.04 277.94,273.08 284.80,277.04" fill="#C46E6E"/>
  <polygon points="292.60,298.46 285.74,302.42 278.88,298.46 278.88,290.54 285.74,286.58 292.60,290.54" fill="#C7795E"/>
  <polygon points="300.39,311.96 293.53,315.92 286.67,311.96 286.67,304.04 293.53,300.08 300.39,304.04" fill="#CA854F"/>
  <polygon points="308.18,325.46 301.32,329.42 294.47,325.46 294.47,317.54 301.32,313.58 308.18,317.54" fill="#CE913F"/>
  <polygon points="315.98,338.96 309.12,342.92 302.26,338.96 302.26,331.04 309.12,327.08 315.98,331.04" fill="#D19D2F"/>
  <polygon points="323.77,352.46 316.91,356.42 310.05,352.46 310.05,344.54 316.91,340.58 323.77,344.54" fill="#D4A821"/>
  <polygon points="331.57,365.96 324.71,369.92 317.85,365.96 317.85,358.04 324.71,354.08 331.57,358.04" fill="#DBB543"/>
  <polygon points="339.36,379.46 332.50,383.42 325.64,379.46 325.64,371.54 332.50,367.58 339.36,371.54" fill="#E2C365"/>
  <polygon points="347.16,392.96 340.30,396.92 333.44,392.96 333.44,385.04 340.30,381.08 347.16,385.04" fill="#E9D087"/>
  <polygon points="144.51,14.96 137.65,18.92 130.79,14.96 130.79,7.04 137.65,3.08 144.51,7.04" fill="#D9B137"/>
  <polygon points="152.30,28.46 145.44,32.42 138.58,28.46 138.58,20.54 145.44,16.58 152.30,20.54" fill="#D3A425"/>
  <polygon points="160.09,41.96 153.23,45.92 146.38,41.96 146.38,34.04 153.23,30.08 160.09,34.04" fill="#D09934"/>
  <polygon points="167.89,55.46 161.03,59.42 154.17,55.46 154.17,47.54 161.03,43.58 167.89,47.54" fill="#CD8D44"/>
  <polygon points="175.68,68.96 168.82,72.92 161.96,68.96 161.96,61.04 168.82,57.08 175.68,61.04" fill="#C98253"/>
  <polygon points="183.48,82.46 176.62,86.42 169.76,82.46 169.76,74.54 176.62,70.58 183.48,74.54" fill="#C67662"/>
  <polygon points="191.27,95.96 184.41,99.92 177.55,95.96 177.55,88.04 184.41,84.08 191.27,88.04" fill="#C36B71"/>
  <polygon points="199.06,109.46 192.21,113.42 185.35,109.46 185.35,101.54 192.21,97.58 199.06,101.54" fill="#C0607F"/>
  <polygon points="206.86,122.96 200.00,126.92 193.14,122.96 193.14,115.04 200.00,111.08 206.86,115.04" fill="#AD577D"/>
  <polygon points="214.65,136.46 207.79,140.42 200.94,136.46 200.94,128.54 207.79,124.58 214.65,128.54" fill="#9B4E7A"/>
  <polygon points="222.45,149.96 215.59,153.92 208.73,149.96 208.73,142.04 215.59,138.08 222.45,142.04" fill="#8A4577"/>
  <polygon points="230.24,163.46 223.38,167.42 216.52,163.46 216.52,155.54 223.38,151.58 230.24,155.54" fill="#7C3F75"/>
  <polygon points="238.04,176.96 231.18,180.92 224.32,176.96 224.32,169.04 231.18,165.08 238.04,169.04" fill="#753B74"/>
  <polygon points="245.83,190.46 238.97,194.42 232.11,190.46 232.11,182.54 238.97,178.58 245.83,182.54" fill="#753B74"/>
  <polygon points="253.62,203.96 246.77,207.92 239.91,203.96 239.91,196.04 246.77,192.08 253.62,196.04" fill="#7C3F75"/>
  <polygon points="261.42,217.46 254.56,221.42 247.70,217.46 247.70,209.54 254.56,205.58 261.42,209.54" fill="#8A4577"/>
  <polygon points="269.21,230.96 262.35,234.92 255.49,230.96 255.49,223.04 262.35,219.08 269.21,223.04" fill="#9B4E7A"/>
  <polygon points="277.01,244.46 270.15,248.42 263.29,244.46 263.29,236.54 270.15,232.58 277.01,236.54" fill="#AD577D"/>
  <polygon points="284.80,257.96 277.94,261.92 271.08,257.96 271.08,250.04 277.94,246.08 284.80,250.04" fill="#C0607F"/>
  <polygon points="292.60,271.46 285.74,275.42 278.88,271.46 278.88,263.54 285.74,259.58 292.60,263.54" fill="#C36B71"/>
  <polygon points="300.39,284.96 293.53,288.92 286.67,284.96 286.67,277.04 293.53,273.08 300.39,277.04" fill="#C67662"/>
  <polygon points="308.18,298.46 301.32,302.42 294.47,298.46 294.47,290.54 301.32,286.58 308.18,290.54" fill="#C98253"/>
  <polygon points="315.98,311.96 309.12,315.92 302.26,311.96 302.26,304.04 309.12,300.08 315.98,304.04" fill="#CD8D44"/>
  <polygon points="323.77,325.46 316.91,329.42 310.05,325.46 310.05,317.54 316.91,313.58 323.77,317.54" fill="#D09934"/>
  <polygon points="331.57,338.96 324.71,342.92 317.85,338.96 317.85,331.04 324.71,327.08 331.57,331.04" fill="#D3A425"/>
  <polygon points="339.36,352.46 332.50,356.42 325.64,352.46 325.64,344.54 332.50,340.58 339.36,344.54" fill="#D9B137"/>
  <polygon points="347.16,365.96 340.30,369.92 333.44,365.96 333.44,358.04 340.30,354.08 347.16,358.04" fill="#E0BE59"/>
  <polygon points="354.95,379.46 348.09,383.42 341.23,379.46 341.23,371.54 348.09,367.58 354.95,371.54" fill="#E7CB7B"/>
  <polygon points="362.74,392.96 355.88,396.92 349.03,392.96 349.03,385.04 355.88,381.08 362.74,385.04" fill="#EED89C"/>
  <polygon points="160.09,14.96 153.23,18.92 146.38,14.96 146.38,7.04 153.23,3.08 160.09,7.04" fill="#D7AD2E"/>
  <polygon points="167.89,28.46 161.03,32.42 154.17,28.46 154.17,20.54 161.03,16.58 167.89,20.54" fill="#D2A129"/>
  <polygon points="175.68,41.96 168.82,45.92 161.96,41.96 161.96,34.04 168.82,30.08 175.68,34.04" fill="#CF9638"/>
  <polygon points="183.48,55.46 176.62,59.42 169.76,55.46 169.76,47.54 176.62,43.58 183.48,47.54" fill="#CC8B47"/>
  <polygon points="191.27,68.96 184.41,72.92 177.55,68.96 177.55,61.04 184.41,57.08 191.27,61.04" fill="#C98056"/>
  <polygon points="199.06,82.46 192.21,86.42 185.35,82.46 185.35,74.54 192.21,70.58 199.06,74.54" fill="#C67564"/>
  <polygon points="206.86,95.96 200.00,99.92 193.14,95.96 193.14,88.04 200.00,84.08 206.86,88.04" fill="#C36A72"/>
  <polygon points="214.65,109.46 207.79,113.42 200.94,109.46 200.94,101.54 207.79,97.58 214.65,101.54" fill="#C0607F"/>
  <polygon points="222.45,122.96 215.59,126.92 208.73,122.96 208.73,115.04 215.59,111.08 222.45,115.04" fill="#AF587D"/>
  <polygon points="230.24,136.46 223.38,140.42 216.52,136.46 216.52,128.54 223.38,124.58 230.24,128.54" fill="#A0507B"/>
  <polygon points="238.04,149.96 231.18,153.92 224.32,149.96 224.32,142.04 231.18,138.08 238.04,142.04" fill="#934A79"/>
  <polygon points="245.83,163.46 238.97,167.42 232.11,163.46 232.11,155.54 238.97,151.58 245.83,155.54" fill="#8A4577"/>
  <polygon points="253.62,176.96 246.77,180.92 239.91,176.96 239.91,169.04 246.77,165.08 253.62,169.04" fill="#874477"/>
  <polygon points="261.42,190.46 254.56,194.42 247.70,190.46 247.70,182.54 254.56,178.58 261.42,182.54" fill="#8A4577"/>
  <polygon points="269.21,203.96 262.35,207.92 255.49,203.96 255.49,196.04 262.35,192.08 269.21,196.04" fill="#934A79"/>
  <polygon points="277.01,217.46 270.15,221.42 263.29,217.46 263.29,209.54 270.15,205.58 277.01,209.54" fill="#A0507B"/>
  <polygon points="284.80,230.96 277.94,234.92 271.08,230.96 271.08,223.04 277.94,219.08 284.80,223.04" fill="#AF587D"/>
  <polygon points="292.60,244.46 285.74,248.42 278.88,244.46 278.88,236.54 285.74,232.58 292.60,236.54" fill="#C0607F"/>
  <polygon points="300.39,257.96 293.53,261.92 286.67,257.96 286.67,250.04 293.53,246.08 300.39,250.04" fill="#C36A72"/>
  <polygon points="308.18,271.46 301.32,275.42 294.47,271.46 294.47,263.54 301.32,259.58 308.18,263.54" fill="#C67564"/>
  <polygon points="315.98,284.96 309.12,288.92 302.26,284.96 302.26,277.04 309.12,273.08 315.98,277.04" fill="#C98056"/>
  <polygon points="323.77,298.46 316.91,302.42 310.05,298.46 310.05,290.54 316.91,286.58 323.77,290.54" fill="#CC8B47"/>
  <polygon points="331.57,311.96 324.71,315.92 317.85,311.96 317.85,304.04 324.71,300.08 331.57,304.04" fill="#CF9638"/>
  <polygon points="339.36,325.46 332.50,329.42 325.64,325.46 325.64,317.54 332.50,313.58 339.36,317.54" fill="#D2A129"/>
  <polygon points="347.16,338.96 340.30,342.92 333.44,338.96 333.44,331.04 340.30,327.08 347.16,331.04" fill="#D7AD2E"/>
  <polygon points="354.95,352.46 348.09,356.42 341.23,352.46 341.23,344.54 348.09,340.58 354.95,344.54" fill="#DEBA4F"/>
  <polygon points="362.74,365.96 355.88,369.92 349.03,365.96 349.03,358.04 355.88,354.08 362.74,358.04" fill="#E5C770"/>
  <polygon points="370.54,379.46 363.68,383.42 356.82,379.46 356.82,371.54 363.68,367.58 370.54,371.54" fill="#EBD491"/>
  <polygon points="378.33,392.96 371.47,396.92 364.61,392.96 364.61,385.04 371.47,381.08 378.33,385.04" fill="#F2E1B3"/>
  <polygon points="175.68,14.96 168.82,18.92 161.96,14.96 161.96,7.04 168.82,3.08 175.68,7.04" fill="#D5AB27"/>
  <polygon points="183.48,28.46 176.62,32.42 169.76,28.46 169.76,20.54 176.62,16.58 183.48,20.54" fill="#D29F2C"/>
  <polygon points="191.27,41.96 184.41,45.92 177.55,41.96 177.55,34.04 184.41,30.08 191.27,34.04" fill="#CF943A"/>
  <polygon points="199.06,55.46 192.21,59.42 185.35,55.46 185.35,47.54 192.21,43.58 199.06,47.54" fill="#CC8A49"/>
  <polygon points="206.86,68.96 200.00,72.92 193.14,68.96 193.14,61.04 200.00,57.08 206.86,61.04" fill="#C97F57"/>
  <polygon points="214.65,82.46 207.79,86.42 200.94,82.46 200.94,74.54 207.79,70.58 214.65,74.54" fill="#C67564"/>
  <polygon points="222.45,95.96 215.59,99.92 208.73,95.96 208.73,88.04 215.59,84.08 222.45,88.04" fill="#C36B71"/>
  <polygon points="230.24,109.46 223.38,113.42 216.52,109.46 216.52,101.54 223.38,97.58 230.24,101.54" fill="#C1627D"/>
  <polygon points="238.04,122.96 231.18,126.92 224.32,122.96 224.32,115.04 231.18,111.08 238.04,115.04" fill="#B55B7E"/>
  <polygon points="245.83,136.46 238.97,140.42 232.11,136.46 232.11,128.54 238.97,124.58 245.83,128.54" fill="#A9557C"/>
  <polygon points="253.62,149.96 246.77,153.92 239.91,149.96 239.91,142.04 246.77,138.08 253.62,142.04" fill="#A0507B"/>
  <polygon points="261.42,163.46 254.56,167.42 247.70,163.46 247.70,155.54 254.56,151.58 261.42,155.54" fill="#9B4E7A"/>
  <polygon points="269.21,176.96 262.35,180.92 255.49,176.96 255.49,169.04 262.35,165.08 269.21,169.04" fill="#9B4E7A"/>
  <polygon points="277.01,190.46 270.15,194.42 263.29,190.46 263.29,182.54 270.15,178.58 277.01,182.54" fill="#A0507B"/>
  <polygon points="284.80,203.96 277.94,207.92 271.08,203.96 271.08,196.04 277.94,192.08 284.80,196.04" fill="#A9557C"/>
  <polygon points="292.60,217.46 285.74,221.42 278.88,217.46 278.88,209.54 285.74,205.58 292.60,209.54" fill="#B55B7E"/>
  <polygon points="300.39,230.96 293.53,234.92 286.67,230.96 286.67,223.04 293.53,219.08 300.39,223.04" fill="#C1627D"/>
  <polygon points="308.18,244.46 301.32,248.42 294.47,244.46 294.47,236.54 301.32,232.58 308.18,236.54" fill="#C36B71"/>
  <polygon points="315.98,257.96 309.12,261.92 302.26,257.96 302.26,250.04 309.12,246.08 315.98,250.04" fill="#C67564"/>
  <polygon points="323.77,271.46 316.91,275.42 310.05,271.46 310.05,263.54 316.91,259.58 323.77,263.54" fill="#C97F57"/>
  <polygon points="331.57,284.96 324.71,288.92 317.85,284.96 317.85,277.04 324.71,273.08 331.57,277.04" fill="#CC8A49"/>
  <polygon points="339.36,298.46 332.50,302.42 325.64,298.46 325.64,290.54 332.50,286.58 339.36,290.54" fill="#CF943A"/>
  <polygon points="347.16,311.96 340.30,315.92 333.44,311.96 333.44,304.04 340.30,300.08 347.16,304.04" fill="#D29F2C"/>
  <polygon points="354.95,325.46 348.09,329.42 341.23,325.46 341.23,317.54 348.09,313.58 354.95,317.54" fill="#D5AB27"/>
  <polygon points="362.74,338.96 355.88,342.92 349.03,338.96 349.03,331.04 355.88,327.08 362.74,331.04" fill="#DCB747"/>
  <polygon points="370.54,352.46 363.68,356.42 356.82,352.46 356.82,344.54 363.68,340.58 370.54,344.54" fill="#E3C468"/>
  <polygon points="378.33,365.96 371.47,369.92 364.61,365.96 364.61,358.04 371.47,354.08 378.33,358.04" fill="#EAD088"/>
  <polygon points="386.13,379.46 379.27,383.42 372.41,379.46 372.41,371.54 379.27,367.58 386.13,371.54" fill="#F0DDA9"/>
  <polygon points="393.92,392.96 387.06,396.92 380.20,392.96 380.20,385.04 387.06,381.08 393.92,385.04" fill="#F7EACB"/>
  <polygon points="191.27,14.96 184.41,18.92 177.55,14.96 177.55,7.04 184.41,3.08 191.27,7.04" fill="#D4A922"/>
  <polygon points="199.06,28.46 192.21,32.42 185.35,28.46 185.35,20.54 192.21,16.58 199.06,20.54" fill="#D19E2D"/>
  <polygon points="206.86,41.96 200.00,45.92 193.14,41.96 193.14,34.04 200.00,30.08 206.86,34.04" fill="#CE943B"/>
  <polygon points="214.65,55.46 207.79,59.42 200.94,55.46 200.94,47.54 207.79,43.58 214.65,47.54" fill="#CC8A49"/>
  <polygon points="222.45,68.96 215.59,72.92 208.73,68.96 208.73,61.04 215.59,57.08 222.45,61.04" fill="#C98056"/>
  <polygon points="230.24,82.46 223.38,86.42 216.52,82.46 216.52,74.54 223.38,70.58 230.24,74.54" fill="#C67662"/>
  <polygon points="238.04,95.96 231.18,99.92 224.32,95.96 224.32,88.04 231.18,84.08 238.04,88.04" fill="#C46E6E"/>
  <polygon points="245.83,109.46 238.97,113.42 232.11,109.46 232.11,101.54 238.97,97.58 245.83,101.54" fill="#C26678"/>
  <polygon points="253.62,122.96 246.77,126.92 239.91,122.96 239.91,115.04 246.77,111.08 253.62,115.04" fill="#BF5F80"/>
  <polygon points="261.42,136.46 254.56,140.42 247.70,136.46 247.70,128.54 254.56,124.58 261.42,128.54" fill="#B55B7E"/>
  <polygon points="269.21,149.96 262.35,153.92 255.49,149.96 255.49,142.04 262.35,138.08 269.21,142.04" fill="#AF587D"/>
  <polygon points="277.01,163.46 270.15,167.42 263.29,163.46 263.29,155.54 270.15,151.58 277.01,155.54" fill="#AD577D"/>
  <polygon points="284.80,176.96 277.94,180.92 271.08,176.96 271.08,169.04 277.94,165.08 284.80,169.04" fill="#AF587D"/>
  <polygon points="292.60,190.46 285.74,194.42 278.88,190.46 278.88,182.54 285.74,178.58 292.60,182.54" fill="#B55B7E"/>
  <polygon points="300.39,203.96 293.53,207.92 286.67,203.96 286.67,196.04 293.53,192.08 300.39,196.04" fill="#BF5F80"/>
  <polygon points="308.18,217.46 301.32,221.42 294.47,217.46 294.47,209.54 301.32,205.58 308.18,209.54" fill="#C26678"/>
  <polygon points="315.98,230.96 309.12,234.92 302.26,230.96 302.26,223.04 309.12,219.08 315.98,223.04" fill="#C46E6E"/>
  <polygon points="323.77,244.46 316.91,248.42 310.05,244.46 310.05,236.54 316.91,232.58 323.77,236.54" fill="#C67662"/>
  <polygon points="331.57,257.96 324.71,261.92 317.85,257.96 317.85,250.04 324.71,246.08 331.57,250.04" fill="#C98056"/>
  <polygon points="339.36,271.46 332.50,275.42 325.64,271.46 325.64,263.54 332.50,259.58 339.36,263.54" fill="#CC8A49"/>
  <polygon points="347.16,284.96 340.30,288.92 333.44,284.96 333.44,277.04 340.30,273.08 347.16,277.04" fill="#CE943B"/>
  <polygon points="354.95,298.46 348.09,302.42 341.23,298.46 341.23,290.54 348.09,286.58 354.95,290.54" fill="#D19E2D"/>
  <polygon points="362.74,311.96 355.88,315.92 349.03,311.96 349.03,304.04 355.88,300.08 362.74,304.04" fill="#D4A922"/>
  <polygon points="370.54,325.46 363.68,329.42 356.82,325.46 356.82,317.54 363.68,313.58 370.54,317.54" fill="#DBB542"/>
  <polygon points="378.33,338.96 371.47,342.92 364.61,338.96 364.61,331.04 371.47,327.08 378.33,331.04" fill="#E2C161"/>
  <polygon points="386.13,352.46 379.27,356.42 372.41,352.46 372.41,344.54 379.27,340.58 386.13,344.54" fill="#E8CE82"/>
  <polygon points="393.92,365.96 387.06,369.92 380.20,365.96 380.20,358.04 387.06,354.08 393.92,358.04" fill="#EFDAA2"/>
  <polygon points="206.86,14.96 200.00,18.92 193.14,14.96 193.14,7.04 200.00,3.08 206.86,7.04" fill="#D4A821"/>
  <polygon points="214.65,28.46 207.79,32.42 200.94,28.46 200.94,20.54 207.79,16.58 214.65,20.54" fill="#D19E2D"/>
  <polygon points="222.45,41.96 215.59,45.92 208.73,41.96 208.73,34.04 215.59,30.08 222.45,34.04" fill="#CF943A"/>
  <polygon points="230.24,55.46 223.38,59.42 216.52,55.46 216.52,47.54 223.38,43.58 230.24,47.54" fill="#CC8B47"/>
  <polygon points="238.04,68.96 231.18,72.92 224.32,68.96 224.32,61.04 231.18,57.08 238.04,61.04" fill="#C98253"/>
  <polygon points="245.83,82.46 238.97,86.42 232.11,82.46 232.11,74.54 238.97,70.58 245.83,74.54" fill="#C7795E"/>
  <polygon points="253.62,95.96 246.77,99.92 239.91,95.96 239.91,88.04 246.77,84.08 253.62,88.04" fill="#C57268"/>
  <polygon points="261.42,109.46 254.56,113.42 247.70,109.46 247.70,101.54 254.56,97.58 261.42,101.54" fill="#C36B71"/>
  <polygon points="269.21,122.96 262.35,126.92 255.49,122.96 255.49,115.04 262.35,111.08 269.21,115.04" fill="#C26678"/>
  <polygon points="277.01,136.46 270.15,140.42 263.29,136.46 263.29,128.54 270.15,124.58 277.01,128.54" fill="#C1627D"/>
  <polygon points="284.80,149.96 277.94,153.92 271.08,149.96 271.08,142.04 277.94,138.08 284.80,142.04" fill="#C0607F"/>
  <polygon points="292.60,163.46 285.74,167.42 278.88,163.46 278.88,155.54 285.74,151.58 292.60,155.54" fill="#C0607F"/>
  <polygon points="300.39,176.96 293.53,180.92 286.67,176.96 286.67,169.04 293.53,165.08 300.39,169.04" fill="#C1627D"/>
  <polygon points="308.18,190.46 301.32,194.42 294.47,190.46 294.47,182.54 301.32,178.58 308.18,182.54" fill="#C26678"/>
  <polygon points="315.98,203.96 309.12,207.92 302.26,203.96 302.26,196.04 309.12,192.08 315.98,196.04" fill="#C36B71"/>
  <polygon points="323.77,217.46 316.91,221.42 310.05,217.46 310.05,209.54 316.91,205.58 323.77,209.54" fill="#C57268"/>
  <polygon points="331.57,230.96 324.71,234.92 317.85,230.96 317.85,223.04 324.71,219.08 331.57,223.04" fill="#C7795E"/>
  <polygon points="339.36,244.46 332.50,248.42 325.64,244.46 325.64,236.54 332.50,232.58 339.36,236.54" fill="#C98253"/>
  <polygon points="347.16,257.96 340.30,261.92 333.44,257.96 333.44,250.04 340.30,246.08 347.16,250.04" fill="#CC8B47"/>
  <polygon points="354.95,271.46 348.09,275.42 341.23,271.46 341.23,263.54 348.09,259.58 354.95,263.54" fill="#CF943A"/>
  <polygon points="362.74,284.96 355.88,288.92 349.03,284.96 349.03,277.04 355.88,273.08 362.74,277.04" fill="#D19E2D"/>
  <polygon points="370.54,298.46 363.68,302.42 356.82,298.46 356.82,290.54 363.68,286.58 370.54,290.54" fill="#D4A821"/>
  <polygon points="378.33,311.96 371.47,315.92 364.61,311.96 364.61,304.04 371.47,300.08 378.33,304.04" fill="#DAB43F"/>
  <polygon points="386.13,325.46 379.27,329.42 372.41,325.46 372.41,317.54 379.27,313.58 386.13,317.54" fill="#E1C05E"/>
  <polygon points="393.92,338.96 387.06,342.92 380.20,338.96 380.20,331.04 387.06,327.08 393.92,331.04" fill="#E7CC7D"/>
  <polygon points="222.45,14.96 215.59,18.92 208.73,14.96 208.73,7.04 215.59,3.08 222.45,7.04" fill="#D4A922"/>
  <polygon points="230.24,28.46 223.38,32.42 216.52,28.46 216.52,20.54 223.38,16.58 230.24,20.54" fill="#D29F2C"/>
  <polygon points="238.04,41.96 231.18,45.92 224.32,41.96 224.32,34.04 231.18,30.08 238.04,34.04" fill="#CF9638"/>
  <polygon points="245.83,55.46 238.97,59.42 232.11,55.46 232.11,47.54 238.97,43.58 245.83,47.54" fill="#CD8D44"/>
  <polygon points="253.62,68.96 246.77,72.92 239.91,68.96 239.91,61.04 246.77,57.08 253.62,61.04" fill="#CA854F"/>
  <polygon points="261.42,82.46 254.56,86.42 247.70,82.46 247.70,74.54 254.56,70.58 261.42,74.54" fill="#C87E58"/>
  <polygon points="269.21,95.96 262.35,99.92 255.49,95.96 255.49,88.04 262.35,84.08 269.21,88.04" fill="#C67761"/>
  <polygon points="277.01,109.46 270.15,113.42 263.29,109.46 263.29,101.54 270.15,97.58 277.01,101.54" fill="#C57268"/>
  <polygon points="284.80,122.96 277.94,126.92 271.08,122.96 271.08,115.04 277.94,111.08 284.80,115.04" fill="#C46E6E"/>
  <polygon points="292.60,136.46 285.74,140.42 278.88,136.46 278.88,128.54 285.74,124.58 292.60,128.54" fill="#C36B71"/>
  <polygon points="300.39,149.96 293.53,153.92 286.67,149.96 286.67,142.04 293.53,138.08 300.39,142.04" fill="#C36A72"/>
  <polygon points="308.18,163.46 301.32,167.42 294.47,163.46 294.47,155.54 301.32,151.58 308.18,155.54" fill="#C36B71"/>
  <polygon points="315.98,176.96 309.12,180.92 302.26,176.96 302.26,169.04 309.12,165.08 315.98,169.04" fill="#C46E6E"/>
  <polygon points="323.77,190.46 316.91,194.42 310.05,190.46 310.05,182.54 316.91,178.58 323.77,182.54" fill="#C57268"/>
  <polygon points="331.57,203.96 324.71,207.92 317.85,203.96 317.85,196.04 324.71,192.08 331.57,196.04" fill="#C67761"/>
  <polygon points="339.36,217.46 332.50,221.42 325.64,217.46 325.64,209.54 332.50,205.58 339.36,209.54" fill="#C87E58"/>
  <polygon points="347.16,230.96 340.30,234.92 333.44,230.96 333.44,223.04 340.30,219.08 347.16,223.04" fill="#CA854F"/>
  <polygon points="354.95,244.46 348.09,248.42 341.23,244.46 341.23,236.54 348.09,232.58 354.95,236.54" fill="#CD8D44"/>
  <polygon points="362.74,257.96 355.88,261.92 349.03,257.96 349.03,250.04 355.88,246.08 362.74,250.04" fill="#CF9638"/>
  <polygon points="370.54,271.46 363.68,275.42 356.82,271.46 356.82,263.54 363.68,259.58 370.54,263.54" fill="#D29F2C"/>
  <polygon points="378.33,284.96 371.47,288.92 364.61,284.96 364.61,277.04 371.47,273.08 378.33,277.04" fill="#D4A922"/>
  <polygon points="386.13,298.46 379.27,302.42 372.41,298.46 372.41,290.54 379.27,286.58 386.13,290.54" fill="#DAB43F"/>
  <polygon points="393.92,311.96 387.06,315.92 380.20,311.96 380.20,304.04 387.06,300.08 393.92,304.04" fill="#E1BF5D"/>
  <polygon points="238.04,14.96 231.18,18.92 224.32,14.96 224.32,7.04 231.18,3.08 238.04,7.04" fill="#D5AB27"/>
  <polygon points="245.83,28.46 238.97,32.42 232.11,28.46 232.11,20.54 238.97,16.58 245.83,20.54" fill="#D2A129"/>
  <polygon points="253.62,41.96 246.77,45.92 239.91,41.96 239.91,34.04 246.77,30.08 253.62,34.04" fill="#D09934"/>
  <polygon points="261.42,55.46 254.56,59.42 247.70,55.46 247.70,47.54 254.56,43.58 261.42,47.54" fill="#CE913F"/>
  <polygon points="269.21,68.96 262.35,72.92 255.49,68.96 255.49,61.04 262.35,57.08 269.21,61.04" fill="#CC8A49"/>
  <polygon points="277.01,82.46 270.15,86.42 263.29,82.46 263.29,74.54 270.15,70.58 277.01,74.54" fill="#CA8351"/>
  <polygon points="284.80,95.96 277.94,99.92 271.08,95.96 271.08,88.04 277.94,84.08 284.80,88.04" fill="#C87E58"/>
  <polygon points="292.60,109.46 285.74,113.42 278.88,109.46 278.88,101.54 285.74,97.58 292.60,101.54" fill="#C7795E"/>
  <polygon points="300.39,122.96 293.53,126.92 286.67,122.96 286.67,115.04 293.53,111.08 300.39,115.04" fill="#C67662"/>
  <polygon points="308.18,136.46 301.32,140.42 294.47,136.46 294.47,128.54 301.32,124.58 308.18,128.54" fill="#C67564"/>
  <polygon points="315.98,149.96 309.12,153.92 302.26,149.96 302.26,142.04 309.12,138.08 315.98,142.04" fill="#C67564"/>
  <polygon points="323.77,163.46 316.91,167.42 310.05,163.46 310.05,155.54 316.91,151.58 323.77,155.54" fill="#C67662"/>
  <polygon points="331.57,176.96 324.71,180.92 317.85,176.96 317.85,169.04 324.71,165.08 331.57,169.04" fill="#C7795E"/>
  <polygon points="339.36,190.46 332.50,194.42 325.64,190.46 325.64,182.54 332.50,178.58 339.36,182.54" fill="#C87E58"/>
  <polygon points="347.16,203.96 340.30,207.92 333.44,203.96 333.44,196.04 340.30,192.08 347.16,196.04" fill="#CA8351"/>
  <polygon points="354.95,217.46 348.09,221.42 341.23,217.46 341.23,209.54 348.09,205.58 354.95,209.54" fill="#CC8A49"/>
  <polygon points="362.74,230.96 355.88,234.92 349.03,230.96 349.03,223.04 355.88,219.08 362.74,223.04" fill="#CE913F"/>
  <polygon points="370.54,244.46 363.68,248.42 356.82,244.46 356.82,236.54 363.68,232.58 370.54,236.54" fill="#D09934"/>
  <polygon points="378.33,257.96 371.47,261.92 364.61,257.96 364.61,250.04 371.47,246.08 378.33,250.04" fill="#D2A129"/>
  <polygon points="386.13,271.46 379.27,275.42 372.41,271.46 372.41,263.54 379.27,259.58 386.13,263.54" fill="#D5AB27"/>
  <polygon points="393.92,284.96 387.06,288.92 380.20,284.96 380.20,277.04 387.06,273.08 393.92,277.04" fill="#DBB542"/>
  <polygon points="253.62,14.96 246.77,18.92 239.91,14.96 239.91,7.04 246.77,3.08 253.62,7.04" fill="#D7AD2E"/>
  <polygon points="261.42,28.46 254.56,32.42 247.70,28.46 247.70,20.54 254.56,16.58 261.42,20.54" fill="#D3A425"/>
  <polygon points="269.21,41.96 262.35,45.92 255.49,41.96 255.49,34.04 262.35,30.08 269.21,34.04" fill="#D19D2F"/>
  <polygon points="277.01,55.46 270.15,59.42 263.29,55.46 263.29,47.54 270.15,43.58 277.01,47.54" fill="#CF9539"/>
  <polygon points="284.80,68.96 277.94,72.92 271.08,68.96 271.08,61.04 277.94,57.08 284.80,61.04" fill="#CD8F41"/>
  <polygon points="292.60,82.46 285.74,86.42 278.88,82.46 278.88,74.54 285.74,70.58 292.60,74.54" fill="#CC8A49"/>
  <polygon points="300.39,95.96 293.53,99.92 286.67,95.96 286.67,88.04 293.53,84.08 300.39,88.04" fill="#CA854F"/>
  <polygon points="308.18,109.46 301.32,113.42 294.47,109.46 294.47,101.54 301.32,97.58 308.18,101.54" fill="#C98253"/>
  <polygon points="315.98,122.96 309.12,126.92 302.26,122.96 302.26,115.04 309.12,111.08 315.98,115.04" fill="#C98056"/>
  <polygon points="323.77,136.46 316.91,140.42 310.05,136.46 310.05,128.54 316.91,124.58 323.77,128.54" fill="#C97F57"/>
  <polygon points="331.57,149.96 324.71,153.92 317.85,149.96 317.85,142.04 324.71,138.08 331.57,142.04" fill="#C98056"/>
  <polygon points="339.36,163.46 332.50,167.42 325.64,163.46 325.64,155.54 332.50,151.58 339.36,155.54" fill="#C98253"/>
  <polygon points="347.16,176.96 340.30,180.92 333.44,176.96 333.44,169.04 340.30,165.08 347.16,169.04" fill="#CA854F"/>
  <polygon points="354.95,190.46 348.09,194.42 341.23,190.46 341.23,182.54 348.09,178.58 354.95,182.54" fill="#CC8A49"/>
  <polygon points="362.74,203.96 355.88,207.92 349.03,203.96 349.03,196.04 355.88,192.08 362.74,196.04" fill="#CD8F41"/>
  <polygon points="370.54,217.46 363.68,221.42 356.82,217.46 356.82,209.54 363.68,205.58 370.54,209.54" fill="#CF9539"/>
  <polygon points="378.33,230.96 371.47,234.92 364.61,230.96 364.61,223.04 371.47,219.08 378.33,223.04" fill="#D19D2F"/>
  <polygon points="386.13,244.46 379.27,248.42 372.41,244.46 372.41,236.54 379.27,232.58 386.13,236.54" fill="#D3A425"/>
  <polygon points="393.92,257.96 387.06,261.92 380.20,257.96 380.20,250.04 387.06,246.08 393.92,250.04" fill="#D7AD2E"/>
  <polygon points="269.21,14.96 262.35,18.92 255.49,14.96 255.49,7.04 262.35,3.08 269.21,7.04" fill="#D9B137"/>
  <polygon points="277.01,28.46 270.15,32.42 263.29,28.46 263.29,20.54 270.15,16.58 277.01,20.54" fill="#D4A821"/>
  <polygon points="284.80,41.96 277.94,45.92 271.08,41.96 271.08,34.04 277.94,30.08 284.80,34.04" fill="#D2A129"/>
  <polygon points="292.60,55.46 285.74,59.42 278.88,55.46 278.88,47.54 285.74,43.58 292.60,47.54" fill="#D09B31"/>
  <polygon points="300.39,68.96 293.53,72.92 286.67,68.96 286.67,61.04 293.53,57.08 300.39,61.04" fill="#CF9539"/>
  <polygon points="308.18,82.46 301.32,86.42 294.47,82.46 294.47,74.54 301.32,70.58 308.18,74.54" fill="#CE913F"/>
  <polygon points="315.98,95.96 309.12,99.92 302.26,95.96 302.26,88.04 309.12,84.08 315.98,88.04" fill="#CD8D44"/>
  <polygon points="323.77,109.46 316.91,113.42 310.05,109.46 310.05,101.54 316.91,97.58 323.77,101.54" fill="#CC8B47"/>
  <polygon points="331.57,122.96 324.71,126.92 317.85,122.96 317.85,115.04 324.71,111.08 331.57,115.04" fill="#CC8A49"/>
  <polygon points="339.36,136.46 332.50,140.42 325.64,136.46 325.64,128.54 332.50,124.58 339.36,128.54" fill="#CC8A49"/>
  <polygon points="347.16,149.96 340.30,153.92 333.44,149.96 333.44,142.04 340.30,138.08 347.16,142.04" fill="#CC8B47"/>
  <polygon points="354.95,163.46 348.09,167.42 341.23,163.46 341.23,155.54 348.09,151.58 354.95,155.54" fill="#CD8D44"/>
  <polygon points="362.74,176.96 355.88,180.92 349.03,176.96 349.03,169.04 355.88,165.08 362.74,169.04" fill="#CE913F"/>
  <polygon points="370.54,190.46 363.68,194.42 356.82,190.46 356.82,182.54 363.68,178.58 370.54,182.54" fill="#CF9539"/>
  <polygon points="378.33,203.96 371.47,207.92 364.61,203.96 364.61,196.04 371.47,192.08 378.33,196.04" fill="#D09B31"/>
  <polygon points="386.13,217.46 379.27,221.42 372.41,217.46 372.41,209.54 379.27,205.58 386.13,209.54" fill="#D2A129"/>
  <polygon points="393.92,230.96 387.06,234.92 380.20,230.96 380.20,223.04 387.06,219.08 393.92,223.04" fill="#D4A821"/>
  <polygon points="284.80,14.96 277.94,18.92 271.08,14.96 271.08,7.04 277.94,3.08 284.80,7.04" fill="#DBB543"/>
  <polygon points="292.60,28.46 285.74,32.42 278.88,28.46 278.88,20.54 285.74,16.58 292.60,20.54" fill="#D7AE2F"/>
  <polygon points="300.39,41.96 293.53,45.92 286.67,41.96 286.67,34.04 293.53,30.08 300.39,34.04" fill="#D4A722"/>
  <polygon points="308.18,55.46 301.32,59.42 294.47,55.46 294.47,47.54 301.32,43.58 308.18,47.54" fill="#D2A129"/>
  <polygon points="315.98,68.96 309.12,72.92 302.26,68.96 302.26,61.04 309.12,57.08 315.98,61.04" fill="#D19D2F"/>
  <polygon points="323.77,82.46 316.91,86.42 310.05,82.46 310.05,74.54 316.91,70.58 323.77,74.54" fill="#D09934"/>
  <polygon points="331.57,95.96 324.71,99.92 317.85,95.96 317.85,88.04 324.71,84.08 331.57,88.04" fill="#CF9638"/>
  <polygon points="339.36,109.46 332.50,113.42 325.64,109.46 325.64,101.54 332.50,97.58 339.36,101.54" fill="#CF943A"/>
  <polygon points="347.16,122.96 340.30,126.92 333.44,122.96 333.44,115.04 340.30,111.08 347.16,115.04" fill="#CE943B"/>
  <polygon points="354.95,136.46 348.09,140.42 341.23,136.46 341.23,128.54 348.09,124.58 354.95,128.54" fill="#CF943A"/>
  <polygon points="362.74,149.96 355.88,153.92 349.03,149.96 349.03,142.04 355.88,138.08 362.74,142.04" fill="#CF9638"/>
  <polygon points="370.54,163.46 363.68,167.42 356.82,163.46 356.82,155.54 363.68,151.58 370.54,155.54" fill="#D09934"/>
  <polygon points="378.33,176.96 371.47,180.92 364.61,176.96 364.61,169.04 371.47,165.08 378.33,169.04" fill="#D19D2F"/>
  <polygon points="386.13,190.46 379.27,194.42 372.41,190.46 372.41,182.54 379.27,178.58 386.13,182.54" fill="#D2A129"/>
  <polygon points="393.92,203.96 387.06,207.92 380.20,203.96 380.20,196.04 387.06,192.08 393.92,196.04" fill="#D4A722"/>
  <polygon points="300.39,14.96 293.53,18.92 286.67,14.96 286.67,7.04 293.53,3.08 300.39,7.04" fill="#DEBB51"/>
  <polygon points="308.18,28.46 301.32,32.42 294.47,28.46 294.47,20.54 301.32,16.58 308.18,20.54" fill="#DAB43F"/>
  <polygon points="315.98,41.96 309.12,45.92 302.26,41.96 302.26,34.04 309.12,30.08 315.98,34.04" fill="#D7AE2F"/>
  <polygon points="323.77,55.46 316.91,59.42 310.05,55.46 310.05,47.54 316.91,43.58 323.77,47.54" fill="#D4A821"/>
  <polygon points="331.57,68.96 324.71,72.92 317.85,68.96 317.85,61.04 324.71,57.08 331.57,61.04" fill="#D3A425"/>
  <polygon points="339.36,82.46 332.50,86.42 325.64,82.46 325.64,74.54 332.50,70.58 339.36,74.54" fill="#D2A129"/>
  <polygon points="347.16,95.96 340.30,99.92 333.44,95.96 333.44,88.04 340.30,84.08 347.16,88.04" fill="#D29F2C"/>
  <polygon points="354.95,109.46 348.09,113.42 341.23,109.46 341.23,101.54 348.09,97.58 354.95,101.54" fill="#D19E2D"/>
  <polygon points="362.74,122.96 355.88,126.92 349.03,122.96 349.03,115.04 355.88,111.08 362.74,115.04" fill="#D19E2D"/>
  <polygon points="370.54,136.46 363.68,140.42 356.82,136.46 356.82,128.54 363.68,124.58 370.54,128.54" fill="#D29F2C"/>
  <polygon points="378.33,149.96 371.47,153.92 364.61,149.96 364.61,142.04 371.47,138.08 378.33,142.04" fill="#D2A129"/>
  <polygon points="386.13,163.46 379.27,167.42 372.41,163.46 372.41,155.54 379.27,151.58 386.13,155.54" fill="#D3A425"/>
  <polygon points="393.92,176.96 387.06,180.92 380.20,176.96 380.20,169.04 387.06,165.08 393.92,169.04" fill="#D4A821"/>
  <polygon points="315.98,14.96 309.12,18.92 302.26,14.96 302.26,7.04 309.12,3.08 315.98,7.04" fill="#E2C161"/>
  <polygon points="323.77,28.46 316.91,32.42 310.05,28.46 310.05,20.54 316.91,16.58 323.77,20.54" fill="#DEBB51"/>
  <polygon points="331.57,41.96 324.71,45.92 317.85,41.96 317.85,34.04 324.71,30.08 331.57,34.04" fill="#DBB543"/>
  <polygon points="339.36,55.46 332.50,59.42 325.64,55.46 325.64,47.54 332.50,43.58 339.36,47.54" fill="#D9B137"/>
  <polygon points="347.16,68.96 340.30,72.92 333.44,68.96 333.44,61.04 340.30,57.08 347.16,61.04" fill="#D7AD2E"/>
  <polygon points="354.95,82.46 348.09,86.42 341.23,82.46 341.23,74.54 348.09,70.58 354.95,74.54" fill="#D5AB27"/>
  <polygon points="362.74,95.96 355.88,99.92 349.03,95.96 349.03,88.04 355.88,84.08 362.74,88.04" fill="#D4A922"/>
  <polygon points="370.54,109.46 363.68,113.42 356.82,109.46 356.82,101.54 363.68,97.58 370.54,101.54" fill="#D4A821"/>
  <polygon points="378.33,122.96 371.47,126.92 364.61,122.96 364.61,115.04 371.47,111.08 378.33,115.04" fill="#D4A922"/>
  <polygon points="386.13,136.46 379.27,140.42 372.41,136.46 372.41,128.54 379.27,124.58 386.13,128.54" fill="#D5AB27"/>
  <polygon points="393.92,149.96 387.06,153.92 380.20,149.96 380.20,142.04 387.06,138.08 393.92,142.04" fill="#D7AD2E"/>
  <polygon points="331.57,14.96 324.71,18.92 317.85,14.96 317.85,7.04 324.71,3.08 331.57,7.04" fill="#E5C874"/>
  <polygon points="339.36,28.46 332.50,32.42 325.64,28.46 325.64,20.54 332.50,16.58 339.36,20.54" fill="#E2C365"/>
  <polygon points="347.16,41.96 340.30,45.92 333.44,41.96 333.44,34.04 340.30,30.08 347.16,34.04" fill="#E0BE59"/>
  <polygon points="354.95,55.46 348.09,59.42 341.23,55.46 341.23,47.54 348.09,43.58 354.95,47.54" fill="#DEBA4F"/>
  <polygon points="362.74,68.96 355.88,72.92 349.03,68.96 349.03,61.04 355.88,57.08 362.74,61.04" fill="#DCB747"/>
  <polygon points="370.54,82.46 363.68,86.42 356.82,82.46 356.82,74.54 363.68,70.58 370.54,74.54" fill="#DBB542"/>
  <polygon points="378.33,95.96 371.47,99.92 364.61,95.96 364.61,88.04 371.47,84.08 378.33,88.04" fill="#DAB43F"/>
  <polygon points="386.13,109.46 379.27,113.42 372.41,109.46 372.41,101.54 379.27,97.58 386.13,101.54" fill="#DAB43F"/>
  <polygon points="393.92,122.96 387.06,126.92 380.20,122.96 380.20,115.04 387.06,111.08 393.92,115.04" fill="#DBB542"/>
  <polygon points="347.16,14.96 340.30,18.92 333.44,14.96 333.44,7.04 340.30,3.08 347.16,7.04" fill="#E9D087"/>
  <polygon points="354.95,28.46 348.09,32.42 341.23,28.46 341.23,20.54 348.09,16.58 354.95,20.54" fill="#E7CB7B"/>
  <polygon points="362.74,41.96 355.88,45.92 349.03,41.96 349.03,34.04 355.88,30.08 362.74,34.04" fill="#E5C770"/>
  <polygon points="370.54,55.46 363.68,59.42 356.82,55.46 356.82,47.54 363.68,43.58 370.54,47.54" fill="#E3C468"/>
  <polygon points="378.33,68.96 371.47,72.92 364.61,68.96 364.61,61.04 371.47,57.08 378.33,61.04" fill="#E2C161"/>
  <polygon points="386.13,82.46 379.27,86.42 372.41,82.46 372.41,74.54 379.27,70.58 386.13,74.54" fill="#E1C05E"/>
  <polygon points="393.92,95.96 387.06,99.92 380.20,95.96 380.20,88.04 387.06,84.08 393.92,88.04" fill="#E1BF5D"/>
  <polygon points="362.74,14.96 355.88,18.92 349.03,14.96 349.03,7.04 355.88,3.08 362.74,7.04" fill="#EED89C"/>
  <polygon points="370.54,28.46 363.68,32.42 356.82,28.46 356.82,20.54 363.68,16.58 370.54,20.54" fill="#EBD491"/>
  <polygon points="378.33,41.96 371.47,45.92 364.61,41.96 364.61,34.04 371.47,30.08 378.33,34.04" fill="#EAD088"/>
  <polygon points="386.13,55.46 379.27,59.42 372.41,55.46 372.41,47.54 379.27,43.58 386.13,47.54" fill="#E8CE82"/>
  <polygon points="393.92,68.96 387.06,72.92 380.20,68.96 380.20,61.04 387.06,57.08 393.92,61.04" fill="#E7CC7D"/>
  <polygon points="378.33,14.96 371.47,18.92 364.61,14.96 364.61,7.04 371.47,3.08 378.33,7.04" fill="#F2E1B3"/>
  <polygon points="386.13,28.46 379.27,32.42 372.41,28.46 372.41,20.54 379.27,16.58 386.13,20.54" fill="#F0DDA9"/>
  <polygon points="393.92,41.96 387.06,45.92 380.20,41.96 380.20,34.04 387.06,30.08 393.92,34.04" fill="#EFDAA2"/>
  <polygon points="393.92,14.96 387.06,18.92 380.20,14.96 380.20,7.04 387.06,3.08 393.92,7.04" fill="#F7EACB"/>
  <polygon points="200,148 162,212 238,212" fill="#100820"/>
  <rect x="0" y="358" width="400" height="42" fill="rgba(16,8,32,0.93)"/>
  <text x="200" y="385" font-family="Georgia, serif" font-size="12" fill="#d4a8c8" text-anchor="middle">And Sinai Was Covered in Flowers</text>
</svg>
