<svg xmlns="http://www.w3.org/2000/svg" width="400" height="400" viewBox="0 0 400 400">
  <rect width="400" height="400" fill="#0A0A0A"/>
  <polyline points="20.0,350.0 80.0,350.0 140.0,350.0 140.0,290.0 140.0,230.0 140.0,170.0 80.0,170.0 20.0,170.0 20.0,230.0 20.0,290.0 20.0,350.0 80.0,350.0 140.0,350.0 200.0,350.0 200.0,290.0 200.0,230.0 140.0,230.0 80.0,230.0 20.0,230.0 20.0,290.0 20.0,350.0 80.0,350.0 140.0,350.0 200.0,350.0 200.0,290.0 200.0,230.0 200.0,170.0 140.0,170.0 80.0,170.0 80.0,230.0 80.0,290.0 80.0,350.0 140.0,350.0 200.0,350.0 260.0,350.0 260.0,290.0 260.0,230.0 200.0,230.0 140.0,230.0 80.0,230.0 80.0,290.0 80.0,350.0 140.0,350.0 200.0,350.0 260.0,350.0 260.0,290.0 260.0,230.0 260.0,170.0 200.0,170.0 140.0,170.0 140.0,230.0 140.0,290.0 140.0,350.0 200.0,350.0 260.0,350.0 260.0,290.0 260.0,230.0 260.0,170.0 200.0,170.0 140.0,170.0 80.0,170.0 80.0,230.0 80.0,290.0 140.0,290.0 200.0,290.0 260.0,290.0 260.0,230.0 260.0,170.0 260.0,110.0 200.0,110.0 140.0,110.0 140.0,170.0 140.0,230.0 140.0,290.0 200.0,290.0 260.0,290.0 260.0,230.0 260.0,170.0 260.0,110.0 200.0,110.0 140.0,110.0 80.0,110.0 80.0,170.0 80.0,230.0 140.0,230.0 200.0,230.0 260.0,230.0 260.0,170.0 260.0,110.0 260.0,50.0 200.0,50.0 140.0,50.0 140.0,110.0 140.0,170.0 140.0,230.0 200.0,230.0 260.0,230.0 260.0,170.0 260.0,110.0 260.0,50.0 200.0,50.0 140.0,50.0 80.0,50.0 80.0,110.0 80.0,170.0 140.0,170.0 200.0,170.0 260.0,170.0 260.0,110.0 260.0,50.0 200.0,50.0 140.0,50.0 80.0,50.0 80.0,110.0 80.0,170.0 80.0,230.0 140.0,230.0 200.0,230.0 200.0,170.0 200.0,110.0 200.0,50.0 140.0,50.0 80.0,50.0 20.0,50.0 20.0,110.0 20.0,170.0 80.0,170.0 140.0,170.0 200.0,170.0 200.0,110.0 200.0,50.0 140.0,50.0 80.0,50.0 20.0,50.0 20.0,110.0 20.0,170.0 20.0,230.0 80.0,230.0 140.0,230.0 140.0,170.0 140.0,110.0 140.0,50.0 80.0,50.0 20.0,50.0 20.0,110.0 20.0,170.0 20.0,230.0 80.0,230.0 140.0,230.0 200.0,230.0 200.0,170.0 200.0,110.0 140.0,110.0 80.0,110.0 20.0,110.0 20.0,170.0 20.0,230.0 20.0,290.0 80.0,290.0 140.0,290.0 140.0,230.0 140.0,170.0 140.0,110.0 80.0,110.0 20.0,110.0 20.0,170.0 20.0,230.0 20.0,290.0 80.0,290.0 140.0,290.0 200.0,290.0 200.0,230.0 200.0,170.0 140.0,170.0 80.0,170.0 20.0,170.0 20.0,230.0 20.0,290.0 20.0,350.0 80.0,350.0 140.0,350.0 140.0,290.0 140.0,230.0 140.0,170.0 80.0,170.0 20.0,170.0 20.0,230.0 20.0,290.0 20.0,350.0 80.0,350.0 140.0,350.0 200.0,350.0 200.0,290.0 200.0,230.0 140.0,230.0 80.0,230.0 20.0,230.0 20.0,290.0 20.0,350.0 80.0,350.0 140.0,350.0 200.0,350.0 200.0,290.0 200.0,230.0 200.0,170.0 140.0,170.0 80.0,170.0 80.0,230.0 80.0,290.0 80.0,350.0 140.0,350.0 200.0,350.0 260.0,350.0 260.0,290.0 260.0,230.0 200.0,230.0 140.0,230.0 80.0,230.0 80.0,290.0 80.0,350.0 140.0,350.0 200.0,350.0 260.0,350.0 260.0,290.0 260.0,230.0 260.0,170.0 200.0,170.0 140.0,170.0 140.0,230.0 140.0,290.0 140.0,350.0 200.0,350.0 260.0,350.0 320.0,350.0 320.0,290.0 320.0,230.0 260.0,230.0 200.0,230.0 140.0,230.0 140.0,290.0 140.0,350.0 200.0,350.0 260.0,350.0 320.0,350.0 320.0,290.0 320.0,230.0 320.0,170.0 260.0,170.0 200.0,170.0 200.0,230.0 200.0,290.0 200.0,350.0 260.0,350.0 320.0,350.0 320.0,290.0 320.0,230.0 320.0,170.0 260.0,170.0 200.0,170.0 140.0,170.0 140.0,230.0 140.0,290.0 200.0,290.0 260.0,290.0 320.0,290.0 320.0,230.0 320.0,170.0 320.0,110.0 260.0,110.0 200.0,110.0 200.0,170.0 200.0,230.0 200.0,290.0 260.0,290.0 320.0,290.0 320.0,230.0 320.0,170.0 320.0,110.0 260.0,110.0 200.0,110.0 140.0,110.0 140.0,170.0 140.0,230.0 200.0,230.0 260.0,230.0 320.0,230.0 320.0,170.0 320.0,110.0 260.0,110.0 200.0,110.0 140.0,110.0 140.0,170.0 140.0,230.0 140.0,290.0 200.0,290.0 260.0,290.0 260.0,230.0 260.0,170.0 260.0,110.0 200.0,110.0 140.0,110.0 80.0,110.0 80.0,170.0 80.0,230.0 140.0,230.0 200.0,230.0 260.0,230.0 260.0,170.0 260.0,110.0 200.0,110.0 140.0,110.0 80.0,110.0 80.0,170.0 80.0,230.0 80.0,290.0 140.0,290.0 200.0,290.0 200.0,230.0 200.0,170.0 200.0,110.0 140.0,110.0 80.0,110.0 20.0,110.0 20.0,170.0 20.0,230.0 80.0,230.0 140.0,230.0 200.0,230.0 200.0,170.0 200.0,110.0 140.0,110.0 80.0,110.0 20.0,110.0 20.0,170.0 20.0,230.0 20.0,290.0 80.0,290.0 140.0,290.0 140.0,230.0 140.0,170.0 140.0,110.0 80.0,110.0 20.0,110.0 20.0,170.0 20.0,230.0 20.0,290.0 80.0,290.0 140.0,290.0 200.0,290.0 200.0,230.0 200.0,170.0 140.0,170.0 80.0,170.0 20.0,170.0 20.0,230.0 20.0,290.0 20.0,350.0 80.0,350.0 140.0,350.0 140.0,290.0 140.0,230.0 140.0,170.0 80.0,170.0 20.0,170.0 20.0,230.0 20.0,290.0 20.0,350.0 80.0,350.0 140.0,350.0 200.0,350.0 200.0,290.0 200.0,230.0 140.0,230.0 80.0,230.0 20.0,230.0 20.0,290.0 20.0,350.0 80.0,350.0 140.0,350.0 200.0,350.0 200.0,290.0 200.0,230.0 200.0,170.0 140.0,170.0 80.0,170.0 80.0,230.0 80.0,290.0 80.0,350.0 140.0,350.0 200.0,350.0 260.0,350.0 260.0,290.0 260.0,230.0 200.0,230.0 140.0,230.0 80.0,230.0 80.0,290.0 80.0,350.0 140.0,350.0 200.0,350.0 260.0,350.0 260.0,290.0 260.0,230.0 260.0,170.0 200.0,170.0 140.0,170.0 140.0,230.0 140.0,290.0 140.0,350.0 200.0,350.0 260.0,350.0 320.0,350.0 320.0,290.0 320.0,230.0 260.0,230.0 200.0,230.0 140.0,230.0 140.0,290.0 140.0,350.0 200.0,350.0 260.0,350.0 320.0,350.0 320.0,290.0 320.0,230.0 320.0,170.0 260.0,170.0 200.0,170.0 200.0,230.0 200.0,290.0 200.0,350.0 260.0,350.0 320.0,350.0 320.0,290.0 320.0,230.0 320.0,170.0 260.0,170.0 200.0,170.0 140.0,170.0 140.0,230.0 140.0,290.0 200.0,290.0 260.0,290.0 320.0,290.0 320.0,230.0 320.0,170.0 320.0,110.0 260.0,110.0 200.0,110.0 200.0,170.0 200.0,230.0 200.0,290.0 260.0,290.0 320.0,290.0 320.0,230.0 320.0,170.0 320.0,110.0 260.0,110.0 200.0,110.0 140.0,110.0 140.0,170.0 140.0,230.0 200.0,230.0 260.0,230.0 320.0,230.0 320.0,170.0 320.0,110.0 320.0,50.0 260.0,50.0 200.0,50.0 200.0,110.0 200.0,170.0 200.0,230.0 260.0,230.0 320.0,230.0 320.0,170.0 320.0,110.0 320.0,50.0 260.0,50.0 200.0,50.0 140.0,50.0 140.0,110.0 140.0,170.0 200.0,170.0 260.0,170.0 320.0,170.0 320.0,110.0 320.0,50.0 260.0,50.0 200.0,50.0 140.0,50.0 140.0,110.0 140.0,170.0 140.0,230.0 200.0,230.0 260.0,230.0 260.0,170.0 260.0,110.0 260.0,50.0 200.0,50.0 140.0,50.0 80.0,50.0 80.0,110.0 80.0,170.0 140.0,170.0 200.0,170.0 260.0,170.0 260.0,110.0 260.0,50.0 200.0,50.0 140.0,50.0 80.0,50.0 80.0,110.0 80.0,170.0 80.0,230.0 140.0,230.0 200.0,230.0 200.0,170.0 200.0,110.0 200.0,50.0 140.0,50.0 80.0,50.0 80.0,110.0 80.0,170.0 80.0,230.0 140.0,230.0 200.0,230.0 260.0,230.0 260.0,170.0 260.0,110.0 200.0,110.0 140.0,110.0 80.0,110.0 80.0,170.0 80.0,230.0 80.0,290.0 140.0,290.0 200.0,290.0 200.0,230.0 200.0,170.0 200.0,110.0 140.0,110.0 80.0,110.0 80.0,170.0 80.0,230.0 80.0,290.0 140.0,290.0 200.0,290.0 260.0,290.0 260.0,230.0 260.0,170.0 200.0,170.0 140.0,170.0 80.0,170.0 80.0,230.0 80.0,290.0 80.0,350.0 140.0,350.0 200.0,350.0 200.0,290.0 200.0,230.0 200.0,170.0 140.0,170.0 80.0,170.0 80.0,230.0 80.0,290.0 80.0,350.0 140.0,350.0 200.0,350.0 260.0,350.0 260.0,290.0 260.0,230.0 200.0,230.0 140.0,230.0 80.0,230.0 80.0,290.0 80.0,350.0 140.0,350.0 200.0,350.0 260.0,350.0 260.0,290.0 260.0,230.0 260.0,170.0 200.0,170.0 140.0,170.0 140.0,230.0 140.0,290.0 140.0,350.0 200.0,350.0 260.0,350.0 320.0,350.0 320.0,290.0 320.0,230.0 260.0,230.0 200.0,230.0 140.0,230.0 140.0,290.0 140.0,350.0 200.0,350.0 260.0,350.0 320.0,350.0 320.0,290.0 320.0,230.0 320.0,170.0 260.0,170.0 200.0,170.0 200.0,230.0 200.0,290.0 200.0,350.0 260.0,350.0 320.0,350.0 380.0,350.0 380.0,290.0 380.0,230.0 320.0,230.0 260.0,230.0 200.0,230.0 200.0,290.0 200.0,350.0 260.0,350.0 320.0,350.0 380.0,350.0 380.0,290.0 380.0,230.0 380.0,170.0 320.0,170.0 260.0,170.0 260.0,230.0 260.0,290.0 260.0,350.0 320.0,350.0 380.0,350.0 380.0,290.0 380.0,230.0 380.0,170.0 320.0,170.0 260.0,170.0 200.0,170.0 200.0,230.0 200.0,290.0 260.0,290.0 320.0,290.0 380.0,290.0 380.0,230.0 380.0,170.0 380.0,110.0 320.0,110.0 260.0,110.0 260.0,170.0 260.0,230.0 260.0,290.0 320.0,290.0 380.0,290.0 380.0,230.0 380.0,170.0 380.0,110.0 320.0,110.0 260.0,110.0 200.0,110.0 200.0,170.0 200.0,230.0 260.0,230.0 320.0,230.0 380.0,230.0 380.0,170.0 380.0,110.0 320.0,110.0 260.0,110.0 200.0,110.0 200.0,170.0 200.0,230.0 200.0,290.0 260.0,290.0 320.0,290.0 320.0,230.0 320.0,170.0 320.0,110.0 260.0,110.0 200.0,110.0 140.0,110.0 140.0,170.0 140.0,230.0 200.0,230.0 260.0,230.0 320.0,230.0 320.0,170.0 320.0,110.0 260.0,110.0 200.0,110.0 140.0,110.0 140.0,170.0 140.0,230.0 140.0,290.0 200.0,290.0 260.0,290.0 260.0,230.0 260.0,170.0 260.0,110.0 200.0,110.0 140.0,110.0 80.0,110.0 80.0,170.0 80.0,230.0 140.0,230.0 200.0,230.0 260.0,230.0 260.0,170.0 260.0,110.0 200.0,110.0 140.0,110.0 80.0,110.0 80.0,170.0 80.0,230.0 80.0,290.0 140.0,290.0 200.0,290.0 200.0,230.0 200.0,170.0 200.0,110.0 140.0,110.0 80.0,110.0 80.0,170.0 80.0,230.0 80.0,290.0 140.0,290.0 200.0,290.0 260.0,290.0 260.0,230.0 260.0,170.0 200.0,170.0 140.0,170.0 80.0,170.0 80.0,230.0 80.0,290.0 80.0,350.0 140.0,350.0 200.0,350.0 200.0,290.0 200.0,230.0 200.0,170.0 140.0,170.0 80.0,170.0 80.0,230.0 80.0,290.0 80.0,350.0 140.0,350.0 200.0,350.0 260.0,350.0 260.0,290.0 260.0,230.0 200.0,230.0 140.0,230.0 80.0,230.0 80.0,290.0 80.0,350.0 140.0,350.0 200.0,350.0 260.0,350.0 260.0,290.0 260.0,230.0 260.0,170.0 200.0,170.0 140.0,170.0 140.0,230.0 140.0,290.0 140.0,350.0 200.0,350.0 260.0,350.0 320.0,350.0 320.0,290.0 320.0,230.0 260.0,230.0 200.0,230.0 140.0,230.0 140.0,290.0 140.0,350.0 200.0,350.0 260.0,350.0 320.0,350.0 320.0,290.0 320.0,230.0 320.0,170.0 260.0,170.0 200.0,170.0 200.0,230.0 200.0,290.0 200.0,350.0 260.0,350.0 320.0,350.0 380.0,350.0 380.0,290.0 380.0,230.0 320.0,230.0 260.0,230.0 200.0,230.0 200.0,290.0 200.0,350.0 260.0,350.0 320.0,350.0 380.0,350.0 380.0,290.0 380.0,230.0 380.0,170.0 320.0,170.0 260.0,170.0 260.0,230.0 260.0,290.0 260.0,350.0 320.0,350.0 380.0,350.0 380.0,290.0 380.0,230.0 380.0,170.0 320.0,170.0 260.0,170.0 200.0,170.0 200.0,230.0 200.0,290.0 260.0,290.0 320.0,290.0 380.0,290.0 380.0,230.0 380.0,170.0 380.0,110.0 320.0,110.0 260.0,110.0 260.0,170.0 260.0,230.0 260.0,290.0 320.0,290.0 380.0,290.0 380.0,230.0 380.0,170.0 380.0,110.0 320.0,110.0 260.0,110.0 200.0,110.0 200.0,170.0 200.0,230.0 260.0,230.0 320.0,230.0 380.0,230.0 380.0,170.0 380.0,110.0 380.0,50.0 320.0,50.0 260.0,50.0 260.0,110.0 260.0,170.0 260.0,230.0 320.0,230.0 380.0,230.0 380.0,170.0 380.0,110.0 380.0,50.0 320.0,50.0 260.0,50.0 200.0,50.0 200.0,110.0 200.0,170.0 260.0,170.0 320.0,170.0 380.0,170.0 380.0,110.0 380.0,50.0 320.0,50.0 260.0,50.0 200.0,50.0 200.0,110.0 200.0,170.0 200.0,230.0 260.0,230.0 320.0,230.0 320.0,170.0 320.0,110.0 320.0,50.0 260.0,50.0 200.0,50.0 140.0,50.0 140.0,110.0 140.0,170.0 200.0,170.0 260.0,170.0 320.0,170.0 320.0,110.0 320.0,50.0 260.0,50.0 200.0,50.0 140.0,50.0 140.0,110.0 140.0,170.0 140.0,230.0 200.0,230.0 260.0,230.0 260.0,170.0 260.0,110.0 260.0,50.0 200.0,50.0 140.0,50.0 140.0,110.0 140.0,170.0 140.0,230.0 200.0,230.0 260.0,230.0 320.0,230.0 320.0,170.0 320.0,110.0 260.0,110.0 200.0,110.0 140.0,110.0 140.0,170.0 140.0,230.0 140.0,290.0 200.0,290.0 260.0,290.0 260.0,230.0 260.0,170.0 260.0,110.0 200.0,110.0 140.0,110.0 140.0,170.0 140.0,230.0 140.0,290.0 200.0,290.0 260.0,290.0 320.0,290.0 320.0,230.0 320.0,170.0 260.0,170.0 200.0,170.0 140.0,170.0 140.0,230.0 140.0,290.0 140.0,350.0 200.0,350.0 260.0,350.0 260.0,290.0 260.0,230.0 260.0,170.0 200.0,170.0 140.0,170.0 140.0,230.0 140.0,290.0 140.0,350.0 200.0,350.0 260.0,350.0 320.0,350.0 320.0,290.0 320.0,230.0 260.0,230.0 200.0,230.0 140.0,230.0 140.0,290.0 140.0,350.0 200.0,350.0 260.0,350.0 320.0,350.0 320.0,290.0 320.0,230.0 320.0,170.0 260.0,170.0 200.0,170.0 200.0,230.0 200.0,290.0 200.0,350.0 260.0,350.0 320.0,350.0 380.0,350.0 380.0,290.0 380.0,230.0 320.0,230.0 260.0,230.0 200.0,230.0 200.0,290.0 200.0,350.0 260.0,350.0 320.0,350.0 380.0,350.0 380.0,290.0 380.0,230.0 380.0,170.0 320.0,170.0 260.0,170.0 260.0,230.0 260.0,290.0 260.0,350.0 320.0,350.0 380.0,350.0 380.0,290.0" fill="none" stroke="#E8C84A" stroke-width="1.2" stroke-linecap="round" stroke-linejoin="round"/>
</svg>
