<svg xmlns="http://www.w3.org/2000/svg" width="400" height="400" viewBox="0 0 400 400">
  <defs>
    <radialGradient id="bg" cx="50%" cy="50%" r="70%" fx="50%" fy="50%">
      <stop offset="0%" stop-color="#8ab4e8"/>
      <stop offset="40%" stop-color="#1e4a9e"/>
      <stop offset="75%" stop-color="#0d2060"/>
      <stop offset="100%" stop-color="#0D1B6B"/>
    </radialGradient>
  </defs>
  <rect width="400" height="400" fill="url(#bg)"/>

  <!-- Caustic light curve patterns — irregular bright paths suggesting refracted light -->
  <path d="M 30 280 C 60 220, 110 200, 145 230 C 180 260, 200 170, 240 150 C 280 130, 320 180, 370 160"
        stroke="#E8F4FF" stroke-width="1.8" fill="none" opacity="0.85"/>
  <path d="M 10 320 C 50 290, 90 310, 130 270 C 170 230, 210 250, 260 210 C 310 170, 350 200, 400 185"
        stroke="#E8F4FF" stroke-width="1.2" fill="none" opacity="0.7"/>
  <path d="M 0 180 C 40 160, 70 190, 100 170 C 130 150, 160 120, 200 130 C 240 140, 270 100, 310 120 C 350 140, 380 110, 400 100"
        stroke="#E8F4FF" stroke-width="2.2" fill="none" opacity="0.9"/>
  <path d="M 50 350 C 80 310, 120 330, 160 300 C 200 270, 230 290, 270 260 C 310 230, 340 250, 390 230"
        stroke="#E8F4FF" stroke-width="1.0" fill="none" opacity="0.6"/>
  <path d="M 0 240 C 30 200, 80 220, 110 190 C 140 160, 175 180, 210 160 C 245 140, 280 165, 320 145 C 360 125, 385 140, 400 130"
        stroke="#E8F4FF" stroke-width="1.5" fill="none" opacity="0.75"/>
  <path d="M 20 100 C 60 80, 90 110, 140 90 C 190 70, 220 95, 260 75 C 300 55, 340 80, 390 60"
        stroke="#E8F4FF" stroke-width="1.0" fill="none" opacity="0.55"/>
  <path d="M 100 380 C 130 350, 160 370, 200 340 C 240 310, 270 330, 310 300 C 350 270, 380 285, 400 270"
        stroke="#E8F4FF" stroke-width="1.3" fill="none" opacity="0.65"/>
  <path d="M 0 60 C 40 40, 80 65, 120 45 C 160 25, 190 50, 230 35 C 270 20, 310 45, 360 28 C 380 20, 395 30, 400 25"
        stroke="#E8F4FF" stroke-width="0.8" fill="none" opacity="0.5"/>
  <path d="M 60 400 C 90 370, 130 385, 170 355 C 210 325, 250 345, 290 315 C 330 285, 365 305, 400 290"
        stroke="#E8F4FF" stroke-width="1.6" fill="none" opacity="0.7"/>
  <path d="M 180 400 C 200 365, 240 370, 265 340 C 290 310, 320 330, 360 305 C 385 290, 395 300, 400 298"
        stroke="#E8F4FF" stroke-width="0.9" fill="none" opacity="0.55"/>

  <!-- Brighter caustic focus zones — where light converges -->
  <path d="M 150 200 C 160 185, 180 182, 195 195 C 210 208, 205 225, 185 228 C 165 231, 148 218, 150 200"
        stroke="#E8F4FF" stroke-width="2.5" fill="none" opacity="0.95"/>
  <path d="M 280 140 C 292 128, 310 130, 318 145 C 326 160, 315 175, 298 172 C 281 169, 270 155, 280 140"
        stroke="#E8F4FF" stroke-width="2.0" fill="none" opacity="0.9"/>
  <path d="M 90 310 C 100 298, 118 300, 124 315 C 130 330, 120 342, 104 338 C 88 334, 82 322, 90 310"
        stroke="#E8F4FF" stroke-width="1.8" fill="none" opacity="0.8"/>
</svg>
