<svg xmlns="http://www.w3.org/2000/svg" viewBox="0 0 200 200" width="200" height="200">
  <rect width="200" height="200" fill="#1A1208"/>
  <!-- Pin circle -->
  <circle cx="100" cy="96" r="82" fill="none" stroke="#3A2A10" stroke-width="0.5"/>
  <!-- Simulated string-art lines: dense crossing chords in linen-white at low opacity -->
  <!-- Left-figure density cluster -->
  <g stroke="#F0E8D5" stroke-width="0.7" opacity="0.18">
    <line x1="60" y1="14" x2="140" y2="178"/>
    <line x1="50" y1="20" x2="150" y2="172"/>
    <line x1="40" y1="30" x2="145" y2="165"/>
    <line x1="35" y1="50" x2="130" y2="175"/>
    <line x1="18" y1="96" x2="160" y2="60"/>
    <line x1="20" y1="110" x2="165" y2="80"/>
    <line x1="25" y1="130" x2="170" y2="96"/>
    <line x1="30" y1="150" x2="165" y2="115"/>
    <line x1="18" y1="80" x2="150" y2="40"/>
    <line x1="22" y1="70" x2="140" y2="30"/>
    <line x1="55" y1="178" x2="155" y2="20"/>
    <line x1="65" y1="178" x2="175" y2="65"/>
    <line x1="75" y1="178" x2="180" y2="90"/>
    <line x1="45" y1="175" x2="180" y2="110"/>
    <line x1="100" y1="14" x2="20" y2="130"/>
    <line x1="110" y1="14" x2="25" y2="145"/>
    <line x1="120" y1="16" x2="30" y2="160"/>
    <line x1="88" y1="14" x2="18" y2="115"/>
    <line x1="78" y1="15" x2="18" y2="100"/>
    <line x1="165" y1="55" x2="35" y2="155"/>
    <line x1="170" y1="80" x2="32" y2="170"/>
    <line x1="172" y1="100" x2="28" y2="178"/>
    <line x1="168" y1="130" x2="35" y2="178"/>
    <line x1="160" y1="148" x2="42" y2="178"/>
    <line x1="145" y1="175" x2="55" y2="15"/>
    <line x1="130" y1="178" x2="60" y2="14"/>
    <line x1="115" y1="178" x2="18" y2="88"/>
    <line x1="100" y1="178" x2="20" y2="75"/>
    <line x1="86" y1="178" x2="22" y2="62"/>
    <line x1="72" y1="178" x2="162" y2="30"/>
    <line x1="58" y1="176" x2="168" y2="48"/>
    <line x1="48" y1="170" x2="172" y2="62"/>
  </g>
  <!-- Hebrew text below circle -->
  <text x="100" y="192" font-family="Georgia, serif" font-size="9"
        fill="#F0E8D5" text-anchor="middle" direction="rtl">כִּי אֶל-אֲשֶׁר תֵּלְכִי אֵלֵךְ</text>
</svg>
