<svg xmlns="http://www.w3.org/2000/svg" viewBox="0 0 400 300" width="400" height="300">
  <defs>
    <radialGradient id="bg43" cx="50%" cy="50%" r="60%">
      <stop offset="0%" stop-color="#0a0a20"/>
      <stop offset="100%" stop-color="#000008"/>
    </radialGradient>
    <filter id="glow43">
      <feGaussianBlur stdDeviation="2.5" result="blur"/>
      <feMerge><feMergeNode in="blur"/><feMergeNode in="SourceGraphic"/></feMerge>
    </filter>
    <linearGradient id="trail43" x1="0%" y1="0%" x2="100%" y2="0%">
      <stop offset="0%" stop-color="#4488FF" stop-opacity="0.8"/>
      <stop offset="50%" stop-color="#FFFFFF" stop-opacity="0.9"/>
      <stop offset="100%" stop-color="#FFB833" stop-opacity="0.8"/>
    </linearGradient>
  </defs>

  <!-- Background -->
  <rect width="400" height="300" fill="url(#bg43)"/>

  <!-- Faint outer 3:2 Lissajous in amber — persistence layer -->
  <path d="M 320.2,150.0 L 331.0,157.5 L 340.6,165.0 L 349.0,172.5 L 356.0,179.8 L 361.7,187.1 L 365.9,194.2 L 368.7,201.1 L 369.9,207.8 L 369.7,214.3 L 367.9,220.5 L 364.7,226.5 L 359.9,232.1 L 353.8,237.5 L 346.3,242.5 L 337.5,247.1 L 327.5,251.3 L 316.4,255.2 L 304.2,258.6 L 291.1,261.6 L 277.2,264.1 L 262.6,266.2 L 247.4,267.9 L 231.9,269.1 L 216.0,269.8 L 200.0,270.0 L 184.0,269.8 L 168.1,269.1 L 152.6,267.9 L 137.4,266.2 L 122.8,264.1 L 108.9,261.6 L 95.8,258.6 L 83.6,255.2 L 72.5,251.3 L 62.5,247.1 L 53.7,242.5 L 46.2,237.5 L 40.1,232.1 L 35.3,226.5 L 32.1,220.5 L 30.3,214.3 L 30.1,207.8 L 31.3,201.1 L 34.1,194.2 L 38.3,187.1 L 44.0,179.8 L 51.0,172.5 L 59.4,165.0 L 69.0,157.5 L 79.8,150.0 L 91.6,142.5 L 104.4,135.0 L 118.1,127.5 L 132.5,120.2 L 147.5,112.9 L 162.9,105.8 L 178.7,98.9 L 194.7,92.2 L 210.7,85.7 L 226.6,79.5 L 242.3,73.5 L 257.6,67.9 L 272.4,62.5 L 286.5,57.5 L 299.9,52.9 L 312.4,48.7 L 323.9,44.8 L 334.3,41.4 L 343.5,38.4 L 351.5,35.9 L 358.1,33.8 L 363.2,32.1 L 367.0,30.9 L 369.2,30.2 L 370.0,30.0 L 369.2,30.2 L 367.0,30.9 L 363.2,32.1 L 358.1,33.8 L 351.5,35.9 L 343.5,38.4 L 334.3,41.4 L 323.9,44.8 L 312.4,48.7 L 299.9,52.9 L 286.5,57.5 L 272.4,62.5 L 257.6,67.9 L 242.3,73.5 L 226.6,79.5 L 210.7,85.7 L 194.7,92.2 L 178.7,98.9 L 162.9,105.8 L 147.5,112.9 L 132.5,120.2 L 118.1,127.5 L 104.4,135.0 L 91.6,142.5 L 79.8,150.0 L 69.0,157.5 L 59.4,165.0 L 51.0,172.5 L 44.0,179.8 L 38.3,187.1 L 34.1,194.2 L 31.3,201.1 L 30.1,207.8 L 30.3,214.3 L 32.1,220.5 L 35.3,226.5 L 40.1,232.1 L 46.2,237.5 L 53.7,242.5 L 62.5,247.1 L 72.5,251.3 L 83.6,255.2 L 95.8,258.6 L 108.9,261.6 L 122.8,264.1 L 137.4,266.2 L 152.6,267.9 L 168.1,269.1 L 184.0,269.8 L 200.0,270.0 L 216.0,269.8 L 231.9,269.1 L 247.4,267.9 L 262.6,266.2 L 277.2,264.1 L 291.1,261.6 L 304.2,258.6 L 316.4,255.2 L 327.5,251.3 L 337.5,247.1 L 346.3,242.5 L 353.8,237.5 L 359.9,232.1 L 364.7,226.5 L 367.9,220.5 L 369.7,214.3 L 369.9,207.8 L 368.7,201.1 L 365.9,194.2 L 361.7,187.1 L 356.0,179.8 L 349.0,172.5 L 340.6,165.0 L 331.0,157.5 L 320.2,150.0 L 308.4,142.5 L 295.6,135.0 L 281.9,127.5 L 267.5,120.2 L 252.5,112.9 L 237.1,105.8 L 221.3,98.9 L 205.3,92.2 L 189.3,85.7 L 173.4,79.5 L 157.7,73.5 L 142.4,67.9 L 127.6,62.5 L 113.5,57.5 L 100.1,52.9 L 87.6,48.7 L 76.1,44.8 L 65.7,41.4 L 56.5,38.4 L 48.5,35.9 L 41.9,33.8 L 36.8,32.1 L 33.0,30.9 L 30.8,30.2 L 30.0,30.0 L 30.8,30.2 L 33.0,30.9 L 36.8,32.1 L 41.9,33.8 L 48.5,35.9 L 56.5,38.4 L 65.7,41.4 L 76.1,44.8 L 87.6,48.7 L 100.1,52.9 L 113.5,57.5 L 127.6,62.5 L 142.4,67.9 L 157.7,73.5 L 173.4,79.5 L 189.3,85.7 L 205.3,92.2 L 221.3,98.9 L 237.1,105.8 L 252.5,112.9 L 267.5,120.2 L 281.9,127.5 L 295.6,135.0 L 308.4,142.5 L 320.2,150.0"
        fill="none" stroke="#FFB833" stroke-width="0.8" stroke-opacity="0.25"/>

  <!-- Main 3:2 Lissajous — electric blue with glow -->
  <path d="M 320.2,150.0 L 331.0,157.5 L 340.6,165.0 L 349.0,172.5 L 356.0,179.8 L 361.7,187.1 L 365.9,194.2 L 368.7,201.1 L 369.9,207.8 L 369.7,214.3 L 367.9,220.5 L 364.7,226.5 L 359.9,232.1 L 353.8,237.5 L 346.3,242.5 L 337.5,247.1 L 327.5,251.3 L 316.4,255.2 L 304.2,258.6 L 291.1,261.6 L 277.2,264.1 L 262.6,266.2 L 247.4,267.9 L 231.9,269.1 L 216.0,269.8 L 200.0,270.0 L 184.0,269.8 L 168.1,269.1 L 152.6,267.9 L 137.4,266.2 L 122.8,264.1 L 108.9,261.6 L 95.8,258.6 L 83.6,255.2 L 72.5,251.3 L 62.5,247.1 L 53.7,242.5 L 46.2,237.5 L 40.1,232.1 L 35.3,226.5 L 32.1,220.5 L 30.3,214.3 L 30.1,207.8 L 31.3,201.1 L 34.1,194.2 L 38.3,187.1 L 44.0,179.8 L 51.0,172.5 L 59.4,165.0 L 69.0,157.5 L 79.8,150.0 L 91.6,142.5 L 104.4,135.0 L 118.1,127.5 L 132.5,120.2 L 147.5,112.9 L 162.9,105.8 L 178.7,98.9 L 194.7,92.2 L 210.7,85.7 L 226.6,79.5 L 242.3,73.5 L 257.6,67.9 L 272.4,62.5 L 286.5,57.5 L 299.9,52.9 L 312.4,48.7 L 323.9,44.8 L 334.3,41.4 L 343.5,38.4 L 351.5,35.9 L 358.1,33.8 L 363.2,32.1 L 367.0,30.9 L 369.2,30.2 L 370.0,30.0 L 369.2,30.2 L 367.0,30.9 L 363.2,32.1 L 358.1,33.8 L 351.5,35.9 L 343.5,38.4 L 334.3,41.4 L 323.9,44.8 L 312.4,48.7 L 299.9,52.9 L 286.5,57.5 L 272.4,62.5 L 257.6,67.9 L 242.3,73.5 L 226.6,79.5 L 210.7,85.7 L 194.7,92.2 L 178.7,98.9 L 162.9,105.8 L 147.5,112.9 L 132.5,120.2 L 118.1,127.5 L 104.4,135.0 L 91.6,142.5 L 79.8,150.0 L 69.0,157.5 L 59.4,165.0 L 51.0,172.5 L 44.0,179.8 L 38.3,187.1 L 34.1,194.2 L 31.3,201.1 L 30.1,207.8 L 30.3,214.3 L 32.1,220.5 L 35.3,226.5 L 40.1,232.1 L 46.2,237.5 L 53.7,242.5 L 62.5,247.1 L 72.5,251.3 L 83.6,255.2 L 95.8,258.6 L 108.9,261.6 L 122.8,264.1 L 137.4,266.2 L 152.6,267.9 L 168.1,269.1 L 184.0,269.8 L 200.0,270.0 L 216.0,269.8 L 231.9,269.1 L 247.4,267.9 L 262.6,266.2 L 277.2,264.1 L 291.1,261.6 L 304.2,258.6 L 316.4,255.2 L 327.5,251.3 L 337.5,247.1 L 346.3,242.5 L 353.8,237.5 L 359.9,232.1 L 364.7,226.5 L 367.9,220.5 L 369.7,214.3 L 369.9,207.8 L 368.7,201.1 L 365.9,194.2 L 361.7,187.1 L 356.0,179.8 L 349.0,172.5 L 340.6,165.0 L 331.0,157.5 L 320.2,150.0 L 308.4,142.5 L 295.6,135.0 L 281.9,127.5 L 267.5,120.2 L 252.5,112.9 L 237.1,105.8 L 221.3,98.9 L 205.3,92.2 L 189.3,85.7 L 173.4,79.5 L 157.7,73.5 L 142.4,67.9 L 127.6,62.5 L 113.5,57.5 L 100.1,52.9 L 87.6,48.7 L 76.1,44.8 L 65.7,41.4 L 56.5,38.4 L 48.5,35.9 L 41.9,33.8 L 36.8,32.1 L 33.0,30.9 L 30.8,30.2 L 30.0,30.0 L 30.8,30.2 L 33.0,30.9 L 36.8,32.1 L 41.9,33.8 L 48.5,35.9 L 56.5,38.4 L 65.7,41.4 L 76.1,44.8 L 87.6,48.7 L 100.1,52.9 L 113.5,57.5 L 127.6,62.5 L 142.4,67.9 L 157.7,73.5 L 173.4,79.5 L 189.3,85.7 L 205.3,92.2 L 221.3,98.9 L 237.1,105.8 L 252.5,112.9 L 267.5,120.2 L 281.9,127.5 L 295.6,135.0 L 308.4,142.5 L 320.2,150.0"
        fill="none" stroke="#4488FF" stroke-width="1.2" stroke-opacity="0.85" filter="url(#glow43)"/>

  <!-- Hebrew text at bottom -->
  <text x="200" y="290" text-anchor="middle" font-family="Georgia,serif" font-size="11"
        fill="#c8b890" opacity="0.7" direction="rtl">וְכָל-הָעָם רֹאִים אֶת-הַקּוֹלֹת</text>
</svg>
