<svg xmlns="http://www.w3.org/2000/svg" width="400" height="400" viewBox="0 0 400 400">
  <defs>
    <radialGradient id="lobe-left" cx="35%" cy="50%" r="30%" fx="35%" fy="50%">
      <stop offset="0%" stop-color="#D4A820" stop-opacity="0.85"/>
      <stop offset="35%" stop-color="#4060D0" stop-opacity="0.6"/>
      <stop offset="70%" stop-color="#1A1050" stop-opacity="0.35"/>
      <stop offset="100%" stop-color="#030510" stop-opacity="0"/>
    </radialGradient>
    <radialGradient id="lobe-right" cx="65%" cy="50%" r="30%" fx="65%" fy="50%">
      <stop offset="0%" stop-color="#FFF8E0" stop-opacity="0.9"/>
      <stop offset="30%" stop-color="#D4A820" stop-opacity="0.7"/>
      <stop offset="60%" stop-color="#4060D0" stop-opacity="0.4"/>
      <stop offset="100%" stop-color="#030510" stop-opacity="0"/>
    </radialGradient>
    <radialGradient id="center-glow" cx="50%" cy="50%" r="18%">
      <stop offset="0%" stop-color="#FFF8E0" stop-opacity="0.5"/>
      <stop offset="100%" stop-color="#030510" stop-opacity="0"/>
    </radialGradient>
  </defs>

  <!-- Background -->
  <rect width="400" height="400" fill="#030510"/>

  <!-- Figure-of-eight lobe clouds -->
  <ellipse cx="140" cy="200" rx="100" ry="80" fill="url(#lobe-left)" opacity="0.9"/>
  <ellipse cx="260" cy="200" rx="100" ry="80" fill="url(#lobe-right)" opacity="0.9"/>
  <ellipse cx="200" cy="200" rx="30" ry="24" fill="url(#center-glow)"/>

  <!-- Outer indigo haze -->
  <ellipse cx="200" cy="200" rx="160" ry="120" fill="#1A1050" opacity="0.15"/>

  <!-- Star field -->
  <circle cx="18"  cy="22"  r="0.8" fill="#ffffff" opacity="0.7"/>
  <circle cx="52"  cy="8"   r="0.7" fill="#ffffff" opacity="0.6"/>
  <circle cx="88"  cy="30"  r="0.9" fill="#ffffff" opacity="0.8"/>
  <circle cx="130" cy="12"  r="0.6" fill="#ffffff" opacity="0.65"/>
  <circle cx="174" cy="25"  r="0.8" fill="#ffffff" opacity="0.7"/>
  <circle cx="220" cy="10"  r="0.7" fill="#ffffff" opacity="0.6"/>
  <circle cx="265" cy="18"  r="0.9" fill="#ffffff" opacity="0.75"/>
  <circle cx="310" cy="8"   r="0.6" fill="#ffffff" opacity="0.65"/>
  <circle cx="350" cy="28"  r="0.8" fill="#ffffff" opacity="0.7"/>
  <circle cx="390" cy="14"  r="0.7" fill="#ffffff" opacity="0.6"/>
  <circle cx="8"   cy="70"  r="0.7" fill="#ffffff" opacity="0.55"/>
  <circle cx="38"  cy="95"  r="0.8" fill="#ffffff" opacity="0.6"/>
  <circle cx="380" cy="60"  r="0.8" fill="#ffffff" opacity="0.7"/>
  <circle cx="358" cy="90"  r="0.6" fill="#ffffff" opacity="0.6"/>
  <circle cx="12"  cy="340" r="0.8" fill="#ffffff" opacity="0.65"/>
  <circle cx="48"  cy="360" r="0.7" fill="#ffffff" opacity="0.6"/>
  <circle cx="92"  cy="375" r="0.9" fill="#ffffff" opacity="0.7"/>
  <circle cx="148" cy="385" r="0.6" fill="#ffffff" opacity="0.55"/>
  <circle cx="198" cy="390" r="0.8" fill="#ffffff" opacity="0.65"/>
  <circle cx="250" cy="380" r="0.7" fill="#ffffff" opacity="0.6"/>
  <circle cx="300" cy="370" r="0.9" fill="#ffffff" opacity="0.7"/>
  <circle cx="348" cy="358" r="0.6" fill="#ffffff" opacity="0.6"/>
  <circle cx="385" cy="342" r="0.8" fill="#ffffff" opacity="0.65"/>
  <circle cx="392" cy="308" r="0.7" fill="#ffffff" opacity="0.55"/>
  <circle cx="6"   cy="200" r="0.8" fill="#ffffff" opacity="0.6"/>
  <circle cx="394" cy="190" r="0.7" fill="#ffffff" opacity="0.6"/>
  <circle cx="72"  cy="155" r="0.6" fill="#ffffff" opacity="0.5"/>
  <circle cx="328" cy="250" r="0.7" fill="#ffffff" opacity="0.55"/>
  <circle cx="190" cy="350" r="0.8" fill="#ffffff" opacity="0.6"/>
  <circle cx="210" cy="52"  r="0.6" fill="#ffffff" opacity="0.5"/>
</svg>
