<svg xmlns="http://www.w3.org/2000/svg" viewBox="0 0 400 300" width="400" height="300">
  <defs>
    <linearGradient id="sky" x1="0" y1="0" x2="0" y2="1">
      <stop offset="0%" stop-color="#1A0A3A"/>
      <stop offset="70%" stop-color="#5C2848"/>
      <stop offset="100%" stop-color="#7A3B2E"/>
    </linearGradient>
  </defs>
  <!-- Sky -->
  <rect width="400" height="300" fill="url(#sky)"/>
  <!-- Contour bands — stylized mountain silhouette with 14 filled bands -->
  <polygon points="40,240 80,200 100,180 120,155 140,130 160,108 180,90 200,78 220,88 240,110 260,132 280,158 300,182 320,205 360,240" fill="#2A160A"/>
  <polygon points="60,240 90,210 110,190 130,167 150,143 170,120 190,100 200,88 210,98 230,118 250,143 270,168 290,193 310,215 340,240" fill="#3D2010"/>
  <polygon points="80,240 100,220 118,202 136,180 154,158 172,136 190,114 200,98 210,108 228,130 246,156 264,180 282,204 300,224 320,240" fill="#5C3A1E"/>
  <polygon points="95,240 110,228 126,212 142,192 158,172 175,151 192,130 200,112 208,122 225,144 242,168 258,193 274,215 290,232 310,240" fill="#7A4A28"/>
  <polygon points="110,240 122,232 136,218 150,200 164,182 178,163 193,144 200,128 207,138 222,158 237,180 252,203 266,223 280,236 300,240" fill="#8B5E35"/>
  <polygon points="124,240 134,234 146,222 158,206 170,190 182,173 195,155 200,142 205,150 218,170 232,192 245,212 258,230 272,240" fill="#9E7245"/>
  <polygon points="136,240 145,236 156,226 166,212 177,197 188,181 198,163 200,155 202,163 212,182 222,200 234,220 245,236 256,240" fill="#A8845A"/>
  <polygon points="148,240 156,236 166,228 174,216 184,202 193,188 200,172 200,165 207,180 215,196 224,214 233,230 242,240" fill="#B89068"/>
  <polygon points="158,240 166,236 174,228 182,218 190,205 197,192 200,180 203,190 210,207 218,224 226,238 234,240" fill="#C4A080"/>
  <polygon points="167,240 174,236 181,228 188,218 194,207 199,196 200,188 201,196 207,212 214,228 221,240" fill="#CAAD92"/>
  <polygon points="175,240 181,236 187,228 193,219 198,210 200,202 202,210 208,224 214,236 220,240" fill="#D0B8A0"/>
  <polygon points="182,240 187,236 192,228 197,220 200,213 203,220 208,232 213,240" fill="#D8C8B8"/>
  <polygon points="188,240 193,234 197,226 200,220 203,226 207,234 212,240" fill="#E8E0D4"/>
  <polygon points="193,240 197,232 200,226 203,232 207,240" fill="#F0EDE8"/>
  <!-- Smoke particles (stylized) -->
  <circle cx="200" cy="210" r="3" fill="rgba(245,235,210,0.5)"/>
  <circle cx="197" cy="195" r="2.5" fill="rgba(245,232,205,0.4)"/>
  <circle cx="203" cy="180" r="2" fill="rgba(245,228,200,0.35)"/>
  <circle cx="199" cy="165" r="1.8" fill="rgba(245,225,195,0.28)"/>
  <circle cx="201" cy="150" r="1.5" fill="rgba(240,220,190,0.2)"/>
  <circle cx="198" cy="136" r="1.2" fill="rgba(240,218,185,0.14)"/>
</svg>
