<svg xmlns="http://www.w3.org/2000/svg" width="400" height="400" viewBox="0 0 400 400">
  <rect width="400" height="400" fill="#1A1A4E"/>

  <!-- Mountain silhouette at bottom-center -->
  <polygon points="140,400 200,320 260,400" fill="#2A2A2A"/>

  <!-- Aligned particles (gold, pointing right) -->
  <g stroke="#D4A017" stroke-width="1.5" stroke-linecap="round">
    <line x1="20" y1="60" x2="26" y2="60"/>
    <line x1="40" y1="45" x2="46" y2="45"/>
    <line x1="58" y1="70" x2="64" y2="70"/>
    <line x1="75" y1="55" x2="81" y2="55"/>
    <line x1="92" y1="80" x2="98" y2="80"/>
    <line x1="110" y1="50" x2="116" y2="50"/>
    <line x1="128" y1="68" x2="134" y2="68"/>
    <line x1="148" y1="42" x2="154" y2="42"/>
    <line x1="165" y1="75" x2="171" y2="75"/>
    <line x1="182" y1="58" x2="188" y2="58"/>
    <line x1="200" y1="48" x2="206" y2="48"/>
    <line x1="218" y1="72" x2="224" y2="72"/>
    <line x1="235" y1="55" x2="241" y2="55"/>
    <line x1="252" y1="40" x2="258" y2="40"/>
    <line x1="270" y1="65" x2="276" y2="65"/>
    <line x1="288" y1="52" x2="294" y2="52"/>
    <line x1="306" y1="78" x2="312" y2="78"/>
    <line x1="325" y1="48" x2="331" y2="48"/>
    <line x1="342" y1="62" x2="348" y2="62"/>
    <line x1="360" y1="38" x2="366" y2="38"/>
    <line x1="378" y1="70" x2="384" y2="70"/>
    <line x1="30" y1="100" x2="36" y2="100"/>
    <line x1="52" y1="115" x2="58" y2="115"/>
    <line x1="70" y1="90" x2="76" y2="90"/>
    <line x1="88" y1="108" x2="94" y2="108"/>
    <line x1="107" y1="125" x2="113" y2="125"/>
    <line x1="125" y1="95" x2="131" y2="95"/>
    <line x1="143" y1="112" x2="149" y2="112"/>
    <line x1="162" y1="130" x2="168" y2="130"/>
    <line x1="180" y1="105" x2="186" y2="105"/>
    <line x1="198" y1="118" x2="204" y2="118"/>
    <line x1="217" y1="92" x2="223" y2="92"/>
    <line x1="235" y1="108" x2="241" y2="108"/>
    <line x1="253" y1="130" x2="259" y2="130"/>
    <line x1="272" y1="100" x2="278" y2="100"/>
    <line x1="290" y1="120" x2="296" y2="120"/>
    <line x1="308" y1="88" x2="314" y2="88"/>
    <line x1="327" y1="112" x2="333" y2="112"/>
    <line x1="345" y1="98" x2="351" y2="98"/>
    <line x1="363" y1="125" x2="369" y2="125"/>
    <line x1="25" y1="155" x2="31" y2="155"/>
    <line x1="45" y1="170" x2="51" y2="170"/>
    <line x1="65" y1="145" x2="71" y2="145"/>
    <line x1="85" y1="160" x2="91" y2="160"/>
    <line x1="105" y1="175" x2="111" y2="175"/>
    <line x1="125" y1="148" x2="131" y2="148"/>
    <line x1="145" y1="165" x2="151" y2="165"/>
    <line x1="165" y1="180" x2="171" y2="180"/>
    <line x1="185" y1="152" x2="191" y2="152"/>
    <line x1="205" y1="168" x2="211" y2="168"/>
    <line x1="225" y1="145" x2="231" y2="145"/>
    <line x1="245" y1="170" x2="251" y2="170"/>
    <line x1="265" y1="155" x2="271" y2="155"/>
    <line x1="285" y1="178" x2="291" y2="178"/>
    <line x1="305" y1="148" x2="311" y2="148"/>
    <line x1="325" y1="162" x2="331" y2="162"/>
    <line x1="345" y1="180" x2="351" y2="180"/>
    <line x1="365" y1="152" x2="371" y2="152"/>
    <line x1="22" y1="210" x2="28" y2="210"/>
    <line x1="42" y1="225" x2="48" y2="225"/>
    <line x1="62" y1="200" x2="68" y2="200"/>
    <line x1="82" y1="215" x2="88" y2="215"/>
    <line x1="102" y1="228" x2="108" y2="228"/>
    <line x1="122" y1="202" x2="128" y2="202"/>
  </g>

  <!-- Intermediate violet particles (slightly off-direction) -->
  <g stroke="#6B3FA0" stroke-width="1.5" stroke-linecap="round">
    <line x1="33" y1="258" x2="37" y2="252"/>
    <line x1="155" y1="240" x2="158" y2="234"/>
    <line x1="318" y1="200" x2="323" y2="194"/>
    <line x1="370" y1="230" x2="375" y2="224"/>
    <line x1="88" y1="270" x2="94" y2="265"/>
    <line x1="275" y1="250" x2="280" y2="244"/>
    <line x1="12" y1="300" x2="18" y2="294"/>
    <line x1="380" y1="160" x2="385" y2="153"/>
  </g>

  <!-- Disordered indigo particles (scattered directions) -->
  <g stroke="#4A4A9E" stroke-width="1.5" stroke-linecap="round">
    <line x1="50" y1="290" x2="44" y2="284"/>
    <line x1="390" y1="90" x2="394" y2="84"/>
    <line x1="10" y1="180" x2="10" y2="174"/>
    <line x1="200" y1="280" x2="205" y2="275"/>
    <line x1="340" y1="270" x2="334" y2="265"/>
    <line x1="110" y1="300" x2="116" y2="295"/>
  </g>
</svg>
