<svg xmlns="http://www.w3.org/2000/svg" width="400" height="400" viewBox="0 0 400 400">
<rect width="400" height="400" fill="#060610"/>
<path d="M 200 200 L 385.00 200.00 A 185 185 0 0 1 384.26 216.58 Z" fill="hsl(0.0,85%,50%)" opacity="0.88"/>
<path d="M 200 200 L 384.26 216.58 A 185 185 0 0 1 382.03 233.03 Z" fill="hsl(5.1,85%,50%)" opacity="0.88"/>
<path d="M 200 200 L 382.03 233.03 A 185 185 0 0 1 378.33 249.22 Z" fill="hsl(10.3,85%,50%)" opacity="0.88"/>
<path d="M 200 200 L 378.33 249.22 A 185 185 0 0 1 373.20 265.00 Z" fill="hsl(15.4,85%,50%)" opacity="0.88"/>
<path d="M 200 200 L 373.20 265.00 A 185 185 0 0 1 366.68 280.27 Z" fill="hsl(20.6,85%,50%)" opacity="0.88"/>
<path d="M 200 200 L 366.68 280.27 A 185 185 0 0 1 358.81 294.89 Z" fill="hsl(25.7,85%,50%)" opacity="0.88"/>
<path d="M 200 200 L 358.81 294.89 A 185 185 0 0 1 349.67 308.74 Z" fill="hsl(30.9,85%,50%)" opacity="0.88"/>
<path d="M 200 200 L 349.67 308.74 A 185 185 0 0 1 339.32 321.72 Z" fill="hsl(36.0,85%,50%)" opacity="0.88"/>
<path d="M 200 200 L 339.32 321.72 A 185 185 0 0 1 327.85 333.72 Z" fill="hsl(41.1,85%,50%)" opacity="0.88"/>
<path d="M 200 200 L 327.85 333.72 A 185 185 0 0 1 315.35 344.64 Z" fill="hsl(46.3,85%,50%)" opacity="0.88"/>
<path d="M 200 200 L 315.35 344.64 A 185 185 0 0 1 301.92 354.40 Z" fill="hsl(51.4,85%,50%)" opacity="0.88"/>
<path d="M 200 200 L 301.92 354.40 A 185 185 0 0 1 287.67 362.91 Z" fill="hsl(56.6,85%,50%)" opacity="0.88"/>
<path d="M 200 200 L 287.67 362.91 A 185 185 0 0 1 272.71 370.11 Z" fill="hsl(61.7,85%,50%)" opacity="0.88"/>
<path d="M 200 200 L 272.71 370.11 A 185 185 0 0 1 257.17 375.95 Z" fill="hsl(66.9,85%,50%)" opacity="0.88"/>
<path d="M 200 200 L 257.17 375.95 A 185 185 0 0 1 241.17 380.36 Z" fill="hsl(72.0,85%,50%)" opacity="0.88"/>
<path d="M 200 200 L 241.17 380.36 A 185 185 0 0 1 224.83 383.33 Z" fill="hsl(77.1,85%,50%)" opacity="0.88"/>
<path d="M 200 200 L 224.83 383.33 A 185 185 0 0 1 208.30 384.81 Z" fill="hsl(82.3,85%,50%)" opacity="0.88"/>
<path d="M 200 200 L 208.30 384.81 A 185 185 0 0 1 191.70 384.81 Z" fill="hsl(87.4,85%,50%)" opacity="0.88"/>
<path d="M 200 200 L 191.70 384.81 A 185 185 0 0 1 175.17 383.33 Z" fill="hsl(92.6,85%,50%)" opacity="0.88"/>
<path d="M 200 200 L 175.17 383.33 A 185 185 0 0 1 158.83 380.36 Z" fill="hsl(97.7,85%,50%)" opacity="0.88"/>
<path d="M 200 200 L 158.83 380.36 A 185 185 0 0 1 142.83 375.95 Z" fill="hsl(102.9,85%,50%)" opacity="0.88"/>
<path d="M 200 200 L 142.83 375.95 A 185 185 0 0 1 127.29 370.11 Z" fill="hsl(108.0,85%,50%)" opacity="0.88"/>
<path d="M 200 200 L 127.29 370.11 A 185 185 0 0 1 112.33 362.91 Z" fill="hsl(113.1,85%,50%)" opacity="0.88"/>
<path d="M 200 200 L 112.33 362.91 A 185 185 0 0 1 98.08 354.40 Z" fill="hsl(118.3,85%,50%)" opacity="0.88"/>
<path d="M 200 200 L 98.08 354.40 A 185 185 0 0 1 84.65 344.64 Z" fill="hsl(123.4,85%,50%)" opacity="0.88"/>
<path d="M 200 200 L 84.65 344.64 A 185 185 0 0 1 72.15 333.72 Z" fill="hsl(128.6,85%,50%)" opacity="0.88"/>
<path d="M 200 200 L 72.15 333.72 A 185 185 0 0 1 60.68 321.72 Z" fill="hsl(133.7,85%,50%)" opacity="0.88"/>
<path d="M 200 200 L 60.68 321.72 A 185 185 0 0 1 50.33 308.74 Z" fill="hsl(138.9,85%,50%)" opacity="0.88"/>
<path d="M 200 200 L 50.33 308.74 A 185 185 0 0 1 41.19 294.89 Z" fill="hsl(144.0,85%,50%)" opacity="0.88"/>
<path d="M 200 200 L 41.19 294.89 A 185 185 0 0 1 33.32 280.27 Z" fill="hsl(149.1,85%,50%)" opacity="0.88"/>
<path d="M 200 200 L 33.32 280.27 A 185 185 0 0 1 26.80 265.00 Z" fill="hsl(154.3,85%,50%)" opacity="0.88"/>
<path d="M 200 200 L 26.80 265.00 A 185 185 0 0 1 21.67 249.22 Z" fill="hsl(159.4,85%,50%)" opacity="0.88"/>
<path d="M 200 200 L 21.67 249.22 A 185 185 0 0 1 17.97 233.03 Z" fill="hsl(164.6,85%,50%)" opacity="0.88"/>
<path d="M 200 200 L 17.97 233.03 A 185 185 0 0 1 15.74 216.58 Z" fill="hsl(169.7,85%,50%)" opacity="0.88"/>
<path d="M 200 200 L 15.74 216.58 A 185 185 0 0 1 15.00 200.00 Z" fill="hsl(174.9,85%,50%)" opacity="0.88"/>
<path d="M 200 200 L 15.00 200.00 A 185 185 0 0 1 15.74 183.42 Z" fill="hsl(180.0,85%,50%)" opacity="0.88"/>
<path d="M 200 200 L 15.74 183.42 A 185 185 0 0 1 17.97 166.97 Z" fill="hsl(185.1,85%,50%)" opacity="0.88"/>
<path d="M 200 200 L 17.97 166.97 A 185 185 0 0 1 21.67 150.78 Z" fill="hsl(190.3,85%,50%)" opacity="0.88"/>
<path d="M 200 200 L 21.67 150.78 A 185 185 0 0 1 26.80 135.00 Z" fill="hsl(195.4,85%,50%)" opacity="0.88"/>
<path d="M 200 200 L 26.80 135.00 A 185 185 0 0 1 33.32 119.73 Z" fill="hsl(200.6,85%,50%)" opacity="0.88"/>
<path d="M 200 200 L 33.32 119.73 A 185 185 0 0 1 41.19 105.11 Z" fill="hsl(205.7,85%,50%)" opacity="0.88"/>
<path d="M 200 200 L 41.19 105.11 A 185 185 0 0 1 50.33 91.26 Z" fill="hsl(210.9,85%,50%)" opacity="0.88"/>
<path d="M 200 200 L 50.33 91.26 A 185 185 0 0 1 60.68 78.28 Z" fill="hsl(216.0,85%,50%)" opacity="0.88"/>
<path d="M 200 200 L 60.68 78.28 A 185 185 0 0 1 72.15 66.28 Z" fill="hsl(221.1,85%,50%)" opacity="0.88"/>
<path d="M 200 200 L 72.15 66.28 A 185 185 0 0 1 84.65 55.36 Z" fill="hsl(226.3,85%,50%)" opacity="0.88"/>
<path d="M 200 200 L 84.65 55.36 A 185 185 0 0 1 98.08 45.60 Z" fill="hsl(231.4,85%,50%)" opacity="0.88"/>
<path d="M 200 200 L 98.08 45.60 A 185 185 0 0 1 112.33 37.09 Z" fill="hsl(236.6,85%,50%)" opacity="0.88"/>
<path d="M 200 200 L 112.33 37.09 A 185 185 0 0 1 127.29 29.89 Z" fill="hsl(241.7,85%,50%)" opacity="0.88"/>
<path d="M 200 200 L 127.29 29.89 A 185 185 0 0 1 142.83 24.05 Z" fill="hsl(246.9,85%,50%)" opacity="0.88"/>
<path d="M 200 200 L 142.83 24.05 A 185 185 0 0 1 158.83 19.64 Z" fill="hsl(252.0,85%,50%)" opacity="0.88"/>
<path d="M 200 200 L 158.83 19.64 A 185 185 0 0 1 175.17 16.67 Z" fill="hsl(257.1,85%,50%)" opacity="0.88"/>
<path d="M 200 200 L 175.17 16.67 A 185 185 0 0 1 191.70 15.19 Z" fill="hsl(262.3,85%,50%)" opacity="0.88"/>
<path d="M 200 200 L 191.70 15.19 A 185 185 0 0 1 208.30 15.19 Z" fill="hsl(267.4,85%,50%)" opacity="0.88"/>
<path d="M 200 200 L 208.30 15.19 A 185 185 0 0 1 224.83 16.67 Z" fill="hsl(272.6,85%,50%)" opacity="0.88"/>
<path d="M 200 200 L 224.83 16.67 A 185 185 0 0 1 241.17 19.64 Z" fill="hsl(277.7,85%,50%)" opacity="0.88"/>
<path d="M 200 200 L 241.17 19.64 A 185 185 0 0 1 257.17 24.05 Z" fill="hsl(282.9,85%,50%)" opacity="0.88"/>
<path d="M 200 200 L 257.17 24.05 A 185 185 0 0 1 272.71 29.89 Z" fill="hsl(288.0,85%,50%)" opacity="0.88"/>
<path d="M 200 200 L 272.71 29.89 A 185 185 0 0 1 287.67 37.09 Z" fill="hsl(293.1,85%,50%)" opacity="0.88"/>
<path d="M 200 200 L 287.67 37.09 A 185 185 0 0 1 301.92 45.60 Z" fill="hsl(298.3,85%,50%)" opacity="0.88"/>
<path d="M 200 200 L 301.92 45.60 A 185 185 0 0 1 315.35 55.36 Z" fill="hsl(303.4,85%,50%)" opacity="0.88"/>
<path d="M 200 200 L 315.35 55.36 A 185 185 0 0 1 327.85 66.28 Z" fill="hsl(308.6,85%,50%)" opacity="0.88"/>
<path d="M 200 200 L 327.85 66.28 A 185 185 0 0 1 339.32 78.28 Z" fill="hsl(313.7,85%,50%)" opacity="0.88"/>
<path d="M 200 200 L 339.32 78.28 A 185 185 0 0 1 349.67 91.26 Z" fill="hsl(318.9,85%,50%)" opacity="0.88"/>
<path d="M 200 200 L 349.67 91.26 A 185 185 0 0 1 358.81 105.11 Z" fill="hsl(324.0,85%,50%)" opacity="0.88"/>
<path d="M 200 200 L 358.81 105.11 A 185 185 0 0 1 366.68 119.73 Z" fill="hsl(329.1,85%,50%)" opacity="0.88"/>
<path d="M 200 200 L 366.68 119.73 A 185 185 0 0 1 373.20 135.00 Z" fill="hsl(334.3,85%,50%)" opacity="0.88"/>
<path d="M 200 200 L 373.20 135.00 A 185 185 0 0 1 378.33 150.78 Z" fill="hsl(339.4,85%,50%)" opacity="0.88"/>
<path d="M 200 200 L 378.33 150.78 A 185 185 0 0 1 382.03 166.97 Z" fill="hsl(344.6,85%,50%)" opacity="0.88"/>
<path d="M 200 200 L 382.03 166.97 A 185 185 0 0 1 384.26 183.42 Z" fill="hsl(349.7,85%,50%)" opacity="0.88"/>
<path d="M 200 200 L 384.26 183.42 A 185 185 0 0 1 385.00 200.00 Z" fill="hsl(354.9,85%,50%)" opacity="0.88"/>
<circle cx="200" cy="200" r="12" fill="#060610"/>
<circle cx="323.00" cy="200.00" r="2.8" fill="#060610"/>
<circle cx="322.50" cy="211.03" r="2.8" fill="#060610"/>
<circle cx="321.02" cy="221.96" r="2.8" fill="#060610"/>
<circle cx="318.57" cy="232.72" r="2.8" fill="#060610"/>
<circle cx="315.16" cy="243.22" r="2.8" fill="#060610"/>
<circle cx="310.82" cy="253.37" r="2.8" fill="#060610"/>
<circle cx="305.59" cy="263.09" r="2.8" fill="#060610"/>
<circle cx="299.51" cy="272.30" r="2.8" fill="#060610"/>
<circle cx="292.63" cy="280.93" r="2.8" fill="#060610"/>
<circle cx="285.00" cy="288.90" r="2.8" fill="#060610"/>
<circle cx="276.69" cy="296.17" r="2.8" fill="#060610"/>
<circle cx="267.76" cy="302.65" r="2.8" fill="#060610"/>
<circle cx="258.29" cy="308.31" r="2.8" fill="#060610"/>
<circle cx="248.34" cy="313.10" r="2.8" fill="#060610"/>
<circle cx="238.01" cy="316.98" r="2.8" fill="#060610"/>
<circle cx="227.37" cy="319.92" r="2.8" fill="#060610"/>
<circle cx="216.51" cy="321.89" r="2.8" fill="#060610"/>
<circle cx="205.52" cy="322.88" r="2.8" fill="#060610"/>
<circle cx="194.48" cy="322.88" r="2.8" fill="#060610"/>
<circle cx="183.49" cy="321.89" r="2.8" fill="#060610"/>
<circle cx="172.63" cy="319.92" r="2.8" fill="#060610"/>
<circle cx="161.99" cy="316.98" r="2.8" fill="#060610"/>
<circle cx="151.66" cy="313.10" r="2.8" fill="#060610"/>
<circle cx="141.71" cy="308.31" r="2.8" fill="#060610"/>
<circle cx="132.24" cy="302.65" r="2.8" fill="#060610"/>
<circle cx="123.31" cy="296.17" r="2.8" fill="#060610"/>
<circle cx="115.00" cy="288.90" r="2.8" fill="#060610"/>
<circle cx="107.37" cy="280.93" r="2.8" fill="#060610"/>
<circle cx="100.49" cy="272.30" r="2.8" fill="#060610"/>
<circle cx="94.41" cy="263.09" r="2.8" fill="#060610"/>
<circle cx="89.18" cy="253.37" r="2.8" fill="#060610"/>
<circle cx="84.84" cy="243.22" r="2.8" fill="#060610"/>
<circle cx="81.43" cy="232.72" r="2.8" fill="#060610"/>
<circle cx="78.98" cy="221.96" r="2.8" fill="#060610"/>
<circle cx="77.50" cy="211.03" r="2.8" fill="#060610"/>
<circle cx="77.00" cy="200.00" r="2.8" fill="#060610"/>
<circle cx="77.50" cy="188.97" r="2.8" fill="#060610"/>
<circle cx="78.98" cy="178.04" r="2.8" fill="#060610"/>
<circle cx="81.43" cy="167.28" r="2.8" fill="#060610"/>
<circle cx="84.84" cy="156.78" r="2.8" fill="#060610"/>
<circle cx="89.18" cy="146.63" r="2.8" fill="#060610"/>
<circle cx="94.41" cy="136.91" r="2.8" fill="#060610"/>
<circle cx="100.49" cy="127.70" r="2.8" fill="#060610"/>
<circle cx="107.37" cy="119.07" r="2.8" fill="#060610"/>
<circle cx="115.00" cy="111.10" r="2.8" fill="#060610"/>
<circle cx="123.31" cy="103.83" r="2.8" fill="#060610"/>
<circle cx="132.24" cy="97.35" r="2.8" fill="#060610"/>
<circle cx="141.71" cy="91.69" r="2.8" fill="#060610"/>
<circle cx="151.66" cy="86.90" r="2.8" fill="#060610"/>
<circle cx="161.99" cy="83.02" r="2.8" fill="#060610"/>
<circle cx="172.63" cy="80.08" r="2.8" fill="#060610"/>
<circle cx="183.49" cy="78.11" r="2.8" fill="#060610"/>
<circle cx="194.48" cy="77.12" r="2.8" fill="#060610"/>
<circle cx="205.52" cy="77.12" r="2.8" fill="#060610"/>
<circle cx="216.51" cy="78.11" r="2.8" fill="#060610"/>
<circle cx="227.37" cy="80.08" r="2.8" fill="#060610"/>
<circle cx="238.01" cy="83.02" r="2.8" fill="#060610"/>
<circle cx="248.34" cy="86.90" r="2.8" fill="#060610"/>
<circle cx="258.29" cy="91.69" r="2.8" fill="#060610"/>
<circle cx="267.76" cy="97.35" r="2.8" fill="#060610"/>
<circle cx="276.69" cy="103.83" r="2.8" fill="#060610"/>
<circle cx="285.00" cy="111.10" r="2.8" fill="#060610"/>
<circle cx="292.63" cy="119.07" r="2.8" fill="#060610"/>
<circle cx="299.51" cy="127.70" r="2.8" fill="#060610"/>
<circle cx="305.59" cy="136.91" r="2.8" fill="#060610"/>
<circle cx="310.82" cy="146.63" r="2.8" fill="#060610"/>
<circle cx="315.16" cy="156.78" r="2.8" fill="#060610"/>
<circle cx="318.57" cy="167.28" r="2.8" fill="#060610"/>
<circle cx="321.02" cy="178.04" r="2.8" fill="#060610"/>
<circle cx="322.50" cy="188.97" r="2.8" fill="#060610"/>
</svg>
