<svg xmlns="http://www.w3.org/2000/svg" viewBox="0 0 400 400" width="400" height="400">
  <rect width="400" height="400" fill="#0A0C14"/>

  <!-- falling particle trail -->
  <circle cx="85" cy="42" r="9" fill="rgba(100,130,220,0.55)"/>
  <circle cx="110" cy="68" r="7" fill="rgba(100,130,220,0.50)"/>
  <circle cx="145" cy="88" r="11" fill="rgba(100,130,220,0.60)"/>
  <circle cx="175" cy="110" r="6" fill="rgba(100,130,220,0.45)"/>
  <circle cx="210" cy="130" r="10" fill="rgba(100,130,220,0.55)"/>
  <circle cx="245" cy="148" r="8" fill="rgba(100,130,220,0.50)"/>
  <circle cx="280" cy="162" r="12" fill="rgba(100,130,220,0.60)"/>
  <circle cx="310" cy="178" r="7" fill="rgba(100,130,220,0.45)"/>
  <circle cx="330" cy="200" r="9" fill="rgba(100,130,220,0.50)"/>
  <circle cx="340" cy="225" r="11" fill="rgba(100,130,220,0.55)"/>

  <!-- pooled particles at bottom -->
  <circle cx="60" cy="320" r="8" fill="rgba(100,130,220,0.55)"/>
  <circle cx="95" cy="330" r="10" fill="rgba(100,130,220,0.60)"/>
  <circle cx="135" cy="325" r="7" fill="rgba(100,130,220,0.50)"/>
  <circle cx="170" cy="335" r="9" fill="rgba(100,130,220,0.55)"/>
  <circle cx="210" cy="328" r="11" fill="rgba(100,130,220,0.60)"/>
  <circle cx="250" cy="322" r="8" fill="rgba(100,130,220,0.50)"/>
  <circle cx="290" cy="332" r="10" fill="rgba(100,130,220,0.55)"/>
  <circle cx="330" cy="326" r="7" fill="rgba(100,130,220,0.45)"/>

  <!-- fluid surface line -->
  <path d="M 40 308 Q 100 295 160 305 Q 220 315 280 300 Q 330 290 370 305" stroke="#D8E8F0" stroke-width="2" fill="none" opacity="0.8"/>

  <!-- pool fill suggestion -->
  <path d="M 40 308 Q 100 295 160 305 Q 220 315 280 300 Q 330 290 370 305 L 370 380 L 40 380 Z" fill="rgba(60,80,160,0.18)"/>
</svg>
