<svg xmlns="http://www.w3.org/2000/svg" viewBox="0 0 400 400" width="400" height="400">
  <rect width="400" height="400" fill="#06090F"/>

  <!-- Three large offset seed rings -->
  <circle cx="200" cy="145" r="120" fill="none" stroke="#D4A030" stroke-width="2.5" opacity="0.9"/>
  <circle cx="130" cy="270" r="80"  fill="none" stroke="#D4A030" stroke-width="2.2" opacity="0.85"/>
  <circle cx="270" cy="270" r="50"  fill="none" stroke="#C07020" stroke-width="1.8" opacity="0.8"/>

  <!-- Depth-1 image circles (amber) -->
  <circle cx="200" cy="228" r="38"  fill="none" stroke="#C07020" stroke-width="1.5" opacity="0.75"/>
  <circle cx="158" cy="178" r="28"  fill="none" stroke="#C07020" stroke-width="1.4" opacity="0.7"/>
  <circle cx="242" cy="178" r="22"  fill="none" stroke="#8B3A10" stroke-width="1.2" opacity="0.65"/>
  <circle cx="113" cy="310" r="26"  fill="none" stroke="#C07020" stroke-width="1.3" opacity="0.7"/>
  <circle cx="147" cy="330" r="18"  fill="none" stroke="#8B3A10" stroke-width="1.1" opacity="0.6"/>

  <!-- Depth-2 smaller rings (deep orange) -->
  <circle cx="200" cy="262" r="18"  fill="none" stroke="#8B3A10" stroke-width="1.0" opacity="0.6"/>
  <circle cx="175" cy="200" r="14"  fill="none" stroke="#8B3A10" stroke-width="0.9" opacity="0.55"/>
  <circle cx="225" cy="200" r="11"  fill="none" stroke="#5A1A04" stroke-width="0.9" opacity="0.5"/>
  <circle cx="290" cy="255" r="16"  fill="none" stroke="#8B3A10" stroke-width="1.0" opacity="0.55"/>
  <circle cx="310" cy="280" r="10"  fill="none" stroke="#5A1A04" stroke-width="0.8" opacity="0.45"/>

  <!-- Depth-3 tiny rings (dark red) -->
  <circle cx="200" cy="278" r="8"   fill="none" stroke="#3A0A00" stroke-width="0.8" opacity="0.5"/>
  <circle cx="188" cy="213" r="7"   fill="none" stroke="#3A0A00" stroke-width="0.7" opacity="0.45"/>
  <circle cx="212" cy="213" r="6"   fill="none" stroke="#3A0A00" stroke-width="0.7" opacity="0.4"/>
  <circle cx="125" cy="295" r="9"   fill="none" stroke="#3A0A00" stroke-width="0.8" opacity="0.45"/>
  <circle cx="159" cy="345" r="7"   fill="none" stroke="#3A0A00" stroke-width="0.7" opacity="0.4"/>
  <circle cx="270" cy="308" r="8"   fill="none" stroke="#3A0A00" stroke-width="0.7" opacity="0.4"/>
  <circle cx="300" cy="260" r="6"   fill="none" stroke="#3A0A00" stroke-width="0.6" opacity="0.35"/>
</svg>
