<svg xmlns="http://www.w3.org/2000/svg" width="400" height="400" viewBox="0 0 400 400">
  <rect width="400" height="400" fill="#1A2E1A"/>
  <defs>
    <!-- White anemone: petals #FAFAF2, center #FFE066 -->
    <g id="f0">
      <ellipse cx="11" cy="0" rx="6.3" ry="3.2" fill="#FAFAF2" opacity="0.92"/>
      <ellipse cx="11" cy="0" rx="6.3" ry="3.2" fill="#FAFAF2" opacity="0.92" transform="rotate(60)"/>
      <ellipse cx="11" cy="0" rx="6.3" ry="3.2" fill="#FAFAF2" opacity="0.92" transform="rotate(120)"/>
      <ellipse cx="11" cy="0" rx="6.3" ry="3.2" fill="#FAFAF2" opacity="0.92" transform="rotate(180)"/>
      <ellipse cx="11" cy="0" rx="6.3" ry="3.2" fill="#FAFAF2" opacity="0.92" transform="rotate(240)"/>
      <ellipse cx="11" cy="0" rx="6.3" ry="3.2" fill="#FAFAF2" opacity="0.92" transform="rotate(300)"/>
      <circle cx="0" cy="0" r="3.6" fill="#FFE066"/>
    </g>
    <!-- Purple iris: petals #7B5EA7, center #FFD700 -->
    <g id="f1">
      <ellipse cx="11" cy="0" rx="6.3" ry="3.2" fill="#7B5EA7" opacity="0.92"/>
      <ellipse cx="11" cy="0" rx="6.3" ry="3.2" fill="#7B5EA7" opacity="0.92" transform="rotate(60)"/>
      <ellipse cx="11" cy="0" rx="6.3" ry="3.2" fill="#7B5EA7" opacity="0.92" transform="rotate(120)"/>
      <ellipse cx="11" cy="0" rx="6.3" ry="3.2" fill="#7B5EA7" opacity="0.92" transform="rotate(180)"/>
      <ellipse cx="11" cy="0" rx="6.3" ry="3.2" fill="#7B5EA7" opacity="0.92" transform="rotate(240)"/>
      <ellipse cx="11" cy="0" rx="6.3" ry="3.2" fill="#7B5EA7" opacity="0.92" transform="rotate(300)"/>
      <circle cx="0" cy="0" r="3.6" fill="#FFD700"/>
    </g>
    <!-- Soft pink rose: petals #F4B8C1, center #C06080 -->
    <g id="f2">
      <ellipse cx="11" cy="0" rx="6.3" ry="3.2" fill="#F4B8C1" opacity="0.92"/>
      <ellipse cx="11" cy="0" rx="6.3" ry="3.2" fill="#F4B8C1" opacity="0.92" transform="rotate(45)"/>
      <ellipse cx="11" cy="0" rx="6.3" ry="3.2" fill="#F4B8C1" opacity="0.92" transform="rotate(90)"/>
      <ellipse cx="11" cy="0" rx="6.3" ry="3.2" fill="#F4B8C1" opacity="0.92" transform="rotate(135)"/>
      <ellipse cx="11" cy="0" rx="6.3" ry="3.2" fill="#F4B8C1" opacity="0.92" transform="rotate(180)"/>
      <ellipse cx="11" cy="0" rx="6.3" ry="3.2" fill="#F4B8C1" opacity="0.92" transform="rotate(225)"/>
      <ellipse cx="11" cy="0" rx="6.3" ry="3.2" fill="#F4B8C1" opacity="0.92" transform="rotate(270)"/>
      <ellipse cx="11" cy="0" rx="6.3" ry="3.2" fill="#F4B8C1" opacity="0.92" transform="rotate(315)"/>
      <circle cx="0" cy="0" r="3.6" fill="#C06080"/>
    </g>
    <!-- Field yellow: petals #F5E642, center #C8A000 -->
    <g id="f3">
      <ellipse cx="11" cy="0" rx="6.3" ry="3.2" fill="#F5E642" opacity="0.92"/>
      <ellipse cx="11" cy="0" rx="6.3" ry="3.2" fill="#F5E642" opacity="0.92" transform="rotate(51.4)"/>
      <ellipse cx="11" cy="0" rx="6.3" ry="3.2" fill="#F5E642" opacity="0.92" transform="rotate(102.9)"/>
      <ellipse cx="11" cy="0" rx="6.3" ry="3.2" fill="#F5E642" opacity="0.92" transform="rotate(154.3)"/>
      <ellipse cx="11" cy="0" rx="6.3" ry="3.2" fill="#F5E642" opacity="0.92" transform="rotate(205.7)"/>
      <ellipse cx="11" cy="0" rx="6.3" ry="3.2" fill="#F5E642" opacity="0.92" transform="rotate(257.1)"/>
      <ellipse cx="11" cy="0" rx="6.3" ry="3.2" fill="#F5E642" opacity="0.92" transform="rotate(308.6)"/>
      <circle cx="0" cy="0" r="3.6" fill="#C8A000"/>
    </g>
    <!-- Pale blue cornflower: petals #A8C4E0, center #5080B0 -->
    <g id="f4">
      <ellipse cx="11" cy="0" rx="6.3" ry="3.2" fill="#A8C4E0" opacity="0.92"/>
      <ellipse cx="11" cy="0" rx="6.3" ry="3.2" fill="#A8C4E0" opacity="0.92" transform="rotate(60)"/>
      <ellipse cx="11" cy="0" rx="6.3" ry="3.2" fill="#A8C4E0" opacity="0.92" transform="rotate(120)"/>
      <ellipse cx="11" cy="0" rx="6.3" ry="3.2" fill="#A8C4E0" opacity="0.92" transform="rotate(180)"/>
      <ellipse cx="11" cy="0" rx="6.3" ry="3.2" fill="#A8C4E0" opacity="0.92" transform="rotate(240)"/>
      <ellipse cx="11" cy="0" rx="6.3" ry="3.2" fill="#A8C4E0" opacity="0.92" transform="rotate(300)"/>
      <circle cx="0" cy="0" r="3.6" fill="#5080B0"/>
    </g>
  </defs>

  <!-- Row 0 y=40 -->
  <use href="#f0" transform="translate(40,40)"/>
  <use href="#f1" transform="translate(110,40)"/>
  <use href="#f2" transform="translate(180,40)"/>
  <use href="#f3" transform="translate(250,40)"/>
  <use href="#f4" transform="translate(320,40)"/>
  <use href="#f0" transform="translate(385,40)"/>
  <!-- Row 1 y=110 -->
  <use href="#f1" transform="translate(75,110)"/>
  <use href="#f2" transform="translate(145,110)"/>
  <use href="#f3" transform="translate(215,110)"/>
  <use href="#f4" transform="translate(285,110)"/>
  <use href="#f0" transform="translate(355,110)"/>
  <!-- Row 2 y=180 -->
  <use href="#f2" transform="translate(40,180)"/>
  <use href="#f3" transform="translate(110,180)"/>
  <use href="#f4" transform="translate(180,180)"/>
  <use href="#f0" transform="translate(250,180)"/>
  <use href="#f1" transform="translate(320,180)"/>
  <use href="#f2" transform="translate(385,180)"/>
  <!-- Row 3 y=250 -->
  <use href="#f3" transform="translate(75,250)"/>
  <use href="#f4" transform="translate(145,250)"/>
  <use href="#f0" transform="translate(215,250)"/>
  <use href="#f1" transform="translate(285,250)"/>
  <use href="#f2" transform="translate(355,250)"/>
  <!-- Row 4 y=320 -->
  <use href="#f4" transform="translate(40,320)"/>
  <use href="#f0" transform="translate(110,320)"/>
  <use href="#f1" transform="translate(180,320)"/>
  <use href="#f2" transform="translate(250,320)"/>
  <use href="#f3" transform="translate(320,320)"/>
  <use href="#f4" transform="translate(385,320)"/>
  <!-- Row 5 y=385 -->
  <use href="#f0" transform="translate(75,385)"/>
  <use href="#f1" transform="translate(145,385)"/>
  <use href="#f2" transform="translate(215,385)"/>
  <use href="#f3" transform="translate(285,385)"/>
  <use href="#f4" transform="translate(355,385)"/>
</svg>
