<svg xmlns="http://www.w3.org/2000/svg" width="256" height="256" viewBox="0 0 256 256">
  <rect width="256" height="256" fill="#FFF8E7"/>
  <circle cx="7.0" cy="133.0" r="0.48" fill="rgb(208,216,240)"/>
  <circle cx="21.0" cy="133.0" r="0.67" fill="rgb(208,216,240)"/>
  <circle cx="35.0" cy="133.0" r="0.71" fill="rgb(208,216,240)"/>
  <circle cx="49.0" cy="133.0" r="0.59" fill="rgb(208,216,240)"/>
  <circle cx="63.0" cy="133.0" r="0.36" fill="rgb(208,216,240)"/>
  <circle cx="133.0" cy="133.0" r="0.49" fill="rgb(208,216,240)"/>
  <circle cx="147.0" cy="133.0" r="0.67" fill="rgb(208,216,240)"/>
  <circle cx="161.0" cy="133.0" r="0.71" fill="rgb(208,216,240)"/>
  <circle cx="175.0" cy="133.0" r="0.58" fill="rgb(208,216,240)"/>
  <circle cx="189.0" cy="133.0" r="0.35" fill="rgb(208,216,240)"/>
  <circle cx="7.0" cy="147.0" r="1.57" fill="rgb(208,216,240)"/>
  <circle cx="21.0" cy="147.0" r="1.87" fill="rgb(208,216,240)"/>
  <circle cx="35.0" cy="147.0" r="1.94" fill="rgb(208,216,240)"/>
  <circle cx="49.0" cy="147.0" r="1.74" fill="rgb(208,216,240)"/>
  <circle cx="63.0" cy="147.0" r="1.36" fill="rgb(208,216,240)"/>
  <circle cx="77.0" cy="147.0" r="0.99" fill="rgb(208,216,240)"/>
  <circle cx="91.0" cy="147.0" r="0.80" fill="rgb(208,216,240)"/>
  <circle cx="105.0" cy="147.0" r="0.87" fill="rgb(208,216,240)"/>
  <circle cx="119.0" cy="147.0" r="1.18" fill="rgb(208,216,240)"/>
  <circle cx="133.0" cy="147.0" r="1.58" fill="rgb(208,216,240)"/>
  <circle cx="147.0" cy="147.0" r="1.87" fill="rgb(208,216,240)"/>
  <circle cx="161.0" cy="147.0" r="1.94" fill="rgb(208,216,240)"/>
  <circle cx="175.0" cy="147.0" r="1.73" fill="rgb(208,216,240)"/>
  <circle cx="189.0" cy="147.0" r="1.35" fill="rgb(208,216,240)"/>
  <circle cx="203.0" cy="147.0" r="0.98" fill="rgb(208,216,240)"/>
  <circle cx="217.0" cy="147.0" r="0.79" fill="rgb(208,216,240)"/>
  <circle cx="231.0" cy="147.0" r="0.87" fill="rgb(208,216,240)"/>
  <circle cx="245.0" cy="147.0" r="1.19" fill="rgb(208,216,240)"/>
  <circle cx="7.0" cy="161.0" r="2.59" fill="rgb(208,216,240)"/>
  <circle cx="21.0" cy="161.0" r="2.91" fill="rgb(208,216,240)"/>
  <circle cx="35.0" cy="161.0" r="2.99" fill="rgb(208,216,240)"/>
  <circle cx="49.0" cy="161.0" r="2.77" fill="rgb(208,216,240)"/>
  <circle cx="63.0" cy="161.0" r="2.37" fill="rgb(208,216,240)"/>
  <circle cx="77.0" cy="161.0" r="1.97" fill="rgb(208,216,240)"/>
  <circle cx="91.0" cy="161.0" r="1.76" fill="rgb(208,216,240)"/>
  <circle cx="105.0" cy="161.0" r="1.84" fill="rgb(208,216,240)"/>
  <circle cx="119.0" cy="161.0" r="2.17" fill="rgb(208,216,240)"/>
  <circle cx="133.0" cy="161.0" r="2.60" fill="rgb(208,216,240)"/>
  <circle cx="147.0" cy="161.0" r="2.92" fill="rgb(208,216,240)"/>
  <circle cx="161.0" cy="161.0" r="2.98" fill="rgb(208,216,240)"/>
  <circle cx="175.0" cy="161.0" r="2.76" fill="rgb(208,216,240)"/>
  <circle cx="189.0" cy="161.0" r="2.36" fill="rgb(208,216,240)"/>
  <circle cx="203.0" cy="161.0" r="1.96" fill="rgb(208,216,240)"/>
  <circle cx="217.0" cy="161.0" r="1.76" fill="rgb(208,216,240)"/>
  <circle cx="231.0" cy="161.0" r="1.85" fill="rgb(208,216,240)"/>
  <circle cx="245.0" cy="161.0" r="2.18" fill="rgb(208,216,240)"/>
  <circle cx="7.0" cy="175.0" r="3.54" fill="rgb(208,216,240)"/>
  <circle cx="21.0" cy="175.0" r="3.79" fill="rgb(208,216,240)"/>
  <circle cx="35.0" cy="175.0" r="3.85" fill="rgb(208,216,240)"/>
  <circle cx="49.0" cy="175.0" r="3.68" fill="rgb(208,216,240)"/>
  <circle cx="63.0" cy="175.0" r="3.38" fill="rgb(208,216,240)"/>
  <circle cx="77.0" cy="175.0" r="3.07" fill="rgb(208,216,240)"/>
  <circle cx="91.0" cy="175.0" r="2.91" fill="rgb(208,216,240)"/>
  <circle cx="105.0" cy="175.0" r="2.97" fill="rgb(208,216,240)"/>
  <circle cx="119.0" cy="175.0" r="3.23" fill="rgb(208,216,240)"/>
  <circle cx="133.0" cy="175.0" r="3.55" fill="rgb(208,216,240)"/>
  <circle cx="147.0" cy="175.0" r="3.80" fill="rgb(208,216,240)"/>
  <circle cx="161.0" cy="175.0" r="3.85" fill="rgb(208,216,240)"/>
  <circle cx="175.0" cy="175.0" r="3.68" fill="rgb(208,216,240)"/>
  <circle cx="189.0" cy="175.0" r="3.37" fill="rgb(208,216,240)"/>
  <circle cx="203.0" cy="175.0" r="3.07" fill="rgb(208,216,240)"/>
  <circle cx="217.0" cy="175.0" r="2.91" fill="rgb(208,216,240)"/>
  <circle cx="231.0" cy="175.0" r="2.98" fill="rgb(208,216,240)"/>
  <circle cx="245.0" cy="175.0" r="3.23" fill="rgb(208,216,240)"/>
  <circle cx="7.0" cy="189.0" r="4.45" fill="rgb(208,216,240)"/>
  <circle cx="21.0" cy="189.0" r="4.55" fill="rgb(208,216,240)"/>
  <circle cx="35.0" cy="189.0" r="4.57" fill="rgb(208,216,240)"/>
  <circle cx="49.0" cy="189.0" r="4.51" fill="rgb(208,216,240)"/>
  <circle cx="63.0" cy="189.0" r="4.39" fill="rgb(208,216,240)"/>
  <circle cx="77.0" cy="189.0" r="4.27" fill="rgb(208,216,240)"/>
  <circle cx="91.0" cy="189.0" r="4.21" fill="rgb(208,216,240)"/>
  <circle cx="105.0" cy="189.0" r="4.23" fill="rgb(208,216,240)"/>
  <circle cx="119.0" cy="189.0" r="4.33" fill="rgb(208,216,240)"/>
  <circle cx="133.0" cy="189.0" r="4.45" fill="rgb(208,216,240)"/>
  <circle cx="147.0" cy="189.0" r="4.55" fill="rgb(208,216,240)"/>
  <circle cx="161.0" cy="189.0" r="4.57" fill="rgb(208,216,240)"/>
  <circle cx="175.0" cy="189.0" r="4.50" fill="rgb(208,216,240)"/>
  <circle cx="189.0" cy="189.0" r="4.38" fill="rgb(208,216,240)"/>
  <circle cx="203.0" cy="189.0" r="4.27" fill="rgb(208,216,240)"/>
  <circle cx="217.0" cy="189.0" r="4.21" fill="rgb(208,216,240)"/>
  <circle cx="231.0" cy="189.0" r="4.23" fill="rgb(208,216,240)"/>
  <circle cx="245.0" cy="189.0" r="4.33" fill="rgb(208,216,240)"/>
  <circle cx="7.0" cy="203.0" r="5.34" fill="rgb(208,216,240)"/>
  <circle cx="21.0" cy="203.0" r="5.25" fill="rgb(208,216,240)"/>
  <circle cx="35.0" cy="203.0" r="5.23" fill="rgb(208,216,240)"/>
  <circle cx="49.0" cy="203.0" r="5.29" fill="rgb(208,216,240)"/>
  <circle cx="63.0" cy="203.0" r="5.40" fill="rgb(208,216,240)"/>
  <circle cx="77.0" cy="203.0" r="5.50" fill="rgb(208,216,240)"/>
  <circle cx="91.0" cy="203.0" r="5.56" fill="rgb(208,216,240)"/>
  <circle cx="105.0" cy="203.0" r="5.54" fill="rgb(208,216,240)"/>
  <circle cx="119.0" cy="203.0" r="5.45" fill="rgb(208,216,240)"/>
  <circle cx="133.0" cy="203.0" r="5.34" fill="rgb(208,216,240)"/>
  <circle cx="147.0" cy="203.0" r="5.25" fill="rgb(208,216,240)"/>
  <circle cx="161.0" cy="203.0" r="5.23" fill="rgb(208,216,240)"/>
  <circle cx="175.0" cy="203.0" r="5.29" fill="rgb(208,216,240)"/>
  <circle cx="189.0" cy="203.0" r="5.40" fill="rgb(208,216,240)"/>
  <circle cx="203.0" cy="203.0" r="5.51" fill="rgb(208,216,240)"/>
  <circle cx="217.0" cy="203.0" r="5.56" fill="rgb(208,216,240)"/>
  <circle cx="231.0" cy="203.0" r="5.54" fill="rgb(208,216,240)"/>
  <circle cx="245.0" cy="203.0" r="5.45" fill="rgb(208,216,240)"/>
  <circle cx="7.0" cy="217.0" r="6.25" fill="rgb(208,216,240)"/>
  <circle cx="21.0" cy="217.0" r="6.00" fill="rgb(208,216,240)"/>
  <circle cx="35.0" cy="217.0" r="5.95" fill="rgb(208,216,240)"/>
  <circle cx="49.0" cy="217.0" r="6.11" fill="rgb(208,216,240)"/>
  <circle cx="63.0" cy="217.0" r="6.41" fill="rgb(208,216,240)"/>
  <circle cx="77.0" cy="217.0" r="6.71" fill="rgb(208,216,240)"/>
  <circle cx="91.0" cy="217.0" r="6.86" fill="rgb(208,216,240)"/>
  <circle cx="105.0" cy="217.0" r="6.80" fill="rgb(208,216,240)"/>
  <circle cx="119.0" cy="217.0" r="6.56" fill="rgb(208,216,240)"/>
  <circle cx="133.0" cy="217.0" r="6.24" fill="rgb(208,216,240)"/>
  <circle cx="147.0" cy="217.0" r="6.00" fill="rgb(208,216,240)"/>
  <circle cx="161.0" cy="217.0" r="5.95" fill="rgb(208,216,240)"/>
  <circle cx="175.0" cy="217.0" r="6.11" fill="rgb(208,216,240)"/>
  <circle cx="189.0" cy="217.0" r="6.42" fill="rgb(208,216,240)"/>
  <circle cx="203.0" cy="217.0" r="6.71" fill="rgb(208,216,240)"/>
  <circle cx="217.0" cy="217.0" r="6.86" fill="rgb(208,216,240)"/>
  <circle cx="231.0" cy="217.0" r="6.80" fill="rgb(208,216,240)"/>
  <circle cx="245.0" cy="217.0" r="6.55" fill="rgb(208,216,240)"/>
  <circle cx="7.0" cy="231.0" r="6.79" fill="rgb(208,216,240)"/>
  <circle cx="21.0" cy="231.0" r="6.46" fill="rgb(208,216,240)"/>
  <circle cx="35.0" cy="231.0" r="6.39" fill="rgb(208,216,240)"/>
  <circle cx="49.0" cy="231.0" r="6.61" fill="rgb(208,216,240)"/>
  <circle cx="63.0" cy="231.0" r="7.00" fill="rgb(208,216,240)"/>
  <circle cx="77.0" cy="231.0" r="7.00" fill="rgb(208,216,240)"/>
  <circle cx="91.0" cy="231.0" r="7.00" fill="rgb(208,216,240)"/>
  <circle cx="105.0" cy="231.0" r="7.00" fill="rgb(208,216,240)"/>
  <circle cx="119.0" cy="231.0" r="7.00" fill="rgb(208,216,240)"/>
  <circle cx="133.0" cy="231.0" r="6.78" fill="rgb(208,216,240)"/>
  <circle cx="147.0" cy="231.0" r="6.46" fill="rgb(208,216,240)"/>
  <circle cx="161.0" cy="231.0" r="6.39" fill="rgb(208,216,240)"/>
  <circle cx="175.0" cy="231.0" r="6.61" fill="rgb(208,216,240)"/>
  <circle cx="189.0" cy="231.0" r="7.00" fill="rgb(208,216,240)"/>
  <circle cx="203.0" cy="231.0" r="7.00" fill="rgb(208,216,240)"/>
  <circle cx="217.0" cy="231.0" r="7.00" fill="rgb(208,216,240)"/>
  <circle cx="231.0" cy="231.0" r="7.00" fill="rgb(208,216,240)"/>
  <circle cx="245.0" cy="231.0" r="7.00" fill="rgb(208,216,240)"/>
  <circle cx="7.0" cy="245.0" r="6.80" fill="rgb(208,216,240)"/>
  <circle cx="21.0" cy="245.0" r="6.49" fill="rgb(208,216,240)"/>
  <circle cx="35.0" cy="245.0" r="6.42" fill="rgb(208,216,240)"/>
  <circle cx="49.0" cy="245.0" r="6.63" fill="rgb(208,216,240)"/>
  <circle cx="63.0" cy="245.0" r="7.00" fill="rgb(208,216,240)"/>
  <circle cx="77.0" cy="245.0" r="7.00" fill="rgb(208,216,240)"/>
  <circle cx="91.0" cy="245.0" r="7.00" fill="rgb(208,216,240)"/>
  <circle cx="105.0" cy="245.0" r="7.00" fill="rgb(208,216,240)"/>
  <circle cx="119.0" cy="245.0" r="7.00" fill="rgb(208,216,240)"/>
  <circle cx="133.0" cy="245.0" r="6.79" fill="rgb(208,216,240)"/>
  <circle cx="147.0" cy="245.0" r="6.49" fill="rgb(208,216,240)"/>
  <circle cx="161.0" cy="245.0" r="6.43" fill="rgb(208,216,240)"/>
  <circle cx="175.0" cy="245.0" r="6.63" fill="rgb(208,216,240)"/>
  <circle cx="189.0" cy="245.0" r="7.00" fill="rgb(208,216,240)"/>
  <circle cx="203.0" cy="245.0" r="7.00" fill="rgb(208,216,240)"/>
  <circle cx="217.0" cy="245.0" r="7.00" fill="rgb(208,216,240)"/>
  <circle cx="231.0" cy="245.0" r="7.00" fill="rgb(208,216,240)"/>
  <circle cx="245.0" cy="245.0" r="7.00" fill="rgb(208,216,240)"/>
  <circle cx="7.0" cy="7.0" r="7.00" fill="rgb(232,160,32)"/>
  <circle cx="21.0" cy="7.0" r="7.00" fill="rgb(232,160,32)"/>
  <circle cx="35.0" cy="7.0" r="7.00" fill="rgb(232,160,32)"/>
  <circle cx="49.0" cy="7.0" r="6.42" fill="rgb(229,156,29)"/>
  <circle cx="63.0" cy="7.0" r="6.21" fill="rgb(228,155,28)"/>
  <circle cx="77.0" cy="7.0" r="6.90" fill="rgb(231,159,31)"/>
  <circle cx="91.0" cy="7.0" r="7.00" fill="rgb(232,160,32)"/>
  <circle cx="105.0" cy="7.0" r="7.00" fill="rgb(232,160,32)"/>
  <circle cx="119.0" cy="7.0" r="6.92" fill="rgb(231,159,31)"/>
  <circle cx="133.0" cy="7.0" r="6.22" fill="rgb(228,155,28)"/>
  <circle cx="147.0" cy="7.0" r="6.40" fill="rgb(229,156,29)"/>
  <circle cx="161.0" cy="7.0" r="7.00" fill="rgb(232,160,32)"/>
  <circle cx="175.0" cy="7.0" r="7.00" fill="rgb(232,160,32)"/>
  <circle cx="189.0" cy="7.0" r="7.00" fill="rgb(232,160,32)"/>
  <circle cx="203.0" cy="7.0" r="6.58" fill="rgb(230,157,30)"/>
  <circle cx="217.0" cy="7.0" r="6.17" fill="rgb(228,155,28)"/>
  <circle cx="231.0" cy="7.0" r="6.70" fill="rgb(230,158,30)"/>
  <circle cx="245.0" cy="7.0" r="7.00" fill="rgb(232,160,32)"/>
  <circle cx="7.0" cy="21.0" r="7.00" fill="rgb(232,160,32)"/>
  <circle cx="21.0" cy="21.0" r="7.00" fill="rgb(232,160,32)"/>
  <circle cx="35.0" cy="21.0" r="7.00" fill="rgb(232,160,32)"/>
  <circle cx="49.0" cy="21.0" r="6.80" fill="rgb(231,158,31)"/>
  <circle cx="63.0" cy="21.0" r="6.06" fill="rgb(227,155,27)"/>
  <circle cx="77.0" cy="21.0" r="6.97" fill="rgb(231,159,31)"/>
  <circle cx="91.0" cy="21.0" r="7.00" fill="rgb(232,160,32)"/>
  <circle cx="105.0" cy="21.0" r="7.00" fill="rgb(232,160,32)"/>
  <circle cx="119.0" cy="21.0" r="6.97" fill="rgb(231,159,31)"/>
  <circle cx="133.0" cy="21.0" r="6.74" fill="rgb(230,158,30)"/>
  <circle cx="147.0" cy="21.0" r="6.15" fill="rgb(228,155,28)"/>
  <circle cx="161.0" cy="21.0" r="7.00" fill="rgb(232,160,32)"/>
  <circle cx="175.0" cy="21.0" r="7.00" fill="rgb(232,160,32)"/>
  <circle cx="189.0" cy="21.0" r="7.00" fill="rgb(232,160,32)"/>
  <circle cx="203.0" cy="21.0" r="6.86" fill="rgb(231,159,31)"/>
  <circle cx="217.0" cy="21.0" r="6.72" fill="rgb(230,158,30)"/>
  <circle cx="231.0" cy="21.0" r="6.30" fill="rgb(228,156,28)"/>
  <circle cx="245.0" cy="21.0" r="7.00" fill="rgb(232,160,32)"/>
  <circle cx="7.0" cy="35.0" r="6.76" fill="rgb(230,158,30)"/>
  <circle cx="21.0" cy="35.0" r="6.54" fill="rgb(229,157,29)"/>
  <circle cx="35.0" cy="35.0" r="6.85" fill="rgb(231,159,31)"/>
  <circle cx="49.0" cy="35.0" r="6.46" fill="rgb(229,157,29)"/>
  <circle cx="63.0" cy="35.0" r="5.40" fill="rgb(224,151,24)"/>
  <circle cx="77.0" cy="35.0" r="5.92" fill="rgb(227,154,27)"/>
  <circle cx="91.0" cy="35.0" r="6.61" fill="rgb(230,157,30)"/>
  <circle cx="105.0" cy="35.0" r="6.61" fill="rgb(230,157,30)"/>
  <circle cx="119.0" cy="35.0" r="7.00" fill="rgb(232,160,32)"/>
  <circle cx="133.0" cy="35.0" r="6.76" fill="rgb(230,158,30)"/>
  <circle cx="147.0" cy="35.0" r="5.32" fill="rgb(224,151,24)"/>
  <circle cx="161.0" cy="35.0" r="5.56" fill="rgb(225,152,25)"/>
  <circle cx="175.0" cy="35.0" r="6.54" fill="rgb(229,157,29)"/>
  <circle cx="189.0" cy="35.0" r="6.75" fill="rgb(230,158,30)"/>
  <circle cx="203.0" cy="35.0" r="7.00" fill="rgb(232,160,32)"/>
  <circle cx="217.0" cy="35.0" r="6.98" fill="rgb(231,159,31)"/>
  <circle cx="231.0" cy="35.0" r="5.20" fill="rgb(224,150,23)"/>
  <circle cx="245.0" cy="35.0" r="5.23" fill="rgb(224,150,23)"/>
  <circle cx="7.0" cy="49.0" r="6.32" fill="rgb(228,156,28)"/>
  <circle cx="21.0" cy="49.0" r="6.11" fill="rgb(228,155,27)"/>
  <circle cx="35.0" cy="49.0" r="6.58" fill="rgb(230,157,30)"/>
  <circle cx="49.0" cy="49.0" r="5.40" fill="rgb(224,151,24)"/>
  <circle cx="63.0" cy="49.0" r="4.45" fill="rgb(220,146,20)"/>
  <circle cx="77.0" cy="49.0" r="4.61" fill="rgb(221,147,21)"/>
  <circle cx="91.0" cy="49.0" r="5.85" fill="rgb(226,153,26)"/>
  <circle cx="105.0" cy="49.0" r="6.24" fill="rgb(228,155,28)"/>
  <circle cx="119.0" cy="49.0" r="7.00" fill="rgb(232,160,32)"/>
  <circle cx="133.0" cy="49.0" r="5.80" fill="rgb(226,153,26)"/>
  <circle cx="147.0" cy="49.0" r="4.27" fill="rgb(219,145,19)"/>
  <circle cx="161.0" cy="49.0" r="4.06" fill="rgb(218,144,18)"/>
  <circle cx="175.0" cy="49.0" r="5.52" fill="rgb(225,152,25)"/>
  <circle cx="189.0" cy="49.0" r="6.51" fill="rgb(229,157,29)"/>
  <circle cx="203.0" cy="49.0" r="7.00" fill="rgb(232,160,32)"/>
  <circle cx="217.0" cy="49.0" r="6.05" fill="rgb(227,155,27)"/>
  <circle cx="231.0" cy="49.0" r="4.00" fill="rgb(218,144,18)"/>
  <circle cx="245.0" cy="49.0" r="3.58" fill="rgb(216,141,16)"/>
  <circle cx="7.0" cy="63.0" r="5.04" fill="rgb(223,149,23)"/>
  <circle cx="21.0" cy="63.0" r="5.79" fill="rgb(226,153,26)"/>
  <circle cx="35.0" cy="63.0" r="5.27" fill="rgb(224,150,24)"/>
  <circle cx="49.0" cy="63.0" r="3.93" fill="rgb(218,143,17)"/>
  <circle cx="63.0" cy="63.0" r="2.93" fill="rgb(213,138,13)"/>
  <circle cx="77.0" cy="63.0" r="3.23" fill="rgb(215,140,14)"/>
  <circle cx="91.0" cy="63.0" r="4.63" fill="rgb(221,147,21)"/>
  <circle cx="105.0" cy="63.0" r="5.87" fill="rgb(227,154,26)"/>
  <circle cx="119.0" cy="63.0" r="5.76" fill="rgb(226,153,26)"/>
  <circle cx="133.0" cy="63.0" r="4.29" fill="rgb(219,145,19)"/>
  <circle cx="147.0" cy="63.0" r="2.80" fill="rgb(213,137,12)"/>
  <circle cx="161.0" cy="63.0" r="2.75" fill="rgb(213,137,12)"/>
  <circle cx="175.0" cy="63.0" r="4.32" fill="rgb(220,145,19)"/>
  <circle cx="189.0" cy="63.0" r="6.06" fill="rgb(227,155,27)"/>
  <circle cx="203.0" cy="63.0" r="6.22" fill="rgb(228,155,28)"/>
  <circle cx="217.0" cy="63.0" r="4.53" fill="rgb(221,146,20)"/>
  <circle cx="231.0" cy="63.0" r="2.58" fill="rgb(212,136,11)"/>
  <circle cx="245.0" cy="63.0" r="2.33" fill="rgb(211,135,10)"/>
  <circle cx="7.0" cy="77.0" r="4.02" fill="rgb(218,144,18)"/>
  <circle cx="21.0" cy="77.0" r="5.07" fill="rgb(223,149,23)"/>
  <circle cx="35.0" cy="77.0" r="4.13" fill="rgb(219,144,18)"/>
  <circle cx="49.0" cy="77.0" r="2.11" fill="rgb(210,134,9)"/>
  <circle cx="63.0" cy="77.0" r="0.96" fill="rgb(205,128,4)"/>
  <circle cx="77.0" cy="77.0" r="1.79" fill="rgb(208,132,8)"/>
  <circle cx="91.0" cy="77.0" r="3.81" fill="rgb(217,143,17)"/>
  <circle cx="105.0" cy="77.0" r="5.06" fill="rgb(223,149,23)"/>
  <circle cx="119.0" cy="77.0" r="4.34" fill="rgb(220,145,19)"/>
  <circle cx="133.0" cy="77.0" r="2.32" fill="rgb(211,135,10)"/>
  <circle cx="147.0" cy="77.0" r="0.97" fill="rgb(205,128,4)"/>
  <circle cx="161.0" cy="77.0" r="1.59" fill="rgb(208,131,7)"/>
  <circle cx="175.0" cy="77.0" r="3.60" fill="rgb(216,142,16)"/>
  <circle cx="189.0" cy="77.0" r="5.05" fill="rgb(223,149,23)"/>
  <circle cx="203.0" cy="77.0" r="4.53" fill="rgb(221,146,20)"/>
  <circle cx="217.0" cy="77.0" r="2.53" fill="rgb(212,136,11)"/>
  <circle cx="231.0" cy="77.0" r="0.98" fill="rgb(205,128,4)"/>
  <circle cx="245.0" cy="77.0" r="1.41" fill="rgb(207,130,6)"/>
  <circle cx="7.0" cy="91.0" r="3.04" fill="rgb(214,139,13)"/>
  <circle cx="21.0" cy="91.0" r="4.41" fill="rgb(220,146,20)"/>
  <circle cx="35.0" cy="91.0" r="3.00" fill="rgb(214,138,13)"/>
  <circle cx="77.0" cy="91.0" r="0.35" fill="rgb(202,124,1)"/>
  <circle cx="91.0" cy="91.0" r="3.04" fill="rgb(214,139,13)"/>
  <circle cx="105.0" cy="91.0" r="4.30" fill="rgb(220,145,19)"/>
  <circle cx="119.0" cy="91.0" r="2.91" fill="rgb(213,138,13)"/>
  <circle cx="133.0" cy="91.0" r="0.30" fill="rgb(202,124,1)"/>
  <circle cx="161.0" cy="91.0" r="0.45" fill="rgb(202,125,2)"/>
  <circle cx="175.0" cy="91.0" r="2.94" fill="rgb(214,138,13)"/>
  <circle cx="189.0" cy="91.0" r="4.08" fill="rgb(219,144,18)"/>
  <circle cx="203.0" cy="91.0" r="2.81" fill="rgb(213,137,12)"/>
  <circle cx="217.0" cy="91.0" r="0.47" fill="rgb(203,125,2)"/>
  <circle cx="245.0" cy="91.0" r="0.53" fill="rgb(203,125,2)"/>
  <circle cx="7.0" cy="105.0" r="1.83" fill="rgb(209,132,8)"/>
  <circle cx="21.0" cy="105.0" r="3.33" fill="rgb(215,140,15)"/>
  <circle cx="35.0" cy="105.0" r="1.74" fill="rgb(208,132,7)"/>
  <circle cx="91.0" cy="105.0" r="1.92" fill="rgb(209,133,8)"/>
  <circle cx="105.0" cy="105.0" r="3.19" fill="rgb(215,139,14)"/>
  <circle cx="119.0" cy="105.0" r="1.52" fill="rgb(207,131,6)"/>
  <circle cx="175.0" cy="105.0" r="1.86" fill="rgb(209,132,8)"/>
  <circle cx="189.0" cy="105.0" r="2.88" fill="rgb(213,138,13)"/>
  <circle cx="203.0" cy="105.0" r="1.30" fill="rgb(206,129,5)"/>
  <circle cx="21.0" cy="119.0" r="1.66" fill="rgb(208,131,7)"/>
  <circle cx="105.0" cy="119.0" r="1.56" fill="rgb(207,131,7)"/>
  <circle cx="189.0" cy="119.0" r="1.35" fill="rgb(206,130,6)"/>
</svg>