<svg xmlns="http://www.w3.org/2000/svg" width="400" height="400" viewBox="0 0 400 400">
  <defs>
    <linearGradient id="bg" x1="0" y1="0" x2="0" y2="1">
      <stop offset="0%" stop-color="#c8dce8"/>
      <stop offset="35%" stop-color="#e8c870"/>
      <stop offset="100%" stop-color="#f5c842"/>
    </linearGradient>
  </defs>
  <rect width="400" height="400" fill="url(#bg)"/>
  <circle cx="229.4" cy="256.6" r="1.2" fill="#6b2800"/>
  <circle cx="256.3" cy="223.2" r="1.2" fill="#7a3010"/>
  <circle cx="160.3" cy="330.1" r="1.2" fill="#6b2800"/>
  <circle cx="203.6" cy="41.8" r="1.2" fill="#b87a30"/>
  <circle cx="252.8" cy="223.1" r="1.2" fill="#7a3010"/>
  <circle cx="170.8" cy="84.1" r="1.2" fill="#b87a30"/>
  <circle cx="206.7" cy="52.4" r="1.2" fill="#b87a30"/>
  <circle cx="173.8" cy="158.3" r="1.2" fill="#7a3010"/>
  <circle cx="180.5" cy="157.7" r="1.2" fill="#7a3010"/>
  <circle cx="194.5" cy="84.8" r="1.2" fill="#b87a30"/>
  <circle cx="221.2" cy="261.4" r="1.2" fill="#6b2800"/>
  <circle cx="122.7" cy="349.0" r="1.2" fill="#6b2800"/>
  <circle cx="216.0" cy="271.8" r="1.2" fill="#6b2800"/>
  <circle cx="169.3" cy="214.3" r="1.2" fill="#7a3010"/>
  <circle cx="385.1" cy="238.9" r="0.8" fill="#c8d8b0"/>
  <circle cx="239.8" cy="261.2" r="1.2" fill="#6b2800"/>
  <circle cx="171.0" cy="106.8" r="1.2" fill="#b87a30"/>
  <circle cx="231.4" cy="61.8" r="1.2" fill="#b87a30"/>
  <circle cx="126.0" cy="288.4" r="1.2" fill="#6b2800"/>
  <circle cx="213.8" cy="338.7" r="1.2" fill="#6b2800"/>
  <circle cx="204.3" cy="144.8" r="1.2" fill="#7a3010"/>
  <circle cx="106.8" cy="258.1" r="0.8" fill="#c8d8b0"/>
  <circle cx="129.3" cy="306.8" r="1.2" fill="#6b2800"/>
  <circle cx="162.9" cy="113.5" r="1.2" fill="#b87a30"/>
  <circle cx="173.4" cy="213.0" r="1.2" fill="#7a3010"/>
  <circle cx="186.7" cy="164.8" r="1.2" fill="#7a3010"/>
  <circle cx="190.6" cy="307.4" r="1.2" fill="#6b2800"/>
  <circle cx="167.5" cy="230.4" r="1.2" fill="#7a3010"/>
  <circle cx="183.5" cy="290.5" r="1.2" fill="#6b2800"/>
  <circle cx="201.8" cy="300.7" r="1.2" fill="#6b2800"/>
  <circle cx="216.2" cy="155.5" r="1.2" fill="#7a3010"/>
  <circle cx="169.2" cy="271.6" r="1.2" fill="#6b2800"/>
  <circle cx="239.2" cy="87.2" r="1.2" fill="#b87a30"/>
  <circle cx="105.9" cy="38.7" r="0.8" fill="#a8c8e0"/>
  <circle cx="215.0" cy="360.0" r="1.2" fill="#6b2800"/>
  <circle cx="257.1" cy="283.4" r="1.2" fill="#6b2800"/>
  <circle cx="240.8" cy="271.8" r="1.2" fill="#6b2800"/>
  <circle cx="150.8" cy="187.1" r="1.2" fill="#7a3010"/>
  <circle cx="214.5" cy="179.2" r="1.2" fill="#7a3010"/>
  <circle cx="139.3" cy="318.1" r="1.2" fill="#6b2800"/>
  <circle cx="196.5" cy="287.5" r="1.2" fill="#6b2800"/>
  <circle cx="231.0" cy="175.6" r="1.2" fill="#7a3010"/>
  <circle cx="171.7" cy="271.1" r="1.2" fill="#6b2800"/>
  <circle cx="213.6" cy="276.8" r="1.2" fill="#6b2800"/>
  <circle cx="114.2" cy="351.0" r="1.2" fill="#6b2800"/>
  <circle cx="196.5" cy="315.5" r="1.2" fill="#6b2800"/>
  <circle cx="188.4" cy="164.2" r="1.2" fill="#7a3010"/>
  <circle cx="261.2" cy="336.8" r="1.2" fill="#6b2800"/>
  <circle cx="275.9" cy="339.9" r="1.2" fill="#6b2800"/>
  <circle cx="197.6" cy="38.2" r="1.2" fill="#b87a30"/>
  <circle cx="174.2" cy="122.8" r="1.2" fill="#b87a30"/>
  <circle cx="251.2" cy="182.1" r="1.2" fill="#7a3010"/>
  <circle cx="219.0" cy="169.2" r="1.2" fill="#7a3010"/>
  <circle cx="132.8" cy="349.6" r="1.2" fill="#6b2800"/>
  <circle cx="205.5" cy="355.8" r="1.2" fill="#6b2800"/>
  <circle cx="216.2" cy="154.6" r="1.2" fill="#7a3010"/>
  <circle cx="147.5" cy="274.8" r="1.2" fill="#6b2800"/>
  <circle cx="155.8" cy="332.7" r="1.2" fill="#6b2800"/>
  <circle cx="202.9" cy="297.2" r="1.2" fill="#6b2800"/>
  <circle cx="183.0" cy="122.6" r="1.2" fill="#b87a30"/>
  <circle cx="177.3" cy="194.1" r="1.2" fill="#7a3010"/>
  <circle cx="138.7" cy="252.4" r="1.2" fill="#6b2800"/>
  <circle cx="225.1" cy="287.4" r="1.2" fill="#6b2800"/>
  <circle cx="185.2" cy="98.9" r="1.2" fill="#b87a30"/>
  <circle cx="141.3" cy="215.7" r="1.2" fill="#7a3010"/>
  <circle cx="270.6" cy="270.6" r="1.2" fill="#6b2800"/>
  <circle cx="143.9" cy="232.8" r="1.2" fill="#7a3010"/>
  <circle cx="267.6" cy="262.3" r="1.2" fill="#6b2800"/>
  <circle cx="230.2" cy="266.3" r="1.2" fill="#6b2800"/>
  <circle cx="149.0" cy="286.7" r="1.2" fill="#6b2800"/>
  <circle cx="213.9" cy="169.2" r="1.2" fill="#7a3010"/>
  <circle cx="169.3" cy="269.8" r="1.2" fill="#6b2800"/>
  <circle cx="216.9" cy="352.2" r="1.2" fill="#6b2800"/>
  <circle cx="161.3" cy="76.4" r="1.2" fill="#b87a30"/>
  <circle cx="253.8" cy="219.0" r="1.2" fill="#7a3010"/>
  <circle cx="261.2" cy="19.0" r="0.8" fill="#a8c8e0"/>
  <circle cx="209.9" cy="271.0" r="1.2" fill="#6b2800"/>
  <circle cx="201.5" cy="340.9" r="1.2" fill="#6b2800"/>
  <circle cx="184.1" cy="347.4" r="1.2" fill="#6b2800"/>
  <circle cx="192.0" cy="150.6" r="1.2" fill="#7a3010"/>
  <circle cx="196.3" cy="328.4" r="1.2" fill="#6b2800"/>
  <circle cx="133.6" cy="358.1" r="1.2" fill="#6b2800"/>
  <circle cx="182.4" cy="221.9" r="1.2" fill="#7a3010"/>
  <circle cx="276.7" cy="308.5" r="1.2" fill="#6b2800"/>
  <circle cx="181.6" cy="90.0" r="1.2" fill="#b87a30"/>
  <circle cx="182.3" cy="155.6" r="1.2" fill="#7a3010"/>
  <circle cx="172.2" cy="242.8" r="1.2" fill="#6b2800"/>
  <circle cx="232.9" cy="206.6" r="1.2" fill="#7a3010"/>
  <circle cx="149.7" cy="276.9" r="1.2" fill="#6b2800"/>
  <circle cx="127.4" cy="128.9" r="0.8" fill="#a8c8e0"/>
  <circle cx="194.6" cy="164.7" r="1.2" fill="#7a3010"/>
  <circle cx="200.1" cy="301.7" r="1.2" fill="#6b2800"/>
  <circle cx="228.8" cy="210.7" r="1.2" fill="#7a3010"/>
  <circle cx="168.7" cy="50.3" r="0.8" fill="#a8c8e0"/>
  <circle cx="133.4" cy="290.5" r="1.2" fill="#6b2800"/>
  <circle cx="209.1" cy="148.5" r="1.2" fill="#7a3010"/>
  <circle cx="224.5" cy="232.4" r="1.2" fill="#7a3010"/>
  <circle cx="185.8" cy="204.0" r="1.2" fill="#7a3010"/>
  <circle cx="201.7" cy="70.4" r="1.2" fill="#b87a30"/>
  <circle cx="176.3" cy="163.8" r="1.2" fill="#7a3010"/>
  <circle cx="165.3" cy="128.4" r="1.2" fill="#b87a30"/>
  <circle cx="210.0" cy="236.1" r="1.2" fill="#7a3010"/>
  <circle cx="138.0" cy="278.2" r="1.2" fill="#6b2800"/>
  <circle cx="176.3" cy="153.8" r="1.2" fill="#7a3010"/>
  <circle cx="127.6" cy="293.0" r="1.2" fill="#6b2800"/>
  <circle cx="176.2" cy="341.2" r="1.2" fill="#6b2800"/>
  <circle cx="181.4" cy="132.4" r="1.2" fill="#b87a30"/>
  <circle cx="387.9" cy="141.2" r="0.8" fill="#a8c8e0"/>
  <circle cx="278.1" cy="167.0" r="0.8" fill="#c8d8b0"/>
  <circle cx="218.5" cy="264.5" r="1.2" fill="#6b2800"/>
  <circle cx="243.6" cy="94.2" r="1.2" fill="#b87a30"/>
  <circle cx="141.0" cy="266.5" r="1.2" fill="#6b2800"/>
  <circle cx="239.0" cy="159.1" r="1.2" fill="#7a3010"/>
  <circle cx="144.0" cy="359.4" r="1.2" fill="#6b2800"/>
  <circle cx="268.2" cy="343.5" r="1.2" fill="#6b2800"/>
  <circle cx="240.9" cy="283.5" r="1.2" fill="#6b2800"/>
  <circle cx="155.5" cy="208.5" r="1.2" fill="#7a3010"/>
  <circle cx="268.0" cy="342.1" r="1.2" fill="#6b2800"/>
  <circle cx="161.3" cy="237.3" r="1.2" fill="#7a3010"/>
  <circle cx="157.1" cy="206.6" r="1.2" fill="#7a3010"/>
  <circle cx="118.5" cy="330.8" r="1.2" fill="#6b2800"/>
  <circle cx="269.1" cy="305.9" r="1.2" fill="#6b2800"/>
  <circle cx="203.3" cy="52.5" r="1.2" fill="#b87a30"/>
  <circle cx="219.6" cy="224.2" r="1.2" fill="#7a3010"/>
  <circle cx="209.8" cy="279.2" r="1.2" fill="#6b2800"/>
  <circle cx="181.0" cy="248.0" r="1.2" fill="#6b2800"/>
  <circle cx="251.3" cy="202.8" r="1.2" fill="#7a3010"/>
  <circle cx="260.3" cy="262.2" r="1.2" fill="#6b2800"/>
  <circle cx="229.2" cy="237.9" r="1.2" fill="#7a3010"/>
  <circle cx="168.3" cy="233.6" r="1.2" fill="#7a3010"/>
  <circle cx="193.5" cy="291.6" r="1.2" fill="#6b2800"/>
  <circle cx="177.1" cy="179.5" r="1.2" fill="#7a3010"/>
  <circle cx="156.0" cy="225.4" r="1.2" fill="#7a3010"/>
  <circle cx="199.3" cy="190.2" r="1.2" fill="#7a3010"/>
  <circle cx="202.1" cy="348.3" r="1.2" fill="#6b2800"/>
  <circle cx="213.9" cy="306.5" r="1.2" fill="#6b2800"/>
  <circle cx="149.1" cy="150.2" r="1.2" fill="#7a3010"/>
  <circle cx="201.6" cy="277.5" r="1.2" fill="#6b2800"/>
  <circle cx="190.0" cy="169.9" r="1.2" fill="#7a3010"/>
  <circle cx="205.9" cy="124.8" r="1.2" fill="#b87a30"/>
  <circle cx="212.3" cy="258.1" r="1.2" fill="#6b2800"/>
  <circle cx="245.5" cy="304.4" r="1.2" fill="#6b2800"/>
  <circle cx="209.7" cy="119.8" r="1.2" fill="#b87a30"/>
  <circle cx="178.1" cy="99.8" r="1.2" fill="#b87a30"/>
  <circle cx="211.8" cy="233.3" r="1.2" fill="#7a3010"/>
  <circle cx="167.1" cy="261.1" r="1.2" fill="#6b2800"/>
  <circle cx="124.7" cy="263.0" r="0.8" fill="#c8d8b0"/>
  <circle cx="258.4" cy="252.5" r="1.2" fill="#6b2800"/>
  <circle cx="201.0" cy="323.3" r="1.2" fill="#6b2800"/>
  <circle cx="240.2" cy="155.5" r="1.2" fill="#7a3010"/>
  <circle cx="188.9" cy="198.1" r="1.2" fill="#7a3010"/>
  <circle cx="227.6" cy="62.4" r="1.2" fill="#b87a30"/>
  <circle cx="207.7" cy="50.7" r="1.2" fill="#b87a30"/>
  <circle cx="152.7" cy="249.0" r="1.2" fill="#6b2800"/>
  <circle cx="214.9" cy="238.7" r="1.2" fill="#7a3010"/>
  <circle cx="286.6" cy="87.9" r="0.8" fill="#a8c8e0"/>
  <circle cx="162.9" cy="92.0" r="1.2" fill="#b87a30"/>
  <circle cx="265.1" cy="285.0" r="1.2" fill="#6b2800"/>
  <circle cx="168.2" cy="62.2" r="1.2" fill="#b87a30"/>
  <circle cx="221.8" cy="56.9" r="1.2" fill="#b87a30"/>
  <circle cx="239.1" cy="315.8" r="1.2" fill="#6b2800"/>
  <circle cx="192.2" cy="314.3" r="1.2" fill="#6b2800"/>
  <circle cx="150.9" cy="154.9" r="1.2" fill="#7a3010"/>
  <circle cx="216.0" cy="234.6" r="1.2" fill="#7a3010"/>
  <circle cx="263.9" cy="277.5" r="1.2" fill="#6b2800"/>
  <circle cx="244.8" cy="243.4" r="1.2" fill="#6b2800"/>
  <circle cx="193.6" cy="180.7" r="1.2" fill="#7a3010"/>
  <circle cx="114.4" cy="352.1" r="1.2" fill="#6b2800"/>
  <circle cx="151.8" cy="152.1" r="1.2" fill="#7a3010"/>
  <circle cx="220.0" cy="29.6" r="0.8" fill="#a8c8e0"/>
  <circle cx="157.9" cy="323.8" r="1.2" fill="#6b2800"/>
  <circle cx="160.7" cy="280.7" r="1.2" fill="#6b2800"/>
  <circle cx="113.9" cy="357.4" r="1.2" fill="#6b2800"/>
  <circle cx="145.2" cy="339.4" r="1.2" fill="#6b2800"/>
  <circle cx="245.1" cy="289.3" r="1.2" fill="#6b2800"/>
  <circle cx="250.9" cy="268.9" r="1.2" fill="#6b2800"/>
  <circle cx="156.4" cy="112.1" r="1.2" fill="#b87a30"/>
  <circle cx="170.0" cy="179.5" r="1.2" fill="#7a3010"/>
  <circle cx="235.6" cy="78.4" r="1.2" fill="#b87a30"/>
  <circle cx="125.8" cy="342.1" r="1.2" fill="#6b2800"/>
  <circle cx="245.7" cy="291.4" r="1.2" fill="#6b2800"/>
  <circle cx="235.0" cy="201.0" r="1.2" fill="#7a3010"/>
  <circle cx="219.0" cy="343.6" r="1.2" fill="#6b2800"/>
  <circle cx="165.5" cy="184.8" r="1.2" fill="#7a3010"/>
  <circle cx="192.1" cy="150.3" r="1.2" fill="#7a3010"/>
  <circle cx="214.0" cy="233.4" r="1.2" fill="#7a3010"/>
  <circle cx="377.0" cy="160.7" r="0.8" fill="#c8d8b0"/>
  <circle cx="230.6" cy="211.3" r="1.2" fill="#7a3010"/>
  <circle cx="158.6" cy="280.3" r="1.2" fill="#6b2800"/>
  <circle cx="200.2" cy="130.7" r="1.2" fill="#b87a30"/>
  <circle cx="193.5" cy="176.7" r="1.2" fill="#7a3010"/>
  <circle cx="256.2" cy="247.0" r="1.2" fill="#6b2800"/>
  <circle cx="253.4" cy="161.2" r="1.2" fill="#7a3010"/>
  <circle cx="157.8" cy="256.7" r="1.2" fill="#6b2800"/>
  <circle cx="236.8" cy="224.0" r="1.2" fill="#7a3010"/>
  <circle cx="142.2" cy="305.9" r="1.2" fill="#6b2800"/>
  <circle cx="251.5" cy="252.7" r="1.2" fill="#6b2800"/>
  <circle cx="30.4" cy="135.7" r="0.8" fill="#a8c8e0"/>
  <circle cx="202.1" cy="183.2" r="1.2" fill="#7a3010"/>
  <circle cx="167.9" cy="304.0" r="1.2" fill="#6b2800"/>
  <circle cx="149.4" cy="297.9" r="1.2" fill="#6b2800"/>
  <circle cx="123.1" cy="359.8" r="1.2" fill="#6b2800"/>
  <circle cx="142.5" cy="295.9" r="1.2" fill="#6b2800"/>
  <circle cx="196.0" cy="212.1" r="1.2" fill="#7a3010"/>
  <circle cx="167.4" cy="168.2" r="1.2" fill="#7a3010"/>
  <circle cx="115.7" cy="337.7" r="1.2" fill="#6b2800"/>
  <circle cx="371.1" cy="124.6" r="0.8" fill="#a8c8e0"/>
  <circle cx="184.2" cy="242.5" r="1.2" fill="#6b2800"/>
  <circle cx="173.3" cy="84.1" r="1.2" fill="#b87a30"/>
  <circle cx="225.1" cy="179.9" r="1.2" fill="#7a3010"/>
  <circle cx="335.9" cy="164.5" r="0.8" fill="#c8d8b0"/>
  <circle cx="238.0" cy="222.7" r="1.2" fill="#7a3010"/>
  <circle cx="272.4" cy="306.8" r="1.2" fill="#6b2800"/>
  <circle cx="202.5" cy="230.0" r="1.2" fill="#7a3010"/>
  <circle cx="167.9" cy="255.6" r="1.2" fill="#6b2800"/>
  <circle cx="213.9" cy="225.6" r="1.2" fill="#7a3010"/>
  <circle cx="251.0" cy="302.1" r="1.2" fill="#6b2800"/>
  <circle cx="175.1" cy="168.7" r="1.2" fill="#7a3010"/>
  <circle cx="183.0" cy="136.0" r="1.2" fill="#b87a30"/>
  <circle cx="225.4" cy="138.7" r="1.2" fill="#b87a30"/>
  <circle cx="168.2" cy="262.1" r="1.2" fill="#6b2800"/>
  <circle cx="134.4" cy="203.6" r="0.8" fill="#c8d8b0"/>
  <circle cx="246.6" cy="172.4" r="1.2" fill="#7a3010"/>
  <circle cx="197.5" cy="280.4" r="1.2" fill="#6b2800"/>
  <circle cx="211.3" cy="93.4" r="1.2" fill="#b87a30"/>
  <circle cx="207.5" cy="255.3" r="1.2" fill="#6b2800"/>
  <circle cx="315.5" cy="58.9" r="0.8" fill="#a8c8e0"/>
  <circle cx="255.0" cy="213.8" r="1.2" fill="#7a3010"/>
  <circle cx="228.1" cy="297.6" r="1.2" fill="#6b2800"/>
  <circle cx="209.8" cy="230.8" r="1.2" fill="#7a3010"/>
  <circle cx="146.5" cy="200.6" r="1.2" fill="#7a3010"/>
  <circle cx="275.1" cy="329.9" r="1.2" fill="#6b2800"/>
  <circle cx="276.2" cy="341.6" r="1.2" fill="#6b2800"/>
  <circle cx="196.4" cy="41.6" r="1.2" fill="#b87a30"/>
  <circle cx="93.1" cy="194.3" r="0.8" fill="#c8d8b0"/>
  <circle cx="252.9" cy="320.3" r="1.2" fill="#6b2800"/>
  <circle cx="107.5" cy="47.8" r="0.8" fill="#a8c8e0"/>
  <circle cx="217.5" cy="45.5" r="1.2" fill="#b87a30"/>
  <circle cx="179.4" cy="102.2" r="1.2" fill="#b87a30"/>
  <circle cx="161.0" cy="124.1" r="1.2" fill="#b87a30"/>
  <circle cx="246.8" cy="192.9" r="1.2" fill="#7a3010"/>
  <circle cx="223.8" cy="45.3" r="1.2" fill="#b87a30"/>
  <circle cx="213.5" cy="130.4" r="1.2" fill="#b87a30"/>
  <circle cx="155.6" cy="180.0" r="1.2" fill="#7a3010"/>
  <circle cx="241.3" cy="252.8" r="1.2" fill="#6b2800"/>
  <circle cx="201.9" cy="232.4" r="1.2" fill="#7a3010"/>
  <circle cx="267.3" cy="298.5" r="1.2" fill="#6b2800"/>
  <circle cx="241.4" cy="114.5" r="1.2" fill="#b87a30"/>
  <circle cx="268.7" cy="262.4" r="1.2" fill="#6b2800"/>
  <circle cx="126.7" cy="285.8" r="1.2" fill="#6b2800"/>
  <circle cx="188.8" cy="313.2" r="1.2" fill="#6b2800"/>
  <circle cx="200.2" cy="313.6" r="1.2" fill="#6b2800"/>
  <circle cx="195.3" cy="230.9" r="1.2" fill="#7a3010"/>
  <circle cx="196.0" cy="277.2" r="1.2" fill="#6b2800"/>
  <circle cx="243.5" cy="231.7" r="1.2" fill="#7a3010"/>
  <circle cx="85.8" cy="140.6" r="0.8" fill="#a8c8e0"/>
  <circle cx="132.4" cy="301.6" r="1.2" fill="#6b2800"/>
  <circle cx="155.7" cy="216.0" r="1.2" fill="#7a3010"/>
  <circle cx="149.3" cy="237.7" r="1.2" fill="#7a3010"/>
  <circle cx="168.4" cy="143.1" r="1.2" fill="#7a3010"/>
  <circle cx="186.4" cy="44.9" r="1.2" fill="#b87a30"/>
  <circle cx="128.8" cy="268.5" r="1.2" fill="#6b2800"/>
  <circle cx="162.3" cy="346.8" r="1.2" fill="#6b2800"/>
  <circle cx="256.6" cy="288.9" r="1.2" fill="#6b2800"/>
  <circle cx="154.3" cy="135.5" r="1.2" fill="#b87a30"/>
  <circle cx="208.8" cy="255.2" r="1.2" fill="#6b2800"/>
  <circle cx="222.2" cy="355.7" r="1.2" fill="#6b2800"/>
  <circle cx="163.2" cy="92.2" r="1.2" fill="#b87a30"/>
  <circle cx="239.6" cy="226.7" r="1.2" fill="#7a3010"/>
  <circle cx="245.5" cy="175.6" r="1.2" fill="#7a3010"/>
  <circle cx="233.7" cy="280.3" r="1.2" fill="#6b2800"/>
  <circle cx="260.2" cy="344.7" r="1.2" fill="#6b2800"/>
  <circle cx="199.6" cy="195.6" r="1.2" fill="#7a3010"/>
  <circle cx="203.2" cy="332.4" r="1.2" fill="#6b2800"/>
  <circle cx="229.9" cy="265.7" r="1.2" fill="#6b2800"/>
  <circle cx="201.5" cy="253.0" r="1.2" fill="#6b2800"/>
  <circle cx="226.8" cy="243.5" r="1.2" fill="#6b2800"/>
  <circle cx="262.5" cy="334.3" r="1.2" fill="#6b2800"/>
  <circle cx="256.1" cy="274.3" r="1.2" fill="#6b2800"/>
  <circle cx="153.3" cy="160.0" r="1.2" fill="#7a3010"/>
  <circle cx="135.6" cy="258.4" r="1.2" fill="#6b2800"/>
  <circle cx="196.4" cy="210.4" r="1.2" fill="#7a3010"/>
  <circle cx="168.1" cy="198.0" r="1.2" fill="#7a3010"/>
  <circle cx="179.4" cy="326.6" r="1.2" fill="#6b2800"/>
  <circle cx="246.0" cy="345.6" r="1.2" fill="#6b2800"/>
  <circle cx="156.6" cy="199.1" r="1.2" fill="#7a3010"/>
  <circle cx="222.1" cy="211.2" r="1.2" fill="#7a3010"/>
  <circle cx="213.2" cy="234.5" r="1.2" fill="#7a3010"/>
  <circle cx="217.4" cy="346.0" r="1.2" fill="#6b2800"/>
  <circle cx="220.3" cy="204.3" r="1.2" fill="#7a3010"/>
  <circle cx="255.5" cy="189.4" r="1.2" fill="#7a3010"/>
  <circle cx="185.3" cy="202.4" r="1.2" fill="#7a3010"/>
  <circle cx="195.1" cy="125.8" r="1.2" fill="#b87a30"/>
  <circle cx="244.2" cy="117.0" r="1.2" fill="#b87a30"/>
  <circle cx="224.9" cy="137.6" r="1.2" fill="#b87a30"/>
  <circle cx="231.1" cy="151.8" r="1.2" fill="#7a3010"/>
  <circle cx="204.0" cy="148.9" r="1.2" fill="#7a3010"/>
  <circle cx="243.3" cy="68.0" r="1.2" fill="#b87a30"/>
  <circle cx="193.7" cy="135.6" r="1.2" fill="#b87a30"/>
  <circle cx="147.3" cy="174.4" r="1.2" fill="#7a3010"/>
  <circle cx="258.3" cy="302.4" r="1.2" fill="#6b2800"/>
  <circle cx="153.0" cy="327.5" r="1.2" fill="#6b2800"/>
  <circle cx="144.1" cy="313.7" r="1.2" fill="#6b2800"/>
  <circle cx="193.2" cy="221.5" r="1.2" fill="#7a3010"/>
  <circle cx="147.6" cy="261.1" r="1.2" fill="#6b2800"/>
  <circle cx="193.0" cy="177.6" r="1.2" fill="#7a3010"/>
  <circle cx="182.3" cy="216.7" r="1.2" fill="#7a3010"/>
  <circle cx="201.3" cy="51.1" r="1.2" fill="#b87a30"/>
  <circle cx="208.4" cy="139.6" r="1.2" fill="#b87a30"/>
  <circle cx="167.0" cy="284.3" r="1.2" fill="#6b2800"/>
  <circle cx="150.7" cy="204.2" r="1.2" fill="#7a3010"/>
  <circle cx="94.3" cy="38.0" r="0.8" fill="#a8c8e0"/>
  <circle cx="156.0" cy="354.6" r="1.2" fill="#6b2800"/>
  <circle cx="208.0" cy="259.1" r="1.2" fill="#6b2800"/>
  <circle cx="315.5" cy="110.1" r="0.8" fill="#a8c8e0"/>
  <circle cx="237.8" cy="190.5" r="1.2" fill="#7a3010"/>
  <circle cx="232.7" cy="191.2" r="1.2" fill="#7a3010"/>
  <circle cx="185.1" cy="215.4" r="1.2" fill="#7a3010"/>
  <circle cx="130.0" cy="344.4" r="1.2" fill="#6b2800"/>
  <circle cx="144.3" cy="323.0" r="1.2" fill="#6b2800"/>
  <circle cx="184.8" cy="251.2" r="1.2" fill="#6b2800"/>
  <circle cx="242.9" cy="100.9" r="1.2" fill="#b87a30"/>
  <circle cx="149.1" cy="184.6" r="1.2" fill="#7a3010"/>
  <circle cx="228.8" cy="90.0" r="1.2" fill="#b87a30"/>
  <circle cx="206.5" cy="262.2" r="1.2" fill="#6b2800"/>
  <circle cx="161.4" cy="251.7" r="1.2" fill="#6b2800"/>
  <circle cx="180.9" cy="127.1" r="1.2" fill="#b87a30"/>
  <circle cx="222.9" cy="336.1" r="1.2" fill="#6b2800"/>
  <circle cx="144.9" cy="245.6" r="1.2" fill="#6b2800"/>
  <circle cx="160.9" cy="277.7" r="1.2" fill="#6b2800"/>
  <circle cx="179.0" cy="349.3" r="1.2" fill="#6b2800"/>
  <circle cx="251.6" cy="207.4" r="1.2" fill="#7a3010"/>
  <circle cx="215.1" cy="291.6" r="1.2" fill="#6b2800"/>
  <circle cx="140.7" cy="174.2" r="0.8" fill="#c8d8b0"/>
  <circle cx="166.5" cy="206.2" r="1.2" fill="#7a3010"/>
  <circle cx="252.0" cy="226.2" r="1.2" fill="#7a3010"/>
  <circle cx="246.6" cy="75.7" r="0.8" fill="#a8c8e0"/>
  <circle cx="197.6" cy="129.7" r="1.2" fill="#b87a30"/>
  <circle cx="208.0" cy="353.7" r="1.2" fill="#6b2800"/>
  <circle cx="55.5" cy="286.2" r="0.8" fill="#d4b860"/>
  <circle cx="236.6" cy="140.0" r="1.2" fill="#b87a30"/>
  <circle cx="209.1" cy="184.1" r="1.2" fill="#7a3010"/>
  <circle cx="227.0" cy="302.7" r="1.2" fill="#6b2800"/>
  <circle cx="209.8" cy="255.5" r="1.2" fill="#6b2800"/>
  <circle cx="149.2" cy="222.1" r="1.2" fill="#7a3010"/>
  <circle cx="212.0" cy="76.3" r="1.2" fill="#b87a30"/>
  <circle cx="262.8" cy="319.0" r="1.2" fill="#6b2800"/>
  <circle cx="173.6" cy="264.1" r="1.2" fill="#6b2800"/>
  <circle cx="155.3" cy="116.7" r="1.2" fill="#b87a30"/>
  <circle cx="215.2" cy="62.4" r="1.2" fill="#b87a30"/>
  <circle cx="159.3" cy="166.0" r="1.2" fill="#7a3010"/>
  <circle cx="201.8" cy="87.7" r="1.2" fill="#b87a30"/>
  <circle cx="195.4" cy="238.3" r="1.2" fill="#7a3010"/>
  <circle cx="244.1" cy="267.5" r="1.2" fill="#6b2800"/>
  <circle cx="170.9" cy="131.9" r="1.2" fill="#b87a30"/>
  <circle cx="178.0" cy="61.0" r="1.2" fill="#b87a30"/>
  <circle cx="193.6" cy="265.5" r="1.2" fill="#6b2800"/>
  <circle cx="30.2" cy="239.2" r="0.8" fill="#c8d8b0"/>
  <circle cx="260.8" cy="312.5" r="1.2" fill="#6b2800"/>
  <circle cx="154.7" cy="351.8" r="1.2" fill="#6b2800"/>
  <circle cx="129.9" cy="313.4" r="1.2" fill="#6b2800"/>
  <circle cx="211.2" cy="126.7" r="1.2" fill="#b87a30"/>
  <circle cx="200.5" cy="294.2" r="1.2" fill="#6b2800"/>
  <circle cx="242.7" cy="228.9" r="1.2" fill="#7a3010"/>
  <circle cx="221.8" cy="342.0" r="1.2" fill="#6b2800"/>
  <circle cx="225.5" cy="90.8" r="1.2" fill="#b87a30"/>
  <circle cx="191.1" cy="185.8" r="1.2" fill="#7a3010"/>
  <circle cx="196.7" cy="58.1" r="1.2" fill="#b87a30"/>
  <circle cx="22.2" cy="277.6" r="0.8" fill="#c8d8b0"/>
  <circle cx="196.2" cy="123.7" r="1.2" fill="#b87a30"/>
  <circle cx="242.4" cy="269.9" r="1.2" fill="#6b2800"/>
  <circle cx="160.3" cy="267.3" r="1.2" fill="#6b2800"/>
  <circle cx="206.1" cy="230.7" r="1.2" fill="#7a3010"/>
  <circle cx="167.2" cy="167.8" r="1.2" fill="#7a3010"/>
  <circle cx="234.3" cy="259.4" r="1.2" fill="#6b2800"/>
  <circle cx="147.9" cy="193.3" r="1.2" fill="#7a3010"/>
  <circle cx="246.6" cy="98.6" r="1.2" fill="#b87a30"/>
  <circle cx="335.1" cy="200.2" r="0.8" fill="#c8d8b0"/>
  <circle cx="190.8" cy="153.6" r="1.2" fill="#7a3010"/>
  <circle cx="238.0" cy="95.6" r="1.2" fill="#b87a30"/>
  <circle cx="236.1" cy="285.6" r="1.2" fill="#6b2800"/>
  <circle cx="219.2" cy="112.5" r="1.2" fill="#b87a30"/>
  <circle cx="209.4" cy="253.5" r="1.2" fill="#6b2800"/>
  <circle cx="241.4" cy="120.8" r="1.2" fill="#b87a30"/>
  <circle cx="223.8" cy="191.9" r="1.2" fill="#7a3010"/>
  <circle cx="279.3" cy="352.7" r="1.2" fill="#6b2800"/>
  <circle cx="167.3" cy="126.8" r="1.2" fill="#b87a30"/>
  <circle cx="202.5" cy="123.4" r="1.2" fill="#b87a30"/>
  <circle cx="378.5" cy="108.2" r="0.8" fill="#a8c8e0"/>
  <circle cx="227.0" cy="146.3" r="1.2" fill="#7a3010"/>
  <circle cx="198.9" cy="93.2" r="1.2" fill="#b87a30"/>
  <circle cx="357.1" cy="165.3" r="0.8" fill="#c8d8b0"/>
  <circle cx="193.4" cy="185.0" r="1.2" fill="#7a3010"/>
  <circle cx="281.2" cy="192.8" r="0.8" fill="#c8d8b0"/>
  <circle cx="207.8" cy="240.6" r="1.2" fill="#7a3010"/>
  <circle cx="66.7" cy="105.8" r="0.8" fill="#a8c8e0"/>
  <circle cx="246.7" cy="189.9" r="1.2" fill="#7a3010"/>
  <circle cx="178.6" cy="55.5" r="1.2" fill="#b87a30"/>
  <circle cx="235.2" cy="302.7" r="1.2" fill="#6b2800"/>
  <circle cx="187.9" cy="169.5" r="1.2" fill="#7a3010"/>
  <circle cx="212.4" cy="150.3" r="1.2" fill="#7a3010"/>
  <circle cx="234.6" cy="284.5" r="1.2" fill="#6b2800"/>
  <circle cx="228.2" cy="180.3" r="1.2" fill="#7a3010"/>
  <circle cx="154.0" cy="183.0" r="1.2" fill="#7a3010"/>
  <circle cx="353.2" cy="232.6" r="0.8" fill="#c8d8b0"/>
  <circle cx="158.2" cy="212.3" r="1.2" fill="#7a3010"/>
  <circle cx="150.3" cy="202.1" r="1.2" fill="#7a3010"/>
  <circle cx="155.5" cy="143.5" r="1.2" fill="#7a3010"/>
  <circle cx="61.0" cy="35.1" r="0.8" fill="#a8c8e0"/>
  <circle cx="239.7" cy="159.0" r="1.2" fill="#7a3010"/>
  <circle cx="203.6" cy="203.2" r="1.2" fill="#7a3010"/>
  <circle cx="229.6" cy="306.4" r="1.2" fill="#6b2800"/>
  <circle cx="200.7" cy="153.8" r="1.2" fill="#7a3010"/>
  <circle cx="149.4" cy="352.4" r="1.2" fill="#6b2800"/>
  <circle cx="140.5" cy="282.5" r="1.2" fill="#6b2800"/>
  <circle cx="204.8" cy="174.2" r="1.2" fill="#7a3010"/>
  <circle cx="247.2" cy="110.4" r="1.2" fill="#b87a30"/>
  <circle cx="202.1" cy="308.0" r="1.2" fill="#6b2800"/>
  <circle cx="234.9" cy="62.9" r="1.2" fill="#b87a30"/>
  <circle cx="177.3" cy="233.2" r="1.2" fill="#7a3010"/>
  <circle cx="252.2" cy="344.7" r="1.2" fill="#6b2800"/>
  <circle cx="158.6" cy="280.6" r="1.2" fill="#6b2800"/>
  <circle cx="138.2" cy="251.6" r="1.2" fill="#6b2800"/>
  <circle cx="218.1" cy="245.5" r="1.2" fill="#6b2800"/>
  <circle cx="179.5" cy="86.8" r="1.2" fill="#b87a30"/>
  <circle cx="259.4" cy="325.0" r="1.2" fill="#6b2800"/>
  <circle cx="252.7" cy="332.9" r="1.2" fill="#6b2800"/>
  <circle cx="241.9" cy="72.5" r="1.2" fill="#b87a30"/>
  <circle cx="254.5" cy="329.4" r="1.2" fill="#6b2800"/>
  <circle cx="256.2" cy="71.8" r="0.8" fill="#a8c8e0"/>
  <circle cx="235.3" cy="181.2" r="1.2" fill="#7a3010"/>
  <circle cx="215.4" cy="117.7" r="1.2" fill="#b87a30"/>
  <circle cx="234.6" cy="296.2" r="1.2" fill="#6b2800"/>
  <circle cx="198.9" cy="289.7" r="1.2" fill="#6b2800"/>
  <circle cx="235.4" cy="127.4" r="1.2" fill="#b87a30"/>
  <circle cx="242.7" cy="282.2" r="1.2" fill="#6b2800"/>
  <circle cx="168.2" cy="292.6" r="1.2" fill="#6b2800"/>
  <circle cx="200.0" cy="342.6" r="1.2" fill="#6b2800"/>
  <circle cx="307.4" cy="131.7" r="0.8" fill="#a8c8e0"/>
  <circle cx="182.9" cy="145.6" r="1.2" fill="#7a3010"/>
  <circle cx="184.3" cy="69.9" r="1.2" fill="#b87a30"/>
  <circle cx="252.4" cy="224.0" r="1.2" fill="#7a3010"/>
  <circle cx="234.8" cy="302.9" r="1.2" fill="#6b2800"/>
  <circle cx="188.8" cy="279.0" r="1.2" fill="#6b2800"/>
  <circle cx="250.7" cy="311.1" r="1.2" fill="#6b2800"/>
  <circle cx="349.5" cy="126.5" r="0.8" fill="#a8c8e0"/>
  <circle cx="216.1" cy="288.1" r="1.2" fill="#6b2800"/>
  <circle cx="245.3" cy="137.9" r="1.2" fill="#b87a30"/>
  <circle cx="198.6" cy="316.2" r="1.2" fill="#6b2800"/>
  <circle cx="215.7" cy="56.2" r="1.2" fill="#b87a30"/>
  <circle cx="178.7" cy="235.6" r="1.2" fill="#7a3010"/>
  <circle cx="140.3" cy="236.1" r="1.2" fill="#7a3010"/>
  <circle cx="179.2" cy="116.4" r="1.2" fill="#b87a30"/>
  <circle cx="163.7" cy="184.8" r="1.2" fill="#7a3010"/>
  <circle cx="184.1" cy="122.1" r="1.2" fill="#b87a30"/>
  <circle cx="178.0" cy="251.2" r="1.2" fill="#6b2800"/>
  <circle cx="179.5" cy="42.4" r="1.2" fill="#b87a30"/>
  <circle cx="253.7" cy="214.2" r="1.2" fill="#7a3010"/>
  <circle cx="365.6" cy="107.3" r="0.8" fill="#a8c8e0"/>
  <circle cx="214.6" cy="165.9" r="1.2" fill="#7a3010"/>
  <circle cx="167.5" cy="204.5" r="1.2" fill="#7a3010"/>
  <circle cx="155.1" cy="203.9" r="1.2" fill="#7a3010"/>
  <circle cx="222.5" cy="172.2" r="1.2" fill="#7a3010"/>
  <circle cx="115.3" cy="358.0" r="1.2" fill="#6b2800"/>
  <circle cx="228.6" cy="305.8" r="1.2" fill="#6b2800"/>
  <circle cx="205.3" cy="278.3" r="1.2" fill="#6b2800"/>
  <circle cx="219.4" cy="274.7" r="1.2" fill="#6b2800"/>
  <circle cx="237.1" cy="277.3" r="1.2" fill="#6b2800"/>
  <circle cx="214.1" cy="350.8" r="1.2" fill="#6b2800"/>
  <circle cx="149.3" cy="216.3" r="1.2" fill="#7a3010"/>
  <circle cx="178.7" cy="203.9" r="1.2" fill="#7a3010"/>
  <circle cx="162.1" cy="176.5" r="1.2" fill="#7a3010"/>
  <circle cx="163.7" cy="179.6" r="1.2" fill="#7a3010"/>
  <circle cx="199.0" cy="229.9" r="1.2" fill="#7a3010"/>
  <circle cx="267.7" cy="350.2" r="1.2" fill="#6b2800"/>
  <circle cx="140.6" cy="310.9" r="1.2" fill="#6b2800"/>
  <circle cx="153.0" cy="170.9" r="1.2" fill="#7a3010"/>
  <circle cx="221.5" cy="311.1" r="1.2" fill="#6b2800"/>
  <circle cx="202.5" cy="147.0" r="1.2" fill="#7a3010"/>
  <circle cx="381.6" cy="122.2" r="0.8" fill="#a8c8e0"/>
  <circle cx="185.1" cy="312.2" r="1.2" fill="#6b2800"/>
  <circle cx="233.4" cy="355.0" r="1.2" fill="#6b2800"/>
  <circle cx="201.1" cy="277.7" r="1.2" fill="#6b2800"/>
  <circle cx="243.6" cy="137.2" r="1.2" fill="#b87a30"/>
  <circle cx="198.8" cy="306.6" r="1.2" fill="#6b2800"/>
  <circle cx="124.7" cy="291.4" r="1.2" fill="#6b2800"/>
  <circle cx="215.2" cy="80.0" r="1.2" fill="#b87a30"/>
  <circle cx="248.2" cy="192.8" r="1.2" fill="#7a3010"/>
  <circle cx="166.7" cy="298.3" r="1.2" fill="#6b2800"/>
  <circle cx="175.7" cy="236.4" r="1.2" fill="#7a3010"/>
  <circle cx="158.2" cy="271.9" r="1.2" fill="#6b2800"/>
  <circle cx="170.7" cy="60.5" r="1.2" fill="#b87a30"/>
  <circle cx="234.0" cy="181.6" r="1.2" fill="#7a3010"/>
  <circle cx="240.2" cy="304.5" r="1.2" fill="#6b2800"/>
  <circle cx="157.6" cy="328.4" r="1.2" fill="#6b2800"/>
  <circle cx="202.4" cy="133.1" r="1.2" fill="#b87a30"/>
  <circle cx="249.5" cy="286.9" r="1.2" fill="#6b2800"/>
  <circle cx="162.3" cy="229.9" r="1.2" fill="#7a3010"/>
  <circle cx="173.0" cy="101.1" r="1.2" fill="#b87a30"/>
  <circle cx="149.8" cy="341.5" r="1.2" fill="#6b2800"/>
  <text x="200" y="382" text-anchor="middle" font-family="Arial, sans-serif" font-size="22" font-weight="bold" fill="rgba(60,20,0,0.82)">&#x05D7;&#x05B7;&#x05D2; &#x05D4;&#x05B7;&#x05E7;&#x05B8;&#x05E6;&#x05B4;&#x05D9;&#x05E8;</text>
</svg>