<svg xmlns="http://www.w3.org/2000/svg" width="360" height="400" viewBox="0 0 360 400">
  <rect width="360" height="400" fill="#120d06"/>
  <path d="M9.0,0A9.0,9.0,0,0,1,0,9.0 M9.0,18A9.0,9.0,0,0,1,18,9.0 M9.0,54A9.0,9.0,0,0,1,0,63.0 M9.0,72A9.0,9.0,0,0,1,18,63.0 M9.0,108A9.0,9.0,0,0,1,0,117.0 M9.0,126A9.0,9.0,0,0,1,18,117.0 M18,171.0A9.0,9.0,0,0,1,9.0,162 M0,171.0A9.0,9.0,0,0,1,9.0,180 M9.0,216A9.0,9.0,0,0,1,0,225.0 M9.0,234A9.0,9.0,0,0,1,18,225.0 M9.0,270A9.0,9.0,0,0,1,0,279.0 M9.0,288A9.0,9.0,0,0,1,18,279.0 M18,333.0A9.0,9.0,0,0,1,9.0,324 M0,333.0A9.0,9.0,0,0,1,9.0,342" stroke="#c2956a" stroke-width="8.1" fill="none" stroke-linecap="butt"/>
  <path d="M27.0,0A9.0,9.0,0,0,1,18,9.0 M27.0,18A9.0,9.0,0,0,1,36,9.0 M27.0,54A9.0,9.0,0,0,1,18,63.0 M27.0,72A9.0,9.0,0,0,1,36,63.0 M27.0,108A9.0,9.0,0,0,1,18,117.0 M27.0,126A9.0,9.0,0,0,1,36,117.0 M27.0,162A9.0,9.0,0,0,1,18,171.0 M27.0,180A9.0,9.0,0,0,1,36,171.0 M27.0,216A9.0,9.0,0,0,1,18,225.0 M27.0,234A9.0,9.0,0,0,1,36,225.0 M27.0,270A9.0,9.0,0,0,1,18,279.0 M27.0,288A9.0,9.0,0,0,1,36,279.0 M27.0,324A9.0,9.0,0,0,1,18,333.0 M27.0,342A9.0,9.0,0,0,1,36,333.0" stroke="#c29668" stroke-width="8.1" fill="none" stroke-linecap="butt"/>
  <path d="M54,9.0A9.0,9.0,0,0,1,45.0,0 M36,9.0A9.0,9.0,0,0,1,45.0,18 M45.0,54A9.0,9.0,0,0,1,36,63.0 M45.0,72A9.0,9.0,0,0,1,54,63.0 M54,117.0A9.0,9.0,0,0,1,45.0,108 M36,117.0A9.0,9.0,0,0,1,45.0,126 M45.0,162A9.0,9.0,0,0,1,36,171.0 M45.0,180A9.0,9.0,0,0,1,54,171.0 M54,225.0A9.0,9.0,0,0,1,45.0,216 M36,225.0A9.0,9.0,0,0,1,45.0,234 M45.0,270A9.0,9.0,0,0,1,36,279.0 M45.0,288A9.0,9.0,0,0,1,54,279.0 M54,333.0A9.0,9.0,0,0,1,45.0,324 M36,333.0A9.0,9.0,0,0,1,45.0,342" stroke="#c29766" stroke-width="8.1" fill="none" stroke-linecap="butt"/>
  <path d="M63.0,0A9.0,9.0,0,0,1,54,9.0 M63.0,18A9.0,9.0,0,0,1,72,9.0 M72,63.0A9.0,9.0,0,0,1,63.0,54 M54,63.0A9.0,9.0,0,0,1,63.0,72 M72,117.0A9.0,9.0,0,0,1,63.0,108 M54,117.0A9.0,9.0,0,0,1,63.0,126 M63.0,162A9.0,9.0,0,0,1,54,171.0 M63.0,180A9.0,9.0,0,0,1,72,171.0 M72,225.0A9.0,9.0,0,0,1,63.0,216 M54,225.0A9.0,9.0,0,0,1,63.0,234 M72,279.0A9.0,9.0,0,0,1,63.0,270 M54,279.0A9.0,9.0,0,0,1,63.0,288 M63.0,324A9.0,9.0,0,0,1,54,333.0 M63.0,342A9.0,9.0,0,0,1,72,333.0" stroke="#c29865" stroke-width="8.1" fill="none" stroke-linecap="butt"/>
  <path d="M81.0,0A9.0,9.0,0,0,1,72,9.0 M81.0,18A9.0,9.0,0,0,1,90,9.0 M90,63.0A9.0,9.0,0,0,1,81.0,54 M72,63.0A9.0,9.0,0,0,1,81.0,72 M81.0,108A9.0,9.0,0,0,1,72,117.0 M81.0,126A9.0,9.0,0,0,1,90,117.0 M90,171.0A9.0,9.0,0,0,1,81.0,162 M72,171.0A9.0,9.0,0,0,1,81.0,180 M90,225.0A9.0,9.0,0,0,1,81.0,216 M72,225.0A9.0,9.0,0,0,1,81.0,234 M81.0,270A9.0,9.0,0,0,1,72,279.0 M81.0,288A9.0,9.0,0,0,1,90,279.0 M90,333.0A9.0,9.0,0,0,1,81.0,324 M72,333.0A9.0,9.0,0,0,1,81.0,342" stroke="#c39963" stroke-width="8.1" fill="none" stroke-linecap="butt"/>
  <path d="M99.0,0A9.0,9.0,0,0,1,90,9.0 M99.0,18A9.0,9.0,0,0,1,108,9.0 M108,63.0A9.0,9.0,0,0,1,99.0,54 M90,63.0A9.0,9.0,0,0,1,99.0,72 M99.0,108A9.0,9.0,0,0,1,90,117.0 M99.0,126A9.0,9.0,0,0,1,108,117.0 M108,171.0A9.0,9.0,0,0,1,99.0,162 M90,171.0A9.0,9.0,0,0,1,99.0,180 M99.0,216A9.0,9.0,0,0,1,90,225.0 M99.0,234A9.0,9.0,0,0,1,108,225.0 M108,279.0A9.0,9.0,0,0,1,99.0,270 M90,279.0A9.0,9.0,0,0,1,99.0,288 M99.0,324A9.0,9.0,0,0,1,90,333.0 M99.0,342A9.0,9.0,0,0,1,108,333.0" stroke="#c39a61" stroke-width="8.1" fill="none" stroke-linecap="butt"/>
  <path d="M117.0,0A9.0,9.0,0,0,1,108,9.0 M117.0,18A9.0,9.0,0,0,1,126,9.0 M117.0,54A9.0,9.0,0,0,1,108,63.0 M117.0,72A9.0,9.0,0,0,1,126,63.0 M126,117.0A9.0,9.0,0,0,1,117.0,108 M108,117.0A9.0,9.0,0,0,1,117.0,126 M117.0,162A9.0,9.0,0,0,1,108,171.0 M117.0,180A9.0,9.0,0,0,1,126,171.0 M126,225.0A9.0,9.0,0,0,1,117.0,216 M108,225.0A9.0,9.0,0,0,1,117.0,234 M117.0,270A9.0,9.0,0,0,1,108,279.0 M117.0,288A9.0,9.0,0,0,1,126,279.0 M126,333.0A9.0,9.0,0,0,1,117.0,324 M108,333.0A9.0,9.0,0,0,1,117.0,342" stroke="#c39b60" stroke-width="8.1" fill="none" stroke-linecap="butt"/>
  <path d="M135.0,0A9.0,9.0,0,0,1,126,9.0 M135.0,18A9.0,9.0,0,0,1,144,9.0 M144,63.0A9.0,9.0,0,0,1,135.0,54 M126,63.0A9.0,9.0,0,0,1,135.0,72 M144,117.0A9.0,9.0,0,0,1,135.0,108 M126,117.0A9.0,9.0,0,0,1,135.0,126 M135.0,162A9.0,9.0,0,0,1,126,171.0 M135.0,180A9.0,9.0,0,0,1,144,171.0 M135.0,216A9.0,9.0,0,0,1,126,225.0 M135.0,234A9.0,9.0,0,0,1,144,225.0 M135.0,270A9.0,9.0,0,0,1,126,279.0 M135.0,288A9.0,9.0,0,0,1,144,279.0 M135.0,324A9.0,9.0,0,0,1,126,333.0 M135.0,342A9.0,9.0,0,0,1,144,333.0" stroke="#c49c5e" stroke-width="8.1" fill="none" stroke-linecap="butt"/>
  <path d="M162,9.0A9.0,9.0,0,0,1,153.0,0 M144,9.0A9.0,9.0,0,0,1,153.0,18 M153.0,54A9.0,9.0,0,0,1,144,63.0 M153.0,72A9.0,9.0,0,0,1,162,63.0 M162,225.0A9.0,9.0,0,0,1,153.0,216 M144,225.0A9.0,9.0,0,0,1,153.0,234 M162,279.0A9.0,9.0,0,0,1,153.0,270 M144,279.0A9.0,9.0,0,0,1,153.0,288 M153.0,324A9.0,9.0,0,0,1,144,333.0 M153.0,342A9.0,9.0,0,0,1,162,333.0" stroke="#c49d5c" stroke-width="8.1" fill="none" stroke-linecap="butt"/>
  <path d="M171.0,0A9.0,9.0,0,0,1,162,9.0 M171.0,18A9.0,9.0,0,0,1,180,9.0 M171.0,54A9.0,9.0,0,0,1,162,63.0 M171.0,72A9.0,9.0,0,0,1,180,63.0 M180,279.0A9.0,9.0,0,0,1,171.0,270 M162,279.0A9.0,9.0,0,0,1,171.0,288 M180,333.0A9.0,9.0,0,0,1,171.0,324 M162,333.0A9.0,9.0,0,0,1,171.0,342" stroke="#c49e5b" stroke-width="8.1" fill="none" stroke-linecap="butt"/>
  <path d="M189.0,0A9.0,9.0,0,0,1,180,9.0 M189.0,18A9.0,9.0,0,0,1,198,9.0 M189.0,270A9.0,9.0,0,0,1,180,279.0 M189.0,288A9.0,9.0,0,0,1,198,279.0 M198,333.0A9.0,9.0,0,0,1,189.0,324 M180,333.0A9.0,9.0,0,0,1,189.0,342" stroke="#c59f59" stroke-width="8.1" fill="none" stroke-linecap="butt"/>
  <path d="M207.0,0A9.0,9.0,0,0,1,198,9.0 M207.0,18A9.0,9.0,0,0,1,216,9.0 M216,63.0A9.0,9.0,0,0,1,207.0,54 M198,63.0A9.0,9.0,0,0,1,207.0,72 M216,279.0A9.0,9.0,0,0,1,207.0,270 M198,279.0A9.0,9.0,0,0,1,207.0,288 M207.0,324A9.0,9.0,0,0,1,198,333.0 M207.0,342A9.0,9.0,0,0,1,216,333.0" stroke="#c5a058" stroke-width="8.1" fill="none" stroke-linecap="butt"/>
  <path d="M225.0,0A9.0,9.0,0,0,1,216,9.0 M225.0,18A9.0,9.0,0,0,1,234,9.0 M234,63.0A9.0,9.0,0,0,1,225.0,54 M216,63.0A9.0,9.0,0,0,1,225.0,72 M234,225.0A9.0,9.0,0,0,1,225.0,216 M216,225.0A9.0,9.0,0,0,1,225.0,234 M225.0,270A9.0,9.0,0,0,1,216,279.0 M225.0,288A9.0,9.0,0,0,1,234,279.0 M234,333.0A9.0,9.0,0,0,1,225.0,324 M216,333.0A9.0,9.0,0,0,1,225.0,342" stroke="#c5a156" stroke-width="8.1" fill="none" stroke-linecap="butt"/>
  <path d="M243.0,0A9.0,9.0,0,0,1,234,9.0 M243.0,18A9.0,9.0,0,0,1,252,9.0 M252,63.0A9.0,9.0,0,0,1,243.0,54 M234,63.0A9.0,9.0,0,0,1,243.0,72 M252,117.0A9.0,9.0,0,0,1,243.0,108 M234,117.0A9.0,9.0,0,0,1,243.0,126 M252,225.0A9.0,9.0,0,0,1,243.0,216 M234,225.0A9.0,9.0,0,0,1,243.0,234 M243.0,270A9.0,9.0,0,0,1,234,279.0 M243.0,288A9.0,9.0,0,0,1,252,279.0 M252,333.0A9.0,9.0,0,0,1,243.0,324 M234,333.0A9.0,9.0,0,0,1,243.0,342" stroke="#c6a254" stroke-width="8.1" fill="none" stroke-linecap="butt"/>
  <path d="M261.0,0A9.0,9.0,0,0,1,252,9.0 M261.0,18A9.0,9.0,0,0,1,270,9.0 M261.0,54A9.0,9.0,0,0,1,252,63.0 M261.0,72A9.0,9.0,0,0,1,270,63.0 M261.0,270A9.0,9.0,0,0,1,252,279.0 M261.0,288A9.0,9.0,0,0,1,270,279.0 M261.0,324A9.0,9.0,0,0,1,252,333.0 M261.0,342A9.0,9.0,0,0,1,270,333.0" stroke="#c6a353" stroke-width="8.1" fill="none" stroke-linecap="butt"/>
  <path d="M279.0,0A9.0,9.0,0,0,1,270,9.0 M279.0,18A9.0,9.0,0,0,1,288,9.0 M279.0,54A9.0,9.0,0,0,1,270,63.0 M279.0,72A9.0,9.0,0,0,1,288,63.0 M288,279.0A9.0,9.0,0,0,1,279.0,270 M270,279.0A9.0,9.0,0,0,1,279.0,288 M288,333.0A9.0,9.0,0,0,1,279.0,324 M270,333.0A9.0,9.0,0,0,1,279.0,342" stroke="#c6a451" stroke-width="8.1" fill="none" stroke-linecap="butt"/>
  <path d="M306,9.0A9.0,9.0,0,0,1,297.0,0 M288,9.0A9.0,9.0,0,0,1,297.0,18 M306,63.0A9.0,9.0,0,0,1,297.0,54 M288,63.0A9.0,9.0,0,0,1,297.0,72 M306,279.0A9.0,9.0,0,0,1,297.0,270 M288,279.0A9.0,9.0,0,0,1,297.0,288 M306,333.0A9.0,9.0,0,0,1,297.0,324 M288,333.0A9.0,9.0,0,0,1,297.0,342" stroke="#c7a54f" stroke-width="8.1" fill="none" stroke-linecap="butt"/>
  <path d="M315.0,0A9.0,9.0,0,0,1,306,9.0 M315.0,18A9.0,9.0,0,0,1,324,9.0 M315.0,54A9.0,9.0,0,0,1,306,63.0 M315.0,72A9.0,9.0,0,0,1,324,63.0 M324,117.0A9.0,9.0,0,0,1,315.0,108 M306,117.0A9.0,9.0,0,0,1,315.0,126 M315.0,162A9.0,9.0,0,0,1,306,171.0 M315.0,180A9.0,9.0,0,0,1,324,171.0 M315.0,216A9.0,9.0,0,0,1,306,225.0 M315.0,234A9.0,9.0,0,0,1,324,225.0 M315.0,270A9.0,9.0,0,0,1,306,279.0 M315.0,288A9.0,9.0,0,0,1,324,279.0 M324,333.0A9.0,9.0,0,0,1,315.0,324 M306,333.0A9.0,9.0,0,0,1,315.0,342" stroke="#c7a64e" stroke-width="8.1" fill="none" stroke-linecap="butt"/>
  <path d="M342,9.0A9.0,9.0,0,0,1,333.0,0 M324,9.0A9.0,9.0,0,0,1,333.0,18 M342,63.0A9.0,9.0,0,0,1,333.0,54 M324,63.0A9.0,9.0,0,0,1,333.0,72 M333.0,108A9.0,9.0,0,0,1,324,117.0 M333.0,126A9.0,9.0,0,0,1,342,117.0 M342,171.0A9.0,9.0,0,0,1,333.0,162 M324,171.0A9.0,9.0,0,0,1,333.0,180 M333.0,216A9.0,9.0,0,0,1,324,225.0 M333.0,234A9.0,9.0,0,0,1,342,225.0 M333.0,270A9.0,9.0,0,0,1,324,279.0 M333.0,288A9.0,9.0,0,0,1,342,279.0 M342,333.0A9.0,9.0,0,0,1,333.0,324 M324,333.0A9.0,9.0,0,0,1,333.0,342" stroke="#c7a74c" stroke-width="8.1" fill="none" stroke-linecap="butt"/>
  <path d="M360,9.0A9.0,9.0,0,0,1,351.0,0 M342,9.0A9.0,9.0,0,0,1,351.0,18 M360,63.0A9.0,9.0,0,0,1,351.0,54 M342,63.0A9.0,9.0,0,0,1,351.0,72 M360,117.0A9.0,9.0,0,0,1,351.0,108 M342,117.0A9.0,9.0,0,0,1,351.0,126 M351.0,162A9.0,9.0,0,0,1,342,171.0 M351.0,180A9.0,9.0,0,0,1,360,171.0 M351.0,216A9.0,9.0,0,0,1,342,225.0 M351.0,234A9.0,9.0,0,0,1,360,225.0 M351.0,270A9.0,9.0,0,0,1,342,279.0 M351.0,288A9.0,9.0,0,0,1,360,279.0 M360,333.0A9.0,9.0,0,0,1,351.0,324 M342,333.0A9.0,9.0,0,0,1,351.0,342" stroke="#c8a84b" stroke-width="8.1" fill="none" stroke-linecap="butt"/>
  <path d="M9.0,18A9.0,9.0,0,0,1,0,27.0 M9.0,36A9.0,9.0,0,0,1,18,27.0 M18,81.0A9.0,9.0,0,0,1,9.0,72 M0,81.0A9.0,9.0,0,0,1,9.0,90 M18,135.0A9.0,9.0,0,0,1,9.0,126 M0,135.0A9.0,9.0,0,0,1,9.0,144 M9.0,180A9.0,9.0,0,0,1,0,189.0 M9.0,198A9.0,9.0,0,0,1,18,189.0 M18,243.0A9.0,9.0,0,0,1,9.0,234 M0,243.0A9.0,9.0,0,0,1,9.0,252 M9.0,288A9.0,9.0,0,0,1,0,297.0 M9.0,306A9.0,9.0,0,0,1,18,297.0 M18,351.0A9.0,9.0,0,0,1,9.0,342 M0,351.0A9.0,9.0,0,0,1,9.0,360" stroke="#8b5e3c" stroke-width="8.1" fill="none" stroke-linecap="butt"/>
  <path d="M27.0,18A9.0,9.0,0,0,1,18,27.0 M27.0,36A9.0,9.0,0,0,1,36,27.0 M27.0,72A9.0,9.0,0,0,1,18,81.0 M27.0,90A9.0,9.0,0,0,1,36,81.0 M27.0,126A9.0,9.0,0,0,1,18,135.0 M27.0,144A9.0,9.0,0,0,1,36,135.0 M27.0,180A9.0,9.0,0,0,1,18,189.0 M27.0,198A9.0,9.0,0,0,1,36,189.0 M27.0,234A9.0,9.0,0,0,1,18,243.0 M27.0,252A9.0,9.0,0,0,1,36,243.0 M36,297.0A9.0,9.0,0,0,1,27.0,288 M18,297.0A9.0,9.0,0,0,1,27.0,306 M27.0,342A9.0,9.0,0,0,1,18,351.0 M27.0,360A9.0,9.0,0,0,1,36,351.0" stroke="#8a613d" stroke-width="8.1" fill="none" stroke-linecap="butt"/>
  <path d="M54,27.0A9.0,9.0,0,0,1,45.0,18 M36,27.0A9.0,9.0,0,0,1,45.0,36 M54,81.0A9.0,9.0,0,0,1,45.0,72 M36,81.0A9.0,9.0,0,0,1,45.0,90 M45.0,126A9.0,9.0,0,0,1,36,135.0 M45.0,144A9.0,9.0,0,0,1,54,135.0 M45.0,180A9.0,9.0,0,0,1,36,189.0 M45.0,198A9.0,9.0,0,0,1,54,189.0 M54,243.0A9.0,9.0,0,0,1,45.0,234 M36,243.0A9.0,9.0,0,0,1,45.0,252 M45.0,288A9.0,9.0,0,0,1,36,297.0 M45.0,306A9.0,9.0,0,0,1,54,297.0 M45.0,342A9.0,9.0,0,0,1,36,351.0 M45.0,360A9.0,9.0,0,0,1,54,351.0" stroke="#89643f" stroke-width="8.1" fill="none" stroke-linecap="butt"/>
  <path d="M72,27.0A9.0,9.0,0,0,1,63.0,18 M54,27.0A9.0,9.0,0,0,1,63.0,36 M63.0,72A9.0,9.0,0,0,1,54,81.0 M63.0,90A9.0,9.0,0,0,1,72,81.0 M72,135.0A9.0,9.0,0,0,1,63.0,126 M54,135.0A9.0,9.0,0,0,1,63.0,144 M63.0,180A9.0,9.0,0,0,1,54,189.0 M63.0,198A9.0,9.0,0,0,1,72,189.0 M63.0,234A9.0,9.0,0,0,1,54,243.0 M63.0,252A9.0,9.0,0,0,1,72,243.0 M63.0,288A9.0,9.0,0,0,1,54,297.0 M63.0,306A9.0,9.0,0,0,1,72,297.0 M72,351.0A9.0,9.0,0,0,1,63.0,342 M54,351.0A9.0,9.0,0,0,1,63.0,360" stroke="#886841" stroke-width="8.1" fill="none" stroke-linecap="butt"/>
  <path d="M90,27.0A9.0,9.0,0,0,1,81.0,18 M72,27.0A9.0,9.0,0,0,1,81.0,36 M81.0,72A9.0,9.0,0,0,1,72,81.0 M81.0,90A9.0,9.0,0,0,1,90,81.0 M90,135.0A9.0,9.0,0,0,1,81.0,126 M72,135.0A9.0,9.0,0,0,1,81.0,144 M81.0,180A9.0,9.0,0,0,1,72,189.0 M81.0,198A9.0,9.0,0,0,1,90,189.0 M81.0,234A9.0,9.0,0,0,1,72,243.0 M81.0,252A9.0,9.0,0,0,1,90,243.0 M90,297.0A9.0,9.0,0,0,1,81.0,288 M72,297.0A9.0,9.0,0,0,1,81.0,306 M90,351.0A9.0,9.0,0,0,1,81.0,342 M72,351.0A9.0,9.0,0,0,1,81.0,360" stroke="#876b43" stroke-width="8.1" fill="none" stroke-linecap="butt"/>
  <path d="M99.0,18A9.0,9.0,0,0,1,90,27.0 M99.0,36A9.0,9.0,0,0,1,108,27.0 M108,81.0A9.0,9.0,0,0,1,99.0,72 M90,81.0A9.0,9.0,0,0,1,99.0,90 M108,135.0A9.0,9.0,0,0,1,99.0,126 M90,135.0A9.0,9.0,0,0,1,99.0,144 M108,189.0A9.0,9.0,0,0,1,99.0,180 M90,189.0A9.0,9.0,0,0,1,99.0,198 M108,243.0A9.0,9.0,0,0,1,99.0,234 M90,243.0A9.0,9.0,0,0,1,99.0,252 M108,297.0A9.0,9.0,0,0,1,99.0,288 M90,297.0A9.0,9.0,0,0,1,99.0,306 M99.0,342A9.0,9.0,0,0,1,90,351.0 M99.0,360A9.0,9.0,0,0,1,108,351.0" stroke="#866e45" stroke-width="8.1" fill="none" stroke-linecap="butt"/>
  <path d="M117.0,18A9.0,9.0,0,0,1,108,27.0 M117.0,36A9.0,9.0,0,0,1,126,27.0 M126,81.0A9.0,9.0,0,0,1,117.0,72 M108,81.0A9.0,9.0,0,0,1,117.0,90 M126,135.0A9.0,9.0,0,0,1,117.0,126 M108,135.0A9.0,9.0,0,0,1,117.0,144 M126,189.0A9.0,9.0,0,0,1,117.0,180 M108,189.0A9.0,9.0,0,0,1,117.0,198 M126,243.0A9.0,9.0,0,0,1,117.0,234 M108,243.0A9.0,9.0,0,0,1,117.0,252 M117.0,288A9.0,9.0,0,0,1,108,297.0 M117.0,306A9.0,9.0,0,0,1,126,297.0 M126,351.0A9.0,9.0,0,0,1,117.0,342 M108,351.0A9.0,9.0,0,0,1,117.0,360" stroke="#857247" stroke-width="8.1" fill="none" stroke-linecap="butt"/>
  <path d="M144,27.0A9.0,9.0,0,0,1,135.0,18 M126,27.0A9.0,9.0,0,0,1,135.0,36 M144,81.0A9.0,9.0,0,0,1,135.0,72 M126,81.0A9.0,9.0,0,0,1,135.0,90 M144,135.0A9.0,9.0,0,0,1,135.0,126 M126,135.0A9.0,9.0,0,0,1,135.0,144 M144,189.0A9.0,9.0,0,0,1,135.0,180 M126,189.0A9.0,9.0,0,0,1,135.0,198 M135.0,234A9.0,9.0,0,0,1,126,243.0 M135.0,252A9.0,9.0,0,0,1,144,243.0 M144,297.0A9.0,9.0,0,0,1,135.0,288 M126,297.0A9.0,9.0,0,0,1,135.0,306 M144,351.0A9.0,9.0,0,0,1,135.0,342 M126,351.0A9.0,9.0,0,0,1,135.0,360" stroke="#847548" stroke-width="8.1" fill="none" stroke-linecap="butt"/>
  <path d="M153.0,18A9.0,9.0,0,0,1,144,27.0 M153.0,36A9.0,9.0,0,0,1,162,27.0 M162,81.0A9.0,9.0,0,0,1,153.0,72 M144,81.0A9.0,9.0,0,0,1,153.0,90 M153.0,126A9.0,9.0,0,0,1,144,135.0 M153.0,144A9.0,9.0,0,0,1,162,135.0 M153.0,288A9.0,9.0,0,0,1,144,297.0 M153.0,306A9.0,9.0,0,0,1,162,297.0 M153.0,342A9.0,9.0,0,0,1,144,351.0 M153.0,360A9.0,9.0,0,0,1,162,351.0" stroke="#83784a" stroke-width="8.1" fill="none" stroke-linecap="butt"/>
  <path d="M171.0,18A9.0,9.0,0,0,1,162,27.0 M171.0,36A9.0,9.0,0,0,1,180,27.0 M171.0,72A9.0,9.0,0,0,1,162,81.0 M171.0,90A9.0,9.0,0,0,1,180,81.0 M171.0,288A9.0,9.0,0,0,1,162,297.0 M171.0,306A9.0,9.0,0,0,1,180,297.0 M180,351.0A9.0,9.0,0,0,1,171.0,342 M162,351.0A9.0,9.0,0,0,1,171.0,360" stroke="#827c4c" stroke-width="8.1" fill="none" stroke-linecap="butt"/>
  <path d="M198,27.0A9.0,9.0,0,0,1,189.0,18 M180,27.0A9.0,9.0,0,0,1,189.0,36 M198,297.0A9.0,9.0,0,0,1,189.0,288 M180,297.0A9.0,9.0,0,0,1,189.0,306 M198,351.0A9.0,9.0,0,0,1,189.0,342 M180,351.0A9.0,9.0,0,0,1,189.0,360" stroke="#827f4e" stroke-width="8.1" fill="none" stroke-linecap="butt"/>
  <path d="M207.0,18A9.0,9.0,0,0,1,198,27.0 M207.0,36A9.0,9.0,0,0,1,216,27.0 M216,81.0A9.0,9.0,0,0,1,207.0,72 M198,81.0A9.0,9.0,0,0,1,207.0,90 M207.0,288A9.0,9.0,0,0,1,198,297.0 M207.0,306A9.0,9.0,0,0,1,216,297.0 M207.0,342A9.0,9.0,0,0,1,198,351.0 M207.0,360A9.0,9.0,0,0,1,216,351.0" stroke="#818350" stroke-width="8.1" fill="none" stroke-linecap="butt"/>
  <path d="M234,27.0A9.0,9.0,0,0,1,225.0,18 M216,27.0A9.0,9.0,0,0,1,225.0,36 M225.0,72A9.0,9.0,0,0,1,216,81.0 M225.0,90A9.0,9.0,0,0,1,234,81.0 M234,297.0A9.0,9.0,0,0,1,225.0,288 M216,297.0A9.0,9.0,0,0,1,225.0,306 M234,351.0A9.0,9.0,0,0,1,225.0,342 M216,351.0A9.0,9.0,0,0,1,225.0,360" stroke="#808652" stroke-width="8.1" fill="none" stroke-linecap="butt"/>
  <path d="M252,27.0A9.0,9.0,0,0,1,243.0,18 M234,27.0A9.0,9.0,0,0,1,243.0,36 M243.0,72A9.0,9.0,0,0,1,234,81.0 M243.0,90A9.0,9.0,0,0,1,252,81.0 M243.0,234A9.0,9.0,0,0,1,234,243.0 M243.0,252A9.0,9.0,0,0,1,252,243.0 M243.0,288A9.0,9.0,0,0,1,234,297.0 M243.0,306A9.0,9.0,0,0,1,252,297.0 M252,351.0A9.0,9.0,0,0,1,243.0,342 M234,351.0A9.0,9.0,0,0,1,243.0,360" stroke="#7f8953" stroke-width="8.1" fill="none" stroke-linecap="butt"/>
  <path d="M270,27.0A9.0,9.0,0,0,1,261.0,18 M252,27.0A9.0,9.0,0,0,1,261.0,36 M261.0,288A9.0,9.0,0,0,1,252,297.0 M261.0,306A9.0,9.0,0,0,1,270,297.0 M270,351.0A9.0,9.0,0,0,1,261.0,342 M252,351.0A9.0,9.0,0,0,1,261.0,360" stroke="#7e8d55" stroke-width="8.1" fill="none" stroke-linecap="butt"/>
  <path d="M279.0,18A9.0,9.0,0,0,1,270,27.0 M279.0,36A9.0,9.0,0,0,1,288,27.0 M288,297.0A9.0,9.0,0,0,1,279.0,288 M270,297.0A9.0,9.0,0,0,1,279.0,306 M288,351.0A9.0,9.0,0,0,1,279.0,342 M270,351.0A9.0,9.0,0,0,1,279.0,360" stroke="#7d9057" stroke-width="8.1" fill="none" stroke-linecap="butt"/>
  <path d="M306,27.0A9.0,9.0,0,0,1,297.0,18 M288,27.0A9.0,9.0,0,0,1,297.0,36 M297.0,72A9.0,9.0,0,0,1,288,81.0 M297.0,90A9.0,9.0,0,0,1,306,81.0 M306,297.0A9.0,9.0,0,0,1,297.0,288 M288,297.0A9.0,9.0,0,0,1,297.0,306 M306,351.0A9.0,9.0,0,0,1,297.0,342 M288,351.0A9.0,9.0,0,0,1,297.0,360" stroke="#7c9359" stroke-width="8.1" fill="none" stroke-linecap="butt"/>
  <path d="M315.0,18A9.0,9.0,0,0,1,306,27.0 M315.0,36A9.0,9.0,0,0,1,324,27.0 M324,81.0A9.0,9.0,0,0,1,315.0,72 M306,81.0A9.0,9.0,0,0,1,315.0,90 M324,189.0A9.0,9.0,0,0,1,315.0,180 M306,189.0A9.0,9.0,0,0,1,315.0,198 M315.0,234A9.0,9.0,0,0,1,306,243.0 M315.0,252A9.0,9.0,0,0,1,324,243.0 M324,297.0A9.0,9.0,0,0,1,315.0,288 M306,297.0A9.0,9.0,0,0,1,315.0,306 M315.0,342A9.0,9.0,0,0,1,306,351.0 M315.0,360A9.0,9.0,0,0,1,324,351.0" stroke="#7b975b" stroke-width="8.1" fill="none" stroke-linecap="butt"/>
  <path d="M342,27.0A9.0,9.0,0,0,1,333.0,18 M324,27.0A9.0,9.0,0,0,1,333.0,36 M333.0,72A9.0,9.0,0,0,1,324,81.0 M333.0,90A9.0,9.0,0,0,1,342,81.0 M333.0,126A9.0,9.0,0,0,1,324,135.0 M333.0,144A9.0,9.0,0,0,1,342,135.0 M342,189.0A9.0,9.0,0,0,1,333.0,180 M324,189.0A9.0,9.0,0,0,1,333.0,198 M342,243.0A9.0,9.0,0,0,1,333.0,234 M324,243.0A9.0,9.0,0,0,1,333.0,252 M333.0,288A9.0,9.0,0,0,1,324,297.0 M333.0,306A9.0,9.0,0,0,1,342,297.0 M342,351.0A9.0,9.0,0,0,1,333.0,342 M324,351.0A9.0,9.0,0,0,1,333.0,360" stroke="#7a9a5d" stroke-width="8.1" fill="none" stroke-linecap="butt"/>
  <path d="M351.0,18A9.0,9.0,0,0,1,342,27.0 M351.0,36A9.0,9.0,0,0,1,360,27.0 M360,81.0A9.0,9.0,0,0,1,351.0,72 M342,81.0A9.0,9.0,0,0,1,351.0,90 M351.0,126A9.0,9.0,0,0,1,342,135.0 M351.0,144A9.0,9.0,0,0,1,360,135.0 M360,189.0A9.0,9.0,0,0,1,351.0,180 M342,189.0A9.0,9.0,0,0,1,351.0,198 M360,243.0A9.0,9.0,0,0,1,351.0,234 M342,243.0A9.0,9.0,0,0,1,351.0,252 M351.0,288A9.0,9.0,0,0,1,342,297.0 M351.0,306A9.0,9.0,0,0,1,360,297.0 M351.0,342A9.0,9.0,0,0,1,342,351.0 M351.0,360A9.0,9.0,0,0,1,360,351.0" stroke="#7a9e5f" stroke-width="8.1" fill="none" stroke-linecap="butt"/>
  <path d="M18,45.0A9.0,9.0,0,0,1,9.0,36 M0,45.0A9.0,9.0,0,0,1,9.0,54 M18,99.0A9.0,9.0,0,0,1,9.0,90 M0,99.0A9.0,9.0,0,0,1,9.0,108 M9.0,144A9.0,9.0,0,0,1,0,153.0 M9.0,162A9.0,9.0,0,0,1,18,153.0 M9.0,198A9.0,9.0,0,0,1,0,207.0 M9.0,216A9.0,9.0,0,0,1,18,207.0 M9.0,252A9.0,9.0,0,0,1,0,261.0 M9.0,270A9.0,9.0,0,0,1,18,261.0 M9.0,306A9.0,9.0,0,0,1,0,315.0 M9.0,324A9.0,9.0,0,0,1,18,315.0" stroke="#d4b483" stroke-width="8.1" fill="none" stroke-linecap="butt"/>
  <path d="M36,45.0A9.0,9.0,0,0,1,27.0,36 M18,45.0A9.0,9.0,0,0,1,27.0,54 M36,99.0A9.0,9.0,0,0,1,27.0,90 M18,99.0A9.0,9.0,0,0,1,27.0,108 M27.0,144A9.0,9.0,0,0,1,18,153.0 M27.0,162A9.0,9.0,0,0,1,36,153.0 M27.0,198A9.0,9.0,0,0,1,18,207.0 M27.0,216A9.0,9.0,0,0,1,36,207.0 M36,261.0A9.0,9.0,0,0,1,27.0,252 M18,261.0A9.0,9.0,0,0,1,27.0,270 M27.0,306A9.0,9.0,0,0,1,18,315.0 M27.0,324A9.0,9.0,0,0,1,36,315.0" stroke="#d5b584" stroke-width="8.1" fill="none" stroke-linecap="butt"/>
  <path d="M45.0,36A9.0,9.0,0,0,1,36,45.0 M45.0,54A9.0,9.0,0,0,1,54,45.0 M54,99.0A9.0,9.0,0,0,1,45.0,90 M36,99.0A9.0,9.0,0,0,1,45.0,108 M54,153.0A9.0,9.0,0,0,1,45.0,144 M36,153.0A9.0,9.0,0,0,1,45.0,162 M54,207.0A9.0,9.0,0,0,1,45.0,198 M36,207.0A9.0,9.0,0,0,1,45.0,216 M45.0,252A9.0,9.0,0,0,1,36,261.0 M45.0,270A9.0,9.0,0,0,1,54,261.0 M54,315.0A9.0,9.0,0,0,1,45.0,306 M36,315.0A9.0,9.0,0,0,1,45.0,324" stroke="#d6b786" stroke-width="8.1" fill="none" stroke-linecap="butt"/>
  <path d="M63.0,36A9.0,9.0,0,0,1,54,45.0 M63.0,54A9.0,9.0,0,0,1,72,45.0 M63.0,90A9.0,9.0,0,0,1,54,99.0 M63.0,108A9.0,9.0,0,0,1,72,99.0 M63.0,144A9.0,9.0,0,0,1,54,153.0 M63.0,162A9.0,9.0,0,0,1,72,153.0 M63.0,198A9.0,9.0,0,0,1,54,207.0 M63.0,216A9.0,9.0,0,0,1,72,207.0 M72,261.0A9.0,9.0,0,0,1,63.0,252 M54,261.0A9.0,9.0,0,0,1,63.0,270 M72,315.0A9.0,9.0,0,0,1,63.0,306 M54,315.0A9.0,9.0,0,0,1,63.0,324" stroke="#d7b987" stroke-width="8.1" fill="none" stroke-linecap="butt"/>
  <path d="M81.0,36A9.0,9.0,0,0,1,72,45.0 M81.0,54A9.0,9.0,0,0,1,90,45.0 M81.0,90A9.0,9.0,0,0,1,72,99.0 M81.0,108A9.0,9.0,0,0,1,90,99.0 M81.0,144A9.0,9.0,0,0,1,72,153.0 M81.0,162A9.0,9.0,0,0,1,90,153.0 M81.0,198A9.0,9.0,0,0,1,72,207.0 M81.0,216A9.0,9.0,0,0,1,90,207.0 M90,261.0A9.0,9.0,0,0,1,81.0,252 M72,261.0A9.0,9.0,0,0,1,81.0,270 M90,315.0A9.0,9.0,0,0,1,81.0,306 M72,315.0A9.0,9.0,0,0,1,81.0,324" stroke="#d8ba89" stroke-width="8.1" fill="none" stroke-linecap="butt"/>
  <path d="M99.0,36A9.0,9.0,0,0,1,90,45.0 M99.0,54A9.0,9.0,0,0,1,108,45.0 M108,99.0A9.0,9.0,0,0,1,99.0,90 M90,99.0A9.0,9.0,0,0,1,99.0,108 M108,153.0A9.0,9.0,0,0,1,99.0,144 M90,153.0A9.0,9.0,0,0,1,99.0,162 M99.0,198A9.0,9.0,0,0,1,90,207.0 M99.0,216A9.0,9.0,0,0,1,108,207.0 M108,261.0A9.0,9.0,0,0,1,99.0,252 M90,261.0A9.0,9.0,0,0,1,99.0,270 M99.0,306A9.0,9.0,0,0,1,90,315.0 M99.0,324A9.0,9.0,0,0,1,108,315.0" stroke="#d9bc8a" stroke-width="8.1" fill="none" stroke-linecap="butt"/>
  <path d="M126,45.0A9.0,9.0,0,0,1,117.0,36 M108,45.0A9.0,9.0,0,0,1,117.0,54 M126,99.0A9.0,9.0,0,0,1,117.0,90 M108,99.0A9.0,9.0,0,0,1,117.0,108 M126,153.0A9.0,9.0,0,0,1,117.0,144 M108,153.0A9.0,9.0,0,0,1,117.0,162 M126,207.0A9.0,9.0,0,0,1,117.0,198 M108,207.0A9.0,9.0,0,0,1,117.0,216 M117.0,252A9.0,9.0,0,0,1,108,261.0 M117.0,270A9.0,9.0,0,0,1,126,261.0 M126,315.0A9.0,9.0,0,0,1,117.0,306 M108,315.0A9.0,9.0,0,0,1,117.0,324" stroke="#dabe8c" stroke-width="8.1" fill="none" stroke-linecap="butt"/>
  <path d="M135.0,36A9.0,9.0,0,0,1,126,45.0 M135.0,54A9.0,9.0,0,0,1,144,45.0 M135.0,90A9.0,9.0,0,0,1,126,99.0 M135.0,108A9.0,9.0,0,0,1,144,99.0 M135.0,144A9.0,9.0,0,0,1,126,153.0 M135.0,162A9.0,9.0,0,0,1,144,153.0 M135.0,198A9.0,9.0,0,0,1,126,207.0 M135.0,216A9.0,9.0,0,0,1,144,207.0 M135.0,252A9.0,9.0,0,0,1,126,261.0 M135.0,270A9.0,9.0,0,0,1,144,261.0 M144,315.0A9.0,9.0,0,0,1,135.0,306 M126,315.0A9.0,9.0,0,0,1,135.0,324" stroke="#dbc08d" stroke-width="8.1" fill="none" stroke-linecap="butt"/>
  <path d="M153.0,36A9.0,9.0,0,0,1,144,45.0 M153.0,54A9.0,9.0,0,0,1,162,45.0 M162,99.0A9.0,9.0,0,0,1,153.0,90 M144,99.0A9.0,9.0,0,0,1,153.0,108 M153.0,198A9.0,9.0,0,0,1,144,207.0 M153.0,216A9.0,9.0,0,0,1,162,207.0 M162,261.0A9.0,9.0,0,0,1,153.0,252 M144,261.0A9.0,9.0,0,0,1,153.0,270 M162,315.0A9.0,9.0,0,0,1,153.0,306 M144,315.0A9.0,9.0,0,0,1,153.0,324" stroke="#dcc18f" stroke-width="8.1" fill="none" stroke-linecap="butt"/>
  <path d="M171.0,36A9.0,9.0,0,0,1,162,45.0 M171.0,54A9.0,9.0,0,0,1,180,45.0 M180,261.0A9.0,9.0,0,0,1,171.0,252 M162,261.0A9.0,9.0,0,0,1,171.0,270 M180,315.0A9.0,9.0,0,0,1,171.0,306 M162,315.0A9.0,9.0,0,0,1,171.0,324" stroke="#ddc390" stroke-width="8.1" fill="none" stroke-linecap="butt"/>
  <path d="M198,45.0A9.0,9.0,0,0,1,189.0,36 M180,45.0A9.0,9.0,0,0,1,189.0,54 M189.0,252A9.0,9.0,0,0,1,180,261.0 M189.0,270A9.0,9.0,0,0,1,198,261.0 M189.0,306A9.0,9.0,0,0,1,180,315.0 M189.0,324A9.0,9.0,0,0,1,198,315.0" stroke="#dec592" stroke-width="8.1" fill="none" stroke-linecap="butt"/>
  <path d="M216,45.0A9.0,9.0,0,0,1,207.0,36 M198,45.0A9.0,9.0,0,0,1,207.0,54 M207.0,252A9.0,9.0,0,0,1,198,261.0 M207.0,270A9.0,9.0,0,0,1,216,261.0 M207.0,306A9.0,9.0,0,0,1,198,315.0 M207.0,324A9.0,9.0,0,0,1,216,315.0" stroke="#dfc793" stroke-width="8.1" fill="none" stroke-linecap="butt"/>
  <path d="M234,45.0A9.0,9.0,0,0,1,225.0,36 M216,45.0A9.0,9.0,0,0,1,225.0,54 M225.0,90A9.0,9.0,0,0,1,216,99.0 M225.0,108A9.0,9.0,0,0,1,234,99.0 M225.0,198A9.0,9.0,0,0,1,216,207.0 M225.0,216A9.0,9.0,0,0,1,234,207.0 M234,261.0A9.0,9.0,0,0,1,225.0,252 M216,261.0A9.0,9.0,0,0,1,225.0,270 M234,315.0A9.0,9.0,0,0,1,225.0,306 M216,315.0A9.0,9.0,0,0,1,225.0,324" stroke="#e0c895" stroke-width="8.1" fill="none" stroke-linecap="butt"/>
  <path d="M252,45.0A9.0,9.0,0,0,1,243.0,36 M234,45.0A9.0,9.0,0,0,1,243.0,54 M252,99.0A9.0,9.0,0,0,1,243.0,90 M234,99.0A9.0,9.0,0,0,1,243.0,108 M243.0,198A9.0,9.0,0,0,1,234,207.0 M243.0,216A9.0,9.0,0,0,1,252,207.0 M243.0,306A9.0,9.0,0,0,1,234,315.0 M243.0,324A9.0,9.0,0,0,1,252,315.0" stroke="#e1ca96" stroke-width="8.1" fill="none" stroke-linecap="butt"/>
  <path d="M261.0,36A9.0,9.0,0,0,1,252,45.0 M261.0,54A9.0,9.0,0,0,1,270,45.0 M270,315.0A9.0,9.0,0,0,1,261.0,306 M252,315.0A9.0,9.0,0,0,1,261.0,324" stroke="#e2cc98" stroke-width="8.1" fill="none" stroke-linecap="butt"/>
  <path d="M288,45.0A9.0,9.0,0,0,1,279.0,36 M270,45.0A9.0,9.0,0,0,1,279.0,54 M279.0,306A9.0,9.0,0,0,1,270,315.0 M279.0,324A9.0,9.0,0,0,1,288,315.0" stroke="#e3ce99" stroke-width="8.1" fill="none" stroke-linecap="butt"/>
  <path d="M306,45.0A9.0,9.0,0,0,1,297.0,36 M288,45.0A9.0,9.0,0,0,1,297.0,54 M306,99.0A9.0,9.0,0,0,1,297.0,90 M288,99.0A9.0,9.0,0,0,1,297.0,108 M297.0,306A9.0,9.0,0,0,1,288,315.0 M297.0,324A9.0,9.0,0,0,1,306,315.0" stroke="#e4cf9b" stroke-width="8.1" fill="none" stroke-linecap="butt"/>
  <path d="M315.0,36A9.0,9.0,0,0,1,306,45.0 M315.0,54A9.0,9.0,0,0,1,324,45.0 M315.0,90A9.0,9.0,0,0,1,306,99.0 M315.0,108A9.0,9.0,0,0,1,324,99.0 M324,207.0A9.0,9.0,0,0,1,315.0,198 M306,207.0A9.0,9.0,0,0,1,315.0,216 M324,261.0A9.0,9.0,0,0,1,315.0,252 M306,261.0A9.0,9.0,0,0,1,315.0,270 M324,315.0A9.0,9.0,0,0,1,315.0,306 M306,315.0A9.0,9.0,0,0,1,315.0,324" stroke="#e5d19c" stroke-width="8.1" fill="none" stroke-linecap="butt"/>
  <path d="M342,45.0A9.0,9.0,0,0,1,333.0,36 M324,45.0A9.0,9.0,0,0,1,333.0,54 M333.0,90A9.0,9.0,0,0,1,324,99.0 M333.0,108A9.0,9.0,0,0,1,342,99.0 M342,153.0A9.0,9.0,0,0,1,333.0,144 M324,153.0A9.0,9.0,0,0,1,333.0,162 M333.0,198A9.0,9.0,0,0,1,324,207.0 M333.0,216A9.0,9.0,0,0,1,342,207.0 M333.0,252A9.0,9.0,0,0,1,324,261.0 M333.0,270A9.0,9.0,0,0,1,342,261.0 M342,315.0A9.0,9.0,0,0,1,333.0,306 M324,315.0A9.0,9.0,0,0,1,333.0,324" stroke="#e6d39e" stroke-width="8.1" fill="none" stroke-linecap="butt"/>
  <path d="M351.0,36A9.0,9.0,0,0,1,342,45.0 M351.0,54A9.0,9.0,0,0,1,360,45.0 M360,99.0A9.0,9.0,0,0,1,351.0,90 M342,99.0A9.0,9.0,0,0,1,351.0,108 M360,153.0A9.0,9.0,0,0,1,351.0,144 M342,153.0A9.0,9.0,0,0,1,351.0,162 M351.0,198A9.0,9.0,0,0,1,342,207.0 M351.0,216A9.0,9.0,0,0,1,360,207.0 M351.0,252A9.0,9.0,0,0,1,342,261.0 M351.0,270A9.0,9.0,0,0,1,360,261.0 M360,315.0A9.0,9.0,0,0,1,351.0,306 M342,315.0A9.0,9.0,0,0,1,351.0,324" stroke="#e8d5a0" stroke-width="8.1" fill="none" stroke-linecap="butt"/>
  <path d="M189.0,54A9.0,9.0,0,0,1,180,63.0 M189.0,72A9.0,9.0,0,0,1,198,63.0 M189.0,72A9.0,9.0,0,0,1,180,81.0 M189.0,90A9.0,9.0,0,0,1,198,81.0 M261.0,72A9.0,9.0,0,0,1,252,81.0 M261.0,90A9.0,9.0,0,0,1,270,81.0 M279.0,72A9.0,9.0,0,0,1,270,81.0 M279.0,90A9.0,9.0,0,0,1,288,81.0 M180,99.0A9.0,9.0,0,0,1,171.0,90 M162,99.0A9.0,9.0,0,0,1,171.0,108 M189.0,90A9.0,9.0,0,0,1,180,99.0 M189.0,108A9.0,9.0,0,0,1,198,99.0 M216,99.0A9.0,9.0,0,0,1,207.0,90 M198,99.0A9.0,9.0,0,0,1,207.0,108 M261.0,90A9.0,9.0,0,0,1,252,99.0 M261.0,108A9.0,9.0,0,0,1,270,99.0 M279.0,90A9.0,9.0,0,0,1,270,99.0 M279.0,108A9.0,9.0,0,0,1,288,99.0 M153.0,108A9.0,9.0,0,0,1,144,117.0 M153.0,126A9.0,9.0,0,0,1,162,117.0 M171.0,108A9.0,9.0,0,0,1,162,117.0 M171.0,126A9.0,9.0,0,0,1,180,117.0 M189.0,108A9.0,9.0,0,0,1,180,117.0 M189.0,126A9.0,9.0,0,0,1,198,117.0 M207.0,108A9.0,9.0,0,0,1,198,117.0 M207.0,126A9.0,9.0,0,0,1,216,117.0 M225.0,108A9.0,9.0,0,0,1,216,117.0 M225.0,126A9.0,9.0,0,0,1,234,117.0 M261.0,108A9.0,9.0,0,0,1,252,117.0 M261.0,126A9.0,9.0,0,0,1,270,117.0 M279.0,108A9.0,9.0,0,0,1,270,117.0 M279.0,126A9.0,9.0,0,0,1,288,117.0 M297.0,108A9.0,9.0,0,0,1,288,117.0 M297.0,126A9.0,9.0,0,0,1,306,117.0 M171.0,126A9.0,9.0,0,0,1,162,135.0 M171.0,144A9.0,9.0,0,0,1,180,135.0 M189.0,126A9.0,9.0,0,0,1,180,135.0 M189.0,144A9.0,9.0,0,0,1,198,135.0 M207.0,126A9.0,9.0,0,0,1,198,135.0 M207.0,144A9.0,9.0,0,0,1,216,135.0 M234,135.0A9.0,9.0,0,0,1,225.0,126 M216,135.0A9.0,9.0,0,0,1,225.0,144 M243.0,126A9.0,9.0,0,0,1,234,135.0 M243.0,144A9.0,9.0,0,0,1,252,135.0 M261.0,126A9.0,9.0,0,0,1,252,135.0 M261.0,144A9.0,9.0,0,0,1,270,135.0 M279.0,126A9.0,9.0,0,0,1,270,135.0 M279.0,144A9.0,9.0,0,0,1,288,135.0 M297.0,126A9.0,9.0,0,0,1,288,135.0 M297.0,144A9.0,9.0,0,0,1,306,135.0 M315.0,126A9.0,9.0,0,0,1,306,135.0 M315.0,144A9.0,9.0,0,0,1,324,135.0 M153.0,144A9.0,9.0,0,0,1,144,153.0 M153.0,162A9.0,9.0,0,0,1,162,153.0 M180,153.0A9.0,9.0,0,0,1,171.0,144 M162,153.0A9.0,9.0,0,0,1,171.0,162 M189.0,144A9.0,9.0,0,0,1,180,153.0 M189.0,162A9.0,9.0,0,0,1,198,153.0 M216,153.0A9.0,9.0,0,0,1,207.0,144 M198,153.0A9.0,9.0,0,0,1,207.0,162 M234,153.0A9.0,9.0,0,0,1,225.0,144 M216,153.0A9.0,9.0,0,0,1,225.0,162 M243.0,144A9.0,9.0,0,0,1,234,153.0 M243.0,162A9.0,9.0,0,0,1,252,153.0 M261.0,144A9.0,9.0,0,0,1,252,153.0 M261.0,162A9.0,9.0,0,0,1,270,153.0 M279.0,144A9.0,9.0,0,0,1,270,153.0 M279.0,162A9.0,9.0,0,0,1,288,153.0 M306,153.0A9.0,9.0,0,0,1,297.0,144 M288,153.0A9.0,9.0,0,0,1,297.0,162 M324,153.0A9.0,9.0,0,0,1,315.0,144 M306,153.0A9.0,9.0,0,0,1,315.0,162 M153.0,162A9.0,9.0,0,0,1,144,171.0 M153.0,180A9.0,9.0,0,0,1,162,171.0 M171.0,162A9.0,9.0,0,0,1,162,171.0 M171.0,180A9.0,9.0,0,0,1,180,171.0 M198,171.0A9.0,9.0,0,0,1,189.0,162 M180,171.0A9.0,9.0,0,0,1,189.0,180 M207.0,162A9.0,9.0,0,0,1,198,171.0 M207.0,180A9.0,9.0,0,0,1,216,171.0 M234,171.0A9.0,9.0,0,0,1,225.0,162 M216,171.0A9.0,9.0,0,0,1,225.0,180 M243.0,162A9.0,9.0,0,0,1,234,171.0 M243.0,180A9.0,9.0,0,0,1,252,171.0 M270,171.0A9.0,9.0,0,0,1,261.0,162 M252,171.0A9.0,9.0,0,0,1,261.0,180 M288,171.0A9.0,9.0,0,0,1,279.0,162 M270,171.0A9.0,9.0,0,0,1,279.0,180 M297.0,162A9.0,9.0,0,0,1,288,171.0 M297.0,180A9.0,9.0,0,0,1,306,171.0 M153.0,180A9.0,9.0,0,0,1,144,189.0 M153.0,198A9.0,9.0,0,0,1,162,189.0 M180,189.0A9.0,9.0,0,0,1,171.0,180 M162,189.0A9.0,9.0,0,0,1,171.0,198 M189.0,180A9.0,9.0,0,0,1,180,189.0 M189.0,198A9.0,9.0,0,0,1,198,189.0 M207.0,180A9.0,9.0,0,0,1,198,189.0 M207.0,198A9.0,9.0,0,0,1,216,189.0 M234,189.0A9.0,9.0,0,0,1,225.0,180 M216,189.0A9.0,9.0,0,0,1,225.0,198 M243.0,180A9.0,9.0,0,0,1,234,189.0 M243.0,198A9.0,9.0,0,0,1,252,189.0 M270,189.0A9.0,9.0,0,0,1,261.0,180 M252,189.0A9.0,9.0,0,0,1,261.0,198 M288,189.0A9.0,9.0,0,0,1,279.0,180 M270,189.0A9.0,9.0,0,0,1,279.0,198 M306,189.0A9.0,9.0,0,0,1,297.0,180 M288,189.0A9.0,9.0,0,0,1,297.0,198 M180,207.0A9.0,9.0,0,0,1,171.0,198 M162,207.0A9.0,9.0,0,0,1,171.0,216 M189.0,198A9.0,9.0,0,0,1,180,207.0 M189.0,216A9.0,9.0,0,0,1,198,207.0 M207.0,198A9.0,9.0,0,0,1,198,207.0 M207.0,216A9.0,9.0,0,0,1,216,207.0 M261.0,198A9.0,9.0,0,0,1,252,207.0 M261.0,216A9.0,9.0,0,0,1,270,207.0 M279.0,198A9.0,9.0,0,0,1,270,207.0 M279.0,216A9.0,9.0,0,0,1,288,207.0 M297.0,198A9.0,9.0,0,0,1,288,207.0 M297.0,216A9.0,9.0,0,0,1,306,207.0 M180,225.0A9.0,9.0,0,0,1,171.0,216 M162,225.0A9.0,9.0,0,0,1,171.0,234 M189.0,216A9.0,9.0,0,0,1,180,225.0 M189.0,234A9.0,9.0,0,0,1,198,225.0 M216,225.0A9.0,9.0,0,0,1,207.0,216 M198,225.0A9.0,9.0,0,0,1,207.0,234 M261.0,216A9.0,9.0,0,0,1,252,225.0 M261.0,234A9.0,9.0,0,0,1,270,225.0 M279.0,216A9.0,9.0,0,0,1,270,225.0 M279.0,234A9.0,9.0,0,0,1,288,225.0 M306,225.0A9.0,9.0,0,0,1,297.0,216 M288,225.0A9.0,9.0,0,0,1,297.0,234 M162,243.0A9.0,9.0,0,0,1,153.0,234 M144,243.0A9.0,9.0,0,0,1,153.0,252 M180,243.0A9.0,9.0,0,0,1,171.0,234 M162,243.0A9.0,9.0,0,0,1,171.0,252 M189.0,234A9.0,9.0,0,0,1,180,243.0 M189.0,252A9.0,9.0,0,0,1,198,243.0 M216,243.0A9.0,9.0,0,0,1,207.0,234 M198,243.0A9.0,9.0,0,0,1,207.0,252 M225.0,234A9.0,9.0,0,0,1,216,243.0 M225.0,252A9.0,9.0,0,0,1,234,243.0 M270,243.0A9.0,9.0,0,0,1,261.0,234 M252,243.0A9.0,9.0,0,0,1,261.0,252 M279.0,234A9.0,9.0,0,0,1,270,243.0 M279.0,252A9.0,9.0,0,0,1,288,243.0 M297.0,234A9.0,9.0,0,0,1,288,243.0 M297.0,252A9.0,9.0,0,0,1,306,243.0 M243.0,252A9.0,9.0,0,0,1,234,261.0 M243.0,270A9.0,9.0,0,0,1,252,261.0 M270,261.0A9.0,9.0,0,0,1,261.0,252 M252,261.0A9.0,9.0,0,0,1,261.0,270 M279.0,252A9.0,9.0,0,0,1,270,261.0 M279.0,270A9.0,9.0,0,0,1,288,261.0 M306,261.0A9.0,9.0,0,0,1,297.0,252 M288,261.0A9.0,9.0,0,0,1,297.0,270" stroke="#3d2b1f" stroke-width="8.1" fill="none" stroke-linecap="butt"/>
  <text x="180" y="388" text-anchor="middle" font-family="Georgia, serif" font-size="18" font-weight="bold" fill="#3d2b1f" direction="rtl">אֲשֶׁר תֵּלְכִי אֵלֵך</text>
</svg>