<svg xmlns="http://www.w3.org/2000/svg" width="400" height="400" viewBox="0 0 400 400">
  <rect width="400" height="400" fill="#F5EDD6"/>
  <!-- wheat #E8C85A -->
  <circle cx="60" cy="60" r="48" fill="#E8C85A" stroke="#C4A830" stroke-width="0.5"/>
  <circle cx="180" cy="30" r="26" fill="#E8C85A" stroke="#C4A830" stroke-width="0.5"/>
  <circle cx="310" cy="85" r="34" fill="#E8C85A" stroke="#C4A830" stroke-width="0.5"/>
  <circle cx="370" cy="310" r="28" fill="#E8C85A" stroke="#C4A830" stroke-width="0.5"/>
  <!-- barley #C8A030 -->
  <circle cx="150" cy="145" r="38" fill="#C8A030" stroke="#A88020" stroke-width="0.5"/>
  <circle cx="355" cy="160" r="22" fill="#C8A030" stroke="#A88020" stroke-width="0.5"/>
  <circle cx="85" cy="320" r="30" fill="#C8A030" stroke="#A88020" stroke-width="0.5"/>
  <circle cx="290" cy="355" r="36" fill="#C8A030" stroke="#A88020" stroke-width="0.5"/>
  <!-- grapes #6B2D8B -->
  <circle cx="255" cy="60" r="20" fill="#6B2D8B" stroke="#4A1D6A" stroke-width="0.5"/>
  <circle cx="50" cy="185" r="40" fill="#6B2D8B" stroke="#4A1D6A" stroke-width="0.5"/>
  <circle cx="330" cy="240" r="26" fill="#6B2D8B" stroke="#4A1D6A" stroke-width="0.5"/>
  <circle cx="200" cy="370" r="24" fill="#6B2D8B" stroke="#4A1D6A" stroke-width="0.5"/>
  <!-- figs #8B4513 -->
  <circle cx="380" cy="50" r="18" fill="#8B4513" stroke="#6A3000" stroke-width="0.5"/>
  <circle cx="220" cy="200" r="44" fill="#8B4513" stroke="#6A3000" stroke-width="0.5"/>
  <circle cx="95" cy="375" r="22" fill="#8B4513" stroke="#6A3000" stroke-width="0.5"/>
  <circle cx="370" cy="370" r="26" fill="#8B4513" stroke="#6A3000" stroke-width="0.5"/>
  <!-- pomegranates #C0392B -->
  <circle cx="120" cy="80" r="16" fill="#C0392B" stroke="#9B2020" stroke-width="0.5"/>
  <circle cx="330" cy="30" r="32" fill="#C0392B" stroke="#9B2020" stroke-width="0.5"/>
  <circle cx="20" cy="280" r="18" fill="#C0392B" stroke="#9B2020" stroke-width="0.5"/>
  <circle cx="165" cy="320" r="28" fill="#C0392B" stroke="#9B2020" stroke-width="0.5"/>
  <circle cx="355" cy="375" r="20" fill="#C0392B" stroke="#9B2020" stroke-width="0.5"/>
  <!-- olives #556B2F -->
  <circle cx="390" cy="200" r="8" fill="#556B2F" stroke="#3A5018" stroke-width="0.5"/>
  <circle cx="40" cy="100" r="32" fill="#556B2F" stroke="#3A5018" stroke-width="0.5"/>
  <circle cx="280" cy="160" r="14" fill="#556B2F" stroke="#3A5018" stroke-width="0.5"/>
  <circle cx="60" cy="240" r="20" fill="#556B2F" stroke="#3A5018" stroke-width="0.5"/>
  <circle cx="380" cy="280" r="12" fill="#556B2F" stroke="#3A5018" stroke-width="0.5"/>
  <circle cx="130" cy="350" r="16" fill="#556B2F" stroke="#3A5018" stroke-width="0.5"/>
  <!-- dates #8B6914 -->
  <circle cx="200" cy="100" r="22" fill="#8B6914" stroke="#6A5000" stroke-width="0.5"/>
  <circle cx="305" cy="300" r="38" fill="#8B6914" stroke="#6A5000" stroke-width="0.5"/>
  <circle cx="30" cy="365" r="28" fill="#8B6914" stroke="#6A5000" stroke-width="0.5"/>
  <circle cx="382" cy="120" r="14" fill="#8B6914" stroke="#6A5000" stroke-width="0.5"/>
</svg>
