<svg xmlns="http://www.w3.org/2000/svg" viewBox="0 0 200 200" width="200" height="200">
  <rect width="200" height="200" fill="#0D0B14"/>

  <!-- 7x7 grid of colour-coded cells representing the 49 Sefirah pairs -->
  <!-- Row colours: Chesed=#C8D8E8, Gevurah=#C04848, Tiferet=#D4A820,
       Netzach=#4A8A4A, Hod=#D4823A, Yesod=#4848A8, Malkhut=#6A3A7A -->

  <!-- Row 0: Chesed week -->
  <rect x="4"  y="4"  width="24" height="24" rx="2" fill="#1A1830" stroke="#C8D8E8" stroke-width="0.8" opacity="0.9"/>
  <circle cx="16" cy="16" r="7" fill="none" stroke="#C8D8E8" stroke-width="0.6" opacity="0.7"/>
  <line x1="16" y1="9" x2="16" y2="23" stroke="#C8D8E8" stroke-width="0.5" opacity="0.6"/>
  <line x1="9" y1="16" x2="23" y2="16" stroke="#C8D8E8" stroke-width="0.5" opacity="0.6"/>

  <rect x="30" y="4"  width="24" height="24" rx="2" fill="#1A1830" stroke="#C8D8E8" stroke-width="0.8" opacity="0.9"/>
  <polygon points="42,9 45.5,14.5 42,20 38.5,14.5" fill="#C8D8E880" stroke="#C04848" stroke-width="0.6"/>

  <rect x="56" y="4"  width="24" height="24" rx="2" fill="#1A1830" stroke="#C8D8E8" stroke-width="0.8" opacity="0.9"/>
  <circle cx="68" cy="16" r="6" fill="#C8D8E840" stroke="#D4A820" stroke-width="0.6"/>
  <line x1="68" y1="10" x2="68" y2="22" stroke="#D4A820" stroke-width="0.4" opacity="0.7"/>
  <line x1="62" y1="16" x2="74" y2="16" stroke="#D4A820" stroke-width="0.4" opacity="0.7"/>
  <line x1="63.8" y1="11.8" x2="72.2" y2="20.2" stroke="#D4A820" stroke-width="0.4" opacity="0.7"/>
  <line x1="72.2" y1="11.8" x2="63.8" y2="20.2" stroke="#D4A820" stroke-width="0.4" opacity="0.7"/>

  <rect x="82" y="4"  width="24" height="24" rx="2" fill="#1A1830" stroke="#C8D8E8" stroke-width="0.8" opacity="0.9"/>
  <circle cx="94" cy="16" r="6" fill="#C8D8E840" stroke="#4A8A4A" stroke-width="0.6"/>

  <rect x="108" y="4" width="24" height="24" rx="2" fill="#1A1830" stroke="#C8D8E8" stroke-width="0.8" opacity="0.9"/>
  <circle cx="120" cy="16" r="6" fill="#C8D8E840" stroke="#D4823A" stroke-width="0.6"/>

  <rect x="134" y="4" width="24" height="24" rx="2" fill="#1A1830" stroke="#C8D8E8" stroke-width="0.8" opacity="0.9"/>
  <circle cx="146" cy="16" r="6" fill="#C8D8E840" stroke="#4848A8" stroke-width="0.6"/>

  <rect x="160" y="4" width="24" height="24" rx="2" fill="#1A1830" stroke="#C8D8E8" stroke-width="0.8" opacity="0.9"/>
  <circle cx="172" cy="16" r="6" fill="#C8D8E840" stroke="#6A3A7A" stroke-width="0.6"/>

  <!-- Row 1: Gevurah week -->
  <rect x="4"  y="30" width="24" height="24" rx="2" fill="#1A1830" stroke="#C04848" stroke-width="0.8" opacity="0.9"/>
  <circle cx="16" cy="42" r="6" fill="#C0484840" stroke="#C8D8E8" stroke-width="0.6"/>
  <rect x="30" y="30" width="24" height="24" rx="2" fill="#1A1830" stroke="#C04848" stroke-width="0.8" opacity="0.9"/>
  <polygon points="42,36 46,42 42,48 38,42" fill="#C0484860" stroke="#C04848" stroke-width="0.6"/>
  <rect x="56" y="30" width="24" height="24" rx="2" fill="#1A1830" stroke="#C04848" stroke-width="0.8" opacity="0.9"/>
  <circle cx="68" cy="42" r="6" fill="#C0484840" stroke="#D4A820" stroke-width="0.6"/>
  <rect x="82" y="30" width="24" height="24" rx="2" fill="#1A1830" stroke="#C04848" stroke-width="0.8" opacity="0.9"/>
  <circle cx="94" cy="42" r="6" fill="#C0484840" stroke="#4A8A4A" stroke-width="0.6"/>
  <rect x="108" y="30" width="24" height="24" rx="2" fill="#1A1830" stroke="#C04848" stroke-width="0.8" opacity="0.9"/>
  <circle cx="120" cy="42" r="6" fill="#C0484840" stroke="#D4823A" stroke-width="0.6"/>
  <rect x="134" y="30" width="24" height="24" rx="2" fill="#1A1830" stroke="#C04848" stroke-width="0.8" opacity="0.9"/>
  <circle cx="146" cy="42" r="6" fill="#C0484840" stroke="#4848A8" stroke-width="0.6"/>
  <rect x="160" y="30" width="24" height="24" rx="2" fill="#1A1830" stroke="#C04848" stroke-width="0.8" opacity="0.9"/>
  <circle cx="172" cy="42" r="6" fill="#C0484840" stroke="#6A3A7A" stroke-width="0.6"/>

  <!-- Row 2: Tiferet week -->
  <rect x="4"  y="56" width="24" height="24" rx="2" fill="#1A1830" stroke="#D4A820" stroke-width="0.8" opacity="0.9"/>
  <circle cx="16" cy="68" r="6" fill="#D4A82040" stroke="#C8D8E8" stroke-width="0.6"/>
  <rect x="30" y="56" width="24" height="24" rx="2" fill="#1A1830" stroke="#D4A820" stroke-width="0.8" opacity="0.9"/>
  <circle cx="42" cy="68" r="6" fill="#D4A82040" stroke="#C04848" stroke-width="0.6"/>
  <rect x="56" y="56" width="24" height="24" rx="2" fill="#1A1830" stroke="#D4A820" stroke-width="0.8" opacity="0.9"/>
  <circle cx="68" cy="68" r="6" fill="#D4A82060" stroke="#D4A820" stroke-width="0.7"/>
  <rect x="82" y="56" width="24" height="24" rx="2" fill="#1A1830" stroke="#D4A820" stroke-width="0.8" opacity="0.9"/>
  <circle cx="94" cy="68" r="6" fill="#D4A82040" stroke="#4A8A4A" stroke-width="0.6"/>
  <rect x="108" y="56" width="24" height="24" rx="2" fill="#1A1830" stroke="#D4A820" stroke-width="0.8" opacity="0.9"/>
  <circle cx="120" cy="68" r="6" fill="#D4A82040" stroke="#D4823A" stroke-width="0.6"/>
  <rect x="134" y="56" width="24" height="24" rx="2" fill="#1A1830" stroke="#D4A820" stroke-width="0.8" opacity="0.9"/>
  <circle cx="146" cy="68" r="6" fill="#D4A82040" stroke="#4848A8" stroke-width="0.6"/>
  <rect x="160" y="56" width="24" height="24" rx="2" fill="#1A1830" stroke="#D4A820" stroke-width="0.8" opacity="0.9"/>
  <circle cx="172" cy="68" r="6" fill="#D4A82040" stroke="#6A3A7A" stroke-width="0.6"/>

  <!-- Row 3: Netzach week -->
  <rect x="4"  y="82" width="24" height="24" rx="2" fill="#1A1830" stroke="#4A8A4A" stroke-width="0.8" opacity="0.9"/>
  <circle cx="16" cy="94" r="6" fill="#4A8A4A40" stroke="#C8D8E8" stroke-width="0.6"/>
  <rect x="30" y="82" width="24" height="24" rx="2" fill="#1A1830" stroke="#4A8A4A" stroke-width="0.8" opacity="0.9"/>
  <circle cx="42" cy="94" r="6" fill="#4A8A4A40" stroke="#C04848" stroke-width="0.6"/>
  <rect x="56" y="82" width="24" height="24" rx="2" fill="#1A1830" stroke="#4A8A4A" stroke-width="0.8" opacity="0.9"/>
  <circle cx="68" cy="94" r="6" fill="#4A8A4A40" stroke="#D4A820" stroke-width="0.6"/>
  <rect x="82" y="82" width="24" height="24" rx="2" fill="#1A1830" stroke="#4A8A4A" stroke-width="0.8" opacity="0.9"/>
  <circle cx="94" cy="94" r="6" fill="#4A8A4A60" stroke="#4A8A4A" stroke-width="0.7"/>
  <rect x="108" y="82" width="24" height="24" rx="2" fill="#1A1830" stroke="#4A8A4A" stroke-width="0.8" opacity="0.9"/>
  <circle cx="120" cy="94" r="6" fill="#4A8A4A40" stroke="#D4823A" stroke-width="0.6"/>
  <rect x="134" y="82" width="24" height="24" rx="2" fill="#1A1830" stroke="#4A8A4A" stroke-width="0.8" opacity="0.9"/>
  <circle cx="146" cy="94" r="6" fill="#4A8A4A40" stroke="#4848A8" stroke-width="0.6"/>
  <rect x="160" y="82" width="24" height="24" rx="2" fill="#1A1830" stroke="#4A8A4A" stroke-width="0.8" opacity="0.9"/>
  <circle cx="172" cy="94" r="6" fill="#4A8A4A40" stroke="#6A3A7A" stroke-width="0.6"/>

  <!-- Row 4: Hod week -->
  <rect x="4"  y="108" width="24" height="24" rx="2" fill="#1A1830" stroke="#D4823A" stroke-width="0.8" opacity="0.9"/>
  <circle cx="16" cy="120" r="6" fill="#D4823A40" stroke="#C8D8E8" stroke-width="0.6"/>
  <rect x="30" y="108" width="24" height="24" rx="2" fill="#1A1830" stroke="#D4823A" stroke-width="0.8" opacity="0.9"/>
  <circle cx="42" cy="120" r="6" fill="#D4823A40" stroke="#C04848" stroke-width="0.6"/>
  <rect x="56" y="108" width="24" height="24" rx="2" fill="#1A1830" stroke="#D4823A" stroke-width="0.8" opacity="0.9"/>
  <circle cx="68" cy="120" r="6" fill="#D4823A40" stroke="#D4A820" stroke-width="0.6"/>
  <rect x="82" y="108" width="24" height="24" rx="2" fill="#1A1830" stroke="#D4823A" stroke-width="0.8" opacity="0.9"/>
  <circle cx="94" cy="120" r="6" fill="#D4823A40" stroke="#4A8A4A" stroke-width="0.6"/>
  <rect x="108" y="108" width="24" height="24" rx="2" fill="#1A1830" stroke="#D4823A" stroke-width="0.8" opacity="0.9"/>
  <circle cx="120" cy="120" r="6" fill="#D4823A60" stroke="#D4823A" stroke-width="0.7"/>
  <rect x="134" y="108" width="24" height="24" rx="2" fill="#1A1830" stroke="#D4823A" stroke-width="0.8" opacity="0.9"/>
  <circle cx="146" cy="120" r="6" fill="#D4823A40" stroke="#4848A8" stroke-width="0.6"/>
  <rect x="160" y="108" width="24" height="24" rx="2" fill="#1A1830" stroke="#D4823A" stroke-width="0.8" opacity="0.9"/>
  <circle cx="172" cy="120" r="6" fill="#D4823A40" stroke="#6A3A7A" stroke-width="0.6"/>

  <!-- Row 5: Yesod week -->
  <rect x="4"  y="134" width="24" height="24" rx="2" fill="#1A1830" stroke="#4848A8" stroke-width="0.8" opacity="0.9"/>
  <circle cx="16" cy="146" r="6" fill="#4848A840" stroke="#C8D8E8" stroke-width="0.6"/>
  <rect x="30" y="134" width="24" height="24" rx="2" fill="#1A1830" stroke="#4848A8" stroke-width="0.8" opacity="0.9"/>
  <circle cx="42" cy="146" r="6" fill="#4848A840" stroke="#C04848" stroke-width="0.6"/>
  <rect x="56" y="134" width="24" height="24" rx="2" fill="#1A1830" stroke="#4848A8" stroke-width="0.8" opacity="0.9"/>
  <circle cx="68" cy="146" r="6" fill="#4848A840" stroke="#D4A820" stroke-width="0.6"/>
  <rect x="82" y="134" width="24" height="24" rx="2" fill="#1A1830" stroke="#4848A8" stroke-width="0.8" opacity="0.9"/>
  <circle cx="94" cy="146" r="6" fill="#4848A840" stroke="#4A8A4A" stroke-width="0.6"/>
  <rect x="108" y="134" width="24" height="24" rx="2" fill="#1A1830" stroke="#4848A8" stroke-width="0.8" opacity="0.9"/>
  <circle cx="120" cy="146" r="6" fill="#4848A840" stroke="#D4823A" stroke-width="0.6"/>
  <rect x="134" y="134" width="24" height="24" rx="2" fill="#1A1830" stroke="#4848A8" stroke-width="0.8" opacity="0.9"/>
  <circle cx="146" cy="146" r="6" fill="#4848A860" stroke="#4848A8" stroke-width="0.7"/>
  <rect x="160" y="134" width="24" height="24" rx="2" fill="#1A1830" stroke="#4848A8" stroke-width="0.8" opacity="0.9"/>
  <circle cx="172" cy="146" r="6" fill="#4848A840" stroke="#6A3A7A" stroke-width="0.6"/>

  <!-- Row 6: Malkhut week -->
  <rect x="4"  y="160" width="24" height="24" rx="2" fill="#1A1830" stroke="#6A3A7A" stroke-width="0.8" opacity="0.9"/>
  <circle cx="16" cy="172" r="6" fill="#6A3A7A40" stroke="#C8D8E8" stroke-width="0.6"/>
  <rect x="30" y="160" width="24" height="24" rx="2" fill="#1A1830" stroke="#6A3A7A" stroke-width="0.8" opacity="0.9"/>
  <circle cx="42" cy="172" r="6" fill="#6A3A7A40" stroke="#C04848" stroke-width="0.6"/>
  <rect x="56" y="160" width="24" height="24" rx="2" fill="#1A1830" stroke="#6A3A7A" stroke-width="0.8" opacity="0.9"/>
  <circle cx="68" cy="172" r="6" fill="#6A3A7A40" stroke="#D4A820" stroke-width="0.6"/>
  <rect x="82" y="160" width="24" height="24" rx="2" fill="#1A1830" stroke="#6A3A7A" stroke-width="0.8" opacity="0.9"/>
  <circle cx="94" cy="172" r="6" fill="#6A3A7A40" stroke="#4A8A4A" stroke-width="0.6"/>
  <rect x="108" y="160" width="24" height="24" rx="2" fill="#1A1830" stroke="#6A3A7A" stroke-width="0.8" opacity="0.9"/>
  <circle cx="120" cy="172" r="6" fill="#6A3A7A40" stroke="#D4823A" stroke-width="0.6"/>
  <rect x="134" y="160" width="24" height="24" rx="2" fill="#1A1830" stroke="#6A3A7A" stroke-width="0.8" opacity="0.9"/>
  <circle cx="146" cy="172" r="6" fill="#6A3A7A40" stroke="#4848A8" stroke-width="0.6"/>
  <rect x="160" y="160" width="24" height="24" rx="2" fill="#1A1830" stroke="#6A3A7A" stroke-width="0.8" opacity="0.9"/>
  <circle cx="172" cy="172" r="6" fill="#6A3A7A60" stroke="#6A3A7A" stroke-width="0.7"/>

  <!-- Shavuot gold star below grid, outside the 7x7 -->
  <circle cx="100" cy="194" r="6" fill="#FFF8B0" opacity="0.9"/>
  <line x1="100" y1="188" x2="100" y2="200" stroke="#FFD730" stroke-width="1" opacity="0.8"/>
  <line x1="94"  y1="194" x2="106" y2="194" stroke="#FFD730" stroke-width="1" opacity="0.8"/>
  <line x1="95.8" y1="189.8" x2="104.2" y2="198.2" stroke="#FFD730" stroke-width="0.8" opacity="0.7"/>
  <line x1="104.2" y1="189.8" x2="95.8" y2="198.2" stroke="#FFD730" stroke-width="0.8" opacity="0.7"/>
</svg>
