<svg xmlns="http://www.w3.org/2000/svg" viewBox="0 0 400 400" width="400" height="400">
<rect width="400" height="400" fill="#050514"/>
<path d="M 255.1,324.6 L 249.5,200.5 L 290.8,112.8 L 237.4,167.4 L 63.6,70.1 L 171.0,330.9 L 88.9,171.6 L 335.5,316.5 L 231.1,100.9 L 271.3,138.0 L 131.7,152.5 L 81.5,164.5 L 189.4,334.3 L 173.8,156.3 L 358.2,271.7 L 182.7,42.4 L 226.3,191.4 L 67.3,159.3 L 145.8,246.5 L 220.5,286.8 L 242.2,136.8 L 318.7,218.4 L 127.9,40.7 L 186.6,252.8 L 62.0,170.6 L 229.3,290.3 L 239.1,208.2 L 270.3,130.5 L 238.9,179.3 L 95.1,88.1 L 172.4,296.3 L 106.4,172.6 L 296.7,290.8 L 229.7,129.7 L 257.5,148.1 L 154.9,163.1 L 102.0,159.3 L 185.5,303.2 L 172.4,162.7 L 321.4,260.4 L 194.3,79.7 L 222.1,187.6 L 99.8,164.8 L 147.4,225.0 L 211.4,270.5 L 228.5,149.0 L 296.9,219.8 L 150.1,72.5 L 188.6,234.7 L 90.3,172.0 L 211.8,263.9 L 229.8,211.8 L 253.9,144.0 L 237.6,187.4 L 119.9,104.5 L 174.7,270.0 L 121.5,173.9 L 267.6,269.5 L 226.6,150.2 L 246.3,156.3 L 171.2,171.5 L 119.7,157.8 L 183.5,278.4 L 172.5,167.6 L 292.2,249.5 L 201.2,108.1 L 218.6,185.6 L 124.6,169.9 L 151.0,210.1 L 204.7,256.3 L 218.2,158.1 L 278.1,219.2 L 166.1,98.1 L 190.6,221.6 L 112.9,173.9 L 200.2,243.7 L 221.9,212.7 L 240.9,154.3 L 234.6,192.7 L 139.2,119.1 L 177.3,250.1 L 134.3,175.5 L 245.9,252.1 L 222.8,164.7 L 236.9,163.0 L 182.5,177.9 L 134.8,158.7 L 182.7,258.9 L 173.5,171.5 L 269.2,239.7 L 205.0,129.7 L 215.6,184.7 L 143.5,174.3 L 155.7,199.9 L 199.7,244.2 L 210.6,164.9 L 262.3,217.2 L 177.4,118.5 L 192.3,212.2 L 131.0,176.1 L 192.9,228.5 L 215.3,212.0 L 230.6,162.1 L 230.8,196.0 L 154.2,131.8 L 179.9,235.0 L 145.1,177.2 L 229.9,238.1 L 218.7,174.7 L 229.2,168.4 L 190.1,182.8 L 147.3,160.9 L 182.9,243.5 L 175.0,174.7 L 251.2,230.9 L 206.7,145.9 L 213.0,184.4 L 157.7,178.1 L 160.8,193.1 L 196.3,234.1 L 205.0,170.2 L 249.1,214.6 L 185.3,134.8 L 193.8,205.5 L 145.3,178.4 L 188.6,217.0 L 210.0,210.4 L 222.4,168.2 L 226.6,197.8 L 165.6,142.6 L 182.5,223.6 L 154.2,178.9 L 218.3,226.9 L 214.7,181.6 L 222.9,172.7 L 195.1,186.3 L 157.7,163.8 L 183.6,231.4 L 176.8,177.2 L 237.2,223.3 L 207.0,158.1 L 210.6,184.6 L 168.4,181.2 L 165.8,188.8 L 194.0,225.6 L 200.9,174.2 L 238.1,211.7 L 190.7,147.5 L 194.9,200.7 L 156.6,180.4 L 186.4,208.6 L 205.7,208.3 L 215.9,172.8 L 222.4,198.6 L 174.2,151.7 L 184.9,215.1 L 161.9,180.5 L 210.0,218.0 L 211.1,186.1 L 217.6,176.1 L 198.1,188.8 L 166.1,166.9 L 184.7,222.0 L 178.8,179.4 L 226.4,216.9 L 206.5,167.2 L 208.5,185.0 L 176.4,183.8 L 170.5,186.2 L 192.5,218.6 L 198.0,177.3 L 229.1,208.8 L 194.2,157.5 L 195.8,197.3 L 165.5,182.3 L 185.5,202.4 L 202.4,206.0 L 210.9,176.4 L 218.4,198.6 L 180.6,159.3 L 186.9,208.7 L 168.2,182.0 L 204.1,211.1 L 207.9,189.1 L 213.2,178.8 L 199.9,190.4 L 172.8,170.1 L 185.9,214.7 L 180.7,181.2 L 218.1,211.5 L 205.5,173.8 L 206.6,185.5 L 182.3,185.8 L 174.7,184.8 L 191.7,212.9 L 196.0,179.8 L 221.8,206.0 L 196.4,165.3 L 196.4,194.9 L 172.5,183.9" stroke="#1a237e" stroke-opacity="0.5" stroke-width="1.4" fill="none"/>
<path d="M 329.6,341.0 L 231.6,107.6 L 297.9,141.3 L 142.6,133.8 L 78.5,150.4 L 171.0,336.3 L 154.1,165.5 L 365.1,293.1 L 194.2,37.9 L 250.2,186.1 L 62.7,138.5 L 134.1,245.5 L 200.3,295.8 L 238.2,150.6 L 335.1,228.5 L 141.9,27.1 L 198.2,244.3 L 44.5,156.3 L 216.5,302.0 L 226.6,218.6 L 281.9,141.4 L 256.5,175.9 L 103.4,71.8 L 169.2,290.7 L 84.4,169.0 L 290.4,309.1 L 228.9,135.3 L 277.9,151.9 L 165.1,149.9 L 100.8,147.8 L 171.7,303.9 L 155.7,168.5 L 325.4,277.3 L 202.8,77.1 L 241.5,184.6 L 98.0,148.8 L 138.5,223.1 L 195.3,276.7 L 223.6,159.1 L 309.0,228.8 L 161.5,62.8 L 199.1,228.7 L 77.7,160.1 L 201.1,271.8 L 219.1,219.5 L 261.6,152.7 L 251.8,186.2 L 127.4,92.1 L 173.4,265.6 L 104.3,169.9 L 261.4,283.2 L 225.0,154.8 L 261.7,160.1 L 180.5,162.2 L 119.8,148.5 L 173.3,278.4 L 158.5,171.0 L 294.1,262.9 L 207.5,106.8 L 234.3,184.1 L 124.7,157.7 L 144.5,207.7 L 191.8,260.5 L 213.0,165.4 L 287.0,227.0 L 175.3,91.2 L 199.8,217.5 L 104.1,164.2 L 191.5,248.9 L 212.7,218.4 L 245.8,161.1 L 246.0,192.8 L 145.9,109.7 L 177.3,246.6 L 121.0,171.5 L 240.2,262.2 L 220.7,168.4 L 248.6,166.5 L 190.7,171.6 L 135.6,151.1 L 175.3,258.5 L 161.8,173.3 L 269.7,250.1 L 209.5,129.1 L 228.1,184.2 L 144.7,165.2 L 151.0,197.4 L 189.5,247.0 L 205.4,170.1 L 268.6,223.9 L 184.8,113.7 L 200.3,209.5 L 124.9,168.3 L 185.9,231.8 L 207.5,216.2 L 233.4,167.5 L 239.7,196.9 L 160.0,124.7 L 180.8,232.4 L 135.0,173.4 L 224.8,245.5 L 216.4,177.7 L 237.9,171.5 L 197.2,178.5 L 148.7,154.9 L 177.5,243.0 L 165.5,175.3 L 250.7,239.0 L 209.8,145.8 L 222.9,184.6 L 159.6,171.3 L 157.5,190.7 L 188.3,235.9 L 200.1,173.7 L 253.5,220.2 L 191.2,131.3 L 200.7,203.7 L 141.3,172.1 L 183.0,219.1 L 203.4,213.4 L 223.8,172.3 L 233.5,199.1 L 170.6,137.3 L 183.9,221.7 L 146.5,175.5 L 213.8,232.3 L 212.3,183.9 L 229.2,175.3 L 201.1,183.5 L 159.3,159.0 L 179.9,230.9 L 169.1,177.2 L 236.2,229.6 L 209.1,158.2 L 218.5,185.1 L 170.6,176.2 L 163.6,186.6 L 187.7,226.8 L 196.5,176.6 L 241.1,216.3 L 195.3,145.1 L 200.8,199.6 L 154.1,175.5 L 181.9,209.8 L 200.3,210.5 L 216.4,175.9 L 227.7,200.0 L 178.4,147.8 L 186.5,213.7 L 156.1,177.5 L 206.0,221.9 L 208.8,187.9 L 222.2,178.3 L 203.2,187.0 L 167.8,163.2 L 182.1,221.5 L 172.6,179.0 L 225.1,221.7 L 207.8,167.4 L 214.7,185.7 L 178.6,180.1 L 169.0,184.3 L 187.7,219.4 L 194.1,178.9 L 231.1,212.5 L 197.8,155.9 L 200.7,196.7 L 164.1,178.4 L 182.0,203.0 L 197.9,207.6 L 210.7,178.7 L 222.5,200.1 L 184.2,156.4 L 188.6,207.7 L 163.9,179.4 L 200.7,213.8 L 205.7,190.5 L 216.5,180.7 L 204.0,189.4 L 174.5,167.2 L 184.2,214.3 L 175.8,180.5 L 216.7,215.1 L 206.2,174.1 L 211.4,186.2 L 184.4,183.1 L 173.9,183.2 L 188.0,213.4 L 192.6,180.7 L 223.0,209.0 L 199.1,164.2 L 200.5,194.6 L 171.8,180.9 L 182.8,198.2 L 196.2,205.0 L 206.4,180.9 L 217.8,199.7 L 188.3,163.4 L 190.4,203.2 L 170.3,181.2" stroke="#c9a84c" stroke-opacity="0.5" stroke-width="1.4" fill="none"/>
<path d="M 368.0,317.0 L 203.9,36.7 L 277.5,182.9 L 61.8,115.3 L 124.7,241.4 L 177.5,302.5 L 230.3,166.0 L 349.2,242.0 L 157.5,15.6 L 214.3,235.3 L 29.1,138.3 L 203.0,311.5 L 209.8,229.0 L 291.1,155.5 L 274.4,174.9 L 115.3,55.6 L 169.3,282.7 L 62.0,162.3 L 281.3,327.4 L 224.3,142.7 L 298.4,158.9 L 177.8,137.1 L 103.4,134.5 L 158.7,301.6 L 136.5,173.0 L 326.0,296.0 L 209.7,77.0 L 263.4,183.5 L 99.3,131.2 L 131.8,218.8 L 177.3,280.9 L 215.5,170.1 L 319.1,240.4 L 173.9,54.8 L 213.0,222.6 L 67.2,145.5 L 190.2,278.0 L 205.0,227.0 L 267.1,163.8 L 266.0,186.9 L 137.7,80.0 L 174.9,259.4 L 87.1,163.4 L 253.2,296.6 L 220.3,160.7 L 276.9,166.4 L 191.5,153.5 L 122.8,138.0 L 164.0,276.2 L 142.6,173.2 L 293.3,277.4 L 212.2,107.3 L 251.6,184.2 L 127.2,144.5 L 139.8,203.6 L 177.7,263.1 L 205.3,173.2 L 294.1,236.7 L 185.0,85.7 L 211.8,213.4 L 97.0,152.6 L 182.8,252.8 L 201.0,223.8 L 248.7,169.7 L 257.1,194.5 L 154.6,100.8 L 179.7,242.0 L 107.9,165.5 L 232.9,272.0 L 216.0,172.9 L 259.7,171.9 L 200.1,165.8 L 138.9,142.9 L 168.8,256.4 L 148.9,174.0 L 268.0,261.3 L 212.6,129.9 L 241.8,185.0 L 147.9,155.4 L 147.9,193.6 L 178.6,248.6 L 198.3,175.5 L 273.4,232.0 L 192.4,109.9 L 210.5,206.9 L 120.4,159.0 L 179.0,234.1 L 197.8,219.9 L 234.6,174.0 L 248.3,199.0 L 167.3,118.1 L 183.7,229.0 L 125.1,168.1 L 218.5,252.5 L 212.0,181.1 L 246.0,176.0 L 205.2,174.7 L 151.9,148.4 L 173.1,241.2 L 155.0,175.1 L 248.6,247.6 L 211.7,146.7 L 233.7,185.8 L 163.0,164.0 L 155.6,187.4 L 179.8,236.7 L 193.7,177.4 L 256.6,226.8 L 197.0,128.8 L 209.1,202.2 L 138.6,164.8 L 177.7,220.3 L 195.5,216.0 L 223.9,177.2 L 240.1,201.4 L 176.7,132.4 L 186.9,219.3 L 139.2,170.9 L 208.4,237.3 L 208.3,186.5 L 235.0,179.1 L 207.7,181.2 L 162.4,154.0 L 177.0,229.4 L 160.8,176.5 L 233.9,236.2 L 210.1,159.1 L 226.8,186.5 L 173.9,170.9 L 162.5,183.8 L 181.3,227.2 L 190.9,179.0 L 243.0,221.7 L 199.7,143.4 L 207.8,198.8 L 152.7,169.8 L 177.9,210.3 L 193.8,212.3 L 215.7,179.6 L 232.7,202.2 L 183.5,144.2 L 189.4,212.0 L 150.7,173.6 L 201.6,225.5 L 205.2,189.9 L 226.2,181.4 L 208.6,185.7 L 170.6,159.4 L 180.3,220.3 L 165.9,177.9 L 222.7,226.7 L 208.1,168.1 L 221.1,187.0 L 181.8,176.3 L 168.6,181.9 L 182.8,219.5 L 189.3,180.4 L 232.1,216.8 L 201.1,154.8 L 206.5,196.4 L 163.5,174.0 L 179.0,203.2 L 192.6,208.8 L 209.6,181.4 L 226.2,202.2 L 188.3,153.7 L 191.4,206.5 L 160.0,176.2 L 197.0,216.3 L 202.5,191.9 L 219.2,183.1 L 208.4,188.8 L 177.1,164.2 L 183.2,213.3 L 170.6,179.4 L 214.4,218.9 L 206.2,174.8 L 216.4,187.5 L 187.3,180.4 L 173.8,181.2 L 184.3,213.3 L 188.5,181.6 L 223.4,212.5 L 201.6,163.4 L 205.2,194.6 L 171.8,177.6 L 180.6,198.1 L 191.9,205.8 L 205.1,182.8 L 220.5,201.5 L 191.6,161.5 L 192.9,202.4 L 167.6,178.5 L 194.2,209.4 L 200.4,193.0 L 213.7,184.4 L 207.6,190.8 L 182.1,168.5 L 185.6,208.0 L 174.6,180.8" stroke="#6a1b9a" stroke-opacity="0.45" stroke-width="1.4" fill="none"/>
<path d="M 360.1,258.9 L 173.9,6.9 L 234.9,226.4 L 16.7,116.8 L 189.6,318.5 L 188.6,238.6 L 297.0,172.9 L 291.9,177.0 L 130.8,40.1 L 173.3,272.3 L 40.0,152.0 L 269.7,345.1 L 215.3,151.7 L 318.2,169.7 L 192.5,125.4 L 110.1,120.0 L 147.2,296.2 L 115.2,175.7 L 323.1,316.1 L 214.1,79.5 L 287.1,184.8 L 103.7,112.5 L 127.9,212.1 L 157.9,282.6 L 204.2,181.6 L 326.5,254.5 L 186.6,49.0 L 230.5,216.8 L 59.1,128.3 L 179.7,282.1 L 187.6,233.7 L 269.8,177.1 L 279.6,190.0 L 150.5,68.7 L 179.7,251.8 L 70.5,154.2 L 243.1,309.3 L 212.0,167.4 L 291.3,175.5 L 204.0,145.8 L 129.2,126.7 L 156.2,271.6 L 125.4,173.9 L 289.7,292.8 L 214.7,109.6 L 270.3,186.4 L 132.2,130.7 L 137.6,197.8 L 162.8,263.7 L 195.0,181.1 L 298.8,248.3 L 194.8,81.9 L 226.4,209.9 L 92.1,139.0 L 174.7,255.0 L 186.8,228.3 L 249.3,179.8 L 267.5,198.0 L 165.2,92.5 L 184.8,236.5 L 95.6,157.4 L 224.3,281.1 L 208.5,177.9 L 270.0,179.5 L 210.6,160.8 L 144.8,134.2 L 163.7,252.7 L 135.1,173.4 L 264.1,273.1 L 213.7,132.0 L 256.3,187.6 L 152.9,145.2 L 146.9,188.7 L 167.3,248.5 L 189.2,180.8 L 276.3,241.3 L 199.8,107.5 L 222.6,204.9 L 117.7,148.4 L 172.9,235.1 L 186.3,222.9 L 233.9,181.6 L 256.2,202.6 L 176.0,112.1 L 188.6,225.1 L 116.1,161.2 L 211.3,259.0 L 205.3,184.8 L 253.1,182.2 L 213.7,171.8 L 157.2,141.8 L 170.0,238.2 L 144.1,173.8 L 244.8,256.5 L 211.9,148.4 L 244.9,188.4 L 167.9,156.7 L 155.4,183.3 L 171.3,236.3 L 185.8,180.8 L 258.1,234.3 L 202.5,127.3 L 219.1,201.2 L 137.4,156.6 L 173.1,220.6 L 186.2,218.0 L 222.3,182.8 L 246.0,204.7 L 183.7,128.1 L 191.6,216.6 L 132.7,165.1 L 202.5,241.8 L 202.5,189.2 L 239.9,184.0 L 214.7,179.5 L 167.1,149.0 L 175.2,227.0 L 152.1,174.8 L 230.2,242.8 L 209.6,160.5 L 235.4,188.9 L 178.4,165.6 L 162.9,180.4 L 174.9,226.6 L 184.2,181.1 L 243.5,227.7 L 203.8,142.5 L 216.0,198.5 L 152.5,163.5 L 174.5,210.2 L 186.3,213.5 L 213.8,183.7 L 237.0,205.3 L 189.1,141.1 L 193.7,210.2 L 146.1,168.8 L 196.8,228.6 L 200.1,191.8 L 229.4,185.3 L 214.2,184.9 L 174.7,155.5 L 179.5,218.5 L 159.2,176.2 L 219.4,231.7 L 207.3,169.3 L 227.6,189.2 L 185.8,172.5 L 169.4,179.1 L 178.1,218.8 L 183.6,181.6 L 232.0,221.6 L 204.0,154.2 L 213.1,196.5 L 163.9,169.2 L 176.5,202.8 L 186.7,209.5 L 207.5,184.3 L 229.2,204.8 L 192.8,151.5 L 195.2,205.3 L 156.8,172.3 L 193.2,218.5 L 198.2,193.2 L 221.3,186.2 L 212.9,188.5 L 180.6,161.3 L 183.0,212.0 L 165.4,177.7 L 211.5,222.6 L 205.1,175.7 L 221.2,189.4 L 190.8,177.7 L 174.8,179.0 L 180.9,212.7 L 183.8,182.2 L 223.0,216.2 L 203.6,163.1 L 210.5,194.9 L 172.6,173.9 L 178.9,197.6 L 187.3,206.2 L 203.0,184.9 L 222.6,203.8 L 195.2,159.9 L 196.3,201.7 L 165.4,175.4 L 191.1,210.8 L 196.8,193.9 L 214.9,186.8 L 211.1,190.9 L 185.1,166.4 L 185.9,207.0 L 170.7,179.2 L 205.8,215.4 L 203.1,180.2 L 216.0,189.5 L 194.1,181.7 L 179.3,179.5 L 183.3,207.9 L 184.5,182.9" stroke="#f5f5f5" stroke-opacity="0.4" stroke-width="1.4" fill="none"/>
<text x="200" y="385" font-family="serif" font-size="20" fill="#c9a84c" text-anchor="middle">כֶתֶר תּורָה</text>
</svg>
