<svg xmlns="http://www.w3.org/2000/svg" width="400" height="400" viewBox="0 0 400 400">
<rect width="400" height="400" fill="#06060f"/>
<path d="M 200.00 200.00 L 219.05 200.00 L 219.05 219.05 L 200.00 219.05 L 180.95 219.05 L 180.95 200.00 L 180.95 180.95 L 200.00 180.95 L 219.05 180.95 L 238.10 180.95 L 238.10 200.00 L 238.10 219.05 L 238.10 238.10 L 219.05 238.10 L 200.00 238.10 L 180.95 238.10 L 161.90 238.10 L 161.90 219.05 L 161.90 200.00 L 161.90 180.95 L 161.90 161.90 L 180.95 161.90 L 200.00 161.90 L 219.05 161.90 L 238.10 161.90 L 257.14 161.90 L 257.14 180.95 L 257.14 200.00 L 257.14 219.05 L 257.14 238.10 L 257.14 257.14 L 238.10 257.14 L 219.05 257.14 L 200.00 257.14 L 180.95 257.14 L 161.90 257.14 L 142.86 257.14 L 142.86 238.10 L 142.86 219.05 L 142.86 200.00 L 142.86 180.95 L 142.86 161.90 L 142.86 142.86 L 161.90 142.86 L 180.95 142.86 L 200.00 142.86 L 219.05 142.86 L 238.10 142.86 L 257.14 142.86 L 276.19 142.86 L 276.19 161.90 L 276.19 180.95 L 276.19 200.00 L 276.19 219.05 L 276.19 238.10 L 276.19 257.14 L 276.19 276.19 L 257.14 276.19 L 238.10 276.19 L 219.05 276.19 L 200.00 276.19 L 180.95 276.19 L 161.90 276.19 L 142.86 276.19 L 123.81 276.19 L 123.81 257.14 L 123.81 238.10 L 123.81 219.05 L 123.81 200.00 L 123.81 180.95 L 123.81 161.90 L 123.81 142.86 L 123.81 123.81 L 142.86 123.81 L 161.90 123.81 L 180.95 123.81 L 200.00 123.81 L 219.05 123.81 L 238.10 123.81 L 257.14 123.81 L 276.19 123.81 L 295.24 123.81 L 295.24 142.86 L 295.24 161.90 L 295.24 180.95 L 295.24 200.00 L 295.24 219.05 L 295.24 238.10 L 295.24 257.14 L 295.24 276.19 L 295.24 295.24 L 276.19 295.24 L 257.14 295.24 L 238.10 295.24 L 219.05 295.24 L 200.00 295.24 L 180.95 295.24 L 161.90 295.24 L 142.86 295.24 L 123.81 295.24 L 104.76 295.24 L 104.76 276.19 L 104.76 257.14 L 104.76 238.10 L 104.76 219.05 L 104.76 200.00 L 104.76 180.95 L 104.76 161.90 L 104.76 142.86 L 104.76 123.81 L 104.76 104.76 L 123.81 104.76 L 142.86 104.76 L 161.90 104.76 L 180.95 104.76 L 200.00 104.76 L 219.05 104.76 L 238.10 104.76 L 257.14 104.76 L 276.19 104.76 L 295.24 104.76 L 314.29 104.76 L 314.29 123.81 L 314.29 142.86 L 314.29 161.90 L 314.29 180.95 L 314.29 200.00 L 314.29 219.05 L 314.29 238.10 L 314.29 257.14 L 314.29 276.19 L 314.29 295.24 L 314.29 314.29 L 295.24 314.29 L 276.19 314.29 L 257.14 314.29 L 238.10 314.29 L 219.05 314.29 L 200.00 314.29 L 180.95 314.29 L 161.90 314.29 L 142.86 314.29 L 123.81 314.29 L 104.76 314.29 L 85.71 314.29 L 85.71 295.24 L 85.71 276.19 L 85.71 257.14 L 85.71 238.10 L 85.71 219.05 L 85.71 200.00 L 85.71 180.95 L 85.71 161.90 L 85.71 142.86 L 85.71 123.81 L 85.71 104.76 L 85.71 85.71 L 104.76 85.71 L 123.81 85.71 L 142.86 85.71 L 161.90 85.71 L 180.95 85.71 L 200.00 85.71 L 219.05 85.71 L 238.10 85.71 L 257.14 85.71 L 276.19 85.71 L 295.24 85.71 L 314.29 85.71 L 333.33 85.71 L 333.33 104.76 L 333.33 123.81 L 333.33 142.86 L 333.33 161.90 L 333.33 180.95 L 333.33 200.00 L 333.33 219.05 L 333.33 238.10 L 333.33 257.14 L 333.33 276.19 L 333.33 295.24 L 333.33 314.29 L 333.33 333.33 L 314.29 333.33 L 295.24 333.33 L 276.19 333.33 L 257.14 333.33 L 238.10 333.33 L 219.05 333.33 L 200.00 333.33 L 180.95 333.33 L 161.90 333.33 L 142.86 333.33 L 123.81 333.33 L 104.76 333.33 L 85.71 333.33 L 66.67 333.33 L 66.67 314.29 L 66.67 295.24 L 66.67 276.19 L 66.67 257.14 L 66.67 238.10 L 66.67 219.05 L 66.67 200.00 L 66.67 180.95 L 66.67 161.90 L 66.67 142.86 L 66.67 123.81 L 66.67 104.76 L 66.67 85.71 L 66.67 66.67 L 85.71 66.67 L 104.76 66.67 L 123.81 66.67 L 142.86 66.67 L 161.90 66.67 L 180.95 66.67 L 200.00 66.67 L 219.05 66.67 L 238.10 66.67 L 257.14 66.67 L 276.19 66.67 L 295.24 66.67 L 314.29 66.67 L 333.33 66.67 L 352.38 66.67 L 352.38 85.71 L 352.38 104.76 L 352.38 123.81 L 352.38 142.86 L 352.38 161.90 L 352.38 180.95 L 352.38 200.00 L 352.38 219.05 L 352.38 238.10 L 352.38 257.14 L 352.38 276.19 L 352.38 295.24 L 352.38 314.29 L 352.38 333.33 L 352.38 352.38 L 333.33 352.38 L 314.29 352.38 L 295.24 352.38 L 276.19 352.38 L 257.14 352.38 L 238.10 352.38 L 219.05 352.38 L 200.00 352.38 L 180.95 352.38 L 161.90 352.38 L 142.86 352.38 L 123.81 352.38 L 104.76 352.38 L 85.71 352.38 L 66.67 352.38 L 47.62 352.38 L 47.62 333.33 L 47.62 314.29 L 47.62 295.24 L 47.62 276.19 L 47.62 257.14 L 47.62 238.10 L 47.62 219.05 L 47.62 200.00 L 47.62 180.95 L 47.62 161.90 L 47.62 142.86 L 47.62 123.81 L 47.62 104.76 L 47.62 85.71 L 47.62 66.67 L 47.62 47.62 L 66.67 47.62 L 85.71 47.62 L 104.76 47.62 L 123.81 47.62 L 142.86 47.62 L 161.90 47.62 L 180.95 47.62 L 200.00 47.62 L 219.05 47.62 L 238.10 47.62 L 257.14 47.62 L 276.19 47.62 L 295.24 47.62 L 314.29 47.62 L 333.33 47.62 L 352.38 47.62 L 371.43 47.62 L 371.43 66.67 L 371.43 85.71 L 371.43 104.76 L 371.43 123.81 L 371.43 142.86 L 371.43 161.90 L 371.43 180.95 L 371.43 200.00 L 371.43 219.05 L 371.43 238.10 L 371.43 257.14 L 371.43 276.19 L 371.43 295.24 L 371.43 314.29 L 371.43 333.33 L 371.43 352.38 L 371.43 371.43 L 352.38 371.43 L 333.33 371.43 L 314.29 371.43 L 295.24 371.43 L 276.19 371.43 L 257.14 371.43 L 238.10 371.43 L 219.05 371.43 L 200.00 371.43 L 180.95 371.43 L 161.90 371.43 L 142.86 371.43 L 123.81 371.43 L 104.76 371.43 L 85.71 371.43 L 66.67 371.43 L 47.62 371.43 L 28.57 371.43 L 28.57 352.38 L 28.57 333.33 L 28.57 314.29 L 28.57 295.24 L 28.57 276.19 L 28.57 257.14 L 28.57 238.10 L 28.57 219.05 L 28.57 200.00 L 28.57 180.95 L 28.57 161.90 L 28.57 142.86 L 28.57 123.81 L 28.57 104.76 L 28.57 85.71 L 28.57 66.67 L 28.57 47.62 L 28.57 28.57 L 47.62 28.57 L 66.67 28.57 L 85.71 28.57 L 104.76 28.57 L 123.81 28.57 L 142.86 28.57 L 161.90 28.57 L 180.95 28.57 L 200.00 28.57 L 219.05 28.57 L 238.10 28.57 L 257.14 28.57 L 276.19 28.57 L 295.24 28.57 L 314.29 28.57 L 333.33 28.57 L 352.38 28.57 L 371.43 28.57 L 390.48 28.57 L 390.48 47.62 L 390.48 66.67 L 390.48 85.71 L 390.48 104.76 L 390.48 123.81 L 390.48 142.86 L 390.48 161.90 L 390.48 180.95 L 390.48 200.00 L 390.48 219.05 L 390.48 238.10 L 390.48 257.14 L 390.48 276.19 L 390.48 295.24 L 390.48 314.29 L 390.48 333.33 L 390.48 352.38 L 390.48 371.43 L 390.48 390.48 L 371.43 390.48 L 352.38 390.48 L 333.33 390.48 L 314.29 390.48 L 295.24 390.48 L 276.19 390.48 L 257.14 390.48 L 238.10 390.48 L 219.05 390.48 L 200.00 390.48 L 180.95 390.48 L 161.90 390.48 L 142.86 390.48 L 123.81 390.48 L 104.76 390.48 L 85.71 390.48 L 66.67 390.48 L 47.62 390.48 L 28.57 390.48 L 9.52 390.48 L 9.52 371.43 L 9.52 352.38 L 9.52 333.33 L 9.52 314.29 L 9.52 295.24 L 9.52 276.19 L 9.52 257.14 L 9.52 238.10 L 9.52 219.05 L 9.52 200.00 L 9.52 180.95 L 9.52 161.90 L 9.52 142.86 L 9.52 123.81 L 9.52 104.76 L 9.52 85.71 L 9.52 66.67 L 9.52 47.62 L 9.52 28.57 L 9.52 9.52 L 28.57 9.52 L 47.62 9.52 L 66.67 9.52 L 85.71 9.52 L 104.76 9.52 L 123.81 9.52 L 142.86 9.52 L 161.90 9.52 L 180.95 9.52 L 200.00 9.52 L 219.05 9.52 L 238.10 9.52 L 257.14 9.52 L 276.19 9.52 L 295.24 9.52 L 314.29 9.52 L 333.33 9.52 L 352.38 9.52 L 371.43 9.52 L 390.48 9.52" stroke="#2a2a60" stroke-width="0.7" fill="none" opacity="0.6"/>
<rect x="191.48" y="191.48" width="17.05" height="17.05" fill="#0A0A14"/>
<rect x="210.52" y="191.48" width="17.05" height="17.05" fill="#D4A840"/>
<rect x="210.52" y="210.52" width="17.05" height="17.05" fill="#D4A840"/>
<rect x="191.48" y="210.52" width="17.05" height="17.05" fill="#0A0A14"/>
<rect x="172.43" y="210.52" width="17.05" height="17.05" fill="#D4A840"/>
<rect x="172.43" y="191.48" width="17.05" height="17.05" fill="#0A0A14"/>
<rect x="172.43" y="172.43" width="17.05" height="17.05" fill="#D4A840"/>
<rect x="191.48" y="172.43" width="17.05" height="17.05" fill="#0A0A14"/>
<rect x="210.52" y="172.43" width="17.05" height="17.05" fill="#0A0A14"/>
<rect x="229.57" y="172.43" width="17.05" height="17.05" fill="#0A0A14"/>
<rect x="229.57" y="191.48" width="17.05" height="17.05" fill="#D4A840"/>
<rect x="229.57" y="210.52" width="17.05" height="17.05" fill="#0A0A14"/>
<rect x="229.57" y="229.57" width="17.05" height="17.05" fill="#D4A840"/>
<rect x="210.52" y="229.57" width="17.05" height="17.05" fill="#0A0A14"/>
<rect x="191.48" y="229.57" width="17.05" height="17.05" fill="#0A0A14"/>
<rect x="172.43" y="229.57" width="17.05" height="17.05" fill="#0A0A14"/>
<rect x="153.38" y="229.57" width="17.05" height="17.05" fill="#D4A840"/>
<rect x="153.38" y="210.52" width="17.05" height="17.05" fill="#0A0A14"/>
<rect x="153.38" y="191.48" width="17.05" height="17.05" fill="#D4A840"/>
<rect x="153.38" y="172.43" width="17.05" height="17.05" fill="#0A0A14"/>
<rect x="153.38" y="153.38" width="17.05" height="17.05" fill="#0A0A14"/>
<rect x="172.43" y="153.38" width="17.05" height="17.05" fill="#0A0A14"/>
<rect x="191.48" y="153.38" width="17.05" height="17.05" fill="#D4A840"/>
<rect x="210.52" y="153.38" width="17.05" height="17.05" fill="#0A0A14"/>
<rect x="229.57" y="153.38" width="17.05" height="17.05" fill="#0A0A14"/>
<rect x="248.62" y="153.38" width="17.05" height="17.05" fill="#0A0A14"/>
<rect x="248.62" y="172.43" width="17.05" height="17.05" fill="#0A0A14"/>
<rect x="248.62" y="191.48" width="17.05" height="17.05" fill="#0A0A14"/>
<rect x="248.62" y="210.52" width="17.05" height="17.05" fill="#D4A840"/>
<rect x="248.62" y="229.57" width="17.05" height="17.05" fill="#0A0A14"/>
<rect x="248.62" y="248.62" width="17.05" height="17.05" fill="#D4A840"/>
<rect x="229.57" y="248.62" width="17.05" height="17.05" fill="#0A0A14"/>
<rect x="210.52" y="248.62" width="17.05" height="17.05" fill="#0A0A14"/>
<rect x="191.48" y="248.62" width="17.05" height="17.05" fill="#0A0A14"/>
<rect x="172.43" y="248.62" width="17.05" height="17.05" fill="#0A0A14"/>
<rect x="153.38" y="248.62" width="17.05" height="17.05" fill="#0A0A14"/>
<rect x="134.33" y="248.62" width="17.05" height="17.05" fill="#D4A840"/>
<rect x="134.33" y="229.57" width="17.05" height="17.05" fill="#0A0A14"/>
<rect x="134.33" y="210.52" width="17.05" height="17.05" fill="#0A0A14"/>
<rect x="134.33" y="191.48" width="17.05" height="17.05" fill="#0A0A14"/>
<rect x="134.33" y="172.43" width="17.05" height="17.05" fill="#D4A840"/>
<rect x="134.33" y="153.38" width="17.05" height="17.05" fill="#0A0A14"/>
<rect x="134.33" y="134.33" width="17.05" height="17.05" fill="#D4A840"/>
<rect x="153.38" y="134.33" width="17.05" height="17.05" fill="#0A0A14"/>
<rect x="172.43" y="134.33" width="17.05" height="17.05" fill="#0A0A14"/>
<rect x="191.48" y="134.33" width="17.05" height="17.05" fill="#0A0A14"/>
<rect x="210.52" y="134.33" width="17.05" height="17.05" fill="#D4A840"/>
<rect x="229.57" y="134.33" width="17.05" height="17.05" fill="#0A0A14"/>
<rect x="248.62" y="134.33" width="17.05" height="17.05" fill="#0A0A14"/>
<rect x="267.67" y="134.33" width="17.05" height="17.05" fill="#0A0A14"/>
<rect x="267.67" y="153.38" width="17.05" height="17.05" fill="#0A0A14"/>
<rect x="267.67" y="172.43" width="17.05" height="17.05" fill="#0A0A14"/>
<rect x="267.67" y="191.48" width="17.05" height="17.05" fill="#D4A840"/>
<rect x="267.67" y="210.52" width="17.05" height="17.05" fill="#0A0A14"/>
<rect x="267.67" y="229.57" width="17.05" height="17.05" fill="#0A0A14"/>
<rect x="267.67" y="248.62" width="17.05" height="17.05" fill="#0A0A14"/>
<rect x="267.67" y="267.67" width="17.05" height="17.05" fill="#0A0A14"/>
<rect x="248.62" y="267.67" width="17.05" height="17.05" fill="#0A0A14"/>
<rect x="229.57" y="267.67" width="17.05" height="17.05" fill="#D4A840"/>
<rect x="210.52" y="267.67" width="17.05" height="17.05" fill="#0A0A14"/>
<rect x="191.48" y="267.67" width="17.05" height="17.05" fill="#D4A840"/>
<rect x="172.43" y="267.67" width="17.05" height="17.05" fill="#0A0A14"/>
<rect x="153.38" y="267.67" width="17.05" height="17.05" fill="#0A0A14"/>
<rect x="134.33" y="267.67" width="17.05" height="17.05" fill="#0A0A14"/>
<rect x="115.29" y="267.67" width="17.05" height="17.05" fill="#0A0A14"/>
<rect x="115.29" y="248.62" width="17.05" height="17.05" fill="#0A0A14"/>
<rect x="115.29" y="229.57" width="17.05" height="17.05" fill="#D4A840"/>
<rect x="115.29" y="210.52" width="17.05" height="17.05" fill="#0A0A14"/>
<rect x="115.29" y="191.48" width="17.05" height="17.05" fill="#0A0A14"/>
<rect x="115.29" y="172.43" width="17.05" height="17.05" fill="#0A0A14"/>
<rect x="115.29" y="153.38" width="17.05" height="17.05" fill="#D4A840"/>
<rect x="115.29" y="134.33" width="17.05" height="17.05" fill="#0A0A14"/>
<rect x="115.29" y="115.29" width="17.05" height="17.05" fill="#D4A840"/>
<rect x="134.33" y="115.29" width="17.05" height="17.05" fill="#0A0A14"/>
<rect x="153.38" y="115.29" width="17.05" height="17.05" fill="#0A0A14"/>
<rect x="172.43" y="115.29" width="17.05" height="17.05" fill="#0A0A14"/>
<rect x="191.48" y="115.29" width="17.05" height="17.05" fill="#0A0A14"/>
<rect x="210.52" y="115.29" width="17.05" height="17.05" fill="#0A0A14"/>
<rect x="229.57" y="115.29" width="17.05" height="17.05" fill="#D4A840"/>
<rect x="248.62" y="115.29" width="17.05" height="17.05" fill="#0A0A14"/>
<rect x="267.67" y="115.29" width="17.05" height="17.05" fill="#0A0A14"/>
<rect x="286.71" y="115.29" width="17.05" height="17.05" fill="#0A0A14"/>
<rect x="286.71" y="134.33" width="17.05" height="17.05" fill="#D4A840"/>
<rect x="286.71" y="153.38" width="17.05" height="17.05" fill="#0A0A14"/>
<rect x="286.71" y="172.43" width="17.05" height="17.05" fill="#0A0A14"/>
<rect x="286.71" y="191.48" width="17.05" height="17.05" fill="#0A0A14"/>
<rect x="286.71" y="210.52" width="17.05" height="17.05" fill="#0A0A14"/>
<rect x="286.71" y="229.57" width="17.05" height="17.05" fill="#0A0A14"/>
<rect x="286.71" y="248.62" width="17.05" height="17.05" fill="#D4A840"/>
<rect x="286.71" y="267.67" width="17.05" height="17.05" fill="#0A0A14"/>
<rect x="286.71" y="286.71" width="17.05" height="17.05" fill="#0A0A14"/>
<rect x="267.67" y="286.71" width="17.05" height="17.05" fill="#0A0A14"/>
<rect x="248.62" y="286.71" width="17.05" height="17.05" fill="#0A0A14"/>
<rect x="229.57" y="286.71" width="17.05" height="17.05" fill="#0A0A14"/>
<rect x="210.52" y="286.71" width="17.05" height="17.05" fill="#0A0A14"/>
<rect x="191.48" y="286.71" width="17.05" height="17.05" fill="#0A0A14"/>
<rect x="172.43" y="286.71" width="17.05" height="17.05" fill="#D4A840"/>
<rect x="153.38" y="286.71" width="17.05" height="17.05" fill="#0A0A14"/>
<rect x="134.33" y="286.71" width="17.05" height="17.05" fill="#0A0A14"/>
<rect x="115.29" y="286.71" width="17.05" height="17.05" fill="#0A0A14"/>
<rect x="96.24" y="286.71" width="17.05" height="17.05" fill="#D4A840"/>
<rect x="96.24" y="267.67" width="17.05" height="17.05" fill="#0A0A14"/>
<rect x="96.24" y="248.62" width="17.05" height="17.05" fill="#D4A840"/>
<rect x="96.24" y="229.57" width="17.05" height="17.05" fill="#0A0A14"/>
<rect x="96.24" y="210.52" width="17.05" height="17.05" fill="#0A0A14"/>
<rect x="96.24" y="191.48" width="17.05" height="17.05" fill="#0A0A14"/>
<rect x="96.24" y="172.43" width="17.05" height="17.05" fill="#D4A840"/>
<rect x="96.24" y="153.38" width="17.05" height="17.05" fill="#0A0A14"/>
<rect x="96.24" y="134.33" width="17.05" height="17.05" fill="#D4A840"/>
<rect x="96.24" y="115.29" width="17.05" height="17.05" fill="#0A0A14"/>
<rect x="96.24" y="96.24" width="17.05" height="17.05" fill="#0A0A14"/>
<rect x="115.29" y="96.24" width="17.05" height="17.05" fill="#0A0A14"/>
<rect x="134.33" y="96.24" width="17.05" height="17.05" fill="#D4A840"/>
<rect x="153.38" y="96.24" width="17.05" height="17.05" fill="#0A0A14"/>
<rect x="172.43" y="96.24" width="17.05" height="17.05" fill="#0A0A14"/>
<rect x="191.48" y="96.24" width="17.05" height="17.05" fill="#0A0A14"/>
<rect x="210.52" y="96.24" width="17.05" height="17.05" fill="#0A0A14"/>
<rect x="229.57" y="96.24" width="17.05" height="17.05" fill="#0A0A14"/>
<rect x="248.62" y="96.24" width="17.05" height="17.05" fill="#0A0A14"/>
<rect x="267.67" y="96.24" width="17.05" height="17.05" fill="#0A0A14"/>
<rect x="286.71" y="96.24" width="17.05" height="17.05" fill="#0A0A14"/>
<rect x="305.76" y="96.24" width="17.05" height="17.05" fill="#0A0A14"/>
<rect x="305.76" y="115.29" width="17.05" height="17.05" fill="#0A0A14"/>
<rect x="305.76" y="134.33" width="17.05" height="17.05" fill="#0A0A14"/>
<rect x="305.76" y="153.38" width="17.05" height="17.05" fill="#0A0A14"/>
<rect x="305.76" y="172.43" width="17.05" height="17.05" fill="#0A0A14"/>
<rect x="305.76" y="191.48" width="17.05" height="17.05" fill="#D4A840"/>
<rect x="305.76" y="210.52" width="17.05" height="17.05" fill="#0A0A14"/>
<rect x="305.76" y="229.57" width="17.05" height="17.05" fill="#0A0A14"/>
<rect x="305.76" y="248.62" width="17.05" height="17.05" fill="#0A0A14"/>
<rect x="305.76" y="267.67" width="17.05" height="17.05" fill="#D4A840"/>
<rect x="305.76" y="286.71" width="17.05" height="17.05" fill="#0A0A14"/>
<rect x="305.76" y="305.76" width="17.05" height="17.05" fill="#0A0A14"/>
<rect x="286.71" y="305.76" width="17.05" height="17.05" fill="#0A0A14"/>
<rect x="267.67" y="305.76" width="17.05" height="17.05" fill="#0A0A14"/>
<rect x="248.62" y="305.76" width="17.05" height="17.05" fill="#0A0A14"/>
<rect x="229.57" y="305.76" width="17.05" height="17.05" fill="#D4A840"/>
<rect x="210.52" y="305.76" width="17.05" height="17.05" fill="#0A0A14"/>
<rect x="191.48" y="305.76" width="17.05" height="17.05" fill="#D4A840"/>
<rect x="172.43" y="305.76" width="17.05" height="17.05" fill="#0A0A14"/>
<rect x="153.38" y="305.76" width="17.05" height="17.05" fill="#0A0A14"/>
<rect x="134.33" y="305.76" width="17.05" height="17.05" fill="#0A0A14"/>
<rect x="115.29" y="305.76" width="17.05" height="17.05" fill="#0A0A14"/>
<rect x="96.24" y="305.76" width="17.05" height="17.05" fill="#0A0A14"/>
<rect x="77.19" y="305.76" width="17.05" height="17.05" fill="#0A0A14"/>
<rect x="77.19" y="286.71" width="17.05" height="17.05" fill="#0A0A14"/>
<rect x="77.19" y="267.67" width="17.05" height="17.05" fill="#0A0A14"/>
<rect x="77.19" y="248.62" width="17.05" height="17.05" fill="#0A0A14"/>
<rect x="77.19" y="229.57" width="17.05" height="17.05" fill="#D4A840"/>
<rect x="77.19" y="210.52" width="17.05" height="17.05" fill="#0A0A14"/>
<rect x="77.19" y="191.48" width="17.05" height="17.05" fill="#D4A840"/>
<rect x="77.19" y="172.43" width="17.05" height="17.05" fill="#0A0A14"/>
<rect x="77.19" y="153.38" width="17.05" height="17.05" fill="#0A0A14"/>
<rect x="77.19" y="134.33" width="17.05" height="17.05" fill="#0A0A14"/>
<rect x="77.19" y="115.29" width="17.05" height="17.05" fill="#0A0A14"/>
<rect x="77.19" y="96.24" width="17.05" height="17.05" fill="#0A0A14"/>
<rect x="77.19" y="77.19" width="17.05" height="17.05" fill="#D4A840"/>
<rect x="96.24" y="77.19" width="17.05" height="17.05" fill="#0A0A14"/>
<rect x="115.29" y="77.19" width="17.05" height="17.05" fill="#0A0A14"/>
<rect x="134.33" y="77.19" width="17.05" height="17.05" fill="#0A0A14"/>
<rect x="153.38" y="77.19" width="17.05" height="17.05" fill="#0A0A14"/>
<rect x="172.43" y="77.19" width="17.05" height="17.05" fill="#0A0A14"/>
<rect x="191.48" y="77.19" width="17.05" height="17.05" fill="#D4A840"/>
<rect x="210.52" y="77.19" width="17.05" height="17.05" fill="#0A0A14"/>
<rect x="229.57" y="77.19" width="17.05" height="17.05" fill="#0A0A14"/>
<rect x="248.62" y="77.19" width="17.05" height="17.05" fill="#0A0A14"/>
<rect x="267.67" y="77.19" width="17.05" height="17.05" fill="#D4A840"/>
<rect x="286.71" y="77.19" width="17.05" height="17.05" fill="#0A0A14"/>
<rect x="305.76" y="77.19" width="17.05" height="17.05" fill="#0A0A14"/>
<rect x="324.81" y="77.19" width="17.05" height="17.05" fill="#0A0A14"/>
<rect x="324.81" y="96.24" width="17.05" height="17.05" fill="#0A0A14"/>
<rect x="324.81" y="115.29" width="17.05" height="17.05" fill="#0A0A14"/>
<rect x="324.81" y="134.33" width="17.05" height="17.05" fill="#D4A840"/>
<rect x="324.81" y="153.38" width="17.05" height="17.05" fill="#0A0A14"/>
<rect x="324.81" y="172.43" width="17.05" height="17.05" fill="#0A0A14"/>
<rect x="324.81" y="191.48" width="17.05" height="17.05" fill="#0A0A14"/>
<rect x="324.81" y="210.52" width="17.05" height="17.05" fill="#0A0A14"/>
<rect x="324.81" y="229.57" width="17.05" height="17.05" fill="#0A0A14"/>
<rect x="324.81" y="248.62" width="17.05" height="17.05" fill="#D4A840"/>
<rect x="324.81" y="267.67" width="17.05" height="17.05" fill="#0A0A14"/>
<rect x="324.81" y="286.71" width="17.05" height="17.05" fill="#D4A840"/>
<rect x="324.81" y="305.76" width="17.05" height="17.05" fill="#0A0A14"/>
<rect x="324.81" y="324.81" width="17.05" height="17.05" fill="#0A0A14"/>
<rect x="305.76" y="324.81" width="17.05" height="17.05" fill="#0A0A14"/>
<rect x="286.71" y="324.81" width="17.05" height="17.05" fill="#0A0A14"/>
<rect x="267.67" y="324.81" width="17.05" height="17.05" fill="#0A0A14"/>
<rect x="248.62" y="324.81" width="17.05" height="17.05" fill="#0A0A14"/>
<rect x="229.57" y="324.81" width="17.05" height="17.05" fill="#0A0A14"/>
<rect x="210.52" y="324.81" width="17.05" height="17.05" fill="#0A0A14"/>
<rect x="191.48" y="324.81" width="17.05" height="17.05" fill="#0A0A14"/>
<rect x="172.43" y="324.81" width="17.05" height="17.05" fill="#D4A840"/>
<rect x="153.38" y="324.81" width="17.05" height="17.05" fill="#0A0A14"/>
<rect x="134.33" y="324.81" width="17.05" height="17.05" fill="#D4A840"/>
<rect x="115.29" y="324.81" width="17.05" height="17.05" fill="#0A0A14"/>
<rect x="96.24" y="324.81" width="17.05" height="17.05" fill="#0A0A14"/>
<rect x="77.19" y="324.81" width="17.05" height="17.05" fill="#0A0A14"/>
<rect x="58.14" y="324.81" width="17.05" height="17.05" fill="#D4A840"/>
<rect x="58.14" y="305.76" width="17.05" height="17.05" fill="#0A0A14"/>
<rect x="58.14" y="286.71" width="17.05" height="17.05" fill="#D4A840"/>
<rect x="58.14" y="267.67" width="17.05" height="17.05" fill="#0A0A14"/>
<rect x="58.14" y="248.62" width="17.05" height="17.05" fill="#0A0A14"/>
<rect x="58.14" y="229.57" width="17.05" height="17.05" fill="#0A0A14"/>
<rect x="58.14" y="210.52" width="17.05" height="17.05" fill="#0A0A14"/>
<rect x="58.14" y="191.48" width="17.05" height="17.05" fill="#0A0A14"/>
<rect x="58.14" y="172.43" width="17.05" height="17.05" fill="#0A0A14"/>
<rect x="58.14" y="153.38" width="17.05" height="17.05" fill="#0A0A14"/>
<rect x="58.14" y="134.33" width="17.05" height="17.05" fill="#0A0A14"/>
<rect x="58.14" y="115.29" width="17.05" height="17.05" fill="#0A0A14"/>
<rect x="58.14" y="96.24" width="17.05" height="17.05" fill="#0A0A14"/>
<rect x="58.14" y="77.19" width="17.05" height="17.05" fill="#0A0A14"/>
<rect x="58.14" y="58.14" width="17.05" height="17.05" fill="#D4A840"/>
<rect x="77.19" y="58.14" width="17.05" height="17.05" fill="#0A0A14"/>
<rect x="96.24" y="58.14" width="17.05" height="17.05" fill="#0A0A14"/>
<rect x="115.29" y="58.14" width="17.05" height="17.05" fill="#0A0A14"/>
<rect x="134.33" y="58.14" width="17.05" height="17.05" fill="#0A0A14"/>
<rect x="153.38" y="58.14" width="17.05" height="17.05" fill="#0A0A14"/>
<rect x="172.43" y="58.14" width="17.05" height="17.05" fill="#0A0A14"/>
<rect x="191.48" y="58.14" width="17.05" height="17.05" fill="#0A0A14"/>
<rect x="210.52" y="58.14" width="17.05" height="17.05" fill="#0A0A14"/>
<rect x="229.57" y="58.14" width="17.05" height="17.05" fill="#0A0A14"/>
<rect x="248.62" y="58.14" width="17.05" height="17.05" fill="#0A0A14"/>
<rect x="267.67" y="58.14" width="17.05" height="17.05" fill="#0A0A14"/>
<rect x="286.71" y="58.14" width="17.05" height="17.05" fill="#D4A840"/>
<rect x="305.76" y="58.14" width="17.05" height="17.05" fill="#0A0A14"/>
<rect x="324.81" y="58.14" width="17.05" height="17.05" fill="#0A0A14"/>
<rect x="343.86" y="58.14" width="17.05" height="17.05" fill="#0A0A14"/>
<rect x="343.86" y="77.19" width="17.05" height="17.05" fill="#D4A840"/>
<rect x="343.86" y="96.24" width="17.05" height="17.05" fill="#0A0A14"/>
<rect x="343.86" y="115.29" width="17.05" height="17.05" fill="#FFFFFF"/>
<rect x="343.86" y="134.33" width="17.05" height="17.05" fill="#0A0A14"/>
<rect x="343.86" y="153.38" width="17.05" height="17.05" fill="#0A0A14"/>
<rect x="343.86" y="172.43" width="17.05" height="17.05" fill="#0A0A14"/>
<rect x="343.86" y="191.48" width="17.05" height="17.05" fill="#303060"/>
<rect x="343.86" y="210.52" width="17.05" height="17.05" fill="#0A0A14"/>
<rect x="343.86" y="229.57" width="17.05" height="17.05" fill="#0A0A14"/>
<rect x="343.86" y="248.62" width="17.05" height="17.05" fill="#0A0A14"/>
<rect x="343.86" y="267.67" width="17.05" height="17.05" fill="#0A0A14"/>
<rect x="343.86" y="286.71" width="17.05" height="17.05" fill="#0A0A14"/>
<rect x="343.86" y="305.76" width="17.05" height="17.05" fill="#303060"/>
<rect x="343.86" y="324.81" width="17.05" height="17.05" fill="#0A0A14"/>
<rect x="343.86" y="343.86" width="17.05" height="17.05" fill="#303060"/>
<rect x="324.81" y="343.86" width="17.05" height="17.05" fill="#0A0A14"/>
<rect x="305.76" y="343.86" width="17.05" height="17.05" fill="#0A0A14"/>
<rect x="286.71" y="343.86" width="17.05" height="17.05" fill="#0A0A14"/>
<rect x="267.67" y="343.86" width="17.05" height="17.05" fill="#0A0A14"/>
<rect x="248.62" y="343.86" width="17.05" height="17.05" fill="#0A0A14"/>
<rect x="229.57" y="343.86" width="17.05" height="17.05" fill="#0A0A14"/>
<rect x="210.52" y="343.86" width="17.05" height="17.05" fill="#0A0A14"/>
<rect x="191.48" y="343.86" width="17.05" height="17.05" fill="#0A0A14"/>
<rect x="172.43" y="343.86" width="17.05" height="17.05" fill="#0A0A14"/>
<rect x="153.38" y="343.86" width="17.05" height="17.05" fill="#303060"/>
<rect x="134.33" y="343.86" width="17.05" height="17.05" fill="#0A0A14"/>
<rect x="115.29" y="343.86" width="17.05" height="17.05" fill="#0A0A14"/>
<rect x="96.24" y="343.86" width="17.05" height="17.05" fill="#0A0A14"/>
<rect x="77.19" y="343.86" width="17.05" height="17.05" fill="#0A0A14"/>
<rect x="58.14" y="343.86" width="17.05" height="17.05" fill="#0A0A14"/>
<rect x="39.10" y="343.86" width="17.05" height="17.05" fill="#303060"/>
<rect x="39.10" y="324.81" width="17.05" height="17.05" fill="#0A0A14"/>
<rect x="39.10" y="305.76" width="17.05" height="17.05" fill="#0A0A14"/>
<rect x="39.10" y="286.71" width="17.05" height="17.05" fill="#0A0A14"/>
<rect x="39.10" y="267.67" width="17.05" height="17.05" fill="#0A0A14"/>
<rect x="39.10" y="248.62" width="17.05" height="17.05" fill="#0A0A14"/>
<rect x="39.10" y="229.57" width="17.05" height="17.05" fill="#303060"/>
<rect x="39.10" y="210.52" width="17.05" height="17.05" fill="#0A0A14"/>
<rect x="39.10" y="191.48" width="17.05" height="17.05" fill="#0A0A14"/>
<rect x="39.10" y="172.43" width="17.05" height="17.05" fill="#0A0A14"/>
<rect x="39.10" y="153.38" width="17.05" height="17.05" fill="#0A0A14"/>
<rect x="39.10" y="134.33" width="17.05" height="17.05" fill="#0A0A14"/>
<rect x="39.10" y="115.29" width="17.05" height="17.05" fill="#303060"/>
<rect x="39.10" y="96.24" width="17.05" height="17.05" fill="#0A0A14"/>
<rect x="39.10" y="77.19" width="17.05" height="17.05" fill="#303060"/>
<rect x="39.10" y="58.14" width="17.05" height="17.05" fill="#0A0A14"/>
<rect x="39.10" y="39.10" width="17.05" height="17.05" fill="#0A0A14"/>
<rect x="58.14" y="39.10" width="17.05" height="17.05" fill="#0A0A14"/>
<rect x="77.19" y="39.10" width="17.05" height="17.05" fill="#0A0A14"/>
<rect x="96.24" y="39.10" width="17.05" height="17.05" fill="#0A0A14"/>
<rect x="115.29" y="39.10" width="17.05" height="17.05" fill="#303060"/>
<rect x="134.33" y="39.10" width="17.05" height="17.05" fill="#0A0A14"/>
<rect x="153.38" y="39.10" width="17.05" height="17.05" fill="#0A0A14"/>
<rect x="172.43" y="39.10" width="17.05" height="17.05" fill="#0A0A14"/>
<rect x="191.48" y="39.10" width="17.05" height="17.05" fill="#303060"/>
<rect x="210.52" y="39.10" width="17.05" height="17.05" fill="#0A0A14"/>
<rect x="229.57" y="39.10" width="17.05" height="17.05" fill="#303060"/>
<rect x="248.62" y="39.10" width="17.05" height="17.05" fill="#0A0A14"/>
<rect x="267.67" y="39.10" width="17.05" height="17.05" fill="#0A0A14"/>
<rect x="286.71" y="39.10" width="17.05" height="17.05" fill="#0A0A14"/>
<rect x="305.76" y="39.10" width="17.05" height="17.05" fill="#0A0A14"/>
<rect x="324.81" y="39.10" width="17.05" height="17.05" fill="#0A0A14"/>
<rect x="343.86" y="39.10" width="17.05" height="17.05" fill="#0A0A14"/>
<rect x="362.90" y="39.10" width="17.05" height="17.05" fill="#0A0A14"/>
<rect x="362.90" y="58.14" width="17.05" height="17.05" fill="#0A0A14"/>
<rect x="362.90" y="77.19" width="17.05" height="17.05" fill="#0A0A14"/>
<rect x="362.90" y="96.24" width="17.05" height="17.05" fill="#303060"/>
<rect x="362.90" y="115.29" width="17.05" height="17.05" fill="#0A0A14"/>
<rect x="362.90" y="134.33" width="17.05" height="17.05" fill="#0A0A14"/>
<rect x="362.90" y="153.38" width="17.05" height="17.05" fill="#0A0A14"/>
<rect x="362.90" y="172.43" width="17.05" height="17.05" fill="#0A0A14"/>
<rect x="362.90" y="191.48" width="17.05" height="17.05" fill="#0A0A14"/>
<rect x="362.90" y="210.52" width="17.05" height="17.05" fill="#0A0A14"/>
<rect x="362.90" y="229.57" width="17.05" height="17.05" fill="#0A0A14"/>
<rect x="362.90" y="248.62" width="17.05" height="17.05" fill="#0A0A14"/>
<rect x="362.90" y="267.67" width="17.05" height="17.05" fill="#0A0A14"/>
<rect x="362.90" y="286.71" width="17.05" height="17.05" fill="#0A0A14"/>
<rect x="362.90" y="305.76" width="17.05" height="17.05" fill="#0A0A14"/>
<rect x="362.90" y="324.81" width="17.05" height="17.05" fill="#0A0A14"/>
<rect x="362.90" y="343.86" width="17.05" height="17.05" fill="#0A0A14"/>
<rect x="362.90" y="362.90" width="17.05" height="17.05" fill="#303060"/>
<rect x="343.86" y="362.90" width="17.05" height="17.05" fill="#0A0A14"/>
<rect x="324.81" y="362.90" width="17.05" height="17.05" fill="#0A0A14"/>
<rect x="305.76" y="362.90" width="17.05" height="17.05" fill="#0A0A14"/>
<rect x="286.71" y="362.90" width="17.05" height="17.05" fill="#303060"/>
<rect x="267.67" y="362.90" width="17.05" height="17.05" fill="#0A0A14"/>
<rect x="248.62" y="362.90" width="17.05" height="17.05" fill="#303060"/>
<rect x="229.57" y="362.90" width="17.05" height="17.05" fill="#0A0A14"/>
<rect x="210.52" y="362.90" width="17.05" height="17.05" fill="#0A0A14"/>
<rect x="191.48" y="362.90" width="17.05" height="17.05" fill="#0A0A14"/>
<rect x="172.43" y="362.90" width="17.05" height="17.05" fill="#303060"/>
<rect x="153.38" y="362.90" width="17.05" height="17.05" fill="#0A0A14"/>
<rect x="134.33" y="362.90" width="17.05" height="17.05" fill="#0A0A14"/>
<rect x="115.29" y="362.90" width="17.05" height="17.05" fill="#0A0A14"/>
<rect x="96.24" y="362.90" width="17.05" height="17.05" fill="#0A0A14"/>
<rect x="77.19" y="362.90" width="17.05" height="17.05" fill="#0A0A14"/>
<rect x="58.14" y="362.90" width="17.05" height="17.05" fill="#0A0A14"/>
<rect x="39.10" y="362.90" width="17.05" height="17.05" fill="#0A0A14"/>
<rect x="20.05" y="362.90" width="17.05" height="17.05" fill="#0A0A14"/>
<rect x="20.05" y="343.86" width="17.05" height="17.05" fill="#0A0A14"/>
<rect x="20.05" y="324.81" width="17.05" height="17.05" fill="#0A0A14"/>
<rect x="20.05" y="305.76" width="17.05" height="17.05" fill="#0A0A14"/>
<rect x="20.05" y="286.71" width="17.05" height="17.05" fill="#0A0A14"/>
<rect x="20.05" y="267.67" width="17.05" height="17.05" fill="#0A0A14"/>
<rect x="20.05" y="248.62" width="17.05" height="17.05" fill="#303060"/>
<rect x="20.05" y="229.57" width="17.05" height="17.05" fill="#0A0A14"/>
<rect x="20.05" y="210.52" width="17.05" height="17.05" fill="#0A0A14"/>
<rect x="20.05" y="191.48" width="17.05" height="17.05" fill="#0A0A14"/>
<rect x="20.05" y="172.43" width="17.05" height="17.05" fill="#0A0A14"/>
<rect x="20.05" y="153.38" width="17.05" height="17.05" fill="#0A0A14"/>
<rect x="20.05" y="134.33" width="17.05" height="17.05" fill="#303060"/>
<rect x="20.05" y="115.29" width="17.05" height="17.05" fill="#0A0A14"/>
<rect x="20.05" y="96.24" width="17.05" height="17.05" fill="#0A0A14"/>
<rect x="20.05" y="77.19" width="17.05" height="17.05" fill="#0A0A14"/>
<rect x="20.05" y="58.14" width="17.05" height="17.05" fill="#0A0A14"/>
<rect x="20.05" y="39.10" width="17.05" height="17.05" fill="#0A0A14"/>
<rect x="20.05" y="20.05" width="17.05" height="17.05" fill="#0A0A14"/>
<rect x="39.10" y="20.05" width="17.05" height="17.05" fill="#0A0A14"/>
<rect x="58.14" y="20.05" width="17.05" height="17.05" fill="#0A0A14"/>
<rect x="77.19" y="20.05" width="17.05" height="17.05" fill="#0A0A14"/>
<rect x="96.24" y="20.05" width="17.05" height="17.05" fill="#303060"/>
<rect x="115.29" y="20.05" width="17.05" height="17.05" fill="#0A0A14"/>
<rect x="134.33" y="20.05" width="17.05" height="17.05" fill="#303060"/>
<rect x="153.38" y="20.05" width="17.05" height="17.05" fill="#0A0A14"/>
<rect x="172.43" y="20.05" width="17.05" height="17.05" fill="#0A0A14"/>
<rect x="191.48" y="20.05" width="17.05" height="17.05" fill="#0A0A14"/>
<rect x="210.52" y="20.05" width="17.05" height="17.05" fill="#303060"/>
<rect x="229.57" y="20.05" width="17.05" height="17.05" fill="#0A0A14"/>
<rect x="248.62" y="20.05" width="17.05" height="17.05" fill="#0A0A14"/>
<rect x="267.67" y="20.05" width="17.05" height="17.05" fill="#0A0A14"/>
<rect x="286.71" y="20.05" width="17.05" height="17.05" fill="#0A0A14"/>
<rect x="305.76" y="20.05" width="17.05" height="17.05" fill="#0A0A14"/>
<rect x="324.81" y="20.05" width="17.05" height="17.05" fill="#303060"/>
<rect x="343.86" y="20.05" width="17.05" height="17.05" fill="#0A0A14"/>
<rect x="362.90" y="20.05" width="17.05" height="17.05" fill="#0A0A14"/>
<rect x="381.95" y="20.05" width="17.05" height="17.05" fill="#0A0A14"/>
<rect x="381.95" y="39.10" width="17.05" height="17.05" fill="#0A0A14"/>
<rect x="381.95" y="58.14" width="17.05" height="17.05" fill="#0A0A14"/>
<rect x="381.95" y="77.19" width="17.05" height="17.05" fill="#0A0A14"/>
<rect x="381.95" y="96.24" width="17.05" height="17.05" fill="#0A0A14"/>
<rect x="381.95" y="115.29" width="17.05" height="17.05" fill="#303060"/>
<rect x="381.95" y="134.33" width="17.05" height="17.05" fill="#0A0A14"/>
<rect x="381.95" y="153.38" width="17.05" height="17.05" fill="#0A0A14"/>
<rect x="381.95" y="172.43" width="17.05" height="17.05" fill="#0A0A14"/>
<rect x="381.95" y="191.48" width="17.05" height="17.05" fill="#0A0A14"/>
<rect x="381.95" y="210.52" width="17.05" height="17.05" fill="#0A0A14"/>
<rect x="381.95" y="229.57" width="17.05" height="17.05" fill="#303060"/>
<rect x="381.95" y="248.62" width="17.05" height="17.05" fill="#0A0A14"/>
<rect x="381.95" y="267.67" width="17.05" height="17.05" fill="#0A0A14"/>
<rect x="381.95" y="286.71" width="17.05" height="17.05" fill="#0A0A14"/>
<rect x="381.95" y="305.76" width="17.05" height="17.05" fill="#0A0A14"/>
<rect x="381.95" y="324.81" width="17.05" height="17.05" fill="#0A0A14"/>
<rect x="381.95" y="343.86" width="17.05" height="17.05" fill="#303060"/>
<rect x="381.95" y="362.90" width="17.05" height="17.05" fill="#0A0A14"/>
<rect x="381.95" y="381.95" width="17.05" height="17.05" fill="#0A0A14"/>
<rect x="362.90" y="381.95" width="17.05" height="17.05" fill="#0A0A14"/>
<rect x="343.86" y="381.95" width="17.05" height="17.05" fill="#303060"/>
<rect x="324.81" y="381.95" width="17.05" height="17.05" fill="#0A0A14"/>
<rect x="305.76" y="381.95" width="17.05" height="17.05" fill="#0A0A14"/>
<rect x="286.71" y="381.95" width="17.05" height="17.05" fill="#0A0A14"/>
<rect x="267.67" y="381.95" width="17.05" height="17.05" fill="#0A0A14"/>
<rect x="248.62" y="381.95" width="17.05" height="17.05" fill="#0A0A14"/>
<rect x="229.57" y="381.95" width="17.05" height="17.05" fill="#303060"/>
<rect x="210.52" y="381.95" width="17.05" height="17.05" fill="#0A0A14"/>
<rect x="191.48" y="381.95" width="17.05" height="17.05" fill="#0A0A14"/>
<rect x="172.43" y="381.95" width="17.05" height="17.05" fill="#0A0A14"/>
<rect x="153.38" y="381.95" width="17.05" height="17.05" fill="#0A0A14"/>
<rect x="134.33" y="381.95" width="17.05" height="17.05" fill="#0A0A14"/>
<rect x="115.29" y="381.95" width="17.05" height="17.05" fill="#0A0A14"/>
<rect x="96.24" y="381.95" width="17.05" height="17.05" fill="#0A0A14"/>
<rect x="77.19" y="381.95" width="17.05" height="17.05" fill="#303060"/>
<rect x="58.14" y="381.95" width="17.05" height="17.05" fill="#0A0A14"/>
<rect x="39.10" y="381.95" width="17.05" height="17.05" fill="#0A0A14"/>
<rect x="20.05" y="381.95" width="17.05" height="17.05" fill="#0A0A14"/>
<rect x="1.00" y="381.95" width="17.05" height="17.05" fill="#303060"/>
<rect x="1.00" y="362.90" width="17.05" height="17.05" fill="#0A0A14"/>
<rect x="1.00" y="343.86" width="17.05" height="17.05" fill="#0A0A14"/>
<rect x="1.00" y="324.81" width="17.05" height="17.05" fill="#0A0A14"/>
<rect x="1.00" y="305.76" width="17.05" height="17.05" fill="#0A0A14"/>
<rect x="1.00" y="286.71" width="17.05" height="17.05" fill="#0A0A14"/>
<rect x="1.00" y="267.67" width="17.05" height="17.05" fill="#0A0A14"/>
<rect x="1.00" y="248.62" width="17.05" height="17.05" fill="#0A0A14"/>
<rect x="1.00" y="229.57" width="17.05" height="17.05" fill="#303060"/>
<rect x="1.00" y="210.52" width="17.05" height="17.05" fill="#0A0A14"/>
<rect x="1.00" y="191.48" width="17.05" height="17.05" fill="#0A0A14"/>
<rect x="1.00" y="172.43" width="17.05" height="17.05" fill="#0A0A14"/>
<rect x="1.00" y="153.38" width="17.05" height="17.05" fill="#0A0A14"/>
<rect x="1.00" y="134.33" width="17.05" height="17.05" fill="#0A0A14"/>
<rect x="1.00" y="115.29" width="17.05" height="17.05" fill="#0A0A14"/>
<rect x="1.00" y="96.24" width="17.05" height="17.05" fill="#0A0A14"/>
<rect x="1.00" y="77.19" width="17.05" height="17.05" fill="#0A0A14"/>
<rect x="1.00" y="58.14" width="17.05" height="17.05" fill="#0A0A14"/>
<rect x="1.00" y="39.10" width="17.05" height="17.05" fill="#303060"/>
<rect x="1.00" y="20.05" width="17.05" height="17.05" fill="#0A0A14"/>
<rect x="1.00" y="1.00" width="17.05" height="17.05" fill="#303060"/>
<rect x="20.05" y="1.00" width="17.05" height="17.05" fill="#0A0A14"/>
<rect x="39.10" y="1.00" width="17.05" height="17.05" fill="#0A0A14"/>
<rect x="58.14" y="1.00" width="17.05" height="17.05" fill="#0A0A14"/>
<rect x="77.19" y="1.00" width="17.05" height="17.05" fill="#0A0A14"/>
<rect x="96.24" y="1.00" width="17.05" height="17.05" fill="#0A0A14"/>
<rect x="115.29" y="1.00" width="17.05" height="17.05" fill="#0A0A14"/>
<rect x="134.33" y="1.00" width="17.05" height="17.05" fill="#0A0A14"/>
<rect x="153.38" y="1.00" width="17.05" height="17.05" fill="#0A0A14"/>
<rect x="172.43" y="1.00" width="17.05" height="17.05" fill="#0A0A14"/>
<rect x="191.48" y="1.00" width="17.05" height="17.05" fill="#303060"/>
<rect x="210.52" y="1.00" width="17.05" height="17.05" fill="#0A0A14"/>
<rect x="229.57" y="1.00" width="17.05" height="17.05" fill="#303060"/>
<rect x="248.62" y="1.00" width="17.05" height="17.05" fill="#0A0A14"/>
<rect x="267.67" y="1.00" width="17.05" height="17.05" fill="#0A0A14"/>
<rect x="286.71" y="1.00" width="17.05" height="17.05" fill="#0A0A14"/>
<rect x="305.76" y="1.00" width="17.05" height="17.05" fill="#0A0A14"/>
<rect x="324.81" y="1.00" width="17.05" height="17.05" fill="#0A0A14"/>
<rect x="343.86" y="1.00" width="17.05" height="17.05" fill="#303060"/>
<rect x="362.90" y="1.00" width="17.05" height="17.05" fill="#0A0A14"/>
<rect x="381.95" y="1.00" width="17.05" height="17.05" fill="#0A0A14"/>
<circle cx="352.38" cy="123.81" r="16.19" fill="none" stroke="#FFFBE0" stroke-width="1.2" opacity="0.7"/>
<circle cx="352.38" cy="123.81" r="24.76" fill="none" stroke="#FFFFFF" stroke-width="0.5" opacity="0.3"/>
</svg>
