<?xml version="1.0" encoding="UTF-8"?>
<svg xmlns="http://www.w3.org/2000/svg" width="400" height="400" viewBox="0 0 400 400">
<rect width="400" height="400" fill="#0A0A14"/>
<text x="200" y="230" font-family="serif" font-size="280" fill="#D4A017" opacity="0.12" text-anchor="middle" dominant-baseline="middle">א</text>
<polygon points="-182.50,-120.30 -164.50,-120.30 -155.50,-104.71 -137.50,-104.71 -128.50,-120.30 -119.50,-104.71 -110.50,-120.30 -101.50,-104.71 -110.50,-89.12 -128.50,-89.12 -137.50,-73.53 -155.50,-73.53 -164.50,-89.12 -173.50,-104.71" fill="#0A0A14" stroke="#1e1e28" stroke-width="0.8"/>
<polygon points="-101.50,-120.30 -92.50,-104.71 -101.50,-89.12 -92.50,-73.53 -74.50,-73.53 -83.50,-57.94 -65.50,-57.94 -74.50,-42.35 -92.50,-42.35 -101.50,-57.94 -119.50,-57.94 -128.50,-73.53 -119.50,-89.12 -110.50,-104.71" fill="#1B2A6B" stroke="#2b3a8a" stroke-width="0.8"/>
<polygon points="-20.50,-120.30 -29.50,-104.71 -47.50,-104.71 -56.50,-89.12 -47.50,-73.53 -65.50,-73.53 -56.50,-57.94 -74.50,-57.94 -83.50,-73.53 -74.50,-89.12 -83.50,-104.71 -74.50,-120.30 -56.50,-120.30 -38.50,-120.30" fill="#F5EDD6" stroke="#fffded" stroke-width="0.8"/>
<polygon points="60.50,-120.30 42.50,-120.30 33.50,-135.88 15.50,-135.88 6.50,-120.30 -2.50,-135.88 -11.50,-120.30 -20.50,-135.88 -11.50,-151.47 6.50,-151.47 15.50,-167.06 33.50,-167.06 42.50,-151.47 51.50,-135.88" fill="#D4A017" stroke="#e4b530" stroke-width="0.8"/>
<polygon points="141.50,-120.30 132.50,-135.88 141.50,-151.47 132.50,-167.06 114.50,-167.06 123.50,-182.65 105.50,-182.65 114.50,-198.24 132.50,-198.24 141.50,-182.65 159.50,-182.65 168.50,-167.06 159.50,-151.47 150.50,-135.88" fill="#0A0A14" stroke="#1e1e28" stroke-width="0.8"/>
<polygon points="222.50,-120.30 231.50,-135.88 249.50,-135.88 258.50,-151.47 249.50,-167.06 267.50,-167.06 258.50,-182.65 276.50,-182.65 285.50,-167.06 276.50,-151.47 285.50,-135.88 276.50,-120.30 258.50,-120.30 240.50,-120.30" fill="#1B2A6B" stroke="#2b3a8a" stroke-width="0.8"/>
<polygon points="303.50,-120.30 321.50,-120.30 330.50,-104.71 348.50,-104.71 357.50,-120.30 366.50,-104.71 375.50,-120.30 384.50,-104.71 375.50,-89.12 357.50,-89.12 348.50,-73.53 330.50,-73.53 321.50,-89.12 312.50,-104.71" fill="#F5EDD6" stroke="#fffded" stroke-width="0.8"/>
<polygon points="384.50,-120.30 393.50,-104.71 384.50,-89.12 393.50,-73.53 411.50,-73.53 402.50,-57.94 420.50,-57.94 411.50,-42.35 393.50,-42.35 384.50,-57.94 366.50,-57.94 357.50,-73.53 366.50,-89.12 375.50,-104.71" fill="#D4A017" stroke="#e4b530" stroke-width="0.8"/>
<polygon points="465.50,-120.30 456.50,-104.71 438.50,-104.71 429.50,-89.12 438.50,-73.53 420.50,-73.53 429.50,-57.94 411.50,-57.94 402.50,-73.53 411.50,-89.12 402.50,-104.71 411.50,-120.30 429.50,-120.30 447.50,-120.30" fill="#0A0A14" stroke="#1e1e28" stroke-width="0.8"/>
<polygon points="546.50,-120.30 528.50,-120.30 519.50,-135.88 501.50,-135.88 492.50,-120.30 483.50,-135.88 474.50,-120.30 465.50,-135.88 474.50,-151.47 492.50,-151.47 501.50,-167.06 519.50,-167.06 528.50,-151.47 537.50,-135.88" fill="#1B2A6B" stroke="#2b3a8a" stroke-width="0.8"/>
<polygon points="627.50,-120.30 618.50,-135.88 627.50,-151.47 618.50,-167.06 600.50,-167.06 609.50,-182.65 591.50,-182.65 600.50,-198.24 618.50,-198.24 627.50,-182.65 645.50,-182.65 654.50,-167.06 645.50,-151.47 636.50,-135.88" fill="#F5EDD6" stroke="#fffded" stroke-width="0.8"/>
<polygon points="708.50,-120.30 717.50,-135.88 735.50,-135.88 744.50,-151.47 735.50,-167.06 753.50,-167.06 744.50,-182.65 762.50,-182.65 771.50,-167.06 762.50,-151.47 771.50,-135.88 762.50,-120.30 744.50,-120.30 726.50,-120.30" fill="#D4A017" stroke="#e4b530" stroke-width="0.8"/>
<polygon points="-223.00,-73.53 -241.00,-73.53 -250.00,-89.12 -268.00,-89.12 -277.00,-73.53 -286.00,-89.12 -295.00,-73.53 -304.00,-89.12 -295.00,-104.71 -277.00,-104.71 -268.00,-120.30 -250.00,-120.30 -241.00,-104.71 -232.00,-89.12" fill="#D4A017" stroke="#e4b530" stroke-width="0.8"/>
<polygon points="-142.00,-73.53 -151.00,-89.12 -142.00,-104.71 -151.00,-120.30 -169.00,-120.30 -160.00,-135.88 -178.00,-135.88 -169.00,-151.47 -151.00,-151.47 -142.00,-135.88 -124.00,-135.88 -115.00,-120.30 -124.00,-104.71 -133.00,-89.12" fill="#0A0A14" stroke="#1e1e28" stroke-width="0.8"/>
<polygon points="-61.00,-73.53 -52.00,-89.12 -34.00,-89.12 -25.00,-104.71 -34.00,-120.30 -16.00,-120.30 -25.00,-135.88 -7.00,-135.88 2.00,-120.30 -7.00,-104.71 2.00,-89.12 -7.00,-73.53 -25.00,-73.53 -43.00,-73.53" fill="#1B2A6B" stroke="#2b3a8a" stroke-width="0.8"/>
<polygon points="20.00,-73.53 38.00,-73.53 47.00,-57.94 65.00,-57.94 74.00,-73.53 83.00,-57.94 92.00,-73.53 101.00,-57.94 92.00,-42.35 74.00,-42.35 65.00,-26.77 47.00,-26.77 38.00,-42.35 29.00,-57.94" fill="#F5EDD6" stroke="#fffded" stroke-width="0.8"/>
<polygon points="101.00,-73.53 110.00,-57.94 101.00,-42.35 110.00,-26.77 128.00,-26.77 119.00,-11.18 137.00,-11.18 128.00,4.41 110.00,4.41 101.00,-11.18 83.00,-11.18 74.00,-26.77 83.00,-42.35 92.00,-57.94" fill="#D4A017" stroke="#e4b530" stroke-width="0.8"/>
<polygon points="182.00,-73.53 173.00,-57.94 155.00,-57.94 146.00,-42.35 155.00,-26.77 137.00,-26.77 146.00,-11.18 128.00,-11.18 119.00,-26.77 128.00,-42.35 119.00,-57.94 128.00,-73.53 146.00,-73.53 164.00,-73.53" fill="#0A0A14" stroke="#1e1e28" stroke-width="0.8"/>
<polygon points="263.00,-73.53 245.00,-73.53 236.00,-89.12 218.00,-89.12 209.00,-73.53 200.00,-89.12 191.00,-73.53 182.00,-89.12 191.00,-104.71 209.00,-104.71 218.00,-120.30 236.00,-120.30 245.00,-104.71 254.00,-89.12" fill="#1B2A6B" stroke="#2b3a8a" stroke-width="0.8"/>
<polygon points="344.00,-73.53 335.00,-89.12 344.00,-104.71 335.00,-120.30 317.00,-120.30 326.00,-135.88 308.00,-135.88 317.00,-151.47 335.00,-151.47 344.00,-135.88 362.00,-135.88 371.00,-120.30 362.00,-104.71 353.00,-89.12" fill="#F5EDD6" stroke="#fffded" stroke-width="0.8"/>
<polygon points="425.00,-73.53 434.00,-89.12 452.00,-89.12 461.00,-104.71 452.00,-120.30 470.00,-120.30 461.00,-135.88 479.00,-135.88 488.00,-120.30 479.00,-104.71 488.00,-89.12 479.00,-73.53 461.00,-73.53 443.00,-73.53" fill="#D4A017" stroke="#e4b530" stroke-width="0.8"/>
<polygon points="506.00,-73.53 524.00,-73.53 533.00,-57.94 551.00,-57.94 560.00,-73.53 569.00,-57.94 578.00,-73.53 587.00,-57.94 578.00,-42.35 560.00,-42.35 551.00,-26.77 533.00,-26.77 524.00,-42.35 515.00,-57.94" fill="#0A0A14" stroke="#1e1e28" stroke-width="0.8"/>
<polygon points="587.00,-73.53 596.00,-57.94 587.00,-42.35 596.00,-26.77 614.00,-26.77 605.00,-11.18 623.00,-11.18 614.00,4.41 596.00,4.41 587.00,-11.18 569.00,-11.18 560.00,-26.77 569.00,-42.35 578.00,-57.94" fill="#1B2A6B" stroke="#2b3a8a" stroke-width="0.8"/>
<polygon points="668.00,-73.53 659.00,-57.94 641.00,-57.94 632.00,-42.35 641.00,-26.77 623.00,-26.77 632.00,-11.18 614.00,-11.18 605.00,-26.77 614.00,-42.35 605.00,-57.94 614.00,-73.53 632.00,-73.53 650.00,-73.53" fill="#F5EDD6" stroke="#fffded" stroke-width="0.8"/>
<polygon points="-182.50,-26.77 -164.50,-26.77 -155.50,-11.18 -137.50,-11.18 -128.50,-26.77 -119.50,-11.18 -110.50,-26.77 -101.50,-11.18 -110.50,4.41 -128.50,4.41 -137.50,20.00 -155.50,20.00 -164.50,4.41 -173.50,-11.18" fill="#F5EDD6" stroke="#fffded" stroke-width="0.8"/>
<polygon points="-101.50,-26.77 -92.50,-11.18 -101.50,4.41 -92.50,20.00 -74.50,20.00 -83.50,35.59 -65.50,35.59 -74.50,51.18 -92.50,51.18 -101.50,35.59 -119.50,35.59 -128.50,20.00 -119.50,4.41 -110.50,-11.18" fill="#D4A017" stroke="#e4b530" stroke-width="0.8"/>
<polygon points="-20.50,-26.77 -29.50,-11.18 -47.50,-11.18 -56.50,4.41 -47.50,20.00 -65.50,20.00 -56.50,35.59 -74.50,35.59 -83.50,20.00 -74.50,4.41 -83.50,-11.18 -74.50,-26.77 -56.50,-26.77 -38.50,-26.77" fill="#0A0A14" stroke="#1e1e28" stroke-width="0.8"/>
<polygon points="60.50,-26.77 42.50,-26.77 33.50,-42.35 15.50,-42.35 6.50,-26.77 -2.50,-42.35 -11.50,-26.77 -20.50,-42.35 -11.50,-57.94 6.50,-57.94 15.50,-73.53 33.50,-73.53 42.50,-57.94 51.50,-42.35" fill="#1B2A6B" stroke="#2b3a8a" stroke-width="0.8"/>
<polygon points="141.50,-26.77 132.50,-42.35 141.50,-57.94 132.50,-73.53 114.50,-73.53 123.50,-89.12 105.50,-89.12 114.50,-104.71 132.50,-104.71 141.50,-89.12 159.50,-89.12 168.50,-73.53 159.50,-57.94 150.50,-42.35" fill="#F5EDD6" stroke="#fffded" stroke-width="0.8"/>
<polygon points="222.50,-26.77 231.50,-42.35 249.50,-42.35 258.50,-57.94 249.50,-73.53 267.50,-73.53 258.50,-89.12 276.50,-89.12 285.50,-73.53 276.50,-57.94 285.50,-42.35 276.50,-26.77 258.50,-26.77 240.50,-26.77" fill="#D4A017" stroke="#e4b530" stroke-width="0.8"/>
<polygon points="303.50,-26.77 321.50,-26.77 330.50,-11.18 348.50,-11.18 357.50,-26.77 366.50,-11.18 375.50,-26.77 384.50,-11.18 375.50,4.41 357.50,4.41 348.50,20.00 330.50,20.00 321.50,4.41 312.50,-11.18" fill="#0A0A14" stroke="#1e1e28" stroke-width="0.8"/>
<polygon points="384.50,-26.77 393.50,-11.18 384.50,4.41 393.50,20.00 411.50,20.00 402.50,35.59 420.50,35.59 411.50,51.18 393.50,51.18 384.50,35.59 366.50,35.59 357.50,20.00 366.50,4.41 375.50,-11.18" fill="#1B2A6B" stroke="#2b3a8a" stroke-width="0.8"/>
<polygon points="465.50,-26.77 456.50,-11.18 438.50,-11.18 429.50,4.41 438.50,20.00 420.50,20.00 429.50,35.59 411.50,35.59 402.50,20.00 411.50,4.41 402.50,-11.18 411.50,-26.77 429.50,-26.77 447.50,-26.77" fill="#F5EDD6" stroke="#fffded" stroke-width="0.8"/>
<polygon points="546.50,-26.77 528.50,-26.77 519.50,-42.35 501.50,-42.35 492.50,-26.77 483.50,-42.35 474.50,-26.77 465.50,-42.35 474.50,-57.94 492.50,-57.94 501.50,-73.53 519.50,-73.53 528.50,-57.94 537.50,-42.35" fill="#D4A017" stroke="#e4b530" stroke-width="0.8"/>
<polygon points="627.50,-26.77 618.50,-42.35 627.50,-57.94 618.50,-73.53 600.50,-73.53 609.50,-89.12 591.50,-89.12 600.50,-104.71 618.50,-104.71 627.50,-89.12 645.50,-89.12 654.50,-73.53 645.50,-57.94 636.50,-42.35" fill="#0A0A14" stroke="#1e1e28" stroke-width="0.8"/>
<polygon points="708.50,-26.77 717.50,-42.35 735.50,-42.35 744.50,-57.94 735.50,-73.53 753.50,-73.53 744.50,-89.12 762.50,-89.12 771.50,-73.53 762.50,-57.94 771.50,-42.35 762.50,-26.77 744.50,-26.77 726.50,-26.77" fill="#1B2A6B" stroke="#2b3a8a" stroke-width="0.8"/>
<polygon points="-223.00,20.00 -241.00,20.00 -250.00,4.41 -268.00,4.41 -277.00,20.00 -286.00,4.41 -295.00,20.00 -304.00,4.41 -295.00,-11.18 -277.00,-11.18 -268.00,-26.77 -250.00,-26.77 -241.00,-11.18 -232.00,4.41" fill="#1B2A6B" stroke="#2b3a8a" stroke-width="0.8"/>
<polygon points="-142.00,20.00 -151.00,4.41 -142.00,-11.18 -151.00,-26.77 -169.00,-26.77 -160.00,-42.35 -178.00,-42.35 -169.00,-57.94 -151.00,-57.94 -142.00,-42.35 -124.00,-42.35 -115.00,-26.77 -124.00,-11.18 -133.00,4.41" fill="#F5EDD6" stroke="#fffded" stroke-width="0.8"/>
<polygon points="-61.00,20.00 -52.00,4.41 -34.00,4.41 -25.00,-11.18 -34.00,-26.77 -16.00,-26.77 -25.00,-42.35 -7.00,-42.35 2.00,-26.77 -7.00,-11.18 2.00,4.41 -7.00,20.00 -25.00,20.00 -43.00,20.00" fill="#D4A017" stroke="#e4b530" stroke-width="0.8"/>
<polygon points="20.00,20.00 38.00,20.00 47.00,35.59 65.00,35.59 74.00,20.00 83.00,35.59 92.00,20.00 101.00,35.59 92.00,51.18 74.00,51.18 65.00,66.77 47.00,66.77 38.00,51.18 29.00,35.59" fill="#0A0A14" stroke="#1e1e28" stroke-width="0.8"/>
<polygon points="101.00,20.00 110.00,35.59 101.00,51.18 110.00,66.77 128.00,66.77 119.00,82.35 137.00,82.35 128.00,97.94 110.00,97.94 101.00,82.35 83.00,82.35 74.00,66.77 83.00,51.18 92.00,35.59" fill="#1B2A6B" stroke="#2b3a8a" stroke-width="0.8"/>
<polygon points="182.00,20.00 173.00,35.59 155.00,35.59 146.00,51.18 155.00,66.77 137.00,66.77 146.00,82.35 128.00,82.35 119.00,66.77 128.00,51.18 119.00,35.59 128.00,20.00 146.00,20.00 164.00,20.00" fill="#F5EDD6" stroke="#fffded" stroke-width="0.8"/>
<polygon points="263.00,20.00 245.00,20.00 236.00,4.41 218.00,4.41 209.00,20.00 200.00,4.41 191.00,20.00 182.00,4.41 191.00,-11.18 209.00,-11.18 218.00,-26.77 236.00,-26.77 245.00,-11.18 254.00,4.41" fill="#D4A017" stroke="#e4b530" stroke-width="0.8"/>
<polygon points="344.00,20.00 335.00,4.41 344.00,-11.18 335.00,-26.77 317.00,-26.77 326.00,-42.35 308.00,-42.35 317.00,-57.94 335.00,-57.94 344.00,-42.35 362.00,-42.35 371.00,-26.77 362.00,-11.18 353.00,4.41" fill="#0A0A14" stroke="#1e1e28" stroke-width="0.8"/>
<polygon points="425.00,20.00 434.00,4.41 452.00,4.41 461.00,-11.18 452.00,-26.77 470.00,-26.77 461.00,-42.35 479.00,-42.35 488.00,-26.77 479.00,-11.18 488.00,4.41 479.00,20.00 461.00,20.00 443.00,20.00" fill="#1B2A6B" stroke="#2b3a8a" stroke-width="0.8"/>
<polygon points="506.00,20.00 524.00,20.00 533.00,35.59 551.00,35.59 560.00,20.00 569.00,35.59 578.00,20.00 587.00,35.59 578.00,51.18 560.00,51.18 551.00,66.77 533.00,66.77 524.00,51.18 515.00,35.59" fill="#F5EDD6" stroke="#fffded" stroke-width="0.8"/>
<polygon points="587.00,20.00 596.00,35.59 587.00,51.18 596.00,66.77 614.00,66.77 605.00,82.35 623.00,82.35 614.00,97.94 596.00,97.94 587.00,82.35 569.00,82.35 560.00,66.77 569.00,51.18 578.00,35.59" fill="#D4A017" stroke="#e4b530" stroke-width="0.8"/>
<polygon points="668.00,20.00 659.00,35.59 641.00,35.59 632.00,51.18 641.00,66.77 623.00,66.77 632.00,82.35 614.00,82.35 605.00,66.77 614.00,51.18 605.00,35.59 614.00,20.00 632.00,20.00 650.00,20.00" fill="#0A0A14" stroke="#1e1e28" stroke-width="0.8"/>
<polygon points="-182.50,66.77 -164.50,66.77 -155.50,82.35 -137.50,82.35 -128.50,66.77 -119.50,82.35 -110.50,66.77 -101.50,82.35 -110.50,97.94 -128.50,97.94 -137.50,113.53 -155.50,113.53 -164.50,97.94 -173.50,82.35" fill="#0A0A14" stroke="#1e1e28" stroke-width="0.8"/>
<polygon points="-101.50,66.77 -92.50,82.35 -101.50,97.94 -92.50,113.53 -74.50,113.53 -83.50,129.12 -65.50,129.12 -74.50,144.71 -92.50,144.71 -101.50,129.12 -119.50,129.12 -128.50,113.53 -119.50,97.94 -110.50,82.35" fill="#1B2A6B" stroke="#2b3a8a" stroke-width="0.8"/>
<polygon points="-20.50,66.77 -29.50,82.35 -47.50,82.35 -56.50,97.94 -47.50,113.53 -65.50,113.53 -56.50,129.12 -74.50,129.12 -83.50,113.53 -74.50,97.94 -83.50,82.35 -74.50,66.77 -56.50,66.77 -38.50,66.77" fill="#F5EDD6" stroke="#fffded" stroke-width="0.8"/>
<polygon points="60.50,66.77 42.50,66.77 33.50,51.18 15.50,51.18 6.50,66.77 -2.50,51.18 -11.50,66.77 -20.50,51.18 -11.50,35.59 6.50,35.59 15.50,20.00 33.50,20.00 42.50,35.59 51.50,51.18" fill="#D4A017" stroke="#e4b530" stroke-width="0.8"/>
<polygon points="141.50,66.77 132.50,51.18 141.50,35.59 132.50,20.00 114.50,20.00 123.50,4.41 105.50,4.41 114.50,-11.18 132.50,-11.18 141.50,4.41 159.50,4.41 168.50,20.00 159.50,35.59 150.50,51.18" fill="#0A0A14" stroke="#1e1e28" stroke-width="0.8"/>
<polygon points="222.50,66.77 231.50,51.18 249.50,51.18 258.50,35.59 249.50,20.00 267.50,20.00 258.50,4.41 276.50,4.41 285.50,20.00 276.50,35.59 285.50,51.18 276.50,66.77 258.50,66.77 240.50,66.77" fill="#1B2A6B" stroke="#2b3a8a" stroke-width="0.8"/>
<polygon points="303.50,66.77 321.50,66.77 330.50,82.35 348.50,82.35 357.50,66.77 366.50,82.35 375.50,66.77 384.50,82.35 375.50,97.94 357.50,97.94 348.50,113.53 330.50,113.53 321.50,97.94 312.50,82.35" fill="#F5EDD6" stroke="#fffded" stroke-width="0.8"/>
<polygon points="384.50,66.77 393.50,82.35 384.50,97.94 393.50,113.53 411.50,113.53 402.50,129.12 420.50,129.12 411.50,144.71 393.50,144.71 384.50,129.12 366.50,129.12 357.50,113.53 366.50,97.94 375.50,82.35" fill="#D4A017" stroke="#e4b530" stroke-width="0.8"/>
<polygon points="465.50,66.77 456.50,82.35 438.50,82.35 429.50,97.94 438.50,113.53 420.50,113.53 429.50,129.12 411.50,129.12 402.50,113.53 411.50,97.94 402.50,82.35 411.50,66.77 429.50,66.77 447.50,66.77" fill="#0A0A14" stroke="#1e1e28" stroke-width="0.8"/>
<polygon points="546.50,66.77 528.50,66.77 519.50,51.18 501.50,51.18 492.50,66.77 483.50,51.18 474.50,66.77 465.50,51.18 474.50,35.59 492.50,35.59 501.50,20.00 519.50,20.00 528.50,35.59 537.50,51.18" fill="#1B2A6B" stroke="#2b3a8a" stroke-width="0.8"/>
<polygon points="627.50,66.77 618.50,51.18 627.50,35.59 618.50,20.00 600.50,20.00 609.50,4.41 591.50,4.41 600.50,-11.18 618.50,-11.18 627.50,4.41 645.50,4.41 654.50,20.00 645.50,35.59 636.50,51.18" fill="#F5EDD6" stroke="#fffded" stroke-width="0.8"/>
<polygon points="708.50,66.77 717.50,51.18 735.50,51.18 744.50,35.59 735.50,20.00 753.50,20.00 744.50,4.41 762.50,4.41 771.50,20.00 762.50,35.59 771.50,51.18 762.50,66.77 744.50,66.77 726.50,66.77" fill="#D4A017" stroke="#e4b530" stroke-width="0.8"/>
<polygon points="-223.00,113.53 -241.00,113.53 -250.00,97.94 -268.00,97.94 -277.00,113.53 -286.00,97.94 -295.00,113.53 -304.00,97.94 -295.00,82.35 -277.00,82.35 -268.00,66.77 -250.00,66.77 -241.00,82.35 -232.00,97.94" fill="#D4A017" stroke="#e4b530" stroke-width="0.8"/>
<polygon points="-142.00,113.53 -151.00,97.94 -142.00,82.35 -151.00,66.77 -169.00,66.77 -160.00,51.18 -178.00,51.18 -169.00,35.59 -151.00,35.59 -142.00,51.18 -124.00,51.18 -115.00,66.77 -124.00,82.35 -133.00,97.94" fill="#0A0A14" stroke="#1e1e28" stroke-width="0.8"/>
<polygon points="-61.00,113.53 -52.00,97.94 -34.00,97.94 -25.00,82.35 -34.00,66.77 -16.00,66.77 -25.00,51.18 -7.00,51.18 2.00,66.77 -7.00,82.35 2.00,97.94 -7.00,113.53 -25.00,113.53 -43.00,113.53" fill="#1B2A6B" stroke="#2b3a8a" stroke-width="0.8"/>
<polygon points="20.00,113.53 38.00,113.53 47.00,129.12 65.00,129.12 74.00,113.53 83.00,129.12 92.00,113.53 101.00,129.12 92.00,144.71 74.00,144.71 65.00,160.30 47.00,160.30 38.00,144.71 29.00,129.12" fill="#F5EDD6" stroke="#fffded" stroke-width="0.8"/>
<polygon points="101.00,113.53 110.00,129.12 101.00,144.71 110.00,160.30 128.00,160.30 119.00,175.88 137.00,175.88 128.00,191.47 110.00,191.47 101.00,175.88 83.00,175.88 74.00,160.30 83.00,144.71 92.00,129.12" fill="#D4A017" stroke="#e4b530" stroke-width="0.8"/>
<polygon points="182.00,113.53 173.00,129.12 155.00,129.12 146.00,144.71 155.00,160.30 137.00,160.30 146.00,175.88 128.00,175.88 119.00,160.30 128.00,144.71 119.00,129.12 128.00,113.53 146.00,113.53 164.00,113.53" fill="#0A0A14" stroke="#1e1e28" stroke-width="0.8"/>
<polygon points="263.00,113.53 245.00,113.53 236.00,97.94 218.00,97.94 209.00,113.53 200.00,97.94 191.00,113.53 182.00,97.94 191.00,82.35 209.00,82.35 218.00,66.77 236.00,66.77 245.00,82.35 254.00,97.94" fill="#1B2A6B" stroke="#2b3a8a" stroke-width="0.8"/>
<polygon points="344.00,113.53 335.00,97.94 344.00,82.35 335.00,66.77 317.00,66.77 326.00,51.18 308.00,51.18 317.00,35.59 335.00,35.59 344.00,51.18 362.00,51.18 371.00,66.77 362.00,82.35 353.00,97.94" fill="#F5EDD6" stroke="#fffded" stroke-width="0.8"/>
<polygon points="425.00,113.53 434.00,97.94 452.00,97.94 461.00,82.35 452.00,66.77 470.00,66.77 461.00,51.18 479.00,51.18 488.00,66.77 479.00,82.35 488.00,97.94 479.00,113.53 461.00,113.53 443.00,113.53" fill="#D4A017" stroke="#e4b530" stroke-width="0.8"/>
<polygon points="506.00,113.53 524.00,113.53 533.00,129.12 551.00,129.12 560.00,113.53 569.00,129.12 578.00,113.53 587.00,129.12 578.00,144.71 560.00,144.71 551.00,160.30 533.00,160.30 524.00,144.71 515.00,129.12" fill="#0A0A14" stroke="#1e1e28" stroke-width="0.8"/>
<polygon points="587.00,113.53 596.00,129.12 587.00,144.71 596.00,160.30 614.00,160.30 605.00,175.88 623.00,175.88 614.00,191.47 596.00,191.47 587.00,175.88 569.00,175.88 560.00,160.30 569.00,144.71 578.00,129.12" fill="#1B2A6B" stroke="#2b3a8a" stroke-width="0.8"/>
<polygon points="668.00,113.53 659.00,129.12 641.00,129.12 632.00,144.71 641.00,160.30 623.00,160.30 632.00,175.88 614.00,175.88 605.00,160.30 614.00,144.71 605.00,129.12 614.00,113.53 632.00,113.53 650.00,113.53" fill="#F5EDD6" stroke="#fffded" stroke-width="0.8"/>
<polygon points="-182.50,160.30 -164.50,160.30 -155.50,175.88 -137.50,175.88 -128.50,160.30 -119.50,175.88 -110.50,160.30 -101.50,175.88 -110.50,191.47 -128.50,191.47 -137.50,207.06 -155.50,207.06 -164.50,191.47 -173.50,175.88" fill="#F5EDD6" stroke="#fffded" stroke-width="0.8"/>
<polygon points="-101.50,160.30 -92.50,175.88 -101.50,191.47 -92.50,207.06 -74.50,207.06 -83.50,222.65 -65.50,222.65 -74.50,238.24 -92.50,238.24 -101.50,222.65 -119.50,222.65 -128.50,207.06 -119.50,191.47 -110.50,175.88" fill="#D4A017" stroke="#e4b530" stroke-width="0.8"/>
<polygon points="-20.50,160.30 -29.50,175.88 -47.50,175.88 -56.50,191.47 -47.50,207.06 -65.50,207.06 -56.50,222.65 -74.50,222.65 -83.50,207.06 -74.50,191.47 -83.50,175.88 -74.50,160.30 -56.50,160.30 -38.50,160.30" fill="#0A0A14" stroke="#1e1e28" stroke-width="0.8"/>
<polygon points="60.50,160.30 42.50,160.30 33.50,144.71 15.50,144.71 6.50,160.30 -2.50,144.71 -11.50,160.30 -20.50,144.71 -11.50,129.12 6.50,129.12 15.50,113.53 33.50,113.53 42.50,129.12 51.50,144.71" fill="#1B2A6B" stroke="#2b3a8a" stroke-width="0.8"/>
<polygon points="141.50,160.30 132.50,144.71 141.50,129.12 132.50,113.53 114.50,113.53 123.50,97.94 105.50,97.94 114.50,82.35 132.50,82.35 141.50,97.94 159.50,97.94 168.50,113.53 159.50,129.12 150.50,144.71" fill="#F5EDD6" stroke="#fffded" stroke-width="0.8"/>
<polygon points="222.50,160.30 231.50,144.71 249.50,144.71 258.50,129.12 249.50,113.53 267.50,113.53 258.50,97.94 276.50,97.94 285.50,113.53 276.50,129.12 285.50,144.71 276.50,160.30 258.50,160.30 240.50,160.30" fill="#D4A017" stroke="#e4b530" stroke-width="0.8"/>
<polygon points="303.50,160.30 321.50,160.30 330.50,175.88 348.50,175.88 357.50,160.30 366.50,175.88 375.50,160.30 384.50,175.88 375.50,191.47 357.50,191.47 348.50,207.06 330.50,207.06 321.50,191.47 312.50,175.88" fill="#0A0A14" stroke="#1e1e28" stroke-width="0.8"/>
<polygon points="384.50,160.30 393.50,175.88 384.50,191.47 393.50,207.06 411.50,207.06 402.50,222.65 420.50,222.65 411.50,238.24 393.50,238.24 384.50,222.65 366.50,222.65 357.50,207.06 366.50,191.47 375.50,175.88" fill="#1B2A6B" stroke="#2b3a8a" stroke-width="0.8"/>
<polygon points="465.50,160.30 456.50,175.88 438.50,175.88 429.50,191.47 438.50,207.06 420.50,207.06 429.50,222.65 411.50,222.65 402.50,207.06 411.50,191.47 402.50,175.88 411.50,160.30 429.50,160.30 447.50,160.30" fill="#F5EDD6" stroke="#fffded" stroke-width="0.8"/>
<polygon points="546.50,160.30 528.50,160.30 519.50,144.71 501.50,144.71 492.50,160.30 483.50,144.71 474.50,160.30 465.50,144.71 474.50,129.12 492.50,129.12 501.50,113.53 519.50,113.53 528.50,129.12 537.50,144.71" fill="#D4A017" stroke="#e4b530" stroke-width="0.8"/>
<polygon points="627.50,160.30 618.50,144.71 627.50,129.12 618.50,113.53 600.50,113.53 609.50,97.94 591.50,97.94 600.50,82.35 618.50,82.35 627.50,97.94 645.50,97.94 654.50,113.53 645.50,129.12 636.50,144.71" fill="#0A0A14" stroke="#1e1e28" stroke-width="0.8"/>
<polygon points="708.50,160.30 717.50,144.71 735.50,144.71 744.50,129.12 735.50,113.53 753.50,113.53 744.50,97.94 762.50,97.94 771.50,113.53 762.50,129.12 771.50,144.71 762.50,160.30 744.50,160.30 726.50,160.30" fill="#1B2A6B" stroke="#2b3a8a" stroke-width="0.8"/>
<polygon points="-223.00,207.06 -241.00,207.06 -250.00,191.47 -268.00,191.47 -277.00,207.06 -286.00,191.47 -295.00,207.06 -304.00,191.47 -295.00,175.88 -277.00,175.88 -268.00,160.30 -250.00,160.30 -241.00,175.88 -232.00,191.47" fill="#1B2A6B" stroke="#2b3a8a" stroke-width="0.8"/>
<polygon points="-142.00,207.06 -151.00,191.47 -142.00,175.88 -151.00,160.30 -169.00,160.30 -160.00,144.71 -178.00,144.71 -169.00,129.12 -151.00,129.12 -142.00,144.71 -124.00,144.71 -115.00,160.30 -124.00,175.88 -133.00,191.47" fill="#F5EDD6" stroke="#fffded" stroke-width="0.8"/>
<polygon points="-61.00,207.06 -52.00,191.47 -34.00,191.47 -25.00,175.88 -34.00,160.30 -16.00,160.30 -25.00,144.71 -7.00,144.71 2.00,160.30 -7.00,175.88 2.00,191.47 -7.00,207.06 -25.00,207.06 -43.00,207.06" fill="#D4A017" stroke="#e4b530" stroke-width="0.8"/>
<polygon points="20.00,207.06 38.00,207.06 47.00,222.65 65.00,222.65 74.00,207.06 83.00,222.65 92.00,207.06 101.00,222.65 92.00,238.24 74.00,238.24 65.00,253.83 47.00,253.83 38.00,238.24 29.00,222.65" fill="#0A0A14" stroke="#1e1e28" stroke-width="0.8"/>
<polygon points="101.00,207.06 110.00,222.65 101.00,238.24 110.00,253.83 128.00,253.83 119.00,269.42 137.00,269.42 128.00,285.00 110.00,285.00 101.00,269.42 83.00,269.42 74.00,253.83 83.00,238.24 92.00,222.65" fill="#1B2A6B" stroke="#2b3a8a" stroke-width="0.8"/>
<polygon points="182.00,207.06 173.00,222.65 155.00,222.65 146.00,238.24 155.00,253.83 137.00,253.83 146.00,269.42 128.00,269.42 119.00,253.83 128.00,238.24 119.00,222.65 128.00,207.06 146.00,207.06 164.00,207.06" fill="#F5EDD6" stroke="#fffded" stroke-width="0.8"/>
<polygon points="263.00,207.06 245.00,207.06 236.00,191.47 218.00,191.47 209.00,207.06 200.00,191.47 191.00,207.06 182.00,191.47 191.00,175.88 209.00,175.88 218.00,160.30 236.00,160.30 245.00,175.88 254.00,191.47" fill="#D4A017" stroke="#e4b530" stroke-width="0.8"/>
<polygon points="344.00,207.06 335.00,191.47 344.00,175.88 335.00,160.30 317.00,160.30 326.00,144.71 308.00,144.71 317.00,129.12 335.00,129.12 344.00,144.71 362.00,144.71 371.00,160.30 362.00,175.88 353.00,191.47" fill="#0A0A14" stroke="#1e1e28" stroke-width="0.8"/>
<polygon points="425.00,207.06 434.00,191.47 452.00,191.47 461.00,175.88 452.00,160.30 470.00,160.30 461.00,144.71 479.00,144.71 488.00,160.30 479.00,175.88 488.00,191.47 479.00,207.06 461.00,207.06 443.00,207.06" fill="#1B2A6B" stroke="#2b3a8a" stroke-width="0.8"/>
<polygon points="506.00,207.06 524.00,207.06 533.00,222.65 551.00,222.65 560.00,207.06 569.00,222.65 578.00,207.06 587.00,222.65 578.00,238.24 560.00,238.24 551.00,253.83 533.00,253.83 524.00,238.24 515.00,222.65" fill="#F5EDD6" stroke="#fffded" stroke-width="0.8"/>
<polygon points="587.00,207.06 596.00,222.65 587.00,238.24 596.00,253.83 614.00,253.83 605.00,269.42 623.00,269.42 614.00,285.00 596.00,285.00 587.00,269.42 569.00,269.42 560.00,253.83 569.00,238.24 578.00,222.65" fill="#D4A017" stroke="#e4b530" stroke-width="0.8"/>
<polygon points="668.00,207.06 659.00,222.65 641.00,222.65 632.00,238.24 641.00,253.83 623.00,253.83 632.00,269.42 614.00,269.42 605.00,253.83 614.00,238.24 605.00,222.65 614.00,207.06 632.00,207.06 650.00,207.06" fill="#0A0A14" stroke="#1e1e28" stroke-width="0.8"/>
<polygon points="-182.50,253.83 -164.50,253.83 -155.50,269.42 -137.50,269.42 -128.50,253.83 -119.50,269.42 -110.50,253.83 -101.50,269.42 -110.50,285.00 -128.50,285.00 -137.50,300.59 -155.50,300.59 -164.50,285.00 -173.50,269.42" fill="#0A0A14" stroke="#1e1e28" stroke-width="0.8"/>
<polygon points="-101.50,253.83 -92.50,269.42 -101.50,285.00 -92.50,300.59 -74.50,300.59 -83.50,316.18 -65.50,316.18 -74.50,331.77 -92.50,331.77 -101.50,316.18 -119.50,316.18 -128.50,300.59 -119.50,285.00 -110.50,269.42" fill="#1B2A6B" stroke="#2b3a8a" stroke-width="0.8"/>
<polygon points="-20.50,253.83 -29.50,269.42 -47.50,269.42 -56.50,285.00 -47.50,300.59 -65.50,300.59 -56.50,316.18 -74.50,316.18 -83.50,300.59 -74.50,285.00 -83.50,269.42 -74.50,253.83 -56.50,253.83 -38.50,253.83" fill="#F5EDD6" stroke="#fffded" stroke-width="0.8"/>
<polygon points="60.50,253.83 42.50,253.83 33.50,238.24 15.50,238.24 6.50,253.83 -2.50,238.24 -11.50,253.83 -20.50,238.24 -11.50,222.65 6.50,222.65 15.50,207.06 33.50,207.06 42.50,222.65 51.50,238.24" fill="#D4A017" stroke="#e4b530" stroke-width="0.8"/>
<polygon points="141.50,253.83 132.50,238.24 141.50,222.65 132.50,207.06 114.50,207.06 123.50,191.47 105.50,191.47 114.50,175.88 132.50,175.88 141.50,191.47 159.50,191.47 168.50,207.06 159.50,222.65 150.50,238.24" fill="#0A0A14" stroke="#1e1e28" stroke-width="0.8"/>
<polygon points="222.50,253.83 231.50,238.24 249.50,238.24 258.50,222.65 249.50,207.06 267.50,207.06 258.50,191.47 276.50,191.47 285.50,207.06 276.50,222.65 285.50,238.24 276.50,253.83 258.50,253.83 240.50,253.83" fill="#1B2A6B" stroke="#2b3a8a" stroke-width="0.8"/>
<polygon points="303.50,253.83 321.50,253.83 330.50,269.42 348.50,269.42 357.50,253.83 366.50,269.42 375.50,253.83 384.50,269.42 375.50,285.00 357.50,285.00 348.50,300.59 330.50,300.59 321.50,285.00 312.50,269.42" fill="#F5EDD6" stroke="#fffded" stroke-width="0.8"/>
<polygon points="384.50,253.83 393.50,269.42 384.50,285.00 393.50,300.59 411.50,300.59 402.50,316.18 420.50,316.18 411.50,331.77 393.50,331.77 384.50,316.18 366.50,316.18 357.50,300.59 366.50,285.00 375.50,269.42" fill="#D4A017" stroke="#e4b530" stroke-width="0.8"/>
<polygon points="465.50,253.83 456.50,269.42 438.50,269.42 429.50,285.00 438.50,300.59 420.50,300.59 429.50,316.18 411.50,316.18 402.50,300.59 411.50,285.00 402.50,269.42 411.50,253.83 429.50,253.83 447.50,253.83" fill="#0A0A14" stroke="#1e1e28" stroke-width="0.8"/>
<polygon points="546.50,253.83 528.50,253.83 519.50,238.24 501.50,238.24 492.50,253.83 483.50,238.24 474.50,253.83 465.50,238.24 474.50,222.65 492.50,222.65 501.50,207.06 519.50,207.06 528.50,222.65 537.50,238.24" fill="#1B2A6B" stroke="#2b3a8a" stroke-width="0.8"/>
<polygon points="627.50,253.83 618.50,238.24 627.50,222.65 618.50,207.06 600.50,207.06 609.50,191.47 591.50,191.47 600.50,175.88 618.50,175.88 627.50,191.47 645.50,191.47 654.50,207.06 645.50,222.65 636.50,238.24" fill="#F5EDD6" stroke="#fffded" stroke-width="0.8"/>
<polygon points="708.50,253.83 717.50,238.24 735.50,238.24 744.50,222.65 735.50,207.06 753.50,207.06 744.50,191.47 762.50,191.47 771.50,207.06 762.50,222.65 771.50,238.24 762.50,253.83 744.50,253.83 726.50,253.83" fill="#D4A017" stroke="#e4b530" stroke-width="0.8"/>
<polygon points="-223.00,300.59 -241.00,300.59 -250.00,285.00 -268.00,285.00 -277.00,300.59 -286.00,285.00 -295.00,300.59 -304.00,285.00 -295.00,269.42 -277.00,269.42 -268.00,253.83 -250.00,253.83 -241.00,269.42 -232.00,285.00" fill="#D4A017" stroke="#e4b530" stroke-width="0.8"/>
<polygon points="-142.00,300.59 -151.00,285.00 -142.00,269.42 -151.00,253.83 -169.00,253.83 -160.00,238.24 -178.00,238.24 -169.00,222.65 -151.00,222.65 -142.00,238.24 -124.00,238.24 -115.00,253.83 -124.00,269.42 -133.00,285.00" fill="#0A0A14" stroke="#1e1e28" stroke-width="0.8"/>
<polygon points="-61.00,300.59 -52.00,285.00 -34.00,285.00 -25.00,269.42 -34.00,253.83 -16.00,253.83 -25.00,238.24 -7.00,238.24 2.00,253.83 -7.00,269.42 2.00,285.00 -7.00,300.59 -25.00,300.59 -43.00,300.59" fill="#1B2A6B" stroke="#2b3a8a" stroke-width="0.8"/>
<polygon points="20.00,300.59 38.00,300.59 47.00,316.18 65.00,316.18 74.00,300.59 83.00,316.18 92.00,300.59 101.00,316.18 92.00,331.77 74.00,331.77 65.00,347.36 47.00,347.36 38.00,331.77 29.00,316.18" fill="#F5EDD6" stroke="#fffded" stroke-width="0.8"/>
<polygon points="101.00,300.59 110.00,316.18 101.00,331.77 110.00,347.36 128.00,347.36 119.00,362.95 137.00,362.95 128.00,378.53 110.00,378.53 101.00,362.95 83.00,362.95 74.00,347.36 83.00,331.77 92.00,316.18" fill="#D4A017" stroke="#e4b530" stroke-width="0.8"/>
<polygon points="182.00,300.59 173.00,316.18 155.00,316.18 146.00,331.77 155.00,347.36 137.00,347.36 146.00,362.95 128.00,362.95 119.00,347.36 128.00,331.77 119.00,316.18 128.00,300.59 146.00,300.59 164.00,300.59" fill="#0A0A14" stroke="#1e1e28" stroke-width="0.8"/>
<polygon points="263.00,300.59 245.00,300.59 236.00,285.00 218.00,285.00 209.00,300.59 200.00,285.00 191.00,300.59 182.00,285.00 191.00,269.42 209.00,269.42 218.00,253.83 236.00,253.83 245.00,269.42 254.00,285.00" fill="#1B2A6B" stroke="#2b3a8a" stroke-width="0.8"/>
<polygon points="344.00,300.59 335.00,285.00 344.00,269.42 335.00,253.83 317.00,253.83 326.00,238.24 308.00,238.24 317.00,222.65 335.00,222.65 344.00,238.24 362.00,238.24 371.00,253.83 362.00,269.42 353.00,285.00" fill="#F5EDD6" stroke="#fffded" stroke-width="0.8"/>
<polygon points="425.00,300.59 434.00,285.00 452.00,285.00 461.00,269.42 452.00,253.83 470.00,253.83 461.00,238.24 479.00,238.24 488.00,253.83 479.00,269.42 488.00,285.00 479.00,300.59 461.00,300.59 443.00,300.59" fill="#D4A017" stroke="#e4b530" stroke-width="0.8"/>
<polygon points="506.00,300.59 524.00,300.59 533.00,316.18 551.00,316.18 560.00,300.59 569.00,316.18 578.00,300.59 587.00,316.18 578.00,331.77 560.00,331.77 551.00,347.36 533.00,347.36 524.00,331.77 515.00,316.18" fill="#0A0A14" stroke="#1e1e28" stroke-width="0.8"/>
<polygon points="587.00,300.59 596.00,316.18 587.00,331.77 596.00,347.36 614.00,347.36 605.00,362.95 623.00,362.95 614.00,378.53 596.00,378.53 587.00,362.95 569.00,362.95 560.00,347.36 569.00,331.77 578.00,316.18" fill="#1B2A6B" stroke="#2b3a8a" stroke-width="0.8"/>
<polygon points="668.00,300.59 659.00,316.18 641.00,316.18 632.00,331.77 641.00,347.36 623.00,347.36 632.00,362.95 614.00,362.95 605.00,347.36 614.00,331.77 605.00,316.18 614.00,300.59 632.00,300.59 650.00,300.59" fill="#F5EDD6" stroke="#fffded" stroke-width="0.8"/>
<polygon points="-182.50,347.36 -164.50,347.36 -155.50,362.95 -137.50,362.95 -128.50,347.36 -119.50,362.95 -110.50,347.36 -101.50,362.95 -110.50,378.53 -128.50,378.53 -137.50,394.12 -155.50,394.12 -164.50,378.53 -173.50,362.95" fill="#F5EDD6" stroke="#fffded" stroke-width="0.8"/>
<polygon points="-101.50,347.36 -92.50,362.95 -101.50,378.53 -92.50,394.12 -74.50,394.12 -83.50,409.71 -65.50,409.71 -74.50,425.30 -92.50,425.30 -101.50,409.71 -119.50,409.71 -128.50,394.12 -119.50,378.53 -110.50,362.95" fill="#D4A017" stroke="#e4b530" stroke-width="0.8"/>
<polygon points="-20.50,347.36 -29.50,362.95 -47.50,362.95 -56.50,378.53 -47.50,394.12 -65.50,394.12 -56.50,409.71 -74.50,409.71 -83.50,394.12 -74.50,378.53 -83.50,362.95 -74.50,347.36 -56.50,347.36 -38.50,347.36" fill="#0A0A14" stroke="#1e1e28" stroke-width="0.8"/>
<polygon points="60.50,347.36 42.50,347.36 33.50,331.77 15.50,331.77 6.50,347.36 -2.50,331.77 -11.50,347.36 -20.50,331.77 -11.50,316.18 6.50,316.18 15.50,300.59 33.50,300.59 42.50,316.18 51.50,331.77" fill="#1B2A6B" stroke="#2b3a8a" stroke-width="0.8"/>
<polygon points="141.50,347.36 132.50,331.77 141.50,316.18 132.50,300.59 114.50,300.59 123.50,285.00 105.50,285.00 114.50,269.42 132.50,269.42 141.50,285.00 159.50,285.00 168.50,300.59 159.50,316.18 150.50,331.77" fill="#F5EDD6" stroke="#fffded" stroke-width="0.8"/>
<polygon points="222.50,347.36 231.50,331.77 249.50,331.77 258.50,316.18 249.50,300.59 267.50,300.59 258.50,285.00 276.50,285.00 285.50,300.59 276.50,316.18 285.50,331.77 276.50,347.36 258.50,347.36 240.50,347.36" fill="#D4A017" stroke="#e4b530" stroke-width="0.8"/>
<polygon points="303.50,347.36 321.50,347.36 330.50,362.95 348.50,362.95 357.50,347.36 366.50,362.95 375.50,347.36 384.50,362.95 375.50,378.53 357.50,378.53 348.50,394.12 330.50,394.12 321.50,378.53 312.50,362.95" fill="#0A0A14" stroke="#1e1e28" stroke-width="0.8"/>
<polygon points="384.50,347.36 393.50,362.95 384.50,378.53 393.50,394.12 411.50,394.12 402.50,409.71 420.50,409.71 411.50,425.30 393.50,425.30 384.50,409.71 366.50,409.71 357.50,394.12 366.50,378.53 375.50,362.95" fill="#1B2A6B" stroke="#2b3a8a" stroke-width="0.8"/>
<polygon points="465.50,347.36 456.50,362.95 438.50,362.95 429.50,378.53 438.50,394.12 420.50,394.12 429.50,409.71 411.50,409.71 402.50,394.12 411.50,378.53 402.50,362.95 411.50,347.36 429.50,347.36 447.50,347.36" fill="#F5EDD6" stroke="#fffded" stroke-width="0.8"/>
<polygon points="546.50,347.36 528.50,347.36 519.50,331.77 501.50,331.77 492.50,347.36 483.50,331.77 474.50,347.36 465.50,331.77 474.50,316.18 492.50,316.18 501.50,300.59 519.50,300.59 528.50,316.18 537.50,331.77" fill="#D4A017" stroke="#e4b530" stroke-width="0.8"/>
<polygon points="627.50,347.36 618.50,331.77 627.50,316.18 618.50,300.59 600.50,300.59 609.50,285.00 591.50,285.00 600.50,269.42 618.50,269.42 627.50,285.00 645.50,285.00 654.50,300.59 645.50,316.18 636.50,331.77" fill="#0A0A14" stroke="#1e1e28" stroke-width="0.8"/>
<polygon points="708.50,347.36 717.50,331.77 735.50,331.77 744.50,316.18 735.50,300.59 753.50,300.59 744.50,285.00 762.50,285.00 771.50,300.59 762.50,316.18 771.50,331.77 762.50,347.36 744.50,347.36 726.50,347.36" fill="#1B2A6B" stroke="#2b3a8a" stroke-width="0.8"/>
<polygon points="-223.00,394.12 -241.00,394.12 -250.00,378.53 -268.00,378.53 -277.00,394.12 -286.00,378.53 -295.00,394.12 -304.00,378.53 -295.00,362.95 -277.00,362.95 -268.00,347.36 -250.00,347.36 -241.00,362.95 -232.00,378.53" fill="#1B2A6B" stroke="#2b3a8a" stroke-width="0.8"/>
<polygon points="-142.00,394.12 -151.00,378.53 -142.00,362.95 -151.00,347.36 -169.00,347.36 -160.00,331.77 -178.00,331.77 -169.00,316.18 -151.00,316.18 -142.00,331.77 -124.00,331.77 -115.00,347.36 -124.00,362.95 -133.00,378.53" fill="#F5EDD6" stroke="#fffded" stroke-width="0.8"/>
<polygon points="-61.00,394.12 -52.00,378.53 -34.00,378.53 -25.00,362.95 -34.00,347.36 -16.00,347.36 -25.00,331.77 -7.00,331.77 2.00,347.36 -7.00,362.95 2.00,378.53 -7.00,394.12 -25.00,394.12 -43.00,394.12" fill="#D4A017" stroke="#e4b530" stroke-width="0.8"/>
<polygon points="20.00,394.12 38.00,394.12 47.00,409.71 65.00,409.71 74.00,394.12 83.00,409.71 92.00,394.12 101.00,409.71 92.00,425.30 74.00,425.30 65.00,440.89 47.00,440.89 38.00,425.30 29.00,409.71" fill="#0A0A14" stroke="#1e1e28" stroke-width="0.8"/>
<polygon points="101.00,394.12 110.00,409.71 101.00,425.30 110.00,440.89 128.00,440.89 119.00,456.48 137.00,456.48 128.00,472.07 110.00,472.07 101.00,456.48 83.00,456.48 74.00,440.89 83.00,425.30 92.00,409.71" fill="#1B2A6B" stroke="#2b3a8a" stroke-width="0.8"/>
<polygon points="182.00,394.12 173.00,409.71 155.00,409.71 146.00,425.30 155.00,440.89 137.00,440.89 146.00,456.48 128.00,456.48 119.00,440.89 128.00,425.30 119.00,409.71 128.00,394.12 146.00,394.12 164.00,394.12" fill="#F5EDD6" stroke="#fffded" stroke-width="0.8"/>
<polygon points="263.00,394.12 245.00,394.12 236.00,378.53 218.00,378.53 209.00,394.12 200.00,378.53 191.00,394.12 182.00,378.53 191.00,362.95 209.00,362.95 218.00,347.36 236.00,347.36 245.00,362.95 254.00,378.53" fill="#D4A017" stroke="#e4b530" stroke-width="0.8"/>
<polygon points="344.00,394.12 335.00,378.53 344.00,362.95 335.00,347.36 317.00,347.36 326.00,331.77 308.00,331.77 317.00,316.18 335.00,316.18 344.00,331.77 362.00,331.77 371.00,347.36 362.00,362.95 353.00,378.53" fill="#0A0A14" stroke="#1e1e28" stroke-width="0.8"/>
<polygon points="425.00,394.12 434.00,378.53 452.00,378.53 461.00,362.95 452.00,347.36 470.00,347.36 461.00,331.77 479.00,331.77 488.00,347.36 479.00,362.95 488.00,378.53 479.00,394.12 461.00,394.12 443.00,394.12" fill="#1B2A6B" stroke="#2b3a8a" stroke-width="0.8"/>
<polygon points="506.00,394.12 524.00,394.12 533.00,409.71 551.00,409.71 560.00,394.12 569.00,409.71 578.00,394.12 587.00,409.71 578.00,425.30 560.00,425.30 551.00,440.89 533.00,440.89 524.00,425.30 515.00,409.71" fill="#F5EDD6" stroke="#fffded" stroke-width="0.8"/>
<polygon points="587.00,394.12 596.00,409.71 587.00,425.30 596.00,440.89 614.00,440.89 605.00,456.48 623.00,456.48 614.00,472.07 596.00,472.07 587.00,456.48 569.00,456.48 560.00,440.89 569.00,425.30 578.00,409.71" fill="#D4A017" stroke="#e4b530" stroke-width="0.8"/>
<polygon points="668.00,394.12 659.00,409.71 641.00,409.71 632.00,425.30 641.00,440.89 623.00,440.89 632.00,456.48 614.00,456.48 605.00,440.89 614.00,425.30 605.00,409.71 614.00,394.12 632.00,394.12 650.00,394.12" fill="#0A0A14" stroke="#1e1e28" stroke-width="0.8"/>
</svg>