<svg xmlns="http://www.w3.org/2000/svg" width="400" height="400" viewBox="0 0 400 400">
  <defs>
    <linearGradient id="bg" x1="0" y1="0" x2="0" y2="1">
      <stop offset="0%" stop-color="#B89A50"/>
      <stop offset="100%" stop-color="#5C3D1E"/>
    </linearGradient>
  </defs>

  <!-- Background -->
  <rect width="400" height="400" fill="url(#bg)"/>

  <!-- MST edges (partial - suggesting harvest in progress) -->
  <g stroke="#C8820A" stroke-width="1.4" opacity="0.9">
    <!-- Central cluster around Ruth -->
    <line x1="133" y1="266" x2="100" y2="240"/>
    <line x1="133" y1="266" x2="160" y2="245"/>
    <line x1="133" y1="266" x2="148" y2="295"/>
    <line x1="133" y1="266" x2="115" y2="300"/>
    <line x1="133" y1="266" x2="165" y2="278"/>
    <!-- Upper connections -->
    <line x1="100" y1="240" x2="80" y2="215"/>
    <line x1="100" y1="240" x2="120" y2="210"/>
    <line x1="160" y1="245" x2="185" y2="220"/>
    <line x1="160" y1="245" x2="200" y2="255"/>
    <line x1="80" y1="215" x2="65" y2="188"/>
    <line x1="65" y1="188" x2="90" y2="170"/>
    <line x1="90" y1="170" x2="115" y2="185"/>
    <line x1="115" y1="185" x2="140" y2="170"/>
    <line x1="140" y1="170" x2="165" y2="185"/>
    <line x1="185" y1="220" x2="210" y2="200"/>
    <line x1="210" y1="200" x2="235" y2="215"/>
    <line x1="200" y1="255" x2="230" y2="265"/>
    <line x1="230" y1="265" x2="260" y2="255"/>
    <!-- Lower connections -->
    <line x1="148" y1="295" x2="170" y2="315"/>
    <line x1="115" y1="300" x2="90" y2="320"/>
    <line x1="90" y1="320" x2="65" y2="310"/>
    <line x1="170" y1="315" x2="200" y2="330"/>
    <!-- More spread connections -->
    <line x1="235" y1="215" x2="260" y2="200"/>
    <line x1="260" y1="200" x2="285" y2="218"/>
    <line x1="285" y1="218" x2="310" y2="205"/>
    <line x1="165" y1="278" x2="200" y2="285"/>
    <line x1="200" y1="285" x2="225" y2="300"/>
    <!-- Top scatter -->
    <line x1="50" y1="145" x2="75" y2="130"/>
    <line x1="75" y1="130" x2="100" y2="145"/>
    <line x1="100" y1="145" x2="125" y2="130"/>
    <line x1="125" y1="130" x2="150" y2="148"/>
    <line x1="150" y1="148" x2="175" y2="132"/>
    <line x1="65" y1="188" x2="50" y2="165"/>
    <line x1="50" y1="165" x2="50" y2="145"/>
  </g>

  <!-- Grain points (wheat-colored ellipses) -->
  <g fill="#E8C870">
    <!-- Scattered field points -->
    <ellipse cx="50" cy="145" rx="5" ry="2.5" transform="rotate(15 50 145)"/>
    <ellipse cx="75" cy="130" rx="5" ry="2.5" transform="rotate(15 75 130)"/>
    <ellipse cx="100" cy="145" rx="5" ry="2.5" transform="rotate(15 100 145)"/>
    <ellipse cx="125" cy="130" rx="5" ry="2.5" transform="rotate(15 125 130)"/>
    <ellipse cx="150" cy="148" rx="5" ry="2.5" transform="rotate(15 150 148)"/>
    <ellipse cx="175" cy="132" rx="5" ry="2.5" transform="rotate(15 175 132)"/>
    <ellipse cx="200" cy="145" rx="5" ry="2.5" transform="rotate(15 200 145)"/>
    <ellipse cx="225" cy="130" rx="5" ry="2.5" transform="rotate(15 225 130)"/>
    <ellipse cx="250" cy="145" rx="5" ry="2.5" transform="rotate(15 250 145)"/>
    <ellipse cx="275" cy="132" rx="5" ry="2.5" transform="rotate(15 275 132)"/>
    <ellipse cx="300" cy="148" rx="5" ry="2.5" transform="rotate(15 300 148)"/>
    <ellipse cx="325" cy="133" rx="5" ry="2.5" transform="rotate(15 325 133)"/>
    <ellipse cx="350" cy="147" rx="5" ry="2.5" transform="rotate(15 350 147)"/>

    <ellipse cx="65" cy="188" rx="5" ry="2.5" transform="rotate(15 65 188)"/>
    <ellipse cx="80" cy="215" rx="5" ry="2.5" transform="rotate(15 80 215)"/>
    <ellipse cx="90" cy="170" rx="5" ry="2.5" transform="rotate(15 90 170)"/>
    <ellipse cx="100" cy="240" rx="5" ry="2.5" transform="rotate(15 100 240)"/>
    <ellipse cx="115" cy="185" rx="5" ry="2.5" transform="rotate(15 115 185)"/>
    <ellipse cx="115" cy="300" rx="5" ry="2.5" transform="rotate(15 115 300)"/>
    <ellipse cx="120" cy="210" rx="5" ry="2.5" transform="rotate(15 120 210)"/>
    <ellipse cx="140" cy="170" rx="5" ry="2.5" transform="rotate(15 140 170)"/>
    <ellipse cx="148" cy="295" rx="5" ry="2.5" transform="rotate(15 148 295)"/>
    <ellipse cx="160" cy="245" rx="5" ry="2.5" transform="rotate(15 160 245)"/>
    <ellipse cx="165" cy="185" rx="5" ry="2.5" transform="rotate(15 165 185)"/>
    <ellipse cx="165" cy="278" rx="5" ry="2.5" transform="rotate(15 165 278)"/>
    <ellipse cx="170" cy="315" rx="5" ry="2.5" transform="rotate(15 170 315)"/>
    <ellipse cx="185" cy="220" rx="5" ry="2.5" transform="rotate(15 185 220)"/>
    <ellipse cx="200" cy="255" rx="5" ry="2.5" transform="rotate(15 200 255)"/>
    <ellipse cx="200" cy="285" rx="5" ry="2.5" transform="rotate(15 200 285)"/>
    <ellipse cx="200" cy="330" rx="5" ry="2.5" transform="rotate(15 200 330)"/>
    <ellipse cx="210" cy="200" rx="5" ry="2.5" transform="rotate(15 210 200)"/>
    <ellipse cx="225" cy="300" rx="5" ry="2.5" transform="rotate(15 225 300)"/>
    <ellipse cx="230" cy="265" rx="5" ry="2.5" transform="rotate(15 230 265)"/>
    <ellipse cx="235" cy="215" rx="5" ry="2.5" transform="rotate(15 235 215)"/>
    <ellipse cx="260" cy="200" rx="5" ry="2.5" transform="rotate(15 260 200)"/>
    <ellipse cx="260" cy="255" rx="5" ry="2.5" transform="rotate(15 260 255)"/>
    <ellipse cx="285" cy="218" rx="5" ry="2.5" transform="rotate(15 285 218)"/>
    <ellipse cx="310" cy="205" rx="5" ry="2.5" transform="rotate(15 310 205)"/>
    <ellipse cx="90" cy="320" rx="5" ry="2.5" transform="rotate(15 90 320)"/>
    <ellipse cx="65" cy="310" rx="5" ry="2.5" transform="rotate(15 65 310)"/>

    <!-- Extra scattered points -->
    <ellipse cx="280" cy="160" rx="5" ry="2.5" transform="rotate(15 280 160)"/>
    <ellipse cx="305" cy="175" rx="5" ry="2.5" transform="rotate(15 305 175)"/>
    <ellipse cx="330" cy="160" rx="5" ry="2.5" transform="rotate(15 330 160)"/>
    <ellipse cx="355" cy="178" rx="5" ry="2.5" transform="rotate(15 355 178)"/>
    <ellipse cx="340" cy="230" rx="5" ry="2.5" transform="rotate(15 340 230)"/>
    <ellipse cx="365" cy="215" rx="5" ry="2.5" transform="rotate(15 365 215)"/>
  </g>

  <!-- Ruth's point — larger amber circle -->
  <circle cx="133" cy="266" r="8" fill="#C8820A" opacity="0.95"/>
  <circle cx="133" cy="266" r="5" fill="#E8A030"/>

  <!-- Ruth label in Hebrew -->
  <text x="148" y="261" font-family="Georgia, serif" font-size="15" fill="#FFD060"
        text-anchor="start" direction="rtl" unicode-bidi="bidi-override">רות</text>
</svg>
