<svg xmlns="http://www.w3.org/2000/svg" width="400" height="400" viewBox="0 0 400 400">
  <!-- Deep loam background -->
  <rect width="400" height="400" fill="#2a1a08"/>
  <!-- Lighter pe'ah corner zones -->
  <rect x="0"   y="0"   width="60" height="60" fill="#3a2510"/>
  <rect x="340" y="0"   width="60" height="60" fill="#3a2510"/>
  <rect x="0"   y="340" width="60" height="60" fill="#3a2510"/>
  <rect x="340" y="340" width="60" height="60" fill="#3a2510"/>

  <!-- Wheat stalks — thin curved paths clustered in center, avoiding corners -->
  <g stroke="#d4a017" stroke-width="1.4" fill="none" opacity="0.95">
    <path d="M 90 370 Q 92 345 88 320"/>
    <path d="M 105 375 Q 108 350 104 325"/>
    <path d="M 120 368 Q 123 343 118 316"/>
    <path d="M 135 372 Q 137 347 132 320"/>
    <path d="M 150 370 Q 153 343 149 315"/>
    <path d="M 165 374 Q 167 349 163 322"/>
    <path d="M 180 369 Q 182 344 178 317"/>
    <path d="M 195 373 Q 197 347 193 320"/>
    <path d="M 210 370 Q 213 343 208 316"/>
    <path d="M 225 374 Q 227 349 222 322"/>
    <path d="M 240 368 Q 243 343 238 316"/>
    <path d="M 255 372 Q 258 346 254 319"/>
    <path d="M 270 370 Q 273 344 268 317"/>
    <path d="M 285 373 Q 287 348 283 321"/>
    <path d="M 300 371 Q 302 346 298 318"/>
    <path d="M 315 370 Q 318 343 313 316"/>
    <path d="M 80 350 Q 83 323 79 296"/>
    <path d="M 95 355 Q 98 328 94 301"/>
    <path d="M 110 348 Q 113 321 109 294"/>
    <path d="M 125 353 Q 128 326 123 299"/>
    <path d="M 140 350 Q 143 323 138 296"/>
    <path d="M 155 354 Q 157 328 153 301"/>
    <path d="M 170 349 Q 173 322 168 295"/>
    <path d="M 185 352 Q 188 326 184 299"/>
    <path d="M 200 350 Q 203 323 198 296"/>
    <path d="M 215 354 Q 217 328 213 301"/>
    <path d="M 230 348 Q 233 322 228 295"/>
    <path d="M 245 352 Q 248 326 244 299"/>
    <path d="M 260 350 Q 263 323 258 296"/>
    <path d="M 275 353 Q 277 328 273 301"/>
    <path d="M 290 349 Q 293 322 289 295"/>
    <path d="M 305 352 Q 308 325 304 298"/>
    <path d="M 320 350 Q 322 323 318 296"/>
    <path d="M 85 330 Q 88 303 84 276"/>
    <path d="M 100 334 Q 103 307 99 280"/>
    <path d="M 115 328 Q 118 301 114 274"/>
    <path d="M 130 332 Q 133 305 128 278"/>
    <path d="M 145 329 Q 148 302 143 275"/>
    <path d="M 160 333 Q 162 307 158 280"/>
    <path d="M 175 328 Q 178 302 174 275"/>
    <path d="M 190 332 Q 193 305 188 278"/>
    <path d="M 205 329 Q 208 302 203 275"/>
    <path d="M 220 333 Q 222 307 218 280"/>
    <path d="M 235 328 Q 238 301 234 274"/>
    <path d="M 250 332 Q 253 306 248 279"/>
    <path d="M 265 330 Q 268 303 264 276"/>
    <path d="M 280 333 Q 282 307 278 280"/>
    <path d="M 295 329 Q 298 302 294 275"/>
    <path d="M 310 332 Q 313 305 308 278"/>
    <path d="M 325 330 Q 327 303 323 276"/>
  </g>
  <g stroke="#e8c850" stroke-width="1.2" fill="none" opacity="0.85">
    <path d="M 97 370 Q 100 343 95 316"/>
    <path d="M 113 373 Q 116 346 111 319"/>
    <path d="M 128 368 Q 131 341 127 314"/>
    <path d="M 143 372 Q 145 347 141 320"/>
    <path d="M 158 370 Q 161 344 157 317"/>
    <path d="M 173 373 Q 175 348 172 321"/>
    <path d="M 188 369 Q 191 343 186 316"/>
    <path d="M 203 372 Q 206 347 201 320"/>
    <path d="M 218 370 Q 221 343 216 316"/>
    <path d="M 233 373 Q 236 347 231 320"/>
    <path d="M 248 368 Q 251 342 247 315"/>
    <path d="M 263 372 Q 265 347 261 320"/>
    <path d="M 278 370 Q 281 344 276 317"/>
    <path d="M 293 372 Q 295 347 291 320"/>
    <path d="M 308 370 Q 311 344 306 317"/>
    <path d="M 92 308 Q 95 281 91 254"/>
    <path d="M 108 311 Q 111 284 106 257"/>
    <path d="M 124 306 Q 127 279 123 252"/>
    <path d="M 140 310 Q 142 283 138 256"/>
    <path d="M 156 307 Q 159 280 154 253"/>
    <path d="M 172 310 Q 175 284 170 257"/>
    <path d="M 188 307 Q 191 280 186 253"/>
    <path d="M 204 310 Q 207 283 202 256"/>
    <path d="M 220 307 Q 223 280 218 253"/>
    <path d="M 236 310 Q 239 284 234 257"/>
    <path d="M 252 307 Q 255 280 251 253"/>
    <path d="M 268 310 Q 271 283 267 256"/>
    <path d="M 284 307 Q 287 280 282 253"/>
    <path d="M 300 310 Q 302 284 298 257"/>
    <path d="M 316 308 Q 319 281 314 254"/>
  </g>
  <!-- Upper rows — center only -->
  <g stroke="#d4a017" stroke-width="1.3" fill="none" opacity="0.8">
    <path d="M 110 285 Q 113 258 109 231"/>
    <path d="M 130 288 Q 133 261 129 234"/>
    <path d="M 150 284 Q 153 257 149 230"/>
    <path d="M 170 287 Q 173 261 168 234"/>
    <path d="M 190 285 Q 193 258 189 231"/>
    <path d="M 210 288 Q 213 261 208 234"/>
    <path d="M 230 285 Q 233 258 228 231"/>
    <path d="M 250 288 Q 252 262 248 235"/>
    <path d="M 270 285 Q 273 258 269 231"/>
    <path d="M 290 288 Q 293 261 288 234"/>
    <path d="M 120 262 Q 123 235 118 208"/>
    <path d="M 145 265 Q 148 238 144 211"/>
    <path d="M 170 261 Q 173 234 168 207"/>
    <path d="M 195 264 Q 198 237 194 210"/>
    <path d="M 220 262 Q 222 236 218 209"/>
    <path d="M 245 265 Q 248 238 244 211"/>
    <path d="M 270 261 Q 273 234 269 207"/>
    <path d="M 140 238 Q 143 211 138 184"/>
    <path d="M 165 241 Q 168 214 164 187"/>
    <path d="M 190 238 Q 193 211 188 184"/>
    <path d="M 215 241 Q 218 214 214 187"/>
    <path d="M 240 238 Q 243 212 239 185"/>
    <path d="M 265 240 Q 268 213 264 186"/>
    <path d="M 160 214 Q 163 187 158 160"/>
    <path d="M 185 217 Q 188 190 184 163"/>
    <path d="M 210 214 Q 213 187 209 160"/>
    <path d="M 235 217 Q 238 190 233 163"/>
    <path d="M 185 190 Q 188 163 183 136"/>
    <path d="M 210 192 Q 213 165 208 138"/>
  </g>

  <!-- Hebrew label -->
  <text x="200" y="392" text-anchor="middle" font-family="serif" font-size="22"
        fill="#f5e6c8" direction="rtl">פֵּאָה</text>
</svg>
