<svg xmlns="http://www.w3.org/2000/svg" viewBox="0 0 400 400" width="400" height="400">
  <defs>
    <radialGradient id="cglow" cx="50%" cy="50%" r="50%">
      <stop offset="0%" stop-color="#90b8e0" stop-opacity="0.25"/>
      <stop offset="100%" stop-color="#0D1B2A" stop-opacity="0"/>
    </radialGradient>
  </defs>

  <!-- Background: midnight blue -->
  <rect width="400" height="400" fill="#0D1B2A"/>

  <!-- Soft centre glow representing Sinai -->
  <ellipse cx="200" cy="200" rx="130" ry="130" fill="url(#cglow)"/>

  <!-- Mountain silhouette (seed) -->
  <polygon points="200,172 172,210 228,210" fill="#e8f2ff" fill-opacity="0.88"/>

  <!-- DLA aggregate — branching arms of glowing particles -->

  <!-- Upper main arm -->
  <circle cx="200" cy="164" r="2.2" fill="#fff" opacity="0.92"/>
  <circle cx="200" cy="155" r="2"   fill="#f0f6ff" opacity="0.86"/>
  <circle cx="199" cy="146" r="1.8" fill="#e4eeff" opacity="0.80"/>
  <circle cx="200" cy="137" r="1.8" fill="#dce8ff" opacity="0.75"/>
  <circle cx="199" cy="128" r="1.6" fill="#d4e2ff" opacity="0.70"/>
  <circle cx="200" cy="119" r="1.5" fill="#ccdcff" opacity="0.65"/>
  <circle cx="199" cy="110" r="1.5" fill="#c4d6ff" opacity="0.60"/>
  <circle cx="201" cy="101" r="1.4" fill="#bcd0ff" opacity="0.55"/>
  <circle cx="200" cy="92"  r="1.2" fill="#b4caff" opacity="0.48"/>
  <circle cx="200" cy="83"  r="1"   fill="#aac4ff" opacity="0.40"/>

  <!-- Upper arm sub-branch LEFT from ~y=137 -->
  <circle cx="192" cy="130" r="1.6" fill="#dce8ff" opacity="0.72"/>
  <circle cx="183" cy="126" r="1.5" fill="#d4e0ff" opacity="0.67"/>
  <circle cx="173" cy="123" r="1.4" fill="#ccd8ff" opacity="0.61"/>
  <circle cx="164" cy="119" r="1.3" fill="#c4d0ff" opacity="0.55"/>
  <circle cx="155" cy="114" r="1.1" fill="#bcc8ff" opacity="0.47"/>
  <!-- sub-branch off that branch -->
  <circle cx="167" cy="111" r="1.1" fill="#bcc8ff" opacity="0.44"/>
  <circle cx="160" cy="105" r="1"   fill="#b4c2ff" opacity="0.38"/>

  <!-- Upper arm sub-branch RIGHT from ~y=137 -->
  <circle cx="208" cy="130" r="1.6" fill="#dce8ff" opacity="0.72"/>
  <circle cx="217" cy="126" r="1.5" fill="#d4e0ff" opacity="0.67"/>
  <circle cx="227" cy="123" r="1.4" fill="#ccd8ff" opacity="0.61"/>
  <circle cx="236" cy="119" r="1.3" fill="#c4d0ff" opacity="0.55"/>
  <circle cx="245" cy="114" r="1.1" fill="#bcc8ff" opacity="0.47"/>
  <!-- sub-branch -->
  <circle cx="233" cy="111" r="1.1" fill="#bcc8ff" opacity="0.44"/>
  <circle cx="240" cy="105" r="1"   fill="#b4c2ff" opacity="0.38"/>

  <!-- NE arm -->
  <circle cx="208" cy="163" r="2"   fill="#f0f6ff" opacity="0.83"/>
  <circle cx="218" cy="155" r="1.8" fill="#e4eeff" opacity="0.77"/>
  <circle cx="228" cy="147" r="1.7" fill="#dce8ff" opacity="0.71"/>
  <circle cx="237" cy="139" r="1.6" fill="#d4e2ff" opacity="0.66"/>
  <circle cx="246" cy="131" r="1.5" fill="#ccdcff" opacity="0.60"/>
  <circle cx="255" cy="124" r="1.4" fill="#c4d6ff" opacity="0.55"/>
  <circle cx="264" cy="117" r="1.2" fill="#bccdff" opacity="0.48"/>
  <!-- NE sub-branch -->
  <circle cx="260" cy="128" r="1.2" fill="#bcc8ff" opacity="0.45"/>
  <circle cx="267" cy="136" r="1"   fill="#b4c2ff" opacity="0.38"/>

  <!-- E arm -->
  <circle cx="236" cy="200" r="2"   fill="#f0f6ff" opacity="0.83"/>
  <circle cx="248" cy="199" r="1.8" fill="#e4eeff" opacity="0.77"/>
  <circle cx="260" cy="200" r="1.7" fill="#dce8ff" opacity="0.71"/>
  <circle cx="271" cy="199" r="1.5" fill="#d4e0ff" opacity="0.65"/>
  <circle cx="282" cy="200" r="1.4" fill="#ccd8ff" opacity="0.59"/>
  <circle cx="292" cy="199" r="1.2" fill="#c4d0ff" opacity="0.52"/>
  <circle cx="302" cy="200" r="1"   fill="#bcc8ff" opacity="0.44"/>
  <!-- E sub-branch going SE -->
  <circle cx="270" cy="208" r="1.3" fill="#ccd0ff" opacity="0.50"/>
  <circle cx="278" cy="217" r="1.1" fill="#c4c8ff" opacity="0.43"/>

  <!-- SE arm -->
  <circle cx="228" cy="218" r="2"   fill="#f0f6ff" opacity="0.83"/>
  <circle cx="237" cy="228" r="1.8" fill="#e4eeff" opacity="0.77"/>
  <circle cx="246" cy="238" r="1.7" fill="#dce8ff" opacity="0.71"/>
  <circle cx="255" cy="247" r="1.5" fill="#d4e0ff" opacity="0.65"/>
  <circle cx="263" cy="257" r="1.3" fill="#ccd8ff" opacity="0.57"/>
  <circle cx="270" cy="266" r="1.1" fill="#c4d0ff" opacity="0.49"/>
  <!-- SE sub-branch -->
  <circle cx="259" cy="264" r="1.1" fill="#bcc8ff" opacity="0.43"/>
  <circle cx="265" cy="272" r="1"   fill="#b4c0ff" opacity="0.37"/>

  <!-- S arm -->
  <circle cx="200" cy="218" r="2"   fill="#f0f6ff" opacity="0.83"/>
  <circle cx="199" cy="228" r="1.8" fill="#e4eeff" opacity="0.77"/>
  <circle cx="200" cy="238" r="1.7" fill="#dce8ff" opacity="0.71"/>
  <circle cx="199" cy="248" r="1.5" fill="#d4e0ff" opacity="0.65"/>
  <circle cx="200" cy="258" r="1.4" fill="#ccd8ff" opacity="0.59"/>
  <circle cx="199" cy="268" r="1.2" fill="#c4d0ff" opacity="0.52"/>
  <circle cx="200" cy="278" r="1"   fill="#bcc8ff" opacity="0.44"/>
  <!-- S sub-branch SE -->
  <circle cx="208" cy="246" r="1.3" fill="#ccd0ff" opacity="0.50"/>
  <circle cx="216" cy="253" r="1.1" fill="#c4c8ff" opacity="0.43"/>
  <!-- S sub-branch SW -->
  <circle cx="191" cy="236" r="1.3" fill="#ccd0ff" opacity="0.50"/>
  <circle cx="183" cy="244" r="1.1" fill="#c4c8ff" opacity="0.43"/>

  <!-- SW arm -->
  <circle cx="192" cy="218" r="2"   fill="#f0f6ff" opacity="0.83"/>
  <circle cx="182" cy="228" r="1.8" fill="#e4eeff" opacity="0.77"/>
  <circle cx="172" cy="237" r="1.7" fill="#dce8ff" opacity="0.71"/>
  <circle cx="162" cy="246" r="1.5" fill="#d4e0ff" opacity="0.65"/>
  <circle cx="152" cy="254" r="1.3" fill="#ccd8ff" opacity="0.57"/>
  <circle cx="143" cy="262" r="1.1" fill="#c4d0ff" opacity="0.49"/>
  <!-- SW sub-branch -->
  <circle cx="155" cy="262" r="1.1" fill="#bcc8ff" opacity="0.43"/>
  <circle cx="149" cy="271" r="1"   fill="#b4c0ff" opacity="0.37"/>

  <!-- W arm -->
  <circle cx="164" cy="200" r="2"   fill="#f0f6ff" opacity="0.83"/>
  <circle cx="152" cy="200" r="1.8" fill="#e4eeff" opacity="0.77"/>
  <circle cx="140" cy="199" r="1.7" fill="#dce8ff" opacity="0.71"/>
  <circle cx="129" cy="200" r="1.5" fill="#d4e0ff" opacity="0.65"/>
  <circle cx="118" cy="199" r="1.4" fill="#ccd8ff" opacity="0.59"/>
  <circle cx="108" cy="200" r="1.2" fill="#c4d0ff" opacity="0.52"/>
  <circle cx="98"  cy="199" r="1"   fill="#bcc8ff" opacity="0.44"/>
  <!-- W sub-branch NW -->
  <circle cx="130" cy="191" r="1.3" fill="#ccd0ff" opacity="0.50"/>
  <circle cx="124" cy="182" r="1.1" fill="#c4c8ff" opacity="0.43"/>

  <!-- NW arm -->
  <circle cx="192" cy="163" r="2"   fill="#f0f6ff" opacity="0.83"/>
  <circle cx="182" cy="155" r="1.8" fill="#e4eeff" opacity="0.77"/>
  <circle cx="172" cy="147" r="1.7" fill="#dce8ff" opacity="0.71"/>
  <circle cx="162" cy="139" r="1.5" fill="#d4e0ff" opacity="0.65"/>
  <circle cx="152" cy="132" r="1.4" fill="#ccd8ff" opacity="0.59"/>
  <circle cx="143" cy="125" r="1.2" fill="#c4d0ff" opacity="0.52"/>
  <circle cx="134" cy="118" r="1"   fill="#bcc8ff" opacity="0.44"/>
  <!-- NW sub-branch -->
  <circle cx="147" cy="133" r="1.2" fill="#bcc8ff" opacity="0.44"/>
  <circle cx="141" cy="143" r="1"   fill="#b4c2ff" opacity="0.37"/>

  <!-- A few wandering walkers (faint) at the periphery -->
  <circle cx="100" cy="140" r="1"   fill="#6080b8" opacity="0.28"/>
  <circle cx="310" cy="145" r="1"   fill="#6080b8" opacity="0.25"/>
  <circle cx="325" cy="265" r="1"   fill="#6080b8" opacity="0.22"/>
  <circle cx="75"  cy="290" r="1"   fill="#6080b8" opacity="0.20"/>
  <circle cx="285" cy="330" r="1"   fill="#6080b8" opacity="0.20"/>
  <circle cx="115" cy="335" r="1"   fill="#6080b8" opacity="0.18"/>
  <circle cx="355" cy="200" r="1"   fill="#6080b8" opacity="0.18"/>
  <circle cx="45"  cy="200" r="1"   fill="#6080b8" opacity="0.18"/>

  <!-- Title bar -->
  <rect x="0" y="355" width="400" height="45" fill="rgba(13,27,42,0.90)"/>
  <text x="200" y="383" font-family="Georgia, serif" font-size="13" fill="#b8d0ec" text-anchor="middle">All Souls Were Present</text>
</svg>
