<svg xmlns="http://www.w3.org/2000/svg" width="400" height="400" viewBox="0 0 400 400">
  <rect width="400" height="400" fill="#1A3020"/>

  <!-- Flower 1: center (110, 150) -->
  <g transform="translate(110,150)">
    <ellipse cx="0" cy="-18" rx="7" ry="20" fill="#D4C060" opacity="0.9" transform="rotate(0)"/>
    <ellipse cx="0" cy="-18" rx="7" ry="20" fill="#D4C060" opacity="0.9" transform="rotate(60)"/>
    <ellipse cx="0" cy="-18" rx="7" ry="20" fill="#D4C060" opacity="0.9" transform="rotate(120)"/>
    <ellipse cx="0" cy="-18" rx="7" ry="20" fill="#D4C060" opacity="0.9" transform="rotate(180)"/>
    <ellipse cx="0" cy="-18" rx="7" ry="20" fill="#D4C060" opacity="0.9" transform="rotate(240)"/>
    <ellipse cx="0" cy="-18" rx="7" ry="20" fill="#D4C060" opacity="0.9" transform="rotate(300)"/>
    <circle cx="0" cy="0" r="7" fill="#FEFEF0"/>
  </g>

  <!-- Flower 2: center (280, 120) -->
  <g transform="translate(280,120)">
    <ellipse cx="0" cy="-16" rx="6" ry="18" fill="#D4C060" opacity="0.9" transform="rotate(0)"/>
    <ellipse cx="0" cy="-16" rx="6" ry="18" fill="#D4C060" opacity="0.9" transform="rotate(60)"/>
    <ellipse cx="0" cy="-16" rx="6" ry="18" fill="#D4C060" opacity="0.9" transform="rotate(120)"/>
    <ellipse cx="0" cy="-16" rx="6" ry="18" fill="#D4C060" opacity="0.9" transform="rotate(180)"/>
    <ellipse cx="0" cy="-16" rx="6" ry="18" fill="#D4C060" opacity="0.9" transform="rotate(240)"/>
    <ellipse cx="0" cy="-16" rx="6" ry="18" fill="#D4C060" opacity="0.9" transform="rotate(300)"/>
    <circle cx="0" cy="0" r="6" fill="#FEFEF0"/>
  </g>

  <!-- Flower 3: center (200, 250) -->
  <g transform="translate(200,250)">
    <ellipse cx="0" cy="-20" rx="8" ry="22" fill="#D4C060" opacity="0.9" transform="rotate(0)"/>
    <ellipse cx="0" cy="-20" rx="8" ry="22" fill="#D4C060" opacity="0.9" transform="rotate(60)"/>
    <ellipse cx="0" cy="-20" rx="8" ry="22" fill="#D4C060" opacity="0.9" transform="rotate(120)"/>
    <ellipse cx="0" cy="-20" rx="8" ry="22" fill="#D4C060" opacity="0.9" transform="rotate(180)"/>
    <ellipse cx="0" cy="-20" rx="8" ry="22" fill="#D4C060" opacity="0.9" transform="rotate(240)"/>
    <ellipse cx="0" cy="-20" rx="8" ry="22" fill="#D4C060" opacity="0.9" transform="rotate(300)"/>
    <circle cx="0" cy="0" r="8" fill="#FEFEF0"/>
  </g>

  <!-- Flower 4: center (320, 290) -->
  <g transform="translate(320,290)">
    <ellipse cx="0" cy="-14" rx="5" ry="16" fill="#D4C060" opacity="0.85" transform="rotate(0)"/>
    <ellipse cx="0" cy="-14" rx="5" ry="16" fill="#D4C060" opacity="0.85" transform="rotate(60)"/>
    <ellipse cx="0" cy="-14" rx="5" ry="16" fill="#D4C060" opacity="0.85" transform="rotate(120)"/>
    <ellipse cx="0" cy="-14" rx="5" ry="16" fill="#D4C060" opacity="0.85" transform="rotate(180)"/>
    <ellipse cx="0" cy="-14" rx="5" ry="16" fill="#D4C060" opacity="0.85" transform="rotate(240)"/>
    <ellipse cx="0" cy="-14" rx="5" ry="16" fill="#D4C060" opacity="0.85" transform="rotate(300)"/>
    <circle cx="0" cy="0" r="5" fill="#FEFEF0"/>
  </g>

  <!-- Flower 5: center (80, 310) -->
  <g transform="translate(80,310)">
    <ellipse cx="0" cy="-17" rx="6" ry="19" fill="#D4C060" opacity="0.88" transform="rotate(0)"/>
    <ellipse cx="0" cy="-17" rx="6" ry="19" fill="#D4C060" opacity="0.88" transform="rotate(60)"/>
    <ellipse cx="0" cy="-17" rx="6" ry="19" fill="#D4C060" opacity="0.88" transform="rotate(120)"/>
    <ellipse cx="0" cy="-17" rx="6" ry="19" fill="#D4C060" opacity="0.88" transform="rotate(180)"/>
    <ellipse cx="0" cy="-17" rx="6" ry="19" fill="#D4C060" opacity="0.88" transform="rotate(240)"/>
    <ellipse cx="0" cy="-17" rx="6" ry="19" fill="#D4C060" opacity="0.88" transform="rotate(300)"/>
    <circle cx="0" cy="0" r="6" fill="#FEFEF0"/>
  </g>
</svg>
