<svg xmlns="http://www.w3.org/2000/svg" width="400" height="400" viewBox="0 0 400 400">
  <defs>
    <style>
      .bg { fill: #F5EDD0; }
      .tile-border { fill: none; stroke: #c8b89a; stroke-width: 0.5; }
    </style>
  </defs>

  <!-- Background -->
  <rect width="400" height="400" fill="#F0E4C0"/>

  <!-- 6×6 tile grid, each tile ~66×66 px, centered in 400×400 -->
  <!-- Grid starts at x=1, y=1, tile size 66 -->

  <!-- Row 0: ground / wheat / stem / grape / ground / pomegranate -->
  <!-- Tile (0,0) ground -->
  <rect x="1" y="1" width="66" height="66" fill="#F5EDD0" stroke="#c8b89a" stroke-width="0.5"/>
  <!-- Tile (1,0) wheat -->
  <rect x="67" y="1" width="66" height="66" fill="#FDF6E3" stroke="#c8b89a" stroke-width="0.5"/>
  <line x1="100" y1="60" x2="100" y2="20" stroke="#D4A017" stroke-width="2.5"/>
  <ellipse cx="100" cy="17" rx="5" ry="8" fill="#D4A017"/>
  <ellipse cx="96" cy="26" rx="4" ry="6" fill="#D4A017" transform="rotate(-25,96,26)"/>
  <ellipse cx="104" cy="26" rx="4" ry="6" fill="#D4A017" transform="rotate(25,104,26)"/>
  <line x1="100" y1="60" x2="95" y2="65" stroke="#4A7C3F" stroke-width="1.5"/>
  <line x1="100" y1="60" x2="105" y2="65" stroke="#4A7C3F" stroke-width="1.5"/>
  <!-- Tile (2,0) stem connector -->
  <rect x="133" y="1" width="66" height="66" fill="#EFF5E8" stroke="#c8b89a" stroke-width="0.5"/>
  <line x1="166" y1="1" x2="166" y2="67" stroke="#4A7C3F" stroke-width="2.5"/>
  <ellipse cx="158" cy="25" rx="7" ry="4" fill="#4A7C3F" transform="rotate(-20,158,25)"/>
  <ellipse cx="174" cy="40" rx="7" ry="4" fill="#4A7C3F" transform="rotate(20,174,40)"/>
  <!-- Tile (3,0) grape -->
  <rect x="199" y="1" width="66" height="66" fill="#F7F0F7" stroke="#c8b89a" stroke-width="0.5"/>
  <line x1="232" y1="15" x2="232" y2="28" stroke="#4A7C3F" stroke-width="2"/>
  <circle cx="232" cy="35" r="6" fill="#6B2D6B"/>
  <circle cx="224" cy="46" r="6" fill="#6B2D6B"/>
  <circle cx="240" cy="46" r="6" fill="#6B2D6B"/>
  <circle cx="228" cy="57" r="6" fill="#5a2460"/>
  <circle cx="236" cy="57" r="6" fill="#5a2460"/>
  <!-- Tile (4,0) open background -->
  <rect x="265" y="1" width="66" height="66" fill="#F5EDD0" stroke="#c8b89a" stroke-width="0.5"/>
  <!-- Tile (5,0) pomegranate -->
  <rect x="331" y="1" width="66" height="66" fill="#FEF0EE" stroke="#c8b89a" stroke-width="0.5"/>
  <circle cx="364" cy="42" r="18" fill="#C0392B"/>
  <path d="M358,24 L361,18 L364,16 L367,18 L370,24" fill="none" stroke="#8B0000" stroke-width="1.5"/>
  <line x1="362" y1="22" x2="360" y2="18" stroke="#4A7C3F" stroke-width="1.5"/>
  <line x1="366" y1="22" x2="368" y2="18" stroke="#4A7C3F" stroke-width="1.5"/>
  <circle cx="364" cy="42" r="5" fill="#8B0000" opacity="0.4"/>

  <!-- Row 1: wheat / open / grape / stem / pomegranate / fig -->
  <rect x="1" y="67" width="66" height="66" fill="#FDF6E3" stroke="#c8b89a" stroke-width="0.5"/>
  <line x1="34" y1="126" x2="34" y2="86" stroke="#D4A017" stroke-width="2.5"/>
  <ellipse cx="34" cy="83" rx="5" ry="8" fill="#D4A017"/>
  <ellipse cx="30" cy="92" rx="4" ry="6" fill="#D4A017" transform="rotate(-25,30,92)"/>
  <ellipse cx="38" cy="92" rx="4" ry="6" fill="#D4A017" transform="rotate(25,38,92)"/>

  <rect x="67" y="67" width="66" height="66" fill="#F5EDD0" stroke="#c8b89a" stroke-width="0.5"/>

  <rect x="133" y="67" width="66" height="66" fill="#F7F0F7" stroke="#c8b89a" stroke-width="0.5"/>
  <line x1="166" y1="81" x2="166" y2="94" stroke="#4A7C3F" stroke-width="2"/>
  <circle cx="166" cy="101" r="6" fill="#6B2D6B"/>
  <circle cx="158" cy="112" r="6" fill="#6B2D6B"/>
  <circle cx="174" cy="112" r="6" fill="#6B2D6B"/>
  <circle cx="162" cy="123" r="6" fill="#5a2460"/>
  <circle cx="170" cy="123" r="6" fill="#5a2460"/>

  <rect x="199" y="67" width="66" height="66" fill="#EFF5E8" stroke="#c8b89a" stroke-width="0.5"/>
  <line x1="232" y1="67" x2="232" y2="133" stroke="#4A7C3F" stroke-width="2.5"/>
  <ellipse cx="224" cy="90" rx="7" ry="4" fill="#4A7C3F" transform="rotate(-20,224,90)"/>
  <ellipse cx="240" cy="108" rx="7" ry="4" fill="#4A7C3F" transform="rotate(20,240,108)"/>

  <rect x="265" y="67" width="66" height="66" fill="#FEF0EE" stroke="#c8b89a" stroke-width="0.5"/>
  <circle cx="298" cy="108" r="18" fill="#C0392B"/>
  <path d="M292,90 L295,84 L298,82 L301,84 L304,90" fill="none" stroke="#8B0000" stroke-width="1.5"/>
  <line x1="296" y1="88" x2="294" y2="84" stroke="#4A7C3F" stroke-width="1.5"/>
  <line x1="300" y1="88" x2="302" y2="84" stroke="#4A7C3F" stroke-width="1.5"/>

  <rect x="331" y="67" width="66" height="66" fill="#F9F0F9" stroke="#c8b89a" stroke-width="0.5"/>
  <!-- fig teardrop -->
  <path d="M364,120 Q347,105 354,90 Q360,78 364,76 Q368,78 374,90 Q381,105 364,120 Z" fill="#6B2D6B"/>
  <line x1="364" y1="76" x2="364" y2="69" stroke="#4A7C3F" stroke-width="2"/>
  <ellipse cx="360" cy="72" rx="5" ry="3" fill="#4A7C3F" transform="rotate(-30,360,72)"/>

  <!-- Row 2: barley / stem / open / wheat / fig / olive -->
  <rect x="1" y="133" width="66" height="66" fill="#FDF6E3" stroke="#c8b89a" stroke-width="0.5"/>
  <!-- barley with longer awns -->
  <line x1="34" y1="192" x2="34" y2="152" stroke="#D4A017" stroke-width="2.5"/>
  <ellipse cx="34" cy="149" rx="4" ry="7" fill="#D4A017"/>
  <line x1="34" y1="155" x2="26" y2="148" stroke="#D4A017" stroke-width="1.5"/>
  <line x1="34" y1="155" x2="42" y2="148" stroke="#D4A017" stroke-width="1.5"/>
  <line x1="34" y1="161" x2="25" y2="153" stroke="#D4A017" stroke-width="1.5"/>
  <line x1="34" y1="161" x2="43" y2="153" stroke="#D4A017" stroke-width="1.5"/>
  <line x1="34" y1="167" x2="26" y2="158" stroke="#D4A017" stroke-width="1.5"/>
  <line x1="34" y1="167" x2="42" y2="158" stroke="#D4A017" stroke-width="1.5"/>

  <rect x="67" y="133" width="66" height="66" fill="#EFF5E8" stroke="#c8b89a" stroke-width="0.5"/>
  <line x1="100" y1="133" x2="100" y2="199" stroke="#4A7C3F" stroke-width="2.5"/>
  <ellipse cx="92" cy="156" rx="7" ry="4" fill="#4A7C3F" transform="rotate(-20,92,156)"/>
  <ellipse cx="108" cy="174" rx="7" ry="4" fill="#4A7C3F" transform="rotate(20,108,174)"/>

  <rect x="133" y="133" width="66" height="66" fill="#F5EDD0" stroke="#c8b89a" stroke-width="0.5"/>

  <rect x="199" y="133" width="66" height="66" fill="#FDF6E3" stroke="#c8b89a" stroke-width="0.5"/>
  <line x1="232" y1="192" x2="232" y2="152" stroke="#D4A017" stroke-width="2.5"/>
  <ellipse cx="232" cy="149" rx="5" ry="8" fill="#D4A017"/>
  <ellipse cx="228" cy="158" rx="4" ry="6" fill="#D4A017" transform="rotate(-25,228,158)"/>
  <ellipse cx="236" cy="158" rx="4" ry="6" fill="#D4A017" transform="rotate(25,236,158)"/>

  <rect x="265" y="133" width="66" height="66" fill="#F9F0F9" stroke="#c8b89a" stroke-width="0.5"/>
  <path d="M298,186 Q281,171 288,156 Q294,144 298,142 Q302,144 308,156 Q315,171 298,186 Z" fill="#6B2D6B"/>
  <line x1="298" y1="142" x2="298" y2="135" stroke="#4A7C3F" stroke-width="2"/>
  <ellipse cx="294" cy="138" rx="5" ry="3" fill="#4A7C3F" transform="rotate(-30,294,138)"/>

  <rect x="331" y="133" width="66" height="66" fill="#F2F5E8" stroke="#c8b89a" stroke-width="0.5"/>
  <!-- olive: oval body + branch -->
  <ellipse cx="364" cy="174" rx="8" ry="12" fill="#7D8B3A"/>
  <ellipse cx="358" cy="168" rx="5" ry="8" fill="#6a7830" transform="rotate(-20,358,168)"/>
  <line x1="364" y1="162" x2="364" y2="135" stroke="#4A7C3F" stroke-width="2"/>
  <ellipse cx="357" cy="146" rx="6" ry="3" fill="#4A7C3F" transform="rotate(-25,357,146)"/>
  <ellipse cx="371" cy="153" rx="6" ry="3" fill="#4A7C3F" transform="rotate(25,371,153)"/>

  <!-- Row 3: open / grape / pomegranate / olive / date / open -->
  <rect x="1" y="199" width="66" height="66" fill="#F5EDD0" stroke="#c8b89a" stroke-width="0.5"/>

  <rect x="67" y="199" width="66" height="66" fill="#F7F0F7" stroke="#c8b89a" stroke-width="0.5"/>
  <line x1="100" y1="213" x2="100" y2="226" stroke="#4A7C3F" stroke-width="2"/>
  <circle cx="100" cy="233" r="6" fill="#6B2D6B"/>
  <circle cx="92" cy="244" r="6" fill="#6B2D6B"/>
  <circle cx="108" cy="244" r="6" fill="#6B2D6B"/>
  <circle cx="96" cy="255" r="6" fill="#5a2460"/>
  <circle cx="104" cy="255" r="6" fill="#5a2460"/>

  <rect x="133" y="199" width="66" height="66" fill="#FEF0EE" stroke="#c8b89a" stroke-width="0.5"/>
  <circle cx="166" cy="240" r="18" fill="#C0392B"/>
  <path d="M160,222 L163,216 L166,214 L169,216 L172,222" fill="none" stroke="#8B0000" stroke-width="1.5"/>
  <line x1="164" y1="220" x2="162" y2="216" stroke="#4A7C3F" stroke-width="1.5"/>
  <line x1="168" y1="220" x2="170" y2="216" stroke="#4A7C3F" stroke-width="1.5"/>

  <rect x="199" y="199" width="66" height="66" fill="#F2F5E8" stroke="#c8b89a" stroke-width="0.5"/>
  <ellipse cx="232" cy="240" rx="8" ry="12" fill="#7D8B3A"/>
  <ellipse cx="226" cy="234" rx="5" ry="8" fill="#6a7830" transform="rotate(-20,226,234)"/>
  <line x1="232" y1="228" x2="232" y2="201" stroke="#4A7C3F" stroke-width="2"/>
  <ellipse cx="225" cy="212" rx="6" ry="3" fill="#4A7C3F" transform="rotate(-25,225,212)"/>
  <ellipse cx="239" cy="219" rx="6" ry="3" fill="#4A7C3F" transform="rotate(25,239,219)"/>

  <rect x="265" y="199" width="66" height="66" fill="#F8F0E8" stroke="#c8b89a" stroke-width="0.5"/>
  <!-- date: hanging cluster -->
  <line x1="298" y1="201" x2="298" y2="216" stroke="#4A7C3F" stroke-width="2"/>
  <line x1="298" y1="216" x2="285" y2="226" stroke="#8B5E3C" stroke-width="1.5"/>
  <line x1="298" y1="216" x2="298" y2="228" stroke="#8B5E3C" stroke-width="1.5"/>
  <line x1="298" y1="216" x2="311" y2="226" stroke="#8B5E3C" stroke-width="1.5"/>
  <ellipse cx="283" cy="233" rx="5" ry="8" fill="#8B5E3C"/>
  <ellipse cx="298" cy="235" rx="5" ry="8" fill="#8B5E3C"/>
  <ellipse cx="313" cy="233" rx="5" ry="8" fill="#8B5E3C"/>
  <line x1="298" y1="216" x2="290" y2="248" stroke="#8B5E3C" stroke-width="1.2"/>
  <line x1="298" y1="216" x2="306" y2="248" stroke="#8B5E3C" stroke-width="1.2"/>
  <ellipse cx="289" cy="254" rx="4" ry="7" fill="#7a4e30"/>
  <ellipse cx="307" cy="254" rx="4" ry="7" fill="#7a4e30"/>

  <rect x="331" y="199" width="66" height="66" fill="#F5EDD0" stroke="#c8b89a" stroke-width="0.5"/>

  <!-- Row 4: stem / open / barley / open / stem / wheat -->
  <rect x="1" y="265" width="66" height="66" fill="#EFF5E8" stroke="#c8b89a" stroke-width="0.5"/>
  <line x1="34" y1="265" x2="34" y2="331" stroke="#4A7C3F" stroke-width="2.5"/>
  <ellipse cx="26" cy="288" rx="7" ry="4" fill="#4A7C3F" transform="rotate(-20,26,288)"/>
  <ellipse cx="42" cy="306" rx="7" ry="4" fill="#4A7C3F" transform="rotate(20,42,306)"/>

  <rect x="67" y="265" width="66" height="66" fill="#F5EDD0" stroke="#c8b89a" stroke-width="0.5"/>

  <rect x="133" y="265" width="66" height="66" fill="#FDF6E3" stroke="#c8b89a" stroke-width="0.5"/>
  <line x1="166" y1="324" x2="166" y2="284" stroke="#D4A017" stroke-width="2.5"/>
  <ellipse cx="166" cy="281" rx="4" ry="7" fill="#D4A017"/>
  <line x1="166" y1="287" x2="158" y2="280" stroke="#D4A017" stroke-width="1.5"/>
  <line x1="166" y1="287" x2="174" y2="280" stroke="#D4A017" stroke-width="1.5"/>
  <line x1="166" y1="293" x2="157" y2="285" stroke="#D4A017" stroke-width="1.5"/>
  <line x1="166" y1="293" x2="175" y2="285" stroke="#D4A017" stroke-width="1.5"/>
  <line x1="166" y1="299" x2="158" y2="290" stroke="#D4A017" stroke-width="1.5"/>
  <line x1="166" y1="299" x2="174" y2="290" stroke="#D4A017" stroke-width="1.5"/>

  <rect x="199" y="265" width="66" height="66" fill="#F5EDD0" stroke="#c8b89a" stroke-width="0.5"/>

  <rect x="265" y="265" width="66" height="66" fill="#EFF5E8" stroke="#c8b89a" stroke-width="0.5"/>
  <line x1="298" y1="265" x2="298" y2="331" stroke="#4A7C3F" stroke-width="2.5"/>
  <ellipse cx="290" cy="288" rx="7" ry="4" fill="#4A7C3F" transform="rotate(-20,290,288)"/>
  <ellipse cx="306" cy="306" rx="7" ry="4" fill="#4A7C3F" transform="rotate(20,306,306)"/>

  <rect x="331" y="265" width="66" height="66" fill="#FDF6E3" stroke="#c8b89a" stroke-width="0.5"/>
  <line x1="364" y1="324" x2="364" y2="284" stroke="#D4A017" stroke-width="2.5"/>
  <ellipse cx="364" cy="281" rx="5" ry="8" fill="#D4A017"/>
  <ellipse cx="360" cy="290" rx="4" ry="6" fill="#D4A017" transform="rotate(-25,360,290)"/>
  <ellipse cx="368" cy="290" rx="4" ry="6" fill="#D4A017" transform="rotate(25,368,290)"/>

  <!-- Row 5: ground tiles -->
  <rect x="1" y="331" width="66" height="66" fill="#E8D9B0" stroke="#c8b89a" stroke-width="0.5"/>
  <rect x="67" y="331" width="66" height="66" fill="#EAD8A8" stroke="#c8b89a" stroke-width="0.5"/>
  <rect x="133" y="331" width="66" height="66" fill="#E8D9B0" stroke="#c8b89a" stroke-width="0.5"/>
  <rect x="199" y="331" width="66" height="66" fill="#EAD8A8" stroke="#c8b89a" stroke-width="0.5"/>
  <rect x="265" y="331" width="66" height="66" fill="#E8D9B0" stroke="#c8b89a" stroke-width="0.5"/>
  <rect x="331" y="331" width="66" height="66" fill="#EAD8A8" stroke="#c8b89a" stroke-width="0.5"/>
  <!-- ground texture lines -->
  <line x1="1" y1="345" x2="66" y2="345" stroke="#c8b89a" stroke-width="0.8" opacity="0.6"/>
  <line x1="67" y1="350" x2="132" y2="350" stroke="#c8b89a" stroke-width="0.8" opacity="0.6"/>
  <line x1="133" y1="345" x2="198" y2="345" stroke="#c8b89a" stroke-width="0.8" opacity="0.6"/>
  <line x1="199" y1="350" x2="264" y2="350" stroke="#c8b89a" stroke-width="0.8" opacity="0.6"/>
  <line x1="265" y1="345" x2="330" y2="345" stroke="#c8b89a" stroke-width="0.8" opacity="0.6"/>
  <line x1="331" y1="350" x2="396" y2="350" stroke="#c8b89a" stroke-width="0.8" opacity="0.6"/>

  <!-- Outer border -->
  <rect x="1" y="1" width="397" height="397" fill="none" stroke="#8B6914" stroke-width="2"/>
</svg>
