<svg xmlns="http://www.w3.org/2000/svg" viewBox="0 0 210 210" width="210" height="210">
  <rect width="210" height="210" fill="#03060f"/>

  <!-- 6x6 grid of 35px tiles; center cell (2,2) is void -->
  <!-- Row 0 -->
  <!-- (0,0) NESW=0,1,1,0 interior=#1E4A8E bars:N=#0A1F6E E=#3A7BD5 S=#3A7BD5 W=#0A1F6E -->
  <rect x="0" y="0" width="35" height="35" fill="#1E4A8E"/>
  <rect x="0" y="0" width="35" height="4" fill="#0A1F6E"/>
  <rect x="31" y="0" width="4" height="35" fill="#3A7BD5"/>
  <rect x="0" y="31" width="35" height="4" fill="#3A7BD5"/>
  <rect x="0" y="0" width="4" height="35" fill="#0A1F6E"/>
  <polyline points="17.5,10.5 24.5,17.5 17.5,24.5 10.5,17.5 17.5,10.5" fill="none" stroke="#5AA0F0" stroke-width="1.2"/>
  <rect x="0.5" y="0.5" width="34" height="34" fill="none" stroke="#04060e" stroke-width="1"/>

  <!-- (1,0) NESW=2,3,0,1 -->
  <rect x="35" y="0" width="35" height="35" fill="#697CA0"/>
  <rect x="35" y="0" width="35" height="4" fill="#C8E6FA"/>
  <rect x="66" y="0" width="4" height="35" fill="#D4A820"/>
  <rect x="35" y="31" width="35" height="4" fill="#0A1F6E"/>
  <rect x="35" y="0" width="4" height="35" fill="#3A7BD5"/>
  <line x1="42.5" y1="17.5" x2="62.5" y2="17.5" stroke="#F0C840" stroke-width="1.2"/>
  <line x1="52.5" y1="7.5" x2="52.5" y2="27.5" stroke="#F0C840" stroke-width="1.2"/>
  <rect x="35.5" y="0.5" width="34" height="34" fill="none" stroke="#04060e" stroke-width="1"/>

  <!-- (2,0) NESW=1,2,2,1 -->
  <rect x="70" y="0" width="35" height="35" fill="#5A8EC8"/>
  <rect x="70" y="0" width="35" height="4" fill="#3A7BD5"/>
  <rect x="101" y="0" width="4" height="35" fill="#C8E6FA"/>
  <rect x="70" y="31" width="35" height="4" fill="#C8E6FA"/>
  <rect x="70" y="0" width="4" height="35" fill="#3A7BD5"/>
  <circle cx="87.5" cy="17.5" r="4.5" fill="none" stroke="#E8F8FF" stroke-width="1.2"/>
  <rect x="70.5" y="0.5" width="34" height="34" fill="none" stroke="#04060e" stroke-width="1"/>

  <!-- (3,0) NESW=0,0,0,0 -->
  <rect x="105" y="0" width="35" height="35" fill="#0A1F6E"/>
  <rect x="105" y="0" width="35" height="4" fill="#0A1F6E"/>
  <rect x="136" y="0" width="4" height="35" fill="#0A1F6E"/>
  <rect x="105" y="31" width="35" height="4" fill="#0A1F6E"/>
  <rect x="105" y="0" width="4" height="35" fill="#0A1F6E"/>
  <polyline points="122.5,10.5 129.5,17.5 122.5,24.5 115.5,17.5 122.5,10.5" fill="none" stroke="#1A3FA0" stroke-width="1.2"/>
  <rect x="105.5" y="0.5" width="34" height="34" fill="none" stroke="#04060e" stroke-width="1"/>

  <!-- (4,0) NESW=3,0,1,2 -->
  <rect x="140" y="0" width="35" height="35" fill="#697CA0"/>
  <rect x="140" y="0" width="35" height="4" fill="#D4A820"/>
  <rect x="171" y="0" width="4" height="35" fill="#0A1F6E"/>
  <rect x="140" y="31" width="35" height="4" fill="#3A7BD5"/>
  <rect x="140" y="0" width="4" height="35" fill="#C8E6FA"/>
  <line x1="147.5" y1="17.5" x2="167.5" y2="17.5" stroke="#1A3FA0" stroke-width="1.2"/>
  <line x1="157.5" y1="7.5" x2="157.5" y2="27.5" stroke="#1A3FA0" stroke-width="1.2"/>
  <rect x="140.5" y="0.5" width="34" height="34" fill="none" stroke="#04060e" stroke-width="1"/>

  <!-- (5,0) NESW=1,1,1,1 -->
  <rect x="175" y="0" width="35" height="35" fill="#3A7BD5"/>
  <rect x="175" y="0" width="35" height="4" fill="#3A7BD5"/>
  <rect x="206" y="0" width="4" height="35" fill="#3A7BD5"/>
  <rect x="175" y="31" width="35" height="4" fill="#3A7BD5"/>
  <rect x="175" y="0" width="4" height="35" fill="#3A7BD5"/>
  <circle cx="192.5" cy="17.5" r="4.5" fill="none" stroke="#5AA0F0" stroke-width="1.2"/>
  <rect x="175.5" y="0.5" width="34" height="34" fill="none" stroke="#04060e" stroke-width="1"/>

  <!-- Row 1 -->
  <!-- (0,1) NESW=1,2,2,1 -->
  <rect x="0" y="35" width="35" height="35" fill="#5A8EC8"/>
  <rect x="0" y="35" width="35" height="4" fill="#3A7BD5"/>
  <rect x="31" y="35" width="4" height="35" fill="#C8E6FA"/>
  <rect x="0" y="66" width="35" height="4" fill="#C8E6FA"/>
  <rect x="0" y="35" width="4" height="35" fill="#3A7BD5"/>
  <circle cx="17.5" cy="52.5" r="4.5" fill="none" stroke="#E8F8FF" stroke-width="1.2"/>
  <rect x="0.5" y="35.5" width="34" height="34" fill="none" stroke="#04060e" stroke-width="1"/>

  <!-- (1,1) NESW=0,1,2,3 -->
  <rect x="35" y="35" width="35" height="35" fill="#607090"/>
  <rect x="35" y="35" width="35" height="4" fill="#0A1F6E"/>
  <rect x="66" y="35" width="4" height="35" fill="#3A7BD5"/>
  <rect x="35" y="66" width="35" height="4" fill="#C8E6FA"/>
  <rect x="35" y="35" width="4" height="35" fill="#D4A820"/>
  <polyline points="52.5,45.5 59.5,52.5 52.5,59.5 45.5,52.5 52.5,45.5" fill="none" stroke="#F0C840" stroke-width="1.2"/>
  <rect x="35.5" y="35.5" width="34" height="34" fill="none" stroke="#04060e" stroke-width="1"/>

  <!-- (2,1) — void -->
  <rect x="70" y="35" width="35" height="35" fill="#060810"/>
  <rect x="70.5" y="35.5" width="34" height="34" fill="none" stroke="#1a2e6e" stroke-width="1"/>

  <!-- (3,1) — void -->
  <rect x="105" y="35" width="35" height="35" fill="#060810"/>
  <rect x="105.5" y="35.5" width="34" height="34" fill="none" stroke="#1a2e6e" stroke-width="1"/>

  <!-- (4,1) NESW=2,3,3,2 -->
  <rect x="140" y="35" width="35" height="35" fill="#90A8C0"/>
  <rect x="140" y="35" width="35" height="4" fill="#C8E6FA"/>
  <rect x="171" y="35" width="4" height="35" fill="#D4A820"/>
  <rect x="140" y="66" width="35" height="4" fill="#D4A820"/>
  <rect x="140" y="35" width="4" height="35" fill="#C8E6FA"/>
  <line x1="147.5" y1="52.5" x2="167.5" y2="52.5" stroke="#E8F8FF" stroke-width="1.2"/>
  <line x1="157.5" y1="42.5" x2="157.5" y2="62.5" stroke="#E8F8FF" stroke-width="1.2"/>
  <rect x="140.5" y="35.5" width="34" height="34" fill="none" stroke="#04060e" stroke-width="1"/>

  <!-- (5,1) NESW=1,0,0,3 -->
  <rect x="175" y="35" width="35" height="35" fill="#516090"/>
  <rect x="175" y="35" width="35" height="4" fill="#3A7BD5"/>
  <rect x="206" y="35" width="4" height="35" fill="#0A1F6E"/>
  <rect x="175" y="66" width="35" height="4" fill="#0A1F6E"/>
  <rect x="175" y="35" width="4" height="35" fill="#D4A820"/>
  <polyline points="192.5,45.5 199.5,52.5 192.5,59.5 185.5,52.5 192.5,45.5" fill="none" stroke="#5AA0F0" stroke-width="1.2"/>
  <rect x="175.5" y="35.5" width="34" height="34" fill="none" stroke="#04060e" stroke-width="1"/>

  <!-- Row 2 -->
  <!-- (0,2) NESW=2,3,0,1 -->
  <rect x="0" y="70" width="35" height="35" fill="#697CA0"/>
  <rect x="0" y="70" width="35" height="4" fill="#C8E6FA"/>
  <rect x="31" y="70" width="4" height="35" fill="#D4A820"/>
  <rect x="0" y="101" width="35" height="4" fill="#0A1F6E"/>
  <rect x="0" y="70" width="4" height="35" fill="#3A7BD5"/>
  <line x1="7.5" y1="87.5" x2="27.5" y2="87.5" stroke="#F0C840" stroke-width="1.2"/>
  <line x1="17.5" y1="77.5" x2="17.5" y2="97.5" stroke="#F0C840" stroke-width="1.2"/>
  <rect x="0.5" y="70.5" width="34" height="34" fill="none" stroke="#04060e" stroke-width="1"/>

  <!-- (1,2) — void -->
  <rect x="35" y="70" width="35" height="35" fill="#060810"/>
  <rect x="35.5" y="70.5" width="34" height="34" fill="none" stroke="#1a2e6e" stroke-width="1"/>

  <!-- (2,2) CENTER VOID — label here -->
  <rect x="70" y="70" width="35" height="35" fill="#060810"/>
  <rect x="70.5" y="70.5" width="34" height="34" fill="none" stroke="#1a2e6e" stroke-width="1"/>
  <text x="87.5" y="92" font-family="Georgia, serif" font-size="7.5" fill="#D4A820" text-anchor="middle" direction="rtl">תַּחַת</text>
  <text x="87.5" y="101" font-family="Georgia, serif" font-size="7.5" fill="#D4A820" text-anchor="middle" direction="rtl">רַגְלָיו</text>

  <!-- (3,2) — void -->
  <rect x="105" y="70" width="35" height="35" fill="#060810"/>
  <rect x="105.5" y="70.5" width="34" height="34" fill="none" stroke="#1a2e6e" stroke-width="1"/>

  <!-- (4,2) NESW=3,0,1,2 -->
  <rect x="140" y="70" width="35" height="35" fill="#697CA0"/>
  <rect x="140" y="70" width="35" height="4" fill="#D4A820"/>
  <rect x="171" y="70" width="4" height="35" fill="#0A1F6E"/>
  <rect x="140" y="101" width="35" height="4" fill="#3A7BD5"/>
  <rect x="140" y="70" width="4" height="35" fill="#C8E6FA"/>
  <circle cx="157.5" cy="87.5" r="4.5" fill="none" stroke="#F0C840" stroke-width="1.2"/>
  <rect x="140.5" y="70.5" width="34" height="34" fill="none" stroke="#04060e" stroke-width="1"/>

  <!-- (5,2) NESW=0,2,1,3 -->
  <rect x="175" y="70" width="35" height="35" fill="#7090B0"/>
  <rect x="175" y="70" width="35" height="4" fill="#0A1F6E"/>
  <rect x="206" y="70" width="4" height="35" fill="#C8E6FA"/>
  <rect x="175" y="101" width="35" height="4" fill="#3A7BD5"/>
  <rect x="175" y="70" width="4" height="35" fill="#D4A820"/>
  <polyline points="192.5,80.5 199.5,87.5 192.5,94.5 185.5,87.5 192.5,80.5" fill="none" stroke="#E8F8FF" stroke-width="1.2"/>
  <rect x="175.5" y="70.5" width="34" height="34" fill="none" stroke="#04060e" stroke-width="1"/>

  <!-- Row 3 -->
  <!-- (0,3) NESW=0,1,1,0 -->
  <rect x="0" y="105" width="35" height="35" fill="#1E4A8E"/>
  <rect x="0" y="105" width="35" height="4" fill="#0A1F6E"/>
  <rect x="31" y="105" width="4" height="35" fill="#3A7BD5"/>
  <rect x="0" y="136" width="35" height="4" fill="#3A7BD5"/>
  <rect x="0" y="105" width="4" height="35" fill="#0A1F6E"/>
  <circle cx="17.5" cy="122.5" r="4.5" fill="none" stroke="#5AA0F0" stroke-width="1.2"/>
  <rect x="0.5" y="105.5" width="34" height="34" fill="none" stroke="#04060e" stroke-width="1"/>

  <!-- (1,3) — void -->
  <rect x="35" y="105" width="35" height="35" fill="#060810"/>
  <rect x="35.5" y="105.5" width="34" height="34" fill="none" stroke="#1a2e6e" stroke-width="1"/>

  <!-- (2,3) — void -->
  <rect x="70" y="105" width="35" height="35" fill="#060810"/>
  <rect x="70.5" y="105.5" width="34" height="34" fill="none" stroke="#1a2e6e" stroke-width="1"/>

  <!-- (3,3) — void -->
  <rect x="105" y="105" width="35" height="35" fill="#060810"/>
  <rect x="105.5" y="105.5" width="34" height="34" fill="none" stroke="#1a2e6e" stroke-width="1"/>

  <!-- (4,3) NESW=1,2,2,1 -->
  <rect x="140" y="105" width="35" height="35" fill="#5A8EC8"/>
  <rect x="140" y="105" width="35" height="4" fill="#3A7BD5"/>
  <rect x="171" y="105" width="4" height="35" fill="#C8E6FA"/>
  <rect x="140" y="136" width="35" height="4" fill="#C8E6FA"/>
  <rect x="140" y="105" width="4" height="35" fill="#3A7BD5"/>
  <line x1="147.5" y1="122.5" x2="167.5" y2="122.5" stroke="#E8F8FF" stroke-width="1.2"/>
  <line x1="157.5" y1="112.5" x2="157.5" y2="132.5" stroke="#E8F8FF" stroke-width="1.2"/>
  <rect x="140.5" y="105.5" width="34" height="34" fill="none" stroke="#04060e" stroke-width="1"/>

  <!-- (5,3) NESW=1,3,2,0 -->
  <rect x="175" y="105" width="35" height="35" fill="#708090"/>
  <rect x="175" y="105" width="35" height="4" fill="#3A7BD5"/>
  <rect x="206" y="105" width="4" height="35" fill="#D4A820"/>
  <rect x="175" y="136" width="35" height="4" fill="#C8E6FA"/>
  <rect x="175" y="105" width="4" height="35" fill="#0A1F6E"/>
  <circle cx="192.5" cy="122.5" r="4.5" fill="none" stroke="#F0C840" stroke-width="1.2"/>
  <rect x="175.5" y="105.5" width="34" height="34" fill="none" stroke="#04060e" stroke-width="1"/>

  <!-- Row 4 -->
  <!-- (0,4) NESW=1,2,2,1 -->
  <rect x="0" y="140" width="35" height="35" fill="#5A8EC8"/>
  <rect x="0" y="140" width="35" height="4" fill="#3A7BD5"/>
  <rect x="31" y="140" width="4" height="35" fill="#C8E6FA"/>
  <rect x="0" y="171" width="35" height="4" fill="#C8E6FA"/>
  <rect x="0" y="140" width="4" height="35" fill="#3A7BD5"/>
  <polyline points="17.5,150.5 24.5,157.5 17.5,164.5 10.5,157.5 17.5,150.5" fill="none" stroke="#E8F8FF" stroke-width="1.2"/>
  <rect x="0.5" y="140.5" width="34" height="34" fill="none" stroke="#04060e" stroke-width="1"/>

  <!-- (1,4) NESW=2,0,3,1 -->
  <rect x="35" y="140" width="35" height="35" fill="#788090"/>
  <rect x="35" y="140" width="35" height="4" fill="#C8E6FA"/>
  <rect x="66" y="140" width="4" height="35" fill="#0A1F6E"/>
  <rect x="35" y="171" width="35" height="4" fill="#D4A820"/>
  <rect x="35" y="140" width="4" height="35" fill="#3A7BD5"/>
  <circle cx="52.5" cy="157.5" r="4.5" fill="none" stroke="#E8F8FF" stroke-width="1.2"/>
  <rect x="35.5" y="140.5" width="34" height="34" fill="none" stroke="#04060e" stroke-width="1"/>

  <!-- (2,4) NESW=0,2,1,3 -->
  <rect x="70" y="140" width="35" height="35" fill="#7090B0"/>
  <rect x="70" y="140" width="35" height="4" fill="#0A1F6E"/>
  <rect x="101" y="140" width="4" height="35" fill="#C8E6FA"/>
  <rect x="70" y="171" width="35" height="4" fill="#3A7BD5"/>
  <rect x="70" y="140" width="4" height="35" fill="#D4A820"/>
  <line x1="77.5" y1="157.5" x2="97.5" y2="157.5" stroke="#E8F8FF" stroke-width="1.2"/>
  <line x1="87.5" y1="147.5" x2="87.5" y2="167.5" stroke="#E8F8FF" stroke-width="1.2"/>
  <rect x="70.5" y="140.5" width="34" height="34" fill="none" stroke="#04060e" stroke-width="1"/>

  <!-- (3,4) NESW=3,1,0,2 -->
  <rect x="105" y="140" width="35" height="35" fill="#607890"/>
  <rect x="105" y="140" width="35" height="4" fill="#D4A820"/>
  <rect x="136" y="140" width="4" height="35" fill="#3A7BD5"/>
  <rect x="105" y="171" width="35" height="4" fill="#0A1F6E"/>
  <rect x="105" y="140" width="4" height="35" fill="#C8E6FA"/>
  <polyline points="122.5,150.5 129.5,157.5 122.5,164.5 115.5,157.5 122.5,150.5" fill="none" stroke="#F0C840" stroke-width="1.2"/>
  <rect x="105.5" y="140.5" width="34" height="34" fill="none" stroke="#04060e" stroke-width="1"/>

  <!-- (4,4) NESW=2,2,2,2 -->
  <rect x="140" y="140" width="35" height="35" fill="#C8E6FA"/>
  <rect x="140" y="140" width="35" height="4" fill="#C8E6FA"/>
  <rect x="171" y="140" width="4" height="35" fill="#C8E6FA"/>
  <rect x="140" y="171" width="35" height="4" fill="#C8E6FA"/>
  <rect x="140" y="140" width="4" height="35" fill="#C8E6FA"/>
  <circle cx="157.5" cy="157.5" r="4.5" fill="none" stroke="#E8F8FF" stroke-width="1.2"/>
  <rect x="140.5" y="140.5" width="34" height="34" fill="none" stroke="#04060e" stroke-width="1"/>

  <!-- (5,4) NESW=2,0,0,3 -->
  <rect x="175" y="140" width="35" height="35" fill="#698090"/>
  <rect x="175" y="140" width="35" height="4" fill="#C8E6FA"/>
  <rect x="206" y="140" width="4" height="35" fill="#0A1F6E"/>
  <rect x="175" y="171" width="35" height="4" fill="#0A1F6E"/>
  <rect x="175" y="140" width="4" height="35" fill="#D4A820"/>
  <line x1="182.5" y1="157.5" x2="202.5" y2="157.5" stroke="#E8F8FF" stroke-width="1.2"/>
  <line x1="192.5" y1="147.5" x2="192.5" y2="167.5" stroke="#E8F8FF" stroke-width="1.2"/>
  <rect x="175.5" y="140.5" width="34" height="34" fill="none" stroke="#04060e" stroke-width="1"/>

  <!-- Row 5 -->
  <!-- (0,5) NESW=2,3,3,2 -->
  <rect x="0" y="175" width="35" height="35" fill="#90A8C0"/>
  <rect x="0" y="175" width="35" height="4" fill="#C8E6FA"/>
  <rect x="31" y="175" width="4" height="35" fill="#D4A820"/>
  <rect x="0" y="206" width="35" height="4" fill="#D4A820"/>
  <rect x="0" y="175" width="4" height="35" fill="#C8E6FA"/>
  <line x1="7.5" y1="192.5" x2="27.5" y2="192.5" stroke="#E8F8FF" stroke-width="1.2"/>
  <line x1="17.5" y1="182.5" x2="17.5" y2="202.5" stroke="#E8F8FF" stroke-width="1.2"/>
  <rect x="0.5" y="175.5" width="34" height="34" fill="none" stroke="#04060e" stroke-width="1"/>

  <!-- (1,5) NESW=3,0,0,3 -->
  <rect x="35" y="175" width="35" height="35" fill="#8080A0"/>
  <rect x="35" y="175" width="35" height="4" fill="#D4A820"/>
  <rect x="66" y="175" width="4" height="35" fill="#0A1F6E"/>
  <rect x="35" y="206" width="35" height="4" fill="#0A1F6E"/>
  <rect x="35" y="175" width="4" height="35" fill="#D4A820"/>
  <polyline points="52.5,185.5 59.5,192.5 52.5,199.5 45.5,192.5 52.5,185.5" fill="none" stroke="#F0C840" stroke-width="1.2"/>
  <rect x="35.5" y="175.5" width="34" height="34" fill="none" stroke="#04060e" stroke-width="1"/>

  <!-- (2,5) NESW=1,2,3,0 -->
  <rect x="70" y="175" width="35" height="35" fill="#607890"/>
  <rect x="70" y="175" width="35" height="4" fill="#3A7BD5"/>
  <rect x="101" y="175" width="4" height="35" fill="#C8E6FA"/>
  <rect x="70" y="206" width="35" height="4" fill="#D4A820"/>
  <rect x="70" y="175" width="4" height="35" fill="#0A1F6E"/>
  <circle cx="87.5" cy="192.5" r="4.5" fill="none" stroke="#5AA0F0" stroke-width="1.2"/>
  <rect x="70.5" y="175.5" width="34" height="34" fill="none" stroke="#04060e" stroke-width="1"/>

  <!-- (3,5) NESW=0,1,2,3 -->
  <rect x="105" y="175" width="35" height="35" fill="#607090"/>
  <rect x="105" y="175" width="35" height="4" fill="#0A1F6E"/>
  <rect x="136" y="175" width="4" height="35" fill="#3A7BD5"/>
  <rect x="105" y="206" width="35" height="4" fill="#C8E6FA"/>
  <rect x="105" y="175" width="4" height="35" fill="#D4A820"/>
  <line x1="112.5" y1="192.5" x2="132.5" y2="192.5" stroke="#F0C840" stroke-width="1.2"/>
  <line x1="122.5" y1="182.5" x2="122.5" y2="202.5" stroke="#F0C840" stroke-width="1.2"/>
  <rect x="105.5" y="175.5" width="34" height="34" fill="none" stroke="#04060e" stroke-width="1"/>

  <!-- (4,5) NESW=2,3,0,1 -->
  <rect x="140" y="175" width="35" height="35" fill="#697CA0"/>
  <rect x="140" y="175" width="35" height="4" fill="#C8E6FA"/>
  <rect x="171" y="175" width="4" height="35" fill="#D4A820"/>
  <rect x="140" y="206" width="35" height="4" fill="#0A1F6E"/>
  <rect x="140" y="175" width="4" height="35" fill="#3A7BD5"/>
  <polyline points="157.5,185.5 164.5,192.5 157.5,199.5 150.5,192.5 157.5,185.5" fill="none" stroke="#F0C840" stroke-width="1.2"/>
  <rect x="140.5" y="175.5" width="34" height="34" fill="none" stroke="#04060e" stroke-width="1"/>

  <!-- (5,5) NESW=3,3,3,3 -->
  <rect x="175" y="175" width="35" height="35" fill="#D4A820"/>
  <rect x="175" y="175" width="35" height="4" fill="#D4A820"/>
  <rect x="206" y="175" width="4" height="35" fill="#D4A820"/>
  <rect x="175" y="206" width="35" height="4" fill="#D4A820"/>
  <rect x="175" y="175" width="4" height="35" fill="#D4A820"/>
  <circle cx="192.5" cy="192.5" r="4.5" fill="none" stroke="#F0C840" stroke-width="1.2"/>
  <rect x="175.5" y="175.5" width="34" height="34" fill="none" stroke="#04060e" stroke-width="1"/>
</svg>
